0, 0, Header, 1, 2, 256
1, 0, Start_track
1, 0, Time_signature, 4, 2, 24, 8
1, 0, Key_signature, 0, "major"
1, 0, Tempo, 800000
1, 1024, Time_signature, 2, 2, 24, 8
1, 2048, Time_signature, 4, 2, 24, 8
1, 4096, Time_signature, 2, 2, 24, 8
1, 5120, Time_signature, 4, 2, 24, 8
1, 7168, Time_signature, 2, 2, 24, 8
1, 8192, Time_signature, 4, 2, 24, 8
1, 18432, Time_signature, 2, 2, 24, 8
1, 19456, Time_signature, 17, 4, 6, 8
1, 19457, End_track
2, 0, Start_track
2, 0, Program_c, 0, 0
2, 0, Control_c, 0, 121, 0
2, 0, Control_c, 0, 64, 0
2, 0, Control_c, 0, 91, 48
2, 0, Control_c, 0, 10, 51
2, 0, Control_c, 0, 7, 100
2, 0, Control_c, 0, 121, 0
2, 0, Control_c, 0, 64, 0
2, 0, Control_c, 0, 91, 48
2, 0, Control_c, 0, 10, 51
2, 0, Control_c, 0, 7, 100
2, 0, Title_t, "Piano"
2, 0, Note_on_c, 0, 58, 65
2, 32, Note_on_c, 0, 65, 68
2, 64, Note_off_c, 0, 65, 0
2, 64, Note_on_c, 0, 74, 93
2, 96, Note_off_c, 0, 74, 0
2, 96, Note_on_c, 0, 65, 63
2, 128, Note_off_c, 0, 65, 0
2, 128, Note_off_c, 0, 58, 0
2, 128, Note_on_c, 0, 57, 75
2, 160, Note_on_c, 0, 65, 69
2, 192, Note_off_c, 0, 65, 0
2, 192, Note_on_c, 0, 72, 92
2, 224, Note_off_c, 0, 72, 0
2, 224, Note_on_c, 0, 65, 64
2, 256, Note_off_c, 0, 65, 0
2, 256, Note_off_c, 0, 57, 0
2, 256, Note_on_c, 0, 58, 82
2, 288, Note_on_c, 0, 65, 70
2, 320, Note_off_c, 0, 65, 0
2, 320, Note_on_c, 0, 74, 93
2, 352, Note_off_c, 0, 74, 0
2, 352, Note_on_c, 0, 65, 64
2, 384, Note_off_c, 0, 65, 0
2, 384, Note_off_c, 0, 58, 0
2, 384, Note_on_c, 0, 53, 73
2, 416, Note_on_c, 0, 69, 68
2, 448, Note_off_c, 0, 69, 0
2, 448, Note_on_c, 0, 77, 87
2, 480, Note_off_c, 0, 77, 0
2, 480, Note_on_c, 0, 69, 65
2, 512, Note_off_c, 0, 69, 0
2, 512, Note_off_c, 0, 53, 0
2, 512, Note_on_c, 0, 55, 81
2, 544, Note_on_c, 0, 62, 63
2, 576, Note_off_c, 0, 62, 0
2, 576, Note_on_c, 0, 70, 91
2, 608, Note_off_c, 0, 70, 0
2, 608, Note_on_c, 0, 62, 67
2, 640, Note_off_c, 0, 62, 0
2, 640, Note_off_c, 0, 55, 0
2, 640, Note_on_c, 0, 53, 73
2, 672, Note_on_c, 0, 62, 67
2, 704, Note_off_c, 0, 62, 0
2, 704, Note_on_c, 0, 69, 89
2, 736, Note_off_c, 0, 69, 0
2, 736, Note_on_c, 0, 62, 65
2, 768, Note_off_c, 0, 62, 0
2, 768, Note_off_c, 0, 53, 0
2, 768, Note_on_c, 0, 55, 79
2, 800, Note_on_c, 0, 62, 68
2, 832, Note_off_c, 0, 62, 0
2, 832, Note_on_c, 0, 70, 91
2, 864, Note_off_c, 0, 70, 0
2, 864, Note_on_c, 0, 62, 64
2, 896, Note_off_c, 0, 62, 0
2, 896, Note_off_c, 0, 55, 0
2, 896, Note_on_c, 0, 50, 69
2, 928, Note_on_c, 0, 65, 71
2, 960, Note_off_c, 0, 65, 0
2, 960, Note_on_c, 0, 74, 90
2, 992, Note_off_c, 0, 74, 0
2, 992, Note_on_c, 0, 65, 62
2, 1024, Note_off_c, 0, 65, 0
2, 1024, Note_off_c, 0, 50, 0
2, 1024, Note_on_c, 0, 51, 78
2, 1056, Note_on_c, 0, 58, 68
2, 1088, Note_off_c, 0, 58, 0
2, 1088, Note_on_c, 0, 67, 90
2, 1120, Note_off_c, 0, 67, 0
2, 1120, Note_on_c, 0, 58, 72
2, 1152, Note_off_c, 0, 58, 0
2, 1152, Note_off_c, 0, 51, 0
2, 1152, Note_on_c, 0, 50, 74
2, 1184, Note_on_c, 0, 58, 67
2, 1216, Note_off_c, 0, 58, 0
2, 1216, Note_on_c, 0, 65, 85
2, 1248, Note_off_c, 0, 65, 0
2, 1248, Note_on_c, 0, 58, 73
2, 1280, Note_off_c, 0, 58, 0
2, 1280, Note_off_c, 0, 50, 0
2, 1280, Note_on_c, 0, 51, 77
2, 1312, Note_on_c, 0, 58, 69
2, 1344, Note_off_c, 0, 58, 0
2, 1344, Note_on_c, 0, 67, 92
2, 1376, Note_off_c, 0, 67, 0
2, 1376, Note_on_c, 0, 58, 70
2, 1408, Note_off_c, 0, 58, 0
2, 1408, Note_off_c, 0, 51, 0
2, 1408, Note_on_c, 0, 46, 74
2, 1440, Note_on_c, 0, 62, 68
2, 1472, Note_off_c, 0, 62, 0
2, 1472, Note_on_c, 0, 70, 89
2, 1504, Note_off_c, 0, 70, 0
2, 1504, Note_on_c, 0, 62, 66
2, 1536, Note_off_c, 0, 62, 0
2, 1536, Note_off_c, 0, 46, 0
2, 1536, Note_on_c, 0, 48, 83
2, 1568, Note_on_c, 0, 62, 69
2, 1600, Note_off_c, 0, 62, 0
2, 1600, Note_on_c, 0, 63, 77
2, 1632, Note_off_c, 0, 63, 0
2, 1632, Note_on_c, 0, 62, 72
2, 1664, Note_off_c, 0, 62, 0
2, 1664, Note_off_c, 0, 48, 0
2, 1664, Note_on_c, 0, 46, 77
2, 1696, Note_on_c, 0, 62, 65
2, 1728, Note_off_c, 0, 62, 0
2, 1728, Note_on_c, 0, 67, 83
2, 1760, Note_off_c, 0, 67, 0
2, 1760, Note_on_c, 0, 62, 65
2, 1792, Note_off_c, 0, 62, 0
2, 1792, Note_off_c, 0, 46, 0
2, 1792, Note_on_c, 0, 45, 78
2, 1824, Note_on_c, 0, 60, 67
2, 1856, Note_off_c, 0, 60, 0
2, 1856, Note_on_c, 0, 65, 87
2, 1888, Note_off_c, 0, 65, 0
2, 1888, Note_on_c, 0, 60, 66
2, 1920, Note_off_c, 0, 60, 0
2, 1920, Note_off_c, 0, 45, 0
2, 1920, Note_on_c, 0, 41, 75
2, 1952, Note_on_c, 0, 57, 69
2, 1984, Note_off_c, 0, 57, 0
2, 1984, Note_on_c, 0, 63, 91
2, 2016, Note_off_c, 0, 63, 0
2, 2016, Note_on_c, 0, 57, 72
2, 2048, Note_off_c, 0, 57, 0
2, 2048, Note_off_c, 0, 41, 0
2, 2048, Note_on_c, 0, 58, 85
2, 2080, Note_on_c, 0, 62, 68
2, 2112, Note_off_c, 0, 62, 0
2, 2112, Note_on_c, 0, 65, 76
2, 2144, Note_off_c, 0, 65, 0
2, 2144, Note_on_c, 0, 62, 70
2, 2176, Note_off_c, 0, 62, 0
2, 2176, Note_off_c, 0, 58, 0
2, 2176, Note_on_c, 0, 53, 75
2, 2208, Note_on_c, 0, 58, 69
2, 2240, Note_off_c, 0, 58, 0
2, 2240, Note_on_c, 0, 62, 85
2, 2272, Note_off_c, 0, 62, 0
2, 2272, Note_on_c, 0, 58, 77
2, 2304, Note_off_c, 0, 58, 0
2, 2304, Note_off_c, 0, 53, 0
2, 2304, Note_on_c, 0, 50, 71
2, 2336, Note_on_c, 0, 53, 68
2, 2368, Note_off_c, 0, 53, 0
2, 2368, Note_on_c, 0, 58, 82
2, 2400, Note_off_c, 0, 58, 0
2, 2400, Note_on_c, 0, 53, 75
2, 2432, Note_off_c, 0, 50, 0
2, 2432, Note_off_c, 0, 53, 0
2, 2432, Note_on_c, 0, 46, 67
2, 2464, Note_on_c, 0, 50, 72
2, 2496, Note_off_c, 0, 50, 0
2, 2496, Note_on_c, 0, 53, 78
2, 2528, Note_off_c, 0, 53, 0
2, 2528, Note_on_c, 0, 50, 74
2, 2560, Note_off_c, 0, 46, 0
2, 2560, Note_off_c, 0, 50, 0
2, 2560, Note_on_c, 0, 43, 70
2, 2592, Note_off_c, 0, 43, 0
2, 2592, Note_on_c, 0, 50, 82
2, 2624, Note_off_c, 0, 50, 0
2, 2624, Note_on_c, 0, 52, 79
2, 2656, Note_off_c, 0, 52, 0
2, 2656, Note_on_c, 0, 54, 76
2, 2688, Note_off_c, 0, 54, 0
2, 2688, Note_on_c, 0, 55, 76
2, 2720, Note_off_c, 0, 55, 0
2, 2720, Note_on_c, 0, 57, 79
2, 2752, Note_off_c, 0, 57, 0
2, 2752, Note_on_c, 0, 58, 79
2, 2784, Note_off_c, 0, 58, 0
2, 2784, Note_on_c, 0, 60, 80
2, 2816, Note_off_c, 0, 60, 0
2, 2816, Note_on_c, 0, 58, 76
2, 2848, Note_off_c, 0, 58, 0
2, 2848, Note_on_c, 0, 55, 77
2, 2880, Note_off_c, 0, 55, 0
2, 2880, Note_on_c, 0, 57, 75
2, 2912, Note_off_c, 0, 57, 0
2, 2912, Note_on_c, 0, 58, 76
2, 2944, Note_off_c, 0, 58, 0
2, 2944, Note_on_c, 0, 60, 87
2, 2976, Note_on_c, 0, 62, 87
2, 2976, Note_off_c, 0, 60, 0
2, 3008, Note_off_c, 0, 62, 0
2, 3008, Note_on_c, 0, 64, 83
2, 3040, Note_off_c, 0, 64, 0
2, 3040, Note_on_c, 0, 65, 84
2, 3072, Note_off_c, 0, 65, 0
2, 3072, Note_on_c, 0, 60, 96
2, 3104, Note_on_c, 0, 64, 71
2, 3136, Note_off_c, 0, 64, 0
2, 3136, Note_on_c, 0, 67, 83
2, 3168, Note_off_c, 0, 67, 0
2, 3168, Note_on_c, 0, 64, 69
2, 3200, Note_off_c, 0, 64, 0
2, 3200, Note_off_c, 0, 60, 0
2, 3200, Note_on_c, 0, 55, 73
2, 3232, Note_on_c, 0, 60, 69
2, 3264, Note_off_c, 0, 60, 0
2, 3264, Note_on_c, 0, 64, 85
2, 3296, Note_off_c, 0, 64, 0
2, 3296, Note_on_c, 0, 60, 69
2, 3328, Note_off_c, 0, 60, 0
2, 3328, Note_off_c, 0, 55, 0
2, 3328, Note_on_c, 0, 52, 71
2, 3360, Note_on_c, 0, 55, 68
2, 3392, Note_off_c, 0, 55, 0
2, 3392, Note_on_c, 0, 60, 86
2, 3424, Note_off_c, 0, 60, 0
2, 3424, Note_on_c, 0, 55, 73
2, 3456, Note_off_c, 0, 52, 0
2, 3456, Note_off_c, 0, 55, 0
2, 3456, Note_on_c, 0, 48, 72
2, 3488, Note_on_c, 0, 52, 69
2, 3520, Note_off_c, 0, 52, 0
2, 3520, Note_on_c, 0, 55, 75
2, 3552, Note_off_c, 0, 55, 0
2, 3552, Note_on_c, 0, 52, 74
2, 3584, Note_off_c, 0, 48, 0
2, 3584, Note_off_c, 0, 52, 0
2, 3584, Note_on_c, 0, 45, 65
2, 3616, Note_off_c, 0, 45, 0
2, 3616, Note_on_c, 0, 52, 84
2, 3648, Note_off_c, 0, 52, 0
2, 3648, Note_on_c, 0, 53, 83
2, 3680, Note_off_c, 0, 53, 0
2, 3680, Note_on_c, 0, 55, 80
2, 3712, Note_off_c, 0, 55, 0
2, 3712, Note_on_c, 0, 57, 78
2, 3744, Note_off_c, 0, 57, 0
2, 3744, Note_on_c, 0, 59, 79
2, 3776, Note_off_c, 0, 59, 0
2, 3776, Note_on_c, 0, 60, 83
2, 3808, Note_off_c, 0, 60, 0
2, 3808, Note_on_c, 0, 62, 80
2, 3840, Note_off_c, 0, 62, 0
2, 3840, Note_on_c, 0, 60, 75
2, 3872, Note_off_c, 0, 60, 0
2, 3872, Note_on_c, 0, 57, 73
2, 3904, Note_off_c, 0, 57, 0
2, 3904, Note_on_c, 0, 59, 74
2, 3936, Note_off_c, 0, 59, 0
2, 3936, Note_on_c, 0, 60, 82
2, 3968, Note_off_c, 0, 60, 0
2, 3968, Note_on_c, 0, 62, 76
2, 4000, Note_on_c, 0, 64, 71
2, 4000, Note_off_c, 0, 62, 0
2, 4032, Note_off_c, 0, 64, 0
2, 4032, Note_on_c, 0, 65, 79
2, 4064, Note_off_c, 0, 65, 0
2, 4064, Note_on_c, 0, 67, 82
2, 4096, Note_off_c, 0, 67, 0
2, 4096, Note_on_c, 0, 62, 69
2, 4128, Note_on_c, 0, 65, 69
2, 4160, Note_off_c, 0, 65, 0
2, 4160, Note_on_c, 0, 69, 86
2, 4192, Note_off_c, 0, 69, 0
2, 4192, Note_on_c, 0, 65, 76
2, 4224, Note_off_c, 0, 65, 0
2, 4224, Note_off_c, 0, 62, 0
2, 4224, Note_on_c, 0, 57, 72
2, 4256, Note_on_c, 0, 62, 66
2, 4288, Note_off_c, 0, 62, 0
2, 4288, Note_on_c, 0, 65, 79
2, 4320, Note_off_c, 0, 65, 0
2, 4320, Note_on_c, 0, 62, 71
2, 4352, Note_off_c, 0, 62, 0
2, 4352, Note_off_c, 0, 57, 0
2, 4352, Note_on_c, 0, 53, 72
2, 4384, Note_on_c, 0, 57, 70
2, 4416, Note_off_c, 0, 57, 0
2, 4416, Note_on_c, 0, 62, 83
2, 4448, Note_off_c, 0, 62, 0
2, 4448, Note_on_c, 0, 57, 73
2, 4480, Note_off_c, 0, 53, 0
2, 4480, Note_off_c, 0, 57, 0
2, 4480, Note_on_c, 0, 50, 72
2, 4512, Note_on_c, 0, 53, 69
2, 4544, Note_off_c, 0, 53, 0
2, 4544, Note_on_c, 0, 57, 73
2, 4576, Note_off_c, 0, 57, 0
2, 4576, Note_on_c, 0, 53, 72
2, 4608, Note_off_c, 0, 50, 0
2, 4608, Note_off_c, 0, 53, 0
2, 4608, Note_on_c, 0, 46, 70
2, 4640, Note_on_c, 0, 53, 66
2, 4672, Note_off_c, 0, 53, 0
2, 4672, Note_on_c, 0, 62, 91
2, 4704, Note_off_c, 0, 62, 0
2, 4704, Note_on_c, 0, 53, 70
2, 4736, Note_off_c, 0, 46, 0
2, 4736, Note_off_c, 0, 53, 0
2, 4736, Note_on_c, 0, 43, 75
2, 4768, Note_on_c, 0, 53, 70
2, 4800, Note_off_c, 0, 53, 0
2, 4800, Note_on_c, 0, 58, 78
2, 4832, Note_off_c, 0, 58, 0
2, 4832, Note_on_c, 0, 53, 71
2, 4864, Note_off_c, 0, 43, 0
2, 4864, Note_off_c, 0, 53, 0
2, 4864, Note_on_c, 0, 45, 77
2, 4896, Note_on_c, 0, 53, 64
2, 4928, Note_off_c, 0, 53, 0
2, 4928, Note_on_c, 0, 60, 94
2, 4960, Note_off_c, 0, 60, 0
2, 4960, Note_on_c, 0, 53, 71
2, 4992, Note_off_c, 0, 45, 0
2, 4992, Note_off_c, 0, 53, 0
2, 4992, Note_on_c, 0, 41, 75
2, 5024, Note_on_c, 0, 53, 66
2, 5056, Note_off_c, 0, 53, 0
2, 5056, Note_on_c, 0, 63, 94
2, 5088, Note_off_c, 0, 63, 0
2, 5088, Note_on_c, 0, 53, 67
2, 5120, Note_off_c, 0, 41, 0
2, 5120, Note_off_c, 0, 53, 0
2, 5120, Note_on_c, 0, 46, 84
2, 5152, Note_on_c, 0, 53, 68
2, 5184, Note_off_c, 0, 53, 0
2, 5184, Note_on_c, 0, 62, 89
2, 5216, Note_off_c, 0, 62, 0
2, 5216, Note_on_c, 0, 53, 69
2, 5248, Note_off_c, 0, 46, 0
2, 5248, Note_off_c, 0, 53, 0
2, 5248, Note_on_c, 0, 43, 75
2, 5280, Note_on_c, 0, 53, 68
2, 5312, Note_off_c, 0, 53, 0
2, 5312, Note_on_c, 0, 58, 83
2, 5344, Note_off_c, 0, 58, 0
2, 5344, Note_on_c, 0, 53, 74
2, 5376, Note_off_c, 0, 43, 0
2, 5376, Note_off_c, 0, 53, 0
2, 5376, Note_on_c, 0, 45, 76
2, 5408, Note_on_c, 0, 53, 72
2, 5440, Note_off_c, 0, 53, 0
2, 5440, Note_on_c, 0, 60, 88
2, 5472, Note_off_c, 0, 60, 0
2, 5472, Note_on_c, 0, 53, 73
2, 5504, Note_off_c, 0, 45, 0
2, 5504, Note_off_c, 0, 53, 0
2, 5504, Note_on_c, 0, 41, 74
2, 5536, Note_on_c, 0, 53, 66
2, 5568, Note_off_c, 0, 53, 0
2, 5568, Note_on_c, 0, 63, 96
2, 5600, Note_off_c, 0, 63, 0
2, 5600, Note_on_c, 0, 53, 71
2, 5632, Note_off_c, 0, 41, 0
2, 5632, Note_off_c, 0, 53, 0
2, 5632, Note_on_c, 0, 46, 76
2, 5664, Note_on_c, 0, 53, 67
2, 5696, Note_off_c, 0, 53, 0
2, 5696, Note_on_c, 0, 62, 93
2, 5728, Note_off_c, 0, 62, 0
2, 5728, Note_on_c, 0, 53, 69
2, 5760, Note_off_c, 0, 46, 0
2, 5760, Note_off_c, 0, 53, 0
2, 5760, Note_on_c, 0, 47, 82
2, 5792, Note_on_c, 0, 55, 67
2, 5824, Note_off_c, 0, 55, 0
2, 5824, Note_on_c, 0, 65, 95
2, 5856, Note_off_c, 0, 65, 0
2, 5856, Note_on_c, 0, 55, 73
2, 5888, Note_off_c, 0, 47, 0
2, 5888, Note_off_c, 0, 55, 0
2, 5888, Note_on_c, 0, 48, 82
2, 5920, Note_on_c, 0, 55, 65
2, 5952, Note_off_c, 0, 55, 0
2, 5952, Note_on_c, 0, 64, 92
2, 5984, Note_off_c, 0, 64, 0
2, 5984, Note_on_c, 0, 55, 72
2, 6016, Note_off_c, 0, 48, 0
2, 6016, Note_off_c, 0, 55, 0
2, 6016, Note_on_c, 0, 49, 79
2, 6048, Note_on_c, 0, 57, 67
2, 6080, Note_off_c, 0, 57, 0
2, 6080, Note_on_c, 0, 67, 92
2, 6112, Note_off_c, 0, 67, 0
2, 6112, Note_on_c, 0, 57, 66
2, 6144, Note_off_c, 0, 49, 0
2, 6144, Note_off_c, 0, 57, 0
2, 6144, Note_on_c, 0, 50, 77
2, 6176, Note_on_c, 0, 57, 71
2, 6208, Note_off_c, 0, 57, 0
2, 6208, Note_on_c, 0, 65, 88
2, 6240, Note_off_c, 0, 65, 0
2, 6240, Note_on_c, 0, 57, 73
2, 6272, Note_off_c, 0, 50, 0
2, 6272, Note_off_c, 0, 57, 0
2, 6272, Note_on_c, 0, 38, 64
2, 6304, Note_on_c, 0, 58, 68
2, 6336, Note_off_c, 0, 58, 0
2, 6336, Note_on_c, 0, 69, 98
2, 6368, Note_off_c, 0, 69, 0
2, 6368, Note_on_c, 0, 58, 73
2, 6400, Note_off_c, 0, 38, 0
2, 6400, Note_off_c, 0, 58, 0
2, 6400, Note_on_c, 0, 40, 73
2, 6432, Note_on_c, 0, 58, 66
2, 6464, Note_off_c, 0, 58, 0
2, 6464, Note_on_c, 0, 67, 92
2, 6496, Note_off_c, 0, 67, 0
2, 6496, Note_on_c, 0, 58, 69
2, 6528, Note_off_c, 0, 40, 0
2, 6528, Note_off_c, 0, 58, 0
2, 6528, Note_on_c, 0, 52, 85
2, 6560, Note_on_c, 0, 60, 67
2, 6592, Note_off_c, 0, 60, 0
2, 6592, Note_on_c, 0, 70, 90
2, 6624, Note_off_c, 0, 70, 0
2, 6624, Note_on_c, 0, 60, 63
2, 6656, Note_off_c, 0, 60, 0
2, 6656, Note_off_c, 0, 52, 0
2, 6656, Note_on_c, 0, 53, 70
2, 6688, Note_on_c, 0, 60, 64
2, 6720, Note_off_c, 0, 60, 0
2, 6720, Note_on_c, 0, 69, 92
2, 6752, Note_off_c, 0, 69, 0
2, 6752, Note_on_c, 0, 60, 64
2, 6784, Note_off_c, 0, 60, 0
2, 6784, Note_off_c, 0, 53, 0
2, 6784, Note_on_c, 0, 41, 65
2, 6816, Note_on_c, 0, 62, 68
2, 6848, Note_off_c, 0, 62, 0
2, 6848, Note_on_c, 0, 72, 93
2, 6880, Note_off_c, 0, 72, 0
2, 6880, Note_on_c, 0, 62, 59
2, 6912, Note_off_c, 0, 62, 0
2, 6912, Note_off_c, 0, 41, 0
2, 6912, Note_on_c, 0, 43, 77
2, 6944, Note_on_c, 0, 62, 69
2, 6976, Note_off_c, 0, 62, 0
2, 6976, Note_on_c, 0, 70, 88
2, 7008, Note_off_c, 0, 70, 0
2, 7008, Note_on_c, 0, 62, 59
2, 7040, Note_off_c, 0, 62, 0
2, 7040, Note_off_c, 0, 43, 0
2, 7040, Note_on_c, 0, 55, 84
2, 7072, Note_on_c, 0, 64, 64
2, 7104, Note_off_c, 0, 64, 0
2, 7104, Note_on_c, 0, 74, 87
2, 7136, Note_off_c, 0, 74, 0
2, 7136, Note_on_c, 0, 64, 65
2, 7168, Note_off_c, 0, 64, 0
2, 7168, Note_off_c, 0, 55, 0
2, 7168, Note_on_c, 0, 57, 77
2, 7200, Note_off_c, 0, 57, 0
2, 7200, Note_on_c, 0, 60, 83
2, 7232, Note_off_c, 0, 60, 0
2, 7232, Note_on_c, 0, 62, 82
2, 7264, Note_off_c, 0, 62, 0
2, 7264, Note_on_c, 0, 64, 81
2, 7296, Note_off_c, 0, 64, 0
2, 7296, Note_on_c, 0, 65, 78
2, 7328, Note_on_c, 0, 67, 68
2, 7328, Note_off_c, 0, 65, 0
2, 7360, Note_off_c, 0, 67, 0
2, 7360, Note_on_c, 0, 69, 78
2, 7392, Note_off_c, 0, 69, 0
2, 7392, Note_on_c, 0, 70, 81
2, 7424, Note_off_c, 0, 70, 0
2, 7424, Note_on_c, 0, 72, 79
2, 7456, Note_off_c, 0, 72, 0
2, 7456, Note_on_c, 0, 70, 70
2, 7488, Note_off_c, 0, 70, 0
2, 7488, Note_on_c, 0, 69, 71
2, 7520, Note_off_c, 0, 69, 0
2, 7520, Note_on_c, 0, 67, 69
2, 7552, Note_off_c, 0, 67, 0
2, 7552, Note_on_c, 0, 65, 75
2, 7584, Note_off_c, 0, 65, 0
2, 7584, Note_on_c, 0, 63, 70
2, 7616, Note_off_c, 0, 63, 0
2, 7616, Note_on_c, 0, 62, 74
2, 7648, Note_off_c, 0, 62, 0
2, 7648, Note_on_c, 0, 60, 68
2, 7680, Note_off_c, 0, 60, 0
2, 7680, Note_on_c, 0, 62, 68
2, 7712, Note_off_c, 0, 62, 0
2, 7712, Note_on_c, 0, 58, 70
2, 7744, Note_off_c, 0, 58, 0
2, 7744, Note_on_c, 0, 57, 75
2, 7776, Note_off_c, 0, 57, 0
2, 7776, Note_on_c, 0, 55, 76
2, 7808, Note_off_c, 0, 55, 0
2, 7808, Note_on_c, 0, 53, 75
2, 7840, Note_off_c, 0, 53, 0
2, 7840, Note_on_c, 0, 51, 75
2, 7872, Note_off_c, 0, 51, 0
2, 7872, Note_on_c, 0, 50, 80
2, 7904, Note_off_c, 0, 50, 0
2, 7904, Note_on_c, 0, 48, 77
2, 7936, Note_off_c, 0, 48, 0
2, 7936, Note_on_c, 0, 46, 75
2, 7968, Note_off_c, 0, 46, 0
2, 7968, Note_on_c, 0, 48, 78
2, 8000, Note_off_c, 0, 48, 0
2, 8000, Note_on_c, 0, 50, 77
2, 8032, Note_off_c, 0, 50, 0
2, 8032, Note_on_c, 0, 48, 71
2, 8064, Note_off_c, 0, 48, 0
2, 8064, Note_on_c, 0, 46, 71
2, 8096, Note_off_c, 0, 46, 0
2, 8096, Note_on_c, 0, 45, 75
2, 8128, Note_off_c, 0, 45, 0
2, 8128, Note_on_c, 0, 43, 75
2, 8160, Note_off_c, 0, 43, 0
2, 8160, Note_on_c, 0, 41, 70
2, 8192, Note_off_c, 0, 41, 0
2, 8192, Note_on_c, 0, 40, 74
2, 8224, Note_on_c, 0, 60, 72
2, 8256, Note_off_c, 0, 60, 0
2, 8256, Note_on_c, 0, 70, 89
2, 8288, Note_off_c, 0, 70, 0
2, 8288, Note_on_c, 0, 60, 67
2, 8320, Note_off_c, 0, 60, 0
2, 8320, Note_off_c, 0, 40, 0
2, 8320, Note_on_c, 0, 41, 82
2, 8352, Note_on_c, 0, 60, 69
2, 8384, Note_off_c, 0, 60, 0
2, 8384, Note_on_c, 0, 69, 95
2, 8416, Note_off_c, 0, 69, 0
2, 8416, Note_on_c, 0, 60, 58
2, 8448, Note_off_c, 0, 60, 0
2, 8448, Note_off_c, 0, 41, 0
2, 8448, Note_on_c, 0, 38, 75
2, 8480, Note_on_c, 0, 58, 71
2, 8512, Note_off_c, 0, 58, 0
2, 8512, Note_on_c, 0, 69, 91
2, 8544, Note_off_c, 0, 69, 0
2, 8544, Note_on_c, 0, 58, 67
2, 8576, Note_off_c, 0, 58, 0
2, 8576, Note_off_c, 0, 38, 0
2, 8576, Note_on_c, 0, 40, 79
2, 8608, Note_on_c, 0, 58, 70
2, 8640, Note_off_c, 0, 58, 0
2, 8640, Note_on_c, 0, 67, 93
2, 8672, Note_off_c, 0, 67, 0
2, 8672, Note_on_c, 0, 58, 70
2, 8704, Note_off_c, 0, 58, 0
2, 8704, Note_off_c, 0, 40, 0
2, 8704, Note_on_c, 0, 41, 75
2, 8736, Note_on_c, 0, 57, 72
2, 8768, Note_off_c, 0, 57, 0
2, 8768, Note_on_c, 0, 67, 91
2, 8800, Note_off_c, 0, 67, 0
2, 8800, Note_on_c, 0, 57, 70
2, 8832, Note_off_c, 0, 57, 0
2, 8832, Note_off_c, 0, 41, 0
2, 8832, Note_on_c, 0, 45, 80
2, 8864, Note_on_c, 0, 57, 68
2, 8896, Note_off_c, 0, 57, 0
2, 8896, Note_on_c, 0, 65, 88
2, 8928, Note_off_c, 0, 65, 0
2, 8928, Note_on_c, 0, 57, 71
2, 8960, Note_off_c, 0, 57, 0
2, 8960, Note_off_c, 0, 45, 0
2, 8960, Note_on_c, 0, 46, 81
2, 8992, Note_on_c, 0, 55, 64
2, 9024, Note_off_c, 0, 55, 0
2, 9024, Note_on_c, 0, 65, 89
2, 9056, Note_off_c, 0, 65, 0
2, 9056, Note_on_c, 0, 55, 68
2, 9088, Note_off_c, 0, 55, 0
2, 9088, Note_off_c, 0, 46, 0
2, 9088, Note_on_c, 0, 48, 83
2, 9120, Note_on_c, 0, 55, 67
2, 9152, Note_off_c, 0, 55, 0
2, 9152, Note_on_c, 0, 64, 92
2, 9184, Note_off_c, 0, 64, 0
2, 9184, Note_on_c, 0, 55, 69
2, 9216, Note_off_c, 0, 55, 0
2, 9216, Note_on_c, 0, 57, 75
2, 9216, Note_off_c, 0, 48, 0
2, 9216, Note_on_c, 0, 41, 68
2, 9248, Note_off_c, 0, 57, 0
2, 9248, Note_on_c, 0, 60, 84
2, 9280, Note_off_c, 0, 60, 0
2, 9280, Note_on_c, 0, 65, 87
2, 9312, Note_off_c, 0, 65, 0
2, 9312, Note_on_c, 0, 60, 67
2, 9344, Note_off_c, 0, 60, 0
2, 9344, Note_on_c, 0, 57, 73
2, 9344, Note_off_c, 0, 41, 0
2, 9376, Note_off_c, 0, 57, 0
2, 9376, Note_on_c, 0, 65, 90
2, 9408, Note_off_c, 0, 65, 0
2, 9408, Note_on_c, 0, 60, 67
2, 9440, Note_off_c, 0, 60, 0
2, 9440, Note_on_c, 0, 57, 70
2, 9472, Note_off_c, 0, 57, 0
2, 9472, Note_on_c, 0, 53, 67
2, 9504, Note_off_c, 0, 53, 0
2, 9504, Note_on_c, 0, 57, 82
2, 9536, Note_off_c, 0, 57, 0
2, 9536, Note_on_c, 0, 60, 78
2, 9568, Note_off_c, 0, 60, 0
2, 9568, Note_on_c, 0, 57, 76
2, 9600, Note_off_c, 0, 57, 0
2, 9600, Note_on_c, 0, 53, 72
2, 9632, Note_off_c, 0, 53, 0
2, 9632, Note_on_c, 0, 60, 85
2, 9664, Note_off_c, 0, 60, 0
2, 9664, Note_on_c, 0, 57, 81
2, 9696, Note_off_c, 0, 57, 0
2, 9696, Note_on_c, 0, 53, 69
2, 9728, Note_off_c, 0, 53, 0
2, 9728, Note_on_c, 0, 48, 72
2, 9760, Note_off_c, 0, 48, 0
2, 9760, Note_on_c, 0, 53, 81
2, 9792, Note_off_c, 0, 53, 0
2, 9792, Note_on_c, 0, 52, 79
2, 9824, Note_off_c, 0, 52, 0
2, 9824, Note_on_c, 0, 50, 75
2, 9856, Note_off_c, 0, 50, 0
2, 9856, Note_on_c, 0, 48, 73
2, 9888, Note_off_c, 0, 48, 0
2, 9888, Note_on_c, 0, 46, 75
2, 9920, Note_off_c, 0, 46, 0
2, 9920, Note_on_c, 0, 45, 71
2, 9952, Note_off_c, 0, 45, 0
2, 9952, Note_on_c, 0, 43, 75
2, 9984, Note_off_c, 0, 43, 0
2, 9984, Note_on_c, 0, 41, 71
2, 10016, Note_off_c, 0, 41, 0
2, 10016, Note_on_c, 0, 45, 85
2, 10048, Note_off_c, 0, 45, 0
2, 10048, Note_on_c, 0, 48, 73
2, 10080, Note_off_c, 0, 48, 0
2, 10080, Note_on_c, 0, 53, 85
2, 10112, Note_on_c, 0, 57, 68
2, 10112, Note_off_c, 0, 53, 0
2, 10144, Note_off_c, 0, 57, 0
2, 10144, Note_on_c, 0, 60, 85
2, 10176, Note_off_c, 0, 60, 0
2, 10176, Note_on_c, 0, 63, 82
2, 10208, Note_off_c, 0, 63, 0
2, 10208, Note_on_c, 0, 66, 86
2, 10240, Note_off_c, 0, 66, 0
2, 10240, Note_on_c, 0, 38, 68
2, 10368, Note_off_c, 0, 38, 0
2, 10496, Note_on_c, 0, 70, 67
2, 10496, Note_on_c, 0, 74, 67
2, 10496, Note_on_c, 0, 77, 67
2, 10496, Note_on_c, 0, 68, 72
2, 10496, Note_on_c, 0, 53, 68
2, 10496, Note_on_c, 0, 58, 68
2, 10496, Note_on_c, 0, 62, 68
2, 10496, Note_on_c, 0, 50, 72
2, 10688, Note_off_c, 0, 70, 0
2, 10688, Note_off_c, 0, 74, 0
2, 10688, Note_off_c, 0, 77, 0
2, 10688, Note_off_c, 0, 68, 0
2, 10688, Note_on_c, 0, 70, 75
2, 10688, Note_on_c, 0, 74, 75
2, 10688, Note_on_c, 0, 77, 75
2, 10688, Note_on_c, 0, 68, 73
2, 10688, Note_off_c, 0, 53, 0
2, 10688, Note_off_c, 0, 58, 0
2, 10688, Note_off_c, 0, 62, 0
2, 10688, Note_off_c, 0, 50, 0
2, 10688, Note_on_c, 0, 53, 77
2, 10688, Note_on_c, 0, 58, 77
2, 10688, Note_on_c, 0, 62, 77
2, 10688, Note_on_c, 0, 50, 79
2, 10752, Note_off_c, 0, 70, 0
2, 10752, Note_off_c, 0, 74, 0
2, 10752, Note_off_c, 0, 77, 0
2, 10752, Note_off_c, 0, 68, 0
2, 10752, Note_on_c, 0, 71, 79
2, 10752, Note_on_c, 0, 74, 79
2, 10752, Note_on_c, 0, 77, 79
2, 10752, Note_on_c, 0, 67, 73
2, 10752, Note_off_c, 0, 53, 0
2, 10752, Note_off_c, 0, 58, 0
2, 10752, Note_off_c, 0, 62, 0
2, 10752, Note_off_c, 0, 50, 0
2, 10752, Note_on_c, 0, 50, 72
2, 10752, Note_on_c, 0, 55, 72
2, 10752, Note_on_c, 0, 47, 73
2, 11008, Note_off_c, 0, 71, 0
2, 11008, Note_off_c, 0, 74, 0
2, 11008, Note_off_c, 0, 67, 0
2, 11008, Note_off_c, 0, 50, 0
2, 11008, Note_off_c, 0, 55, 0
2, 11008, Note_off_c, 0, 47, 0
2, 11040, Note_off_c, 0, 77, 0
2, 11040, Note_on_c, 0, 79, 83
2, 11072, Note_off_c, 0, 79, 0
2, 11072, Note_on_c, 0, 80, 82
2, 11104, Note_off_c, 0, 80, 0
2, 11104, Note_on_c, 0, 79, 70
2, 11136, Note_off_c, 0, 79, 0
2, 11136, Note_on_c, 0, 77, 72
2, 11168, Note_off_c, 0, 77, 0
2, 11168, Note_on_c, 0, 75, 72
2, 11200, Note_off_c, 0, 75, 0
2, 11200, Note_on_c, 0, 74, 71
2, 11232, Note_off_c, 0, 74, 0
2, 11232, Note_on_c, 0, 75, 80
2, 11264, Note_off_c, 0, 75, 0
2, 11264, Note_on_c, 0, 77, 76
2, 11296, Note_off_c, 0, 77, 0
2, 11296, Note_on_c, 0, 75, 67
2, 11328, Note_off_c, 0, 75, 0
2, 11328, Note_on_c, 0, 74, 71
2, 11360, Note_off_c, 0, 74, 0
2, 11360, Note_on_c, 0, 72, 71
2, 11392, Note_off_c, 0, 72, 0
2, 11392, Note_on_c, 0, 71, 71
2, 11424, Note_off_c, 0, 71, 0
2, 11424, Note_on_c, 0, 72, 81
2, 11456, Note_off_c, 0, 72, 0
2, 11456, Note_on_c, 0, 74, 83
2, 11488, Note_off_c, 0, 74, 0
2, 11488, Note_on_c, 0, 72, 72
2, 11520, Note_off_c, 0, 72, 0
2, 11520, Note_on_c, 0, 71, 72
2, 11552, Note_off_c, 0, 71, 0
2, 11552, Note_on_c, 0, 69, 70
2, 11584, Note_off_c, 0, 69, 0
2, 11584, Note_on_c, 0, 67, 72
2, 11616, Note_off_c, 0, 67, 0
2, 11616, Note_on_c, 0, 69, 77
2, 11648, Note_off_c, 0, 69, 0
2, 11648, Note_on_c, 0, 71, 80
2, 11680, Note_off_c, 0, 71, 0
2, 11680, Note_on_c, 0, 69, 70
2, 11712, Note_off_c, 0, 69, 0
2, 11712, Note_on_c, 0, 67, 68
2, 11744, Note_off_c, 0, 67, 0
2, 11744, Note_on_c, 0, 65, 72
2, 11776, Note_off_c, 0, 65, 0
2, 11776, Note_on_c, 0, 63, 66
2, 11808, Note_off_c, 0, 63, 0
2, 11808, Note_on_c, 0, 62, 72
2, 11840, Note_off_c, 0, 62, 0
2, 11840, Note_on_c, 0, 60, 73
2, 11872, Note_off_c, 0, 60, 0
2, 11872, Note_on_c, 0, 58, 71
2, 11904, Note_off_c, 0, 58, 0
2, 11904, Note_on_c, 0, 56, 75
2, 11936, Note_off_c, 0, 56, 0
2, 11936, Note_on_c, 0, 55, 78
2, 11968, Note_off_c, 0, 55, 0
2, 11968, Note_on_c, 0, 53, 73
2, 12000, Note_off_c, 0, 53, 0
2, 12000, Note_on_c, 0, 51, 75
2, 12032, Note_off_c, 0, 51, 0
2, 12032, Note_on_c, 0, 50, 69
2, 12064, Note_off_c, 0, 50, 0
2, 12064, Note_on_c, 0, 48, 75
2, 12096, Note_off_c, 0, 48, 0
2, 12096, Note_on_c, 0, 47, 72
2, 12128, Note_off_c, 0, 47, 0
2, 12128, Note_on_c, 0, 45, 78
2, 12160, Note_off_c, 0, 45, 0
2, 12160, Note_on_c, 0, 43, 76
2, 12192, Note_off_c, 0, 43, 0
2, 12192, Note_on_c, 0, 41, 74
2, 12224, Note_off_c, 0, 41, 0
2, 12224, Note_on_c, 0, 39, 73
2, 12256, Note_off_c, 0, 39, 0
2, 12256, Note_on_c, 0, 38, 75
2, 12288, Note_off_c, 0, 38, 0
2, 12288, Note_on_c, 0, 36, 68
2, 12416, Note_off_c, 0, 36, 0
2, 12544, Note_on_c, 0, 72, 67
2, 12544, Note_on_c, 0, 75, 67
2, 12544, Note_on_c, 0, 67, 68
2, 12544, Note_on_c, 0, 51, 68
2, 12544, Note_on_c, 0, 55, 68
2, 12544, Note_on_c, 0, 60, 68
2, 12544, Note_on_c, 0, 48, 68
2, 12736, Note_off_c, 0, 72, 0
2, 12736, Note_off_c, 0, 75, 0
2, 12736, Note_off_c, 0, 67, 0
2, 12736, Note_on_c, 0, 70, 74
2, 12736, Note_on_c, 0, 72, 74
2, 12736, Note_on_c, 0, 75, 74
2, 12736, Note_on_c, 0, 67, 73
2, 12736, Note_off_c, 0, 51, 0
2, 12736, Note_off_c, 0, 55, 0
2, 12736, Note_off_c, 0, 60, 0
2, 12736, Note_off_c, 0, 48, 0
2, 12736, Note_on_c, 0, 51, 69
2, 12736, Note_on_c, 0, 55, 69
2, 12736, Note_on_c, 0, 60, 69
2, 12736, Note_on_c, 0, 48, 79
2, 12800, Note_off_c, 0, 70, 0
2, 12800, Note_off_c, 0, 72, 0
2, 12800, Note_off_c, 0, 75, 0
2, 12800, Note_off_c, 0, 67, 0
2, 12800, Note_on_c, 0, 69, 74
2, 12800, Note_on_c, 0, 72, 74
2, 12800, Note_on_c, 0, 75, 74
2, 12800, Note_on_c, 0, 65, 70
2, 12800, Note_off_c, 0, 51, 0
2, 12800, Note_off_c, 0, 55, 0
2, 12800, Note_off_c, 0, 60, 0
2, 12800, Note_off_c, 0, 48, 0
2, 12800, Note_on_c, 0, 57, 79
2, 12800, Note_on_c, 0, 60, 79
2, 12800, Note_on_c, 0, 53, 81
2, 13056, Note_off_c, 0, 69, 0
2, 13056, Note_off_c, 0, 72, 0
2, 13056, Note_off_c, 0, 75, 0
2, 13056, Note_off_c, 0, 65, 0
2, 13056, Note_off_c, 0, 57, 0
2, 13056, Note_off_c, 0, 60, 0
2, 13088, Note_off_c, 0, 53, 0
2, 13088, Note_on_c, 0, 48, 75
2, 13120, Note_off_c, 0, 48, 0
2, 13120, Note_on_c, 0, 50, 76
2, 13152, Note_off_c, 0, 50, 0
2, 13152, Note_on_c, 0, 51, 80
2, 13184, Note_off_c, 0, 51, 0
2, 13184, Note_on_c, 0, 53, 78
2, 13216, Note_off_c, 0, 53, 0
2, 13216, Note_on_c, 0, 55, 78
2, 13248, Note_off_c, 0, 55, 0
2, 13248, Note_on_c, 0, 57, 80
2, 13280, Note_off_c, 0, 57, 0
2, 13280, Note_on_c, 0, 58, 77
2, 13312, Note_off_c, 0, 58, 0
2, 13312, Note_on_c, 0, 57, 68
2, 13344, Note_off_c, 0, 57, 0
2, 13344, Note_on_c, 0, 55, 72
2, 13376, Note_off_c, 0, 55, 0
2, 13376, Note_on_c, 0, 53, 77
2, 13408, Note_off_c, 0, 53, 0
2, 13408, Note_on_c, 0, 55, 73
2, 13440, Note_off_c, 0, 55, 0
2, 13440, Note_on_c, 0, 57, 80
2, 13472, Note_off_c, 0, 57, 0
2, 13472, Note_on_c, 0, 58, 78
2, 13504, Note_off_c, 0, 58, 0
2, 13504, Note_on_c, 0, 60, 82
2, 13536, Note_off_c, 0, 60, 0
2, 13536, Note_on_c, 0, 62, 82
2, 13568, Note_off_c, 0, 62, 0
2, 13568, Note_on_c, 0, 60, 73
2, 13600, Note_off_c, 0, 60, 0
2, 13600, Note_on_c, 0, 58, 75
2, 13632, Note_off_c, 0, 58, 0
2, 13632, Note_on_c, 0, 57, 76
2, 13664, Note_off_c, 0, 57, 0
2, 13664, Note_on_c, 0, 58, 80
2, 13696, Note_off_c, 0, 58, 0
2, 13696, Note_on_c, 0, 60, 82
2, 13728, Note_off_c, 0, 60, 0
2, 13728, Note_on_c, 0, 62, 80
2, 13760, Note_off_c, 0, 62, 0
2, 13760, Note_on_c, 0, 63, 82
2, 13792, Note_off_c, 0, 63, 0
2, 13792, Note_on_c, 0, 65, 85
2, 13824, Note_on_c, 0, 63, 68
2, 13824, Note_off_c, 0, 65, 0
2, 13856, Note_off_c, 0, 63, 0
2, 13856, Note_on_c, 0, 62, 74
2, 13888, Note_off_c, 0, 62, 0
2, 13888, Note_on_c, 0, 60, 74
2, 13920, Note_off_c, 0, 60, 0
2, 13920, Note_on_c, 0, 62, 80
2, 13952, Note_off_c, 0, 62, 0
2, 13952, Note_on_c, 0, 63, 85
2, 13984, Note_off_c, 0, 63, 0
2, 13984, Note_on_c, 0, 65, 79
2, 14016, Note_off_c, 0, 65, 0
2, 14016, Note_on_c, 0, 67, 80
2, 14048, Note_off_c, 0, 67, 0
2, 14048, Note_on_c, 0, 69, 85
2, 14080, Note_off_c, 0, 69, 0
2, 14080, Note_on_c, 0, 70, 78
2, 14112, Note_off_c, 0, 70, 0
2, 14112, Note_on_c, 0, 72, 81
2, 14144, Note_off_c, 0, 72, 0
2, 14144, Note_on_c, 0, 74, 82
2, 14176, Note_off_c, 0, 74, 0
2, 14176, Note_on_c, 0, 75, 81
2, 14208, Note_off_c, 0, 75, 0
2, 14208, Note_on_c, 0, 77, 82
2, 14240, Note_off_c, 0, 77, 0
2, 14240, Note_on_c, 0, 79, 79
2, 14272, Note_off_c, 0, 79, 0
2, 14272, Note_on_c, 0, 81, 80
2, 14304, Note_off_c, 0, 81, 0
2, 14304, Note_on_c, 0, 77, 65
2, 14336, Note_off_c, 0, 77, 0
2, 14336, Note_on_c, 0, 82, 82
2, 14464, Note_off_c, 0, 82, 0
2, 14592, Note_on_c, 0, 68, 68
2, 14592, Note_on_c, 0, 70, 68
2, 14592, Note_on_c, 0, 74, 68
2, 14592, Note_on_c, 0, 65, 66
2, 14592, Note_on_c, 0, 53, 65
2, 14592, Note_on_c, 0, 58, 65
2, 14592, Note_on_c, 0, 46, 71
2, 14592, Note_on_c, 0, 50, 71
2, 14784, Note_off_c, 0, 68, 0
2, 14784, Note_off_c, 0, 70, 0
2, 14784, Note_off_c, 0, 74, 0
2, 14784, Note_off_c, 0, 65, 0
2, 14784, Note_on_c, 0, 68, 77
2, 14784, Note_on_c, 0, 70, 77
2, 14784, Note_on_c, 0, 74, 77
2, 14784, Note_on_c, 0, 65, 75
2, 14784, Note_off_c, 0, 53, 0
2, 14784, Note_off_c, 0, 58, 0
2, 14784, Note_off_c, 0, 46, 0
2, 14784, Note_off_c, 0, 50, 0
2, 14784, Note_on_c, 0, 50, 73
2, 14784, Note_on_c, 0, 53, 73
2, 14784, Note_on_c, 0, 58, 73
2, 14784, Note_on_c, 0, 46, 68
2, 14848, Note_off_c, 0, 68, 0
2, 14848, Note_off_c, 0, 70, 0
2, 14848, Note_off_c, 0, 74, 0
2, 14848, Note_off_c, 0, 65, 0
2, 14848, Note_on_c, 0, 70, 78
2, 14848, Note_on_c, 0, 74, 78
2, 14848, Note_on_c, 0, 63, 80
2, 14848, Note_on_c, 0, 67, 80
2, 14848, Note_off_c, 0, 50, 0
2, 14848, Note_off_c, 0, 53, 0
2, 14848, Note_off_c, 0, 58, 0
2, 14848, Note_off_c, 0, 46, 0
2, 14848, Note_on_c, 0, 55, 75
2, 14848, Note_on_c, 0, 58, 75
2, 14848, Note_on_c, 0, 51, 78
2, 15104, Note_off_c, 0, 70, 0
2, 15104, Note_off_c, 0, 74, 0
2, 15104, Note_off_c, 0, 63, 0
2, 15104, Note_off_c, 0, 67, 0
2, 15104, Note_on_c, 0, 70, 71
2, 15104, Note_on_c, 0, 73, 71
2, 15104, Note_on_c, 0, 67, 72
2, 15104, Note_off_c, 0, 55, 0
2, 15104, Note_off_c, 0, 58, 0
2, 15104, Note_off_c, 0, 51, 0
2, 15104, Note_on_c, 0, 55, 77
2, 15104, Note_on_c, 0, 58, 77
2, 15104, Note_on_c, 0, 52, 81
2, 15296, Note_off_c, 0, 70, 0
2, 15296, Note_off_c, 0, 73, 0
2, 15296, Note_off_c, 0, 67, 0
2, 15296, Note_on_c, 0, 70, 74
2, 15296, Note_on_c, 0, 72, 74
2, 15296, Note_on_c, 0, 67, 76
2, 15296, Note_off_c, 0, 55, 0
2, 15296, Note_off_c, 0, 58, 0
2, 15296, Note_off_c, 0, 52, 0
2, 15296, Note_on_c, 0, 55, 79
2, 15296, Note_on_c, 0, 60, 79
2, 15296, Note_on_c, 0, 52, 75
2, 15360, Note_off_c, 0, 70, 0
2, 15360, Note_off_c, 0, 72, 0
2, 15360, Note_off_c, 0, 67, 0
2, 15360, Note_on_c, 0, 69, 79
2, 15360, Note_on_c, 0, 72, 79
2, 15360, Note_on_c, 0, 65, 70
2, 15360, Note_off_c, 0, 55, 0
2, 15360, Note_off_c, 0, 60, 0
2, 15360, Note_off_c, 0, 52, 0
2, 15360, Note_on_c, 0, 57, 86
2, 15360, Note_on_c, 0, 60, 86
2, 15360, Note_on_c, 0, 63, 86
2, 15360, Note_on_c, 0, 53, 80
2, 15616, Note_off_c, 0, 72, 0
2, 15616, Note_off_c, 0, 65, 0
2, 15616, Note_off_c, 0, 57, 0
2, 15616, Note_off_c, 0, 60, 0
2, 15616, Note_off_c, 0, 63, 0
2, 15616, Note_off_c, 0, 53, 0
2, 15648, Note_off_c, 0, 69, 0
2, 15648, Note_on_c, 0, 72, 80
2, 15680, Note_off_c, 0, 72, 0
2, 15680, Note_on_c, 0, 69, 70
2, 15712, Note_off_c, 0, 69, 0
2, 15712, Note_on_c, 0, 65, 65
2, 15744, Note_off_c, 0, 65, 0
2, 15744, Note_on_c, 0, 63, 68
2, 15776, Note_off_c, 0, 63, 0
2, 15776, Note_on_c, 0, 65, 81
2, 15808, Note_off_c, 0, 65, 0
2, 15808, Note_on_c, 0, 69, 81
2, 15840, Note_off_c, 0, 69, 0
2, 15840, Note_on_c, 0, 72, 86
2, 15872, Note_off_c, 0, 72, 0
2, 15872, Note_on_c, 0, 69, 74
2, 15904, Note_off_c, 0, 69, 0
2, 15904, Note_on_c, 0, 72, 76
2, 15936, Note_off_c, 0, 72, 0
2, 15936, Note_on_c, 0, 69, 71
2, 15968, Note_off_c, 0, 69, 0
2, 15968, Note_on_c, 0, 65, 64
2, 16000, Note_off_c, 0, 65, 0
2, 16000, Note_on_c, 0, 63, 69
2, 16032, Note_off_c, 0, 63, 0
2, 16032, Note_on_c, 0, 65, 80
2, 16064, Note_off_c, 0, 65, 0
2, 16064, Note_on_c, 0, 69, 85
2, 16096, Note_off_c, 0, 69, 0
2, 16096, Note_on_c, 0, 72, 85
2, 16128, Note_off_c, 0, 72, 0
2, 16128, Note_on_c, 0, 78, 90
2, 16160, Note_off_c, 0, 78, 0
2, 16160, Note_on_c, 0, 77, 76
2, 16192, Note_off_c, 0, 77, 0
2, 16192, Note_on_c, 0, 75, 74
2, 16224, Note_off_c, 0, 75, 0
2, 16224, Note_on_c, 0, 73, 67
2, 16256, Note_off_c, 0, 73, 0
2, 16256, Note_on_c, 0, 72, 79
2, 16288, Note_off_c, 0, 72, 0
2, 16288, Note_on_c, 0, 70, 72
2, 16320, Note_off_c, 0, 70, 0
2, 16320, Note_on_c, 0, 69, 73
2, 16352, Note_off_c, 0, 69, 0
2, 16352, Note_on_c, 0, 67, 69
2, 16384, Note_off_c, 0, 67, 0
2, 16384, Note_on_c, 0, 69, 83
2, 16416, Note_off_c, 0, 69, 0
2, 16416, Note_on_c, 0, 65, 79
2, 16448, Note_off_c, 0, 65, 0
2, 16448, Note_on_c, 0, 69, 78
2, 16480, Note_off_c, 0, 69, 0
2, 16480, Note_on_c, 0, 72, 82
2, 16512, Note_off_c, 0, 72, 0
2, 16512, Note_on_c, 0, 75, 90
2, 16544, Note_off_c, 0, 75, 0
2, 16544, Note_on_c, 0, 78, 93
2, 16576, Note_off_c, 0, 78, 0
2, 16576, Note_on_c, 0, 81, 87
2, 16608, Note_off_c, 0, 81, 0
2, 16608, Note_on_c, 0, 84, 87
2, 16640, Note_off_c, 0, 84, 0
2, 16640, Note_on_c, 0, 82, 94
2, 16736, Note_off_c, 0, 82, 0
2, 16736, Note_on_c, 0, 72, 63
2, 16768, Note_off_c, 0, 72, 0
2, 16768, Note_on_c, 0, 74, 58
2, 16768, Note_on_c, 0, 73, 71
2, 16800, Note_off_c, 0, 73, 0
2, 16800, Note_on_c, 0, 69, 64
2, 16832, Note_off_c, 0, 69, 0
2, 16832, Note_on_c, 0, 70, 72
2, 16864, Note_off_c, 0, 70, 0
2, 16864, Note_on_c, 0, 64, 67
2, 16896, Note_off_c, 0, 74, 0
2, 16896, Note_off_c, 0, 64, 0
2, 16896, Note_on_c, 0, 65, 71
2, 16896, Note_on_c, 0, 70, 71
2, 16896, Note_on_c, 0, 72, 71
2, 16896, Note_on_c, 0, 60, 64
2, 16896, Note_on_c, 0, 53, 67
2, 16896, Note_on_c, 0, 41, 68
2, 16896, Note_on_c, 0, 48, 68
2, 16896, Note_on_c, 0, 51, 68
2, 17024, Note_off_c, 0, 60, 0
2, 17024, Note_on_c, 0, 62, 83
2, 17152, Note_off_c, 0, 65, 0
2, 17152, Note_off_c, 0, 70, 0
2, 17152, Note_off_c, 0, 72, 0
2, 17152, Note_off_c, 0, 62, 0
2, 17152, Note_on_c, 0, 65, 73
2, 17152, Note_on_c, 0, 69, 73
2, 17152, Note_on_c, 0, 72, 73
2, 17152, Note_on_c, 0, 63, 83
2, 17152, Note_off_c, 0, 53, 0
2, 17152, Note_off_c, 0, 41, 0
2, 17152, Note_off_c, 0, 48, 0
2, 17152, Note_off_c, 0, 51, 0
2, 17152, Note_on_c, 0, 53, 75
2, 17152, Note_on_c, 0, 41, 72
2, 17152, Note_on_c, 0, 48, 72
2, 17152, Note_on_c, 0, 51, 72
2, 17280, Note_off_c, 0, 53, 0
2, 17280, Note_on_c, 0, 55, 78
2, 17408, Note_off_c, 0, 65, 0
2, 17408, Note_off_c, 0, 69, 0
2, 17408, Note_off_c, 0, 72, 0
2, 17408, Note_off_c, 0, 63, 0
2, 17408, Note_on_c, 0, 65, 71
2, 17408, Note_on_c, 0, 70, 71
2, 17408, Note_on_c, 0, 62, 75
2, 17408, Note_off_c, 0, 41, 0
2, 17408, Note_off_c, 0, 48, 0
2, 17408, Note_off_c, 0, 51, 0
2, 17408, Note_off_c, 0, 55, 0
2, 17408, Note_on_c, 0, 56, 79
2, 17408, Note_on_c, 0, 46, 79
2, 17408, Note_on_c, 0, 50, 79
2, 17408, Note_on_c, 0, 53, 79
2, 17664, Note_off_c, 0, 65, 0
2, 17664, Note_off_c, 0, 70, 0
2, 17664, Note_off_c, 0, 56, 0
2, 17664, Note_off_c, 0, 46, 0
2, 17664, Note_off_c, 0, 50, 0
2, 17664, Note_off_c, 0, 53, 0
2, 17696, Note_off_c, 0, 62, 0
2, 17696, Note_on_c, 0, 65, 82
2, 17728, Note_off_c, 0, 65, 0
2, 17728, Note_on_c, 0, 62, 67
2, 17760, Note_off_c, 0, 62, 0
2, 17760, Note_on_c, 0, 58, 70
2, 17792, Note_off_c, 0, 58, 0
2, 17792, Note_on_c, 0, 56, 68
2, 17824, Note_on_c, 0, 58, 68
2, 17824, Note_off_c, 0, 56, 0
2, 17856, Note_off_c, 0, 58, 0
2, 17856, Note_on_c, 0, 62, 81
2, 17888, Note_off_c, 0, 62, 0
2, 17888, Note_on_c, 0, 65, 87
2, 17920, Note_off_c, 0, 65, 0
2, 17920, Note_on_c, 0, 62, 71
2, 17952, Note_off_c, 0, 62, 0
2, 17952, Note_on_c, 0, 65, 81
2, 17984, Note_off_c, 0, 65, 0
2, 17984, Note_on_c, 0, 62, 72
2, 18016, Note_off_c, 0, 62, 0
2, 18016, Note_on_c, 0, 58, 67
2, 18048, Note_off_c, 0, 58, 0
2, 18048, Note_on_c, 0, 56, 64
2, 18080, Note_on_c, 0, 58, 70
2, 18080, Note_off_c, 0, 56, 0
2, 18112, Note_off_c, 0, 58, 0
2, 18112, Note_on_c, 0, 62, 85
2, 18144, Note_off_c, 0, 62, 0
2, 18144, Note_on_c, 0, 65, 84
2, 18176, Note_off_c, 0, 65, 0
2, 18176, Note_on_c, 0, 71, 92
2, 18208, Note_off_c, 0, 71, 0
2, 18208, Note_on_c, 0, 68, 75
2, 18240, Note_off_c, 0, 68, 0
2, 18240, Note_on_c, 0, 65, 70
2, 18272, Note_off_c, 0, 65, 0
2, 18272, Note_on_c, 0, 62, 64
2, 18304, Note_off_c, 0, 62, 0
2, 18304, Note_on_c, 0, 59, 71
2, 18336, Note_off_c, 0, 59, 0
2, 18336, Note_on_c, 0, 56, 77
2, 18368, Note_off_c, 0, 56, 0
2, 18368, Note_on_c, 0, 53, 72
2, 18400, Note_on_c, 0, 62, 70
2, 18400, Note_off_c, 0, 53, 0
2, 18432, Note_off_c, 0, 62, 0
2, 18432, Note_on_c, 0, 63, 81
2, 18432, Note_on_c, 0, 55, 65
2, 18560, Note_off_c, 0, 55, 0
2, 18592, Note_off_c, 0, 63, 0
2, 18592, Note_on_c, 0, 62, 74
2, 18624, Note_off_c, 0, 62, 0
2, 18624, Note_on_c, 0, 60, 68
2, 18656, Note_off_c, 0, 60, 0
2, 18656, Note_on_c, 0, 62, 83
2, 18688, Note_off_c, 0, 62, 0
2, 18688, Note_on_c, 0, 63, 82
2, 18720, Note_off_c, 0, 63, 0
2, 18720, Note_on_c, 0, 62, 68
2, 18752, Note_off_c, 0, 62, 0
2, 18752, Note_on_c, 0, 60, 69
2, 18784, Note_off_c, 0, 60, 0
2, 18784, Note_on_c, 0, 58, 70
2, 18816, Note_off_c, 0, 58, 0
2, 18816, Note_on_c, 0, 57, 76
2, 18848, Note_off_c, 0, 57, 0
2, 18848, Note_on_c, 0, 58, 77
2, 18880, Note_off_c, 0, 58, 0
2, 18880, Note_on_c, 0, 60, 85
2, 18912, Note_off_c, 0, 60, 0
2, 18912, Note_on_c, 0, 58, 77
2, 18944, Note_off_c, 0, 58, 0
2, 18944, Note_on_c, 0, 57, 65
2, 18976, Note_off_c, 0, 57, 0
2, 18976, Note_on_c, 0, 55, 75
2, 19008, Note_off_c, 0, 55, 0
2, 19008, Note_on_c, 0, 53, 73
2, 19040, Note_off_c, 0, 53, 0
2, 19040, Note_on_c, 0, 55, 78
2, 19072, Note_off_c, 0, 55, 0
2, 19072, Note_on_c, 0, 57, 82
2, 19104, Note_off_c, 0, 57, 0
2, 19104, Note_on_c, 0, 55, 71
2, 19136, Note_off_c, 0, 55, 0
2, 19136, Note_on_c, 0, 53, 72
2, 19168, Note_off_c, 0, 53, 0
2, 19168, Note_on_c, 0, 51, 75
2, 19200, Note_off_c, 0, 51, 0
2, 19200, Note_on_c, 0, 50, 81
2, 19232, Note_off_c, 0, 50, 0
2, 19232, Note_on_c, 0, 51, 82
2, 19264, Note_off_c, 0, 51, 0
2, 19264, Note_on_c, 0, 53, 81
2, 19296, Note_off_c, 0, 53, 0
2, 19296, Note_on_c, 0, 51, 74
2, 19328, Note_off_c, 0, 51, 0
2, 19328, Note_on_c, 0, 50, 74
2, 19360, Note_off_c, 0, 50, 0
2, 19360, Note_on_c, 0, 48, 75
2, 19392, Note_off_c, 0, 48, 0
2, 19392, Note_on_c, 0, 46, 78
2, 19424, Note_off_c, 0, 46, 0
2, 19424, Note_on_c, 0, 45, 72
2, 19456, Note_off_c, 0, 45, 0
2, 19456, Note_on_c, 0, 46, 69
2, 19488, Note_on_c, 0, 50, 71
2, 19520, Note_off_c, 0, 50, 0
2, 19520, Note_on_c, 0, 53, 82
2, 19552, Note_off_c, 0, 53, 0
2, 19552, Note_on_c, 0, 50, 73
2, 19584, Note_off_c, 0, 46, 0
2, 19584, Note_off_c, 0, 50, 0
2, 19584, Note_on_c, 0, 50, 80
2, 19616, Note_on_c, 0, 53, 75
2, 19648, Note_off_c, 0, 53, 0
2, 19648, Note_on_c, 0, 58, 78
2, 19680, Note_off_c, 0, 58, 0
2, 19680, Note_on_c, 0, 53, 73
2, 19712, Note_off_c, 0, 50, 0
2, 19712, Note_off_c, 0, 53, 0
2, 19712, Note_on_c, 0, 53, 79
2, 19744, Note_on_c, 0, 58, 71
2, 19776, Note_off_c, 0, 58, 0
2, 19776, Note_on_c, 0, 62, 82
2, 19808, Note_off_c, 0, 62, 0
2, 19808, Note_on_c, 0, 58, 75
2, 19840, Note_off_c, 0, 53, 0
2, 19840, Note_off_c, 0, 58, 0
2, 19840, Note_on_c, 0, 58, 82
2, 19872, Note_on_c, 0, 62, 68
2, 19904, Note_off_c, 0, 62, 0
2, 19904, Note_on_c, 0, 65, 83
2, 19936, Note_off_c, 0, 65, 0
2, 19936, Note_on_c, 0, 62, 68
2, 19968, Note_off_c, 0, 62, 0
2, 19968, Note_on_c, 0, 62, 70
2, 19968, Note_off_c, 0, 58, 0
2, 20000, Note_on_c, 0, 65, 64
2, 20032, Note_off_c, 0, 65, 0
2, 20032, Note_on_c, 0, 70, 86
2, 20064, Note_off_c, 0, 70, 0
2, 20064, Note_on_c, 0, 65, 67
2, 20096, Note_off_c, 0, 62, 0
2, 20096, Note_off_c, 0, 65, 0
2, 20096, Note_on_c, 0, 65, 84
2, 20128, Note_on_c, 0, 70, 70
2, 20160, Note_off_c, 0, 70, 0
2, 20160, Note_on_c, 0, 74, 82
2, 20192, Note_off_c, 0, 74, 0
2, 20192, Note_on_c, 0, 70, 74
2, 20224, Note_off_c, 0, 65, 0
2, 20224, Note_off_c, 0, 70, 0
2, 20224, Note_on_c, 0, 70, 88
2, 20256, Note_on_c, 0, 74, 68
2, 20288, Note_off_c, 0, 74, 0
2, 20288, Note_on_c, 0, 77, 82
2, 20320, Note_off_c, 0, 77, 0
2, 20320, Note_on_c, 0, 74, 68
2, 20352, Note_off_c, 0, 70, 0
2, 20352, Note_off_c, 0, 74, 0
2, 20352, Note_on_c, 0, 82, 87
2, 20544, Note_off_c, 0, 82, 0
2, 20545, End_track
0, 0, End_of_file