0, 0, Header, 1, 2, 960
1, 0, Start_track
1, 0, Time_signature, 4, 2, 24, 8
1, 0, Key_signature, 1, "major"
1, 0, Tempo, 1000000
1, 84480, Tempo, 500000
1, 153600, Tempo, 500000
1, 153698, Tempo, 507462
1, 153795, Tempo, 515151
1, 153893, Tempo, 523076
1, 153990, Tempo, 531250
1, 154088, Tempo, 539682
1, 154185, Tempo, 548387
1, 154283, Tempo, 557377
1, 154380, Tempo, 566666
1, 154478, Tempo, 576271
1, 154575, Tempo, 586206
1, 154673, Tempo, 596491
1, 154770, Tempo, 607142
1, 154868, Tempo, 618181
1, 154965, Tempo, 629629
1, 155063, Tempo, 641509
1, 155160, Tempo, 653846
1, 155161, End_track
2, 0, Start_track
2, 0, Program_c, 0, 0
2, 0, Control_c, 0, 121, 0
2, 0, Control_c, 0, 64, 0
2, 0, Control_c, 0, 91, 48
2, 0, Control_c, 0, 10, 51
2, 0, Control_c, 0, 7, 100
2, 0, Note_on_c, 0, 76, 81
2, 0, Note_on_c, 0, 67, 81
2, 0, Note_on_c, 0, 71, 81
2, 0, Control_c, 0, 121, 0
2, 0, Control_c, 0, 64, 0
2, 0, Control_c, 0, 91, 48
2, 0, Control_c, 0, 10, 51
2, 0, Control_c, 0, 7, 100
2, 0, Title_t, "Piano"
2, 0, Note_on_c, 0, 52, 81
2, 240, Note_off_c, 0, 52, 0
2, 240, Note_on_c, 0, 55, 78
2, 480, Note_off_c, 0, 67, 0
2, 480, Note_off_c, 0, 71, 0
2, 480, Note_off_c, 0, 55, 0
2, 480, Note_on_c, 0, 57, 80
2, 720, Note_off_c, 0, 57, 0
2, 720, Note_on_c, 0, 59, 82
2, 960, Note_off_c, 0, 59, 0
2, 960, Note_on_c, 0, 57, 77
2, 1200, Note_off_c, 0, 57, 0
2, 1200, Note_on_c, 0, 59, 81
2, 1440, Note_off_c, 0, 59, 0
2, 1440, Note_on_c, 0, 57, 76
2, 1680, Note_off_c, 0, 57, 0
2, 1680, Note_on_c, 0, 55, 71
2, 1920, Note_off_c, 0, 55, 0
2, 1920, Note_on_c, 0, 67, 79
2, 1920, Note_on_c, 0, 71, 79
2, 1920, Note_on_c, 0, 52, 70
2, 2160, Note_off_c, 0, 52, 0
2, 2160, Note_on_c, 0, 55, 75
2, 2400, Note_off_c, 0, 76, 0
2, 2400, Note_off_c, 0, 67, 0
2, 2400, Note_off_c, 0, 71, 0
2, 2400, Note_off_c, 0, 55, 0
2, 2400, Note_on_c, 0, 78, 76
2, 2400, Note_on_c, 0, 57, 80
2, 2520, Note_off_c, 0, 78, 0
2, 2520, Note_on_c, 0, 76, 75
2, 2640, Note_off_c, 0, 76, 0
2, 2640, Note_off_c, 0, 57, 0
2, 2640, Note_on_c, 0, 75, 74
2, 2640, Note_on_c, 0, 59, 84
2, 2760, Note_off_c, 0, 75, 0
2, 2760, Note_on_c, 0, 76, 76
2, 2880, Note_off_c, 0, 76, 0
2, 2880, Note_off_c, 0, 59, 0
2, 2880, Note_on_c, 0, 76, 76
2, 2880, Note_on_c, 0, 57, 77
2, 3120, Note_off_c, 0, 57, 0
2, 3120, Note_on_c, 0, 59, 82
2, 3360, Note_off_c, 0, 59, 0
2, 3360, Note_on_c, 0, 57, 76
2, 3600, Note_off_c, 0, 76, 0
2, 3600, Note_off_c, 0, 57, 0
2, 3600, Note_on_c, 0, 75, 75
2, 3600, Note_on_c, 0, 55, 71
2, 3720, Note_off_c, 0, 75, 0
2, 3720, Note_on_c, 0, 76, 77
2, 3840, Note_off_c, 0, 76, 0
2, 3840, Note_off_c, 0, 55, 0
2, 3840, Note_on_c, 0, 78, 85
2, 3840, Note_on_c, 0, 69, 81
2, 3840, Note_on_c, 0, 72, 81
2, 3840, Note_on_c, 0, 52, 71
2, 4080, Note_off_c, 0, 52, 0
2, 4080, Note_on_c, 0, 57, 79
2, 4320, Note_off_c, 0, 69, 0
2, 4320, Note_off_c, 0, 72, 0
2, 4320, Note_off_c, 0, 57, 0
2, 4320, Note_on_c, 0, 59, 84
2, 4560, Note_off_c, 0, 59, 0
2, 4560, Note_on_c, 0, 60, 84
2, 4800, Note_off_c, 0, 60, 0
2, 4800, Note_on_c, 0, 59, 80
2, 5040, Note_off_c, 0, 59, 0
2, 5040, Note_on_c, 0, 60, 81
2, 5280, Note_off_c, 0, 60, 0
2, 5280, Note_on_c, 0, 59, 78
2, 5520, Note_off_c, 0, 59, 0
2, 5520, Note_on_c, 0, 57, 72
2, 5760, Note_off_c, 0, 57, 0
2, 5760, Note_on_c, 0, 69, 79
2, 5760, Note_on_c, 0, 72, 79
2, 5760, Note_on_c, 0, 52, 68
2, 6000, Note_off_c, 0, 52, 0
2, 6000, Note_on_c, 0, 57, 76
2, 6240, Note_off_c, 0, 69, 0
2, 6240, Note_off_c, 0, 72, 0
2, 6240, Note_off_c, 0, 57, 0
2, 6240, Note_on_c, 0, 59, 81
2, 6480, Note_off_c, 0, 59, 0
2, 6480, Note_on_c, 0, 60, 83
2, 6720, Note_off_c, 0, 60, 0
2, 6720, Note_on_c, 0, 59, 79
2, 6960, Note_off_c, 0, 59, 0
2, 6960, Note_on_c, 0, 60, 81
2, 7200, Note_off_c, 0, 60, 0
2, 7200, Note_on_c, 0, 59, 77
2, 7440, Note_off_c, 0, 59, 0
2, 7440, Note_on_c, 0, 57, 72
2, 7680, Note_off_c, 0, 57, 0
2, 7680, Note_on_c, 0, 69, 81
2, 7680, Note_on_c, 0, 72, 81
2, 7680, Note_on_c, 0, 51, 69
2, 7920, Note_off_c, 0, 78, 0
2, 7920, Note_off_c, 0, 51, 0
2, 7920, Note_on_c, 0, 76, 76
2, 7920, Note_on_c, 0, 57, 77
2, 8160, Note_off_c, 0, 69, 0
2, 8160, Note_off_c, 0, 72, 0
2, 8160, Note_off_c, 0, 76, 0
2, 8160, Note_off_c, 0, 57, 0
2, 8160, Note_on_c, 0, 75, 76
2, 8160, Note_on_c, 0, 59, 82
2, 8400, Note_off_c, 0, 59, 0
2, 8400, Note_on_c, 0, 76, 77
2, 8400, Note_on_c, 0, 60, 83
2, 8404, Note_off_c, 0, 75, 0
2, 8625, Note_off_c, 0, 76, 0
2, 8640, Note_off_c, 0, 60, 0
2, 8640, Note_on_c, 0, 78, 80
2, 8640, Note_on_c, 0, 59, 79
2, 8880, Note_off_c, 0, 59, 0
2, 8880, Note_on_c, 0, 76, 75
2, 8880, Note_on_c, 0, 60, 81
2, 8884, Note_off_c, 0, 78, 0
2, 9105, Note_off_c, 0, 76, 0
2, 9120, Note_off_c, 0, 60, 0
2, 9120, Note_on_c, 0, 79, 81
2, 9120, Note_on_c, 0, 59, 77
2, 9360, Note_off_c, 0, 59, 0
2, 9360, Note_on_c, 0, 78, 78
2, 9360, Note_on_c, 0, 57, 72
2, 9364, Note_off_c, 0, 79, 0
2, 9585, Note_off_c, 0, 78, 0
2, 9600, Note_off_c, 0, 57, 0
2, 9600, Note_on_c, 0, 81, 88
2, 9600, Note_on_c, 0, 71, 80
2, 9600, Note_on_c, 0, 78, 80
2, 9600, Note_on_c, 0, 51, 68
2, 9840, Note_off_c, 0, 51, 0
2, 9840, Note_on_c, 0, 57, 77
2, 10080, Note_off_c, 0, 71, 0
2, 10080, Note_off_c, 0, 78, 0
2, 10080, Note_off_c, 0, 57, 0
2, 10080, Note_on_c, 0, 59, 82
2, 10320, Note_off_c, 0, 59, 0
2, 10320, Note_on_c, 0, 60, 83
2, 10560, Note_off_c, 0, 60, 0
2, 10560, Note_on_c, 0, 59, 79
2, 10680, Note_off_c, 0, 81, 0
2, 10680, Note_on_c, 0, 84, 80
2, 10800, Note_off_c, 0, 84, 0
2, 10800, Note_off_c, 0, 59, 0
2, 10800, Note_on_c, 0, 83, 78
2, 10800, Note_on_c, 0, 60, 81
2, 10920, Note_off_c, 0, 83, 0
2, 10920, Note_on_c, 0, 81, 75
2, 11040, Note_off_c, 0, 81, 0
2, 11040, Note_off_c, 0, 60, 0
2, 11040, Note_on_c, 0, 79, 71
2, 11040, Note_on_c, 0, 59, 77
2, 11280, Note_off_c, 0, 79, 0
2, 11280, Note_off_c, 0, 59, 0
2, 11280, Note_on_c, 0, 81, 76
2, 11280, Note_on_c, 0, 57, 72
2, 11400, Note_off_c, 0, 81, 0
2, 11400, Note_on_c, 0, 78, 69
2, 11520, Note_off_c, 0, 78, 0
2, 11520, Note_off_c, 0, 57, 0
2, 11520, Note_on_c, 0, 79, 77
2, 11520, Note_on_c, 0, 71, 81
2, 11520, Note_on_c, 0, 76, 81
2, 11520, Note_on_c, 0, 52, 70
2, 11760, Note_off_c, 0, 52, 0
2, 11760, Note_on_c, 0, 55, 72
2, 12000, Note_off_c, 0, 71, 0
2, 12000, Note_off_c, 0, 76, 0
2, 12000, Note_off_c, 0, 55, 0
2, 12000, Note_on_c, 0, 57, 78
2, 12240, Note_off_c, 0, 57, 0
2, 12240, Note_on_c, 0, 59, 82
2, 12480, Note_off_c, 0, 59, 0
2, 12480, Note_on_c, 0, 57, 76
2, 12720, Note_off_c, 0, 57, 0
2, 12720, Note_on_c, 0, 59, 81
2, 12960, Note_off_c, 0, 59, 0
2, 12960, Note_on_c, 0, 57, 75
2, 13200, Note_off_c, 0, 57, 0
2, 13200, Note_on_c, 0, 55, 71
2, 13440, Note_off_c, 0, 55, 0
2, 13440, Note_on_c, 0, 71, 79
2, 13440, Note_on_c, 0, 76, 79
2, 13440, Note_on_c, 0, 52, 70
2, 13680, Note_off_c, 0, 52, 0
2, 13680, Note_on_c, 0, 55, 75
2, 13920, Note_off_c, 0, 79, 0
2, 13920, Note_off_c, 0, 71, 0
2, 13920, Note_off_c, 0, 76, 0
2, 13920, Note_off_c, 0, 55, 0
2, 13920, Note_on_c, 0, 84, 76
2, 13920, Note_on_c, 0, 57, 80
2, 14160, Note_off_c, 0, 84, 0
2, 14160, Note_off_c, 0, 57, 0
2, 14160, Note_on_c, 0, 83, 76
2, 14160, Note_on_c, 0, 59, 84
2, 14400, Note_off_c, 0, 83, 0
2, 14400, Note_off_c, 0, 59, 0
2, 14400, Note_on_c, 0, 84, 77
2, 14400, Note_on_c, 0, 57, 77
2, 14640, Note_off_c, 0, 57, 0
2, 14640, Note_on_c, 0, 59, 82
2, 14880, Note_off_c, 0, 84, 0
2, 14880, Note_off_c, 0, 59, 0
2, 14880, Note_on_c, 0, 76, 68
2, 14880, Note_on_c, 0, 57, 76
2, 15120, Note_off_c, 0, 57, 0
2, 15120, Note_on_c, 0, 55, 71
2, 15360, Note_off_c, 0, 76, 0
2, 15360, Note_off_c, 0, 55, 0
2, 15360, Note_on_c, 0, 78, 78
2, 15360, Note_on_c, 0, 69, 80
2, 15360, Note_on_c, 0, 72, 80
2, 15360, Note_on_c, 0, 52, 71
2, 15600, Note_off_c, 0, 52, 0
2, 15600, Note_on_c, 0, 54, 72
2, 15840, Note_off_c, 0, 69, 0
2, 15840, Note_off_c, 0, 72, 0
2, 15840, Note_off_c, 0, 54, 0
2, 15840, Note_on_c, 0, 55, 76
2, 16080, Note_off_c, 0, 55, 0
2, 16080, Note_on_c, 0, 57, 81
2, 16320, Note_off_c, 0, 57, 0
2, 16320, Note_on_c, 0, 55, 75
2, 16560, Note_off_c, 0, 55, 0
2, 16560, Note_on_c, 0, 57, 80
2, 16800, Note_off_c, 0, 57, 0
2, 16800, Note_on_c, 0, 55, 75
2, 17040, Note_off_c, 0, 55, 0
2, 17040, Note_on_c, 0, 54, 73
2, 17280, Note_off_c, 0, 54, 0
2, 17280, Note_on_c, 0, 71, 79
2, 17280, Note_on_c, 0, 74, 79
2, 17280, Note_on_c, 0, 50, 70
2, 17520, Note_off_c, 0, 50, 0
2, 17520, Note_on_c, 0, 54, 76
2, 17760, Note_off_c, 0, 78, 0
2, 17760, Note_off_c, 0, 71, 0
2, 17760, Note_off_c, 0, 74, 0
2, 17760, Note_off_c, 0, 54, 0
2, 17760, Note_on_c, 0, 83, 76
2, 17760, Note_on_c, 0, 55, 79
2, 18000, Note_off_c, 0, 55, 0
2, 18000, Note_on_c, 0, 57, 83
2, 18240, Note_off_c, 0, 57, 0
2, 18240, Note_on_c, 0, 55, 77
2, 18360, Note_off_c, 0, 83, 0
2, 18360, Note_on_c, 0, 84, 77
2, 18480, Note_off_c, 0, 84, 0
2, 18480, Note_off_c, 0, 55, 0
2, 18480, Note_on_c, 0, 83, 76
2, 18480, Note_on_c, 0, 57, 82
2, 18600, Note_off_c, 0, 83, 0
2, 18600, Note_on_c, 0, 81, 73
2, 18720, Note_off_c, 0, 81, 0
2, 18720, Note_off_c, 0, 57, 0
2, 18720, Note_on_c, 0, 83, 77
2, 18720, Note_on_c, 0, 55, 75
2, 18840, Note_off_c, 0, 83, 0
2, 18840, Note_on_c, 0, 79, 69
2, 18960, Note_off_c, 0, 79, 0
2, 18960, Note_off_c, 0, 55, 0
2, 18960, Note_on_c, 0, 81, 74
2, 18960, Note_on_c, 0, 54, 73
2, 19080, Note_off_c, 0, 81, 0
2, 19080, Note_on_c, 0, 83, 80
2, 19200, Note_off_c, 0, 83, 0
2, 19200, Note_off_c, 0, 54, 0
2, 19200, Note_on_c, 0, 76, 69
2, 19200, Note_on_c, 0, 67, 81
2, 19200, Note_on_c, 0, 71, 81
2, 19200, Note_on_c, 0, 50, 72
2, 19440, Note_off_c, 0, 50, 0
2, 19440, Note_on_c, 0, 52, 72
2, 19680, Note_off_c, 0, 67, 0
2, 19680, Note_off_c, 0, 71, 0
2, 19680, Note_off_c, 0, 52, 0
2, 19680, Note_on_c, 0, 54, 78
2, 19920, Note_off_c, 0, 54, 0
2, 19920, Note_on_c, 0, 55, 80
2, 20160, Note_off_c, 0, 55, 0
2, 20160, Note_on_c, 0, 54, 77
2, 20400, Note_off_c, 0, 54, 0
2, 20400, Note_on_c, 0, 55, 79
2, 20640, Note_off_c, 0, 55, 0
2, 20640, Note_on_c, 0, 54, 76
2, 20880, Note_off_c, 0, 54, 0
2, 20880, Note_on_c, 0, 52, 72
2, 21120, Note_off_c, 0, 52, 0
2, 21120, Note_on_c, 0, 69, 79
2, 21120, Note_on_c, 0, 72, 79
2, 21120, Note_on_c, 0, 48, 70
2, 21360, Note_off_c, 0, 76, 0
2, 21360, Note_off_c, 0, 48, 0
2, 21360, Note_on_c, 0, 72, 76
2, 21360, Note_on_c, 0, 52, 76
2, 21600, Note_off_c, 0, 69, 0
2, 21600, Note_off_c, 0, 72, 0
2, 21600, Note_off_c, 0, 72, 0
2, 21600, Note_off_c, 0, 52, 0
2, 21600, Note_on_c, 0, 69, 74
2, 21600, Note_on_c, 0, 54, 81
2, 21840, Note_off_c, 0, 69, 0
2, 21840, Note_off_c, 0, 54, 0
2, 21840, Note_on_c, 0, 71, 77
2, 21840, Note_on_c, 0, 55, 82
2, 22080, Note_off_c, 0, 71, 0
2, 22080, Note_off_c, 0, 55, 0
2, 22080, Note_on_c, 0, 72, 78
2, 22080, Note_on_c, 0, 54, 78
2, 22320, Note_off_c, 0, 72, 0
2, 22320, Note_off_c, 0, 54, 0
2, 22320, Note_on_c, 0, 76, 84
2, 22320, Note_on_c, 0, 55, 80
2, 22560, Note_off_c, 0, 76, 0
2, 22560, Note_off_c, 0, 55, 0
2, 22560, Note_on_c, 0, 74, 79
2, 22560, Note_on_c, 0, 54, 77
2, 22800, Note_off_c, 0, 74, 0
2, 22800, Note_off_c, 0, 54, 0
2, 22800, Note_on_c, 0, 76, 83
2, 22800, Note_on_c, 0, 52, 72
2, 22920, Note_off_c, 0, 76, 0
2, 22920, Note_on_c, 0, 72, 72
2, 23040, Note_off_c, 0, 72, 0
2, 23040, Note_off_c, 0, 52, 0
2, 23040, Note_on_c, 0, 74, 83
2, 23040, Note_on_c, 0, 66, 81
2, 23040, Note_on_c, 0, 69, 81
2, 23040, Note_on_c, 0, 48, 72
2, 23280, Note_off_c, 0, 48, 0
2, 23280, Note_on_c, 0, 54, 80
2, 23520, Note_off_c, 0, 66, 0
2, 23520, Note_off_c, 0, 69, 0
2, 23520, Note_off_c, 0, 54, 0
2, 23520, Note_on_c, 0, 55, 82
2, 23760, Note_off_c, 0, 55, 0
2, 23760, Note_on_c, 0, 57, 85
2, 24000, Note_off_c, 0, 57, 0
2, 24000, Note_on_c, 0, 55, 79
2, 24240, Note_off_c, 0, 55, 0
2, 24240, Note_on_c, 0, 57, 83
2, 24480, Note_off_c, 0, 57, 0
2, 24480, Note_on_c, 0, 55, 76
2, 24720, Note_off_c, 0, 55, 0
2, 24720, Note_on_c, 0, 54, 74
2, 24960, Note_off_c, 0, 54, 0
2, 24960, Note_on_c, 0, 67, 79
2, 24960, Note_on_c, 0, 71, 79
2, 24960, Note_on_c, 0, 47, 69
2, 25200, Note_off_c, 0, 47, 0
2, 25200, Note_on_c, 0, 55, 81
2, 25440, Note_off_c, 0, 74, 0
2, 25440, Note_off_c, 0, 67, 0
2, 25440, Note_off_c, 0, 71, 0
2, 25440, Note_off_c, 0, 55, 0
2, 25440, Note_on_c, 0, 79, 76
2, 25440, Note_on_c, 0, 57, 84
2, 25680, Note_off_c, 0, 57, 0
2, 25680, Note_on_c, 0, 59, 86
2, 25920, Note_off_c, 0, 59, 0
2, 25920, Note_on_c, 0, 57, 80
2, 26040, Note_off_c, 0, 79, 0
2, 26040, Note_on_c, 0, 77, 75
2, 26160, Note_off_c, 0, 77, 0
2, 26160, Note_off_c, 0, 57, 0
2, 26160, Note_on_c, 0, 76, 75
2, 26160, Note_on_c, 0, 59, 84
2, 26280, Note_off_c, 0, 76, 0
2, 26280, Note_on_c, 0, 74, 72
2, 26400, Note_off_c, 0, 74, 0
2, 26400, Note_off_c, 0, 59, 0
2, 26400, Note_on_c, 0, 72, 69
2, 26400, Note_on_c, 0, 57, 77
2, 26640, Note_off_c, 0, 72, 0
2, 26640, Note_off_c, 0, 57, 0
2, 26640, Note_on_c, 0, 74, 74
2, 26640, Note_on_c, 0, 55, 72
2, 26760, Note_off_c, 0, 74, 0
2, 26760, Note_on_c, 0, 71, 68
2, 26880, Note_off_c, 0, 71, 0
2, 26880, Note_off_c, 0, 55, 0
2, 26880, Note_on_c, 0, 72, 76
2, 26880, Note_on_c, 0, 64, 80
2, 26880, Note_on_c, 0, 67, 80
2, 26880, Note_on_c, 0, 47, 69
2, 27120, Note_off_c, 0, 47, 0
2, 27120, Note_on_c, 0, 52, 71
2, 27360, Note_off_c, 0, 64, 0
2, 27360, Note_off_c, 0, 67, 0
2, 27360, Note_off_c, 0, 52, 0
2, 27360, Note_on_c, 0, 54, 77
2, 27600, Note_off_c, 0, 54, 0
2, 27600, Note_on_c, 0, 55, 80
2, 27840, Note_off_c, 0, 55, 0
2, 27840, Note_on_c, 0, 54, 77
2, 28080, Note_off_c, 0, 54, 0
2, 28080, Note_on_c, 0, 55, 79
2, 28320, Note_off_c, 0, 55, 0
2, 28320, Note_on_c, 0, 54, 76
2, 28560, Note_off_c, 0, 54, 0
2, 28560, Note_on_c, 0, 52, 72
2, 28800, Note_off_c, 0, 52, 0
2, 28800, Note_on_c, 0, 66, 79
2, 28800, Note_on_c, 0, 69, 79
2, 28800, Note_on_c, 0, 45, 69
2, 29040, Note_off_c, 0, 72, 0
2, 29040, Note_off_c, 0, 45, 0
2, 29040, Note_on_c, 0, 74, 76
2, 29040, Note_on_c, 0, 54, 82
2, 29280, Note_off_c, 0, 66, 0
2, 29280, Note_off_c, 0, 69, 0
2, 29280, Note_off_c, 0, 74, 0
2, 29280, Note_off_c, 0, 54, 0
2, 29280, Note_on_c, 0, 76, 77
2, 29280, Note_on_c, 0, 55, 84
2, 29520, Note_off_c, 0, 76, 0
2, 29520, Note_off_c, 0, 55, 0
2, 29520, Note_on_c, 0, 78, 79
2, 29520, Note_on_c, 0, 57, 85
2, 29760, Note_off_c, 0, 78, 0
2, 29760, Note_off_c, 0, 57, 0
2, 29760, Note_on_c, 0, 79, 80
2, 29760, Note_on_c, 0, 55, 79
2, 30000, Note_off_c, 0, 79, 0
2, 30000, Note_off_c, 0, 55, 0
2, 30000, Note_on_c, 0, 78, 78
2, 30000, Note_on_c, 0, 57, 83
2, 30240, Note_off_c, 0, 78, 0
2, 30240, Note_off_c, 0, 57, 0
2, 30240, Note_on_c, 0, 81, 83
2, 30240, Note_on_c, 0, 55, 77
2, 30480, Note_off_c, 0, 81, 0
2, 30480, Note_off_c, 0, 55, 0
2, 30480, Note_on_c, 0, 72, 65
2, 30480, Note_on_c, 0, 54, 74
2, 30720, Note_off_c, 0, 72, 0
2, 30720, Note_off_c, 0, 54, 0
2, 30720, Note_on_c, 0, 72, 71
2, 30720, Note_on_c, 0, 62, 81
2, 30720, Note_on_c, 0, 67, 81
2, 30720, Note_on_c, 0, 43, 69
2, 30960, Note_off_c, 0, 43, 0
2, 30960, Note_on_c, 0, 57, 85
2, 31174, Note_off_c, 0, 62, 0
2, 31174, Note_off_c, 0, 67, 0
2, 31200, Note_off_c, 0, 57, 0
2, 31200, Note_on_c, 0, 59, 86
2, 31440, Note_off_c, 0, 59, 0
2, 31440, Note_on_c, 0, 60, 86
2, 31631, Note_off_c, 0, 72, 0
2, 31680, Note_off_c, 0, 60, 0
2, 31680, Note_on_c, 0, 71, 72
2, 31680, Note_on_c, 0, 59, 83
2, 31920, Note_off_c, 0, 59, 0
2, 31920, Note_on_c, 0, 60, 83
2, 32160, Note_off_c, 0, 60, 0
2, 32160, Note_on_c, 0, 59, 79
2, 32400, Note_off_c, 0, 59, 0
2, 32400, Note_on_c, 0, 57, 73
2, 32640, Note_off_c, 0, 57, 0
2, 32640, Note_on_c, 0, 62, 79
2, 32640, Note_on_c, 0, 67, 79
2, 32640, Note_on_c, 0, 55, 72
2, 32880, Note_off_c, 0, 55, 0
2, 32880, Note_on_c, 0, 59, 80
2, 33120, Note_off_c, 0, 71, 0
2, 33120, Note_off_c, 0, 62, 0
2, 33120, Note_off_c, 0, 67, 0
2, 33120, Note_off_c, 0, 59, 0
2, 33120, Note_on_c, 0, 71, 76
2, 33120, Note_on_c, 0, 60, 81
2, 33360, Note_off_c, 0, 60, 0
2, 33360, Note_on_c, 0, 62, 84
2, 33600, Note_off_c, 0, 71, 0
2, 33600, Note_off_c, 0, 62, 0
2, 33600, Note_on_c, 0, 69, 75
2, 33600, Note_on_c, 0, 60, 78
2, 33720, Note_off_c, 0, 69, 0
2, 33720, Note_on_c, 0, 67, 73
2, 33840, Note_off_c, 0, 67, 0
2, 33840, Note_off_c, 0, 60, 0
2, 33840, Note_on_c, 0, 66, 72
2, 33840, Note_on_c, 0, 62, 82
2, 34080, Note_off_c, 0, 66, 0
2, 34080, Note_off_c, 0, 62, 0
2, 34080, Note_on_c, 0, 67, 75
2, 34080, Note_on_c, 0, 60, 76
2, 34200, Note_off_c, 0, 67, 0
2, 34200, Note_on_c, 0, 66, 73
2, 34320, Note_off_c, 0, 66, 0
2, 34320, Note_off_c, 0, 60, 0
2, 34320, Note_on_c, 0, 64, 69
2, 34320, Note_on_c, 0, 59, 73
2, 34560, Note_off_c, 0, 64, 0
2, 34560, Note_off_c, 0, 59, 0
2, 34560, Note_on_c, 0, 76, 93
2, 34560, Note_on_c, 0, 69, 81
2, 34560, Note_on_c, 0, 73, 81
2, 34560, Note_on_c, 0, 55, 70
2, 34800, Note_off_c, 0, 55, 0
2, 34800, Note_on_c, 0, 61, 81
2, 35040, Note_off_c, 0, 69, 0
2, 35040, Note_off_c, 0, 73, 0
2, 35040, Note_off_c, 0, 61, 0
2, 35040, Note_on_c, 0, 62, 83
2, 35160, Note_off_c, 0, 76, 0
2, 35160, Note_on_c, 0, 78, 88
2, 35280, Note_off_c, 0, 78, 0
2, 35280, Note_off_c, 0, 62, 0
2, 35280, Note_on_c, 0, 76, 85
2, 35280, Note_on_c, 0, 64, 85
2, 35400, Note_off_c, 0, 76, 0
2, 35400, Note_on_c, 0, 75, 83
2, 35520, Note_off_c, 0, 75, 0
2, 35520, Note_off_c, 0, 64, 0
2, 35520, Note_on_c, 0, 76, 84
2, 35520, Note_on_c, 0, 62, 79
2, 35760, Note_off_c, 0, 62, 0
2, 35760, Note_on_c, 0, 64, 83
2, 36000, Note_off_c, 0, 64, 0
2, 36000, Note_on_c, 0, 62, 76
2, 36240, Note_off_c, 0, 76, 0
2, 36240, Note_off_c, 0, 62, 0
2, 36240, Note_on_c, 0, 78, 84
2, 36240, Note_on_c, 0, 61, 74
2, 36480, Note_off_c, 0, 78, 0
2, 36480, Note_off_c, 0, 61, 0
2, 36480, Note_on_c, 0, 78, 82
2, 36480, Note_on_c, 0, 69, 79
2, 36480, Note_on_c, 0, 75, 79
2, 36480, Note_on_c, 0, 54, 67
2, 36548, Note_off_c, 0, 78, 0
2, 36566, Note_on_c, 0, 79, 82
2, 36634, Note_off_c, 0, 79, 0
2, 36649, Note_on_c, 0, 78, 82
2, 36713, Note_off_c, 0, 78, 0
2, 36720, Note_off_c, 0, 54, 0
2, 36720, Note_on_c, 0, 63, 83
2, 36731, Note_on_c, 0, 79, 82
2, 36795, Note_off_c, 0, 79, 0
2, 36810, Note_on_c, 0, 78, 82
2, 36870, Note_off_c, 0, 78, 0
2, 36889, Note_on_c, 0, 79, 82
2, 36949, Note_off_c, 0, 79, 0
2, 36960, Note_off_c, 0, 69, 0
2, 36960, Note_off_c, 0, 75, 0
2, 36960, Note_off_c, 0, 63, 0
2, 36960, Note_on_c, 0, 64, 84
2, 36964, Note_on_c, 0, 78, 82
2, 37024, Note_off_c, 0, 78, 0
2, 37039, Note_on_c, 0, 79, 82
2, 37099, Note_off_c, 0, 79, 0
2, 37110, Note_on_c, 0, 78, 82
2, 37166, Note_off_c, 0, 78, 0
2, 37181, Note_on_c, 0, 79, 82
2, 37200, Note_off_c, 0, 64, 0
2, 37200, Note_on_c, 0, 66, 85
2, 37238, Note_off_c, 0, 79, 0
2, 37249, Note_on_c, 0, 78, 82
2, 37301, Note_off_c, 0, 78, 0
2, 37316, Note_on_c, 0, 79, 82
2, 37369, Note_off_c, 0, 79, 0
2, 37388, Note_on_c, 0, 78, 82
2, 37440, Note_off_c, 0, 66, 0
2, 37440, Note_on_c, 0, 64, 80
2, 37444, Note_off_c, 0, 78, 0
2, 37459, Note_on_c, 0, 79, 82
2, 37515, Note_off_c, 0, 79, 0
2, 37534, Note_on_c, 0, 78, 82
2, 37594, Note_off_c, 0, 78, 0
2, 37609, Note_on_c, 0, 79, 82
2, 37669, Note_off_c, 0, 79, 0
2, 37680, Note_off_c, 0, 64, 0
2, 37680, Note_on_c, 0, 66, 84
2, 37688, Note_on_c, 0, 78, 82
2, 37748, Note_off_c, 0, 78, 0
2, 37766, Note_on_c, 0, 79, 82
2, 37826, Note_off_c, 0, 79, 0
2, 37849, Note_on_c, 0, 78, 82
2, 37913, Note_off_c, 0, 78, 0
2, 37920, Note_off_c, 0, 66, 0
2, 37920, Note_on_c, 0, 64, 77
2, 38160, Note_off_c, 0, 64, 0
2, 38160, Note_on_c, 0, 76, 76
2, 38160, Note_on_c, 0, 63, 74
2, 38280, Note_off_c, 0, 76, 0
2, 38280, Note_on_c, 0, 78, 77
2, 38400, Note_off_c, 0, 78, 0
2, 38400, Note_off_c, 0, 63, 0
2, 38400, Note_on_c, 0, 79, 83
2, 38400, Note_on_c, 0, 71, 81
2, 38400, Note_on_c, 0, 76, 81
2, 38400, Note_on_c, 0, 52, 69
2, 38640, Note_off_c, 0, 52, 0
2, 38640, Note_on_c, 0, 54, 65
2, 38880, Note_off_c, 0, 71, 0
2, 38880, Note_off_c, 0, 76, 0
2, 38880, Note_off_c, 0, 54, 0
2, 38880, Note_on_c, 0, 55, 67
2, 39120, Note_off_c, 0, 55, 0
2, 39120, Note_on_c, 0, 57, 74
2, 39360, Note_off_c, 0, 57, 0
2, 39360, Note_on_c, 0, 55, 70
2, 39600, Note_off_c, 0, 55, 0
2, 39600, Note_on_c, 0, 57, 77
2, 39840, Note_off_c, 0, 57, 0
2, 39840, Note_on_c, 0, 55, 73
2, 40080, Note_off_c, 0, 55, 0
2, 40080, Note_on_c, 0, 54, 72
2, 40320, Note_off_c, 0, 54, 0
2, 40320, Note_on_c, 0, 67, 79
2, 40320, Note_on_c, 0, 71, 79
2, 40320, Note_on_c, 0, 52, 72
2, 40560, Note_off_c, 0, 79, 0
2, 40560, Note_off_c, 0, 52, 0
2, 40560, Note_on_c, 0, 71, 76
2, 40560, Note_on_c, 0, 55, 77
2, 40800, Note_off_c, 0, 67, 0
2, 40800, Note_off_c, 0, 71, 0
2, 40800, Note_off_c, 0, 71, 0
2, 40800, Note_off_c, 0, 55, 0
2, 40800, Note_on_c, 0, 69, 75
2, 40800, Note_on_c, 0, 57, 82
2, 41040, Note_off_c, 0, 69, 0
2, 41040, Note_off_c, 0, 57, 0
2, 41040, Note_on_c, 0, 67, 73
2, 41040, Note_on_c, 0, 59, 85
2, 41280, Note_off_c, 0, 59, 0
2, 41280, Note_on_c, 0, 57, 79
2, 41520, Note_off_c, 0, 67, 0
2, 41520, Note_off_c, 0, 57, 0
2, 41520, Note_on_c, 0, 66, 73
2, 41520, Note_on_c, 0, 59, 83
2, 41640, Note_off_c, 0, 66, 0
2, 41640, Note_on_c, 0, 64, 70
2, 41760, Note_off_c, 0, 64, 0
2, 41760, Note_off_c, 0, 59, 0
2, 41760, Note_on_c, 0, 63, 69
2, 41760, Note_on_c, 0, 57, 76
2, 42000, Note_off_c, 0, 63, 0
2, 42000, Note_off_c, 0, 57, 0
2, 42000, Note_on_c, 0, 64, 73
2, 42000, Note_on_c, 0, 55, 71
2, 42240, Note_off_c, 0, 64, 0
2, 42240, Note_off_c, 0, 55, 0
2, 42240, Note_on_c, 0, 72, 93
2, 42240, Note_on_c, 0, 65, 81
2, 42240, Note_on_c, 0, 69, 81
2, 42240, Note_on_c, 0, 52, 71
2, 42480, Note_off_c, 0, 52, 0
2, 42480, Note_on_c, 0, 57, 80
2, 42720, Note_off_c, 0, 65, 0
2, 42720, Note_off_c, 0, 69, 0
2, 42720, Note_off_c, 0, 57, 0
2, 42720, Note_on_c, 0, 59, 84
2, 42840, Note_off_c, 0, 72, 0
2, 42840, Note_on_c, 0, 71, 83
2, 42960, Note_off_c, 0, 71, 0
2, 42960, Note_off_c, 0, 59, 0
2, 42960, Note_on_c, 0, 69, 78
2, 42960, Note_on_c, 0, 60, 84
2, 43080, Note_off_c, 0, 69, 0
2, 43080, Note_on_c, 0, 71, 82
2, 43200, Note_off_c, 0, 71, 0
2, 43200, Note_off_c, 0, 60, 0
2, 43200, Note_on_c, 0, 72, 84
2, 43200, Note_on_c, 0, 59, 80
2, 43320, Note_off_c, 0, 72, 0
2, 43320, Note_on_c, 0, 74, 86
2, 43440, Note_off_c, 0, 74, 0
2, 43440, Note_off_c, 0, 59, 0
2, 43440, Note_on_c, 0, 72, 81
2, 43440, Note_on_c, 0, 60, 81
2, 43560, Note_off_c, 0, 72, 0
2, 43560, Note_on_c, 0, 71, 77
2, 43680, Note_off_c, 0, 71, 0
2, 43680, Note_off_c, 0, 60, 0
2, 43680, Note_on_c, 0, 72, 80
2, 43680, Note_on_c, 0, 59, 78
2, 43920, Note_off_c, 0, 72, 0
2, 43920, Note_off_c, 0, 59, 0
2, 43920, Note_on_c, 0, 74, 84
2, 43920, Note_on_c, 0, 57, 72
2, 44160, Note_off_c, 0, 74, 0
2, 44160, Note_off_c, 0, 57, 0
2, 44160, Note_on_c, 0, 74, 86
2, 44160, Note_on_c, 0, 65, 79
2, 44160, Note_on_c, 0, 71, 79
2, 44160, Note_on_c, 0, 50, 67
2, 44228, Note_off_c, 0, 74, 0
2, 44246, Note_on_c, 0, 76, 86
2, 44314, Note_off_c, 0, 76, 0
2, 44329, Note_on_c, 0, 74, 86
2, 44393, Note_off_c, 0, 74, 0
2, 44400, Note_off_c, 0, 50, 0
2, 44400, Note_on_c, 0, 59, 82
2, 44411, Note_on_c, 0, 76, 86
2, 44475, Note_off_c, 0, 76, 0
2, 44490, Note_on_c, 0, 74, 86
2, 44550, Note_off_c, 0, 74, 0
2, 44569, Note_on_c, 0, 76, 86
2, 44629, Note_off_c, 0, 76, 0
2, 44640, Note_off_c, 0, 65, 0
2, 44640, Note_off_c, 0, 71, 0
2, 44640, Note_off_c, 0, 59, 0
2, 44640, Note_on_c, 0, 60, 84
2, 44644, Note_on_c, 0, 74, 86
2, 44704, Note_off_c, 0, 74, 0
2, 44719, Note_on_c, 0, 76, 86
2, 44779, Note_off_c, 0, 76, 0
2, 44790, Note_on_c, 0, 74, 86
2, 44846, Note_off_c, 0, 74, 0
2, 44861, Note_on_c, 0, 76, 86
2, 44880, Note_off_c, 0, 60, 0
2, 44880, Note_on_c, 0, 62, 85
2, 44918, Note_off_c, 0, 76, 0
2, 44929, Note_on_c, 0, 74, 86
2, 44981, Note_off_c, 0, 74, 0
2, 44996, Note_on_c, 0, 76, 86
2, 45049, Note_off_c, 0, 76, 0
2, 45068, Note_on_c, 0, 74, 86
2, 45120, Note_off_c, 0, 62, 0
2, 45120, Note_on_c, 0, 60, 79
2, 45124, Note_off_c, 0, 74, 0
2, 45139, Note_on_c, 0, 76, 86
2, 45195, Note_off_c, 0, 76, 0
2, 45214, Note_on_c, 0, 74, 86
2, 45274, Note_off_c, 0, 74, 0
2, 45289, Note_on_c, 0, 76, 86
2, 45349, Note_off_c, 0, 76, 0
2, 45360, Note_off_c, 0, 60, 0
2, 45360, Note_on_c, 0, 62, 83
2, 45368, Note_on_c, 0, 74, 86
2, 45428, Note_off_c, 0, 74, 0
2, 45446, Note_on_c, 0, 76, 86
2, 45506, Note_off_c, 0, 76, 0
2, 45529, Note_on_c, 0, 74, 86
2, 45593, Note_off_c, 0, 74, 0
2, 45600, Note_off_c, 0, 62, 0
2, 45600, Note_on_c, 0, 60, 77
2, 45840, Note_off_c, 0, 60, 0
2, 45840, Note_on_c, 0, 72, 76
2, 45840, Note_on_c, 0, 59, 74
2, 45960, Note_off_c, 0, 72, 0
2, 45960, Note_on_c, 0, 74, 77
2, 46080, Note_off_c, 0, 74, 0
2, 46080, Note_off_c, 0, 59, 0
2, 46080, Note_on_c, 0, 76, 84
2, 46080, Note_on_c, 0, 67, 81
2, 46080, Note_on_c, 0, 72, 81
2, 46080, Note_on_c, 0, 48, 69
2, 46320, Note_off_c, 0, 48, 0
2, 46320, Note_on_c, 0, 50, 66
2, 46560, Note_off_c, 0, 67, 0
2, 46560, Note_off_c, 0, 72, 0
2, 46560, Note_off_c, 0, 50, 0
2, 46560, Note_on_c, 0, 52, 69
2, 46800, Note_off_c, 0, 52, 0
2, 46800, Note_on_c, 0, 53, 73
2, 47040, Note_off_c, 0, 53, 0
2, 47040, Note_on_c, 0, 52, 73
2, 47280, Note_off_c, 0, 52, 0
2, 47280, Note_on_c, 0, 53, 76
2, 47520, Note_off_c, 0, 53, 0
2, 47520, Note_on_c, 0, 52, 75
2, 47760, Note_off_c, 0, 52, 0
2, 47760, Note_on_c, 0, 50, 72
2, 48000, Note_off_c, 0, 50, 0
2, 48000, Note_on_c, 0, 64, 79
2, 48000, Note_on_c, 0, 67, 79
2, 48000, Note_on_c, 0, 48, 73
2, 48240, Note_off_c, 0, 48, 0
2, 48240, Note_on_c, 0, 52, 79
2, 48480, Note_off_c, 0, 76, 0
2, 48480, Note_off_c, 0, 64, 0
2, 48480, Note_off_c, 0, 67, 0
2, 48480, Note_off_c, 0, 52, 0
2, 48480, Note_on_c, 0, 74, 76
2, 48480, Note_on_c, 0, 53, 81
2, 48720, Note_off_c, 0, 74, 0
2, 48720, Note_off_c, 0, 53, 0
2, 48720, Note_on_c, 0, 72, 75
2, 48720, Note_on_c, 0, 55, 84
2, 48960, Note_off_c, 0, 72, 0
2, 48960, Note_off_c, 0, 55, 0
2, 48960, Note_on_c, 0, 74, 77
2, 48960, Note_on_c, 0, 53, 78
2, 49200, Note_off_c, 0, 74, 0
2, 49200, Note_off_c, 0, 53, 0
2, 49200, Note_on_c, 0, 71, 73
2, 49200, Note_on_c, 0, 55, 82
2, 49440, Note_off_c, 0, 71, 0
2, 49440, Note_off_c, 0, 55, 0
2, 49440, Note_on_c, 0, 68, 68
2, 49440, Note_on_c, 0, 53, 76
2, 49680, Note_off_c, 0, 68, 0
2, 49680, Note_off_c, 0, 53, 0
2, 49680, Note_on_c, 0, 69, 72
2, 49680, Note_on_c, 0, 52, 74
2, 49920, Note_off_c, 0, 69, 0
2, 49920, Note_off_c, 0, 52, 0
2, 49920, Note_on_c, 0, 74, 89
2, 49920, Note_on_c, 0, 66, 81
2, 49920, Note_on_c, 0, 69, 81
2, 49920, Note_on_c, 0, 48, 72
2, 50160, Note_off_c, 0, 48, 0
2, 50160, Note_on_c, 0, 54, 81
2, 50400, Note_off_c, 0, 66, 0
2, 50400, Note_off_c, 0, 69, 0
2, 50400, Note_off_c, 0, 54, 0
2, 50400, Note_on_c, 0, 55, 83
2, 50640, Note_off_c, 0, 55, 0
2, 50640, Note_on_c, 0, 57, 85
2, 50880, Note_off_c, 0, 57, 0
2, 50880, Note_on_c, 0, 55, 79
2, 51120, Note_off_c, 0, 55, 0
2, 51120, Note_on_c, 0, 57, 83
2, 51360, Note_off_c, 0, 57, 0
2, 51360, Note_on_c, 0, 55, 76
2, 51600, Note_off_c, 0, 55, 0
2, 51600, Note_on_c, 0, 54, 74
2, 51840, Note_off_c, 0, 54, 0
2, 51840, Note_on_c, 0, 68, 79
2, 51840, Note_on_c, 0, 71, 79
2, 51840, Note_on_c, 0, 47, 69
2, 52080, Note_off_c, 0, 74, 0
2, 52080, Note_off_c, 0, 47, 0
2, 52080, Note_on_c, 0, 77, 77
2, 52080, Note_on_c, 0, 56, 83
2, 52320, Note_off_c, 0, 68, 0
2, 52320, Note_off_c, 0, 71, 0
2, 52320, Note_off_c, 0, 77, 0
2, 52320, Note_off_c, 0, 56, 0
2, 52320, Note_on_c, 0, 76, 76
2, 52320, Note_on_c, 0, 57, 84
2, 52560, Note_off_c, 0, 76, 0
2, 52560, Note_off_c, 0, 57, 0
2, 52560, Note_on_c, 0, 74, 74
2, 52560, Note_on_c, 0, 59, 85
2, 52800, Note_off_c, 0, 74, 0
2, 52800, Note_off_c, 0, 59, 0
2, 52800, Note_on_c, 0, 72, 71
2, 52800, Note_on_c, 0, 57, 80
2, 53040, Note_off_c, 0, 57, 0
2, 53040, Note_on_c, 0, 59, 84
2, 53280, Note_off_c, 0, 59, 0
2, 53280, Note_on_c, 0, 57, 77
2, 53520, Note_off_c, 0, 72, 0
2, 53520, Note_off_c, 0, 57, 0
2, 53520, Note_on_c, 0, 74, 76
2, 53520, Note_on_c, 0, 56, 74
2, 53640, Note_off_c, 0, 74, 0
2, 53640, Note_on_c, 0, 71, 72
2, 53760, Note_off_c, 0, 71, 0
2, 53760, Note_off_c, 0, 56, 0
2, 53760, Note_on_c, 0, 72, 78
2, 53760, Note_on_c, 0, 64, 81
2, 53760, Note_on_c, 0, 69, 81
2, 53760, Note_on_c, 0, 57, 81
2, 54000, Note_off_c, 0, 57, 0
2, 54000, Note_on_c, 0, 59, 81
2, 54240, Note_off_c, 0, 64, 0
2, 54240, Note_off_c, 0, 69, 0
2, 54240, Note_off_c, 0, 59, 0
2, 54240, Note_on_c, 0, 60, 82
2, 54480, Note_off_c, 0, 60, 0
2, 54480, Note_on_c, 0, 62, 85
2, 54720, Note_off_c, 0, 62, 0
2, 54720, Note_on_c, 0, 60, 78
2, 54960, Note_off_c, 0, 60, 0
2, 54960, Note_on_c, 0, 62, 82
2, 55200, Note_off_c, 0, 62, 0
2, 55200, Note_on_c, 0, 60, 76
2, 55440, Note_off_c, 0, 60, 0
2, 55440, Note_on_c, 0, 59, 73
2, 55680, Note_off_c, 0, 59, 0
2, 55680, Note_on_c, 0, 64, 79
2, 55680, Note_on_c, 0, 69, 79
2, 55680, Note_on_c, 0, 55, 69
2, 55920, Note_off_c, 0, 55, 0
2, 55920, Note_on_c, 0, 57, 72
2, 56160, Note_off_c, 0, 64, 0
2, 56160, Note_off_c, 0, 69, 0
2, 56160, Note_off_c, 0, 57, 0
2, 56160, Note_on_c, 0, 59, 78
2, 56400, Note_off_c, 0, 59, 0
2, 56400, Note_on_c, 0, 60, 80
2, 56640, Note_off_c, 0, 60, 0
2, 56640, Note_on_c, 0, 59, 77
2, 56880, Note_off_c, 0, 59, 0
2, 56880, Note_on_c, 0, 60, 79
2, 57120, Note_off_c, 0, 60, 0
2, 57120, Note_on_c, 0, 59, 76
2, 57360, Note_off_c, 0, 59, 0
2, 57360, Note_on_c, 0, 57, 71
2, 57600, Note_off_c, 0, 57, 0
2, 57600, Note_on_c, 0, 63, 81
2, 57600, Note_on_c, 0, 69, 81
2, 57600, Note_on_c, 0, 54, 71
2, 57840, Note_off_c, 0, 54, 0
2, 57840, Note_on_c, 0, 57, 75
2, 58080, Note_off_c, 0, 63, 0
2, 58080, Note_off_c, 0, 69, 0
2, 58080, Note_off_c, 0, 57, 0
2, 58080, Note_on_c, 0, 59, 80
2, 58320, Note_off_c, 0, 59, 0
2, 58320, Note_on_c, 0, 60, 82
2, 58560, Note_off_c, 0, 60, 0
2, 58560, Note_on_c, 0, 59, 78
2, 58800, Note_off_c, 0, 72, 0
2, 58800, Note_off_c, 0, 59, 0
2, 58800, Note_on_c, 0, 69, 76
2, 58800, Note_on_c, 0, 60, 80
2, 59040, Note_off_c, 0, 69, 0
2, 59040, Note_off_c, 0, 60, 0
2, 59040, Note_on_c, 0, 68, 76
2, 59040, Note_on_c, 0, 59, 77
2, 59280, Note_off_c, 0, 68, 0
2, 59280, Note_off_c, 0, 59, 0
2, 59280, Note_on_c, 0, 69, 77
2, 59280, Note_on_c, 0, 57, 72
2, 59520, Note_off_c, 0, 69, 0
2, 59520, Note_off_c, 0, 57, 0
2, 59520, Note_on_c, 0, 72, 84
2, 59520, Note_on_c, 0, 64, 79
2, 59520, Note_on_c, 0, 69, 79
2, 59520, Note_on_c, 0, 52, 68
2, 59760, Note_off_c, 0, 72, 0
2, 59760, Note_off_c, 0, 52, 0
2, 59760, Note_on_c, 0, 69, 75
2, 59760, Note_on_c, 0, 57, 76
2, 60000, Note_off_c, 0, 64, 0
2, 60000, Note_off_c, 0, 69, 0
2, 60000, Note_off_c, 0, 69, 0
2, 60000, Note_off_c, 0, 57, 0
2, 60000, Note_on_c, 0, 68, 73
2, 60000, Note_on_c, 0, 59, 81
2, 60240, Note_off_c, 0, 68, 0
2, 60240, Note_off_c, 0, 59, 0
2, 60240, Note_on_c, 0, 69, 76
2, 60240, Note_on_c, 0, 60, 83
2, 60480, Note_off_c, 0, 69, 0
2, 60480, Note_off_c, 0, 60, 0
2, 60480, Note_on_c, 0, 64, 67
2, 60480, Note_on_c, 0, 59, 79
2, 60720, Note_off_c, 0, 64, 0
2, 60720, Note_off_c, 0, 59, 0
2, 60720, Note_on_c, 0, 69, 79
2, 60720, Note_on_c, 0, 60, 81
2, 60960, Note_off_c, 0, 69, 0
2, 60960, Note_off_c, 0, 60, 0
2, 60960, Note_on_c, 0, 68, 76
2, 60960, Note_on_c, 0, 59, 77
2, 61200, Note_off_c, 0, 68, 0
2, 61200, Note_off_c, 0, 59, 0
2, 61200, Note_on_c, 0, 69, 79
2, 61200, Note_on_c, 0, 57, 72
2, 61440, Note_off_c, 0, 69, 0
2, 61440, Note_off_c, 0, 57, 0
2, 61440, Note_on_c, 0, 72, 90
2, 61440, Note_on_c, 0, 66, 81
2, 61440, Note_on_c, 0, 69, 81
2, 61440, Note_on_c, 0, 51, 69
2, 61680, Note_off_c, 0, 51, 0
2, 61680, Note_on_c, 0, 57, 77
2, 61920, Note_off_c, 0, 66, 0
2, 61920, Note_off_c, 0, 69, 0
2, 61920, Note_off_c, 0, 57, 0
2, 61920, Note_on_c, 0, 59, 82
2, 62160, Note_off_c, 0, 59, 0
2, 62160, Note_on_c, 0, 60, 83
2, 62400, Note_off_c, 0, 60, 0
2, 62400, Note_on_c, 0, 59, 79
2, 62640, Note_off_c, 0, 59, 0
2, 62640, Note_on_c, 0, 60, 81
2, 62880, Note_off_c, 0, 60, 0
2, 62880, Note_on_c, 0, 59, 77
2, 63120, Note_off_c, 0, 59, 0
2, 63120, Note_on_c, 0, 57, 72
2, 63360, Note_off_c, 0, 57, 0
2, 63360, Note_on_c, 0, 66, 79
2, 63360, Note_on_c, 0, 69, 79
2, 63360, Note_on_c, 0, 51, 68
2, 63600, Note_off_c, 0, 51, 0
2, 63600, Note_on_c, 0, 54, 70
2, 63840, Note_off_c, 0, 72, 0
2, 63840, Note_off_c, 0, 66, 0
2, 63840, Note_off_c, 0, 69, 0
2, 63840, Note_off_c, 0, 54, 0
2, 63840, Note_on_c, 0, 71, 76
2, 63840, Note_on_c, 0, 55, 74
2, 64080, Note_off_c, 0, 55, 0
2, 64080, Note_on_c, 0, 57, 80
2, 64320, Note_off_c, 0, 71, 0
2, 64320, Note_off_c, 0, 57, 0
2, 64320, Note_on_c, 0, 73, 77
2, 64320, Note_on_c, 0, 55, 74
2, 64560, Note_off_c, 0, 55, 0
2, 64560, Note_on_c, 0, 57, 80
2, 64800, Note_off_c, 0, 73, 0
2, 64800, Note_off_c, 0, 57, 0
2, 64800, Note_on_c, 0, 76, 79
2, 64800, Note_on_c, 0, 55, 74
2, 65040, Note_off_c, 0, 76, 0
2, 65040, Note_off_c, 0, 55, 0
2, 65040, Note_on_c, 0, 75, 77
2, 65040, Note_on_c, 0, 54, 73
2, 65280, Note_off_c, 0, 75, 0
2, 65280, Note_off_c, 0, 54, 0
2, 65280, Note_on_c, 0, 76, 83
2, 65280, Note_on_c, 0, 68, 81
2, 65280, Note_on_c, 0, 71, 81
2, 65280, Note_on_c, 0, 50, 71
2, 65520, Note_off_c, 0, 50, 0
2, 65520, Note_on_c, 0, 56, 81
2, 65760, Note_off_c, 0, 68, 0
2, 65760, Note_off_c, 0, 71, 0
2, 65760, Note_off_c, 0, 56, 0
2, 65760, Note_on_c, 0, 57, 83
2, 66000, Note_off_c, 0, 57, 0
2, 66000, Note_on_c, 0, 59, 85
2, 66240, Note_off_c, 0, 59, 0
2, 66240, Note_on_c, 0, 57, 79
2, 66480, Note_off_c, 0, 57, 0
2, 66480, Note_on_c, 0, 59, 83
2, 66720, Note_off_c, 0, 59, 0
2, 66720, Note_on_c, 0, 57, 76
2, 66960, Note_off_c, 0, 57, 0
2, 66960, Note_on_c, 0, 56, 74
2, 67200, Note_off_c, 0, 56, 0
2, 67200, Note_on_c, 0, 70, 79
2, 67200, Note_on_c, 0, 73, 79
2, 67200, Note_on_c, 0, 49, 68
2, 67440, Note_off_c, 0, 49, 0
2, 67440, Note_on_c, 0, 52, 70
2, 67680, Note_off_c, 0, 70, 0
2, 67680, Note_off_c, 0, 73, 0
2, 67680, Note_off_c, 0, 52, 0
2, 67680, Note_on_c, 0, 54, 76
2, 67920, Note_off_c, 0, 54, 0
2, 67920, Note_on_c, 0, 55, 78
2, 68160, Note_off_c, 0, 55, 0
2, 68160, Note_on_c, 0, 54, 76
2, 68400, Note_off_c, 0, 54, 0
2, 68400, Note_on_c, 0, 55, 79
2, 68640, Note_off_c, 0, 55, 0
2, 68640, Note_on_c, 0, 54, 76
2, 68880, Note_off_c, 0, 54, 0
2, 68880, Note_on_c, 0, 52, 72
2, 69120, Note_off_c, 0, 52, 0
2, 69120, Note_on_c, 0, 66, 80
2, 69120, Note_on_c, 0, 69, 80
2, 69120, Note_on_c, 0, 48, 72
2, 69360, Note_off_c, 0, 48, 0
2, 69360, Note_on_c, 0, 54, 80
2, 69600, Note_off_c, 0, 76, 0
2, 69600, Note_off_c, 0, 66, 0
2, 69600, Note_off_c, 0, 69, 0
2, 69600, Note_off_c, 0, 54, 0
2, 69600, Note_on_c, 0, 75, 76
2, 69600, Note_on_c, 0, 55, 82
2, 69840, Note_off_c, 0, 75, 0
2, 69840, Note_off_c, 0, 55, 0
2, 69840, Note_on_c, 0, 78, 78
2, 69840, Note_on_c, 0, 57, 85
2, 70080, Note_off_c, 0, 78, 0
2, 70080, Note_off_c, 0, 57, 0
2, 70080, Note_on_c, 0, 81, 81
2, 70080, Note_on_c, 0, 55, 79
2, 70320, Note_off_c, 0, 81, 0
2, 70320, Note_off_c, 0, 55, 0
2, 70320, Note_on_c, 0, 84, 84
2, 70320, Note_on_c, 0, 57, 83
2, 70560, Note_off_c, 0, 84, 0
2, 70560, Note_off_c, 0, 57, 0
2, 70560, Note_on_c, 0, 83, 81
2, 70560, Note_on_c, 0, 55, 76
2, 70800, Note_off_c, 0, 83, 0
2, 70800, Note_off_c, 0, 55, 0
2, 70800, Note_on_c, 0, 75, 66
2, 70800, Note_on_c, 0, 54, 74
2, 71040, Note_off_c, 0, 75, 0
2, 71040, Note_off_c, 0, 54, 0
2, 71040, Note_on_c, 0, 76, 71
2, 71040, Note_on_c, 0, 67, 79
2, 71040, Note_on_c, 0, 71, 79
2, 71040, Note_on_c, 0, 47, 69
2, 71280, Note_off_c, 0, 47, 0
2, 71280, Note_on_c, 0, 52, 74
2, 71520, Note_off_c, 0, 67, 0
2, 71520, Note_off_c, 0, 71, 0
2, 71520, Note_off_c, 0, 52, 0
2, 71520, Note_on_c, 0, 54, 79
2, 71760, Note_off_c, 0, 54, 0
2, 71760, Note_on_c, 0, 55, 81
2, 72000, Note_off_c, 0, 55, 0
2, 72000, Note_on_c, 0, 54, 78
2, 72240, Note_off_c, 0, 54, 0
2, 72240, Note_on_c, 0, 55, 80
2, 72480, Note_off_c, 0, 55, 0
2, 72480, Note_on_c, 0, 54, 77
2, 72720, Note_off_c, 0, 54, 0
2, 72720, Note_on_c, 0, 52, 72
2, 72960, Note_off_c, 0, 52, 0
2, 72960, Note_on_c, 0, 67, 81
2, 72960, Note_on_c, 0, 73, 81
2, 72960, Note_on_c, 0, 46, 71
2, 73200, Note_off_c, 0, 46, 0
2, 73200, Note_on_c, 0, 52, 77
2, 73440, Note_off_c, 0, 67, 0
2, 73440, Note_off_c, 0, 73, 0
2, 73440, Note_off_c, 0, 52, 0
2, 73440, Note_on_c, 0, 54, 82
2, 73680, Note_off_c, 0, 54, 0
2, 73680, Note_on_c, 0, 55, 83
2, 73920, Note_off_c, 0, 55, 0
2, 73920, Note_on_c, 0, 54, 79
2, 74040, Note_off_c, 0, 76, 0
2, 74040, Note_on_c, 0, 78, 76
2, 74160, Note_off_c, 0, 78, 0
2, 74160, Note_off_c, 0, 54, 0
2, 74160, Note_on_c, 0, 76, 75
2, 74160, Note_on_c, 0, 55, 81
2, 74280, Note_off_c, 0, 76, 0
2, 74280, Note_on_c, 0, 75, 74
2, 74400, Note_off_c, 0, 75, 0
2, 74400, Note_off_c, 0, 55, 0
2, 74400, Note_on_c, 0, 76, 76
2, 74400, Note_on_c, 0, 54, 77
2, 74520, Note_off_c, 0, 76, 0
2, 74520, Note_on_c, 0, 73, 71
2, 74640, Note_off_c, 0, 73, 0
2, 74640, Note_off_c, 0, 54, 0
2, 74640, Note_on_c, 0, 75, 75
2, 74640, Note_on_c, 0, 52, 73
2, 74880, Note_off_c, 0, 75, 0
2, 74880, Note_off_c, 0, 52, 0
2, 74880, Note_on_c, 0, 75, 79
2, 74880, Note_on_c, 0, 66, 79
2, 74880, Note_on_c, 0, 71, 79
2, 74880, Note_on_c, 0, 47, 70
2, 75120, Note_off_c, 0, 47, 0
2, 75120, Note_on_c, 0, 54, 81
2, 75360, Note_off_c, 0, 66, 0
2, 75360, Note_off_c, 0, 71, 0
2, 75360, Note_off_c, 0, 54, 0
2, 75360, Note_on_c, 0, 55, 83
2, 75600, Note_off_c, 0, 55, 0
2, 75600, Note_on_c, 0, 57, 85
2, 75840, Note_off_c, 0, 57, 0
2, 75840, Note_on_c, 0, 55, 79
2, 76080, Note_off_c, 0, 55, 0
2, 76080, Note_on_c, 0, 57, 83
2, 76320, Note_off_c, 0, 75, 0
2, 76320, Note_off_c, 0, 57, 0
2, 76320, Note_on_c, 0, 76, 77
2, 76320, Note_on_c, 0, 55, 76
2, 76560, Note_off_c, 0, 55, 0
2, 76560, Note_on_c, 0, 54, 74
2, 76800, Note_off_c, 0, 76, 0
2, 76800, Note_off_c, 0, 54, 0
2, 76800, Note_on_c, 0, 76, 81
2, 76800, Note_on_c, 0, 67, 81
2, 76800, Note_on_c, 0, 71, 81
2, 76800, Note_on_c, 0, 52, 74
2, 77040, Note_off_c, 0, 52, 0
2, 77040, Note_on_c, 0, 55, 78
2, 77280, Note_off_c, 0, 67, 0
2, 77280, Note_off_c, 0, 71, 0
2, 77280, Note_off_c, 0, 55, 0
2, 77280, Note_on_c, 0, 57, 82
2, 77520, Note_off_c, 0, 57, 0
2, 77520, Note_on_c, 0, 59, 85
2, 77760, Note_off_c, 0, 59, 0
2, 77760, Note_on_c, 0, 57, 79
2, 78000, Note_off_c, 0, 57, 0
2, 78000, Note_on_c, 0, 59, 83
2, 78240, Note_off_c, 0, 59, 0
2, 78240, Note_on_c, 0, 57, 76
2, 78480, Note_off_c, 0, 57, 0
2, 78480, Note_on_c, 0, 55, 71
2, 78720, Note_off_c, 0, 55, 0
2, 78720, Note_on_c, 0, 68, 79
2, 78720, Note_on_c, 0, 71, 79
2, 78720, Note_on_c, 0, 50, 69
2, 78960, Note_off_c, 0, 50, 0
2, 78960, Note_on_c, 0, 56, 78
2, 79200, Note_off_c, 0, 68, 0
2, 79200, Note_off_c, 0, 71, 0
2, 79200, Note_off_c, 0, 56, 0
2, 79200, Note_on_c, 0, 57, 80
2, 79440, Note_off_c, 0, 57, 0
2, 79440, Note_on_c, 0, 59, 84
2, 79680, Note_off_c, 0, 59, 0
2, 79680, Note_on_c, 0, 57, 78
2, 79920, Note_off_c, 0, 57, 0
2, 79920, Note_on_c, 0, 59, 82
2, 80160, Note_off_c, 0, 59, 0
2, 80160, Note_on_c, 0, 57, 76
2, 80400, Note_off_c, 0, 57, 0
2, 80400, Note_on_c, 0, 56, 73
2, 80640, Note_off_c, 0, 56, 0
2, 80640, Note_on_c, 0, 69, 81
2, 80640, Note_on_c, 0, 72, 81
2, 80640, Note_on_c, 0, 48, 69
2, 80880, Note_off_c, 0, 48, 0
2, 80880, Note_on_c, 0, 57, 81
2, 81120, Note_off_c, 0, 69, 0
2, 81120, Note_off_c, 0, 72, 0
2, 81120, Note_off_c, 0, 57, 0
2, 81120, Note_on_c, 0, 59, 84
2, 81360, Note_off_c, 0, 59, 0
2, 81360, Note_on_c, 0, 60, 85
2, 81600, Note_off_c, 0, 60, 0
2, 81600, Note_on_c, 0, 59, 81
2, 81840, Note_off_c, 0, 59, 0
2, 81840, Note_on_c, 0, 60, 82
2, 82080, Note_off_c, 0, 60, 0
2, 82080, Note_on_c, 0, 59, 78
2, 82320, Note_off_c, 0, 59, 0
2, 82320, Note_on_c, 0, 57, 73
2, 82560, Note_off_c, 0, 57, 0
2, 82560, Note_on_c, 0, 71, 79
2, 82560, Note_on_c, 0, 74, 79
2, 82560, Note_on_c, 0, 56, 74
2, 82800, Note_off_c, 0, 56, 0
2, 82800, Note_on_c, 0, 59, 79
2, 83040, Note_off_c, 0, 71, 0
2, 83040, Note_off_c, 0, 74, 0
2, 83040, Note_off_c, 0, 59, 0
2, 83040, Note_on_c, 0, 60, 81
2, 83280, Note_off_c, 0, 60, 0
2, 83280, Note_on_c, 0, 62, 84
2, 83520, Note_off_c, 0, 62, 0
2, 83520, Note_on_c, 0, 60, 78
2, 83760, Note_off_c, 0, 60, 0
2, 83760, Note_on_c, 0, 62, 82
2, 84000, Note_off_c, 0, 62, 0
2, 84000, Note_on_c, 0, 60, 76
2, 84240, Note_off_c, 0, 60, 0
2, 84240, Note_on_c, 0, 59, 73
2, 84480, Note_off_c, 0, 59, 0
2, 84480, Note_on_c, 0, 72, 81
2, 84480, Note_on_c, 0, 57, 73
2, 84720, Note_off_c, 0, 76, 0
2, 84720, Note_off_c, 0, 57, 0
2, 84720, Note_on_c, 0, 81, 76
2, 84720, Note_on_c, 0, 60, 78
2, 84960, Note_off_c, 0, 72, 0
2, 84960, Note_off_c, 0, 81, 0
2, 84960, Note_off_c, 0, 60, 0
2, 84960, Note_on_c, 0, 83, 77
2, 84960, Note_on_c, 0, 62, 83
2, 85200, Note_off_c, 0, 83, 0
2, 85200, Note_off_c, 0, 62, 0
2, 85200, Note_on_c, 0, 84, 78
2, 85200, Note_on_c, 0, 64, 86
2, 85440, Note_off_c, 0, 84, 0
2, 85440, Note_off_c, 0, 64, 0
2, 85440, Note_on_c, 0, 83, 77
2, 85440, Note_on_c, 0, 62, 80
2, 85680, Note_off_c, 0, 83, 0
2, 85680, Note_off_c, 0, 62, 0
2, 85680, Note_on_c, 0, 84, 78
2, 85680, Note_on_c, 0, 64, 85
2, 85920, Note_off_c, 0, 84, 0
2, 85920, Note_off_c, 0, 64, 0
2, 85920, Note_on_c, 0, 83, 76
2, 85920, Note_on_c, 0, 62, 78
2, 86160, Note_off_c, 0, 83, 0
2, 86160, Note_off_c, 0, 62, 0
2, 86160, Note_on_c, 0, 81, 71
2, 86160, Note_on_c, 0, 60, 71
2, 86400, Note_off_c, 0, 81, 0
2, 86400, Note_off_c, 0, 60, 0
2, 86400, Note_on_c, 0, 76, 67
2, 86400, Note_on_c, 0, 57, 67
2, 86640, Note_off_c, 0, 76, 0
2, 86640, Note_off_c, 0, 57, 0
2, 86640, Note_on_c, 0, 81, 75
2, 86640, Note_on_c, 0, 60, 73
2, 86880, Note_off_c, 0, 81, 0
2, 86880, Note_off_c, 0, 60, 0
2, 86880, Note_on_c, 0, 83, 81
2, 86880, Note_on_c, 0, 62, 81
2, 87120, Note_off_c, 0, 83, 0
2, 87120, Note_off_c, 0, 62, 0
2, 87120, Note_on_c, 0, 84, 84
2, 87120, Note_on_c, 0, 64, 86
2, 87360, Note_off_c, 0, 84, 0
2, 87360, Note_off_c, 0, 64, 0
2, 87360, Note_on_c, 0, 83, 80
2, 87360, Note_on_c, 0, 62, 79
2, 87600, Note_off_c, 0, 83, 0
2, 87600, Note_off_c, 0, 62, 0
2, 87600, Note_on_c, 0, 84, 83
2, 87600, Note_on_c, 0, 64, 85
2, 87840, Note_off_c, 0, 84, 0
2, 87840, Note_off_c, 0, 64, 0
2, 87840, Note_on_c, 0, 83, 79
2, 87840, Note_on_c, 0, 62, 77
2, 88080, Note_off_c, 0, 83, 0
2, 88080, Note_off_c, 0, 62, 0
2, 88080, Note_on_c, 0, 81, 70
2, 88080, Note_on_c, 0, 60, 69
2, 88320, Note_off_c, 0, 81, 0
2, 88320, Note_off_c, 0, 60, 0
2, 88320, Note_on_c, 0, 83, 84
2, 88320, Note_on_c, 0, 57, 69
2, 88560, Note_off_c, 0, 83, 0
2, 88560, Note_off_c, 0, 57, 0
2, 88560, Note_on_c, 0, 81, 71
2, 88560, Note_on_c, 0, 62, 80
2, 88800, Note_off_c, 0, 81, 0
2, 88800, Note_off_c, 0, 62, 0
2, 88800, Note_on_c, 0, 80, 68
2, 88800, Note_on_c, 0, 64, 86
2, 89040, Note_off_c, 0, 80, 0
2, 89040, Note_off_c, 0, 64, 0
2, 89040, Note_on_c, 0, 81, 72
2, 89040, Note_on_c, 0, 65, 87
2, 89280, Note_off_c, 0, 81, 0
2, 89280, Note_off_c, 0, 65, 0
2, 89280, Note_on_c, 0, 83, 81
2, 89280, Note_on_c, 0, 64, 84
2, 89520, Note_off_c, 0, 83, 0
2, 89520, Note_off_c, 0, 64, 0
2, 89520, Note_on_c, 0, 81, 72
2, 89520, Note_on_c, 0, 65, 86
2, 89760, Note_off_c, 0, 81, 0
2, 89760, Note_off_c, 0, 65, 0
2, 89760, Note_on_c, 0, 80, 69
2, 89760, Note_on_c, 0, 64, 82
2, 90000, Note_off_c, 0, 80, 0
2, 90000, Note_off_c, 0, 64, 0
2, 90000, Note_on_c, 0, 81, 74
2, 90000, Note_on_c, 0, 62, 73
2, 90240, Note_off_c, 0, 81, 0
2, 90240, Note_off_c, 0, 62, 0
2, 90240, Note_on_c, 0, 74, 67
2, 90240, Note_on_c, 0, 57, 67
2, 90480, Note_off_c, 0, 57, 0
2, 90480, Note_on_c, 0, 62, 76
2, 90720, Note_off_c, 0, 74, 0
2, 90720, Note_off_c, 0, 62, 0
2, 90720, Note_on_c, 0, 83, 85
2, 90720, Note_on_c, 0, 64, 84
2, 90960, Note_off_c, 0, 64, 0
2, 90960, Note_on_c, 0, 65, 86
2, 91200, Note_off_c, 0, 65, 0
2, 91200, Note_on_c, 0, 64, 82
2, 91440, Note_off_c, 0, 83, 0
2, 91440, Note_off_c, 0, 64, 0
2, 91440, Note_on_c, 0, 81, 77
2, 91440, Note_on_c, 0, 65, 85
2, 91680, Note_off_c, 0, 81, 0
2, 91680, Note_off_c, 0, 65, 0
2, 91680, Note_on_c, 0, 80, 74
2, 91680, Note_on_c, 0, 64, 80
2, 91920, Note_off_c, 0, 80, 0
2, 91920, Note_off_c, 0, 64, 0
2, 91920, Note_on_c, 0, 81, 78
2, 91920, Note_on_c, 0, 62, 71
2, 92160, Note_off_c, 0, 81, 0
2, 92160, Note_off_c, 0, 62, 0
2, 92160, Note_on_c, 0, 77, 71
2, 92160, Note_on_c, 0, 56, 69
2, 92400, Note_off_c, 0, 77, 0
2, 92400, Note_off_c, 0, 56, 0
2, 92400, Note_on_c, 0, 71, 65
2, 92400, Note_on_c, 0, 62, 75
2, 92640, Note_off_c, 0, 71, 0
2, 92640, Note_off_c, 0, 62, 0
2, 92640, Note_on_c, 0, 72, 65
2, 92640, Note_on_c, 0, 64, 84
2, 92880, Note_off_c, 0, 72, 0
2, 92880, Note_off_c, 0, 64, 0
2, 92880, Note_on_c, 0, 74, 66
2, 92880, Note_on_c, 0, 65, 85
2, 93120, Note_off_c, 0, 74, 0
2, 93120, Note_off_c, 0, 65, 0
2, 93120, Note_on_c, 0, 72, 65
2, 93120, Note_on_c, 0, 64, 81
2, 93360, Note_off_c, 0, 72, 0
2, 93360, Note_off_c, 0, 64, 0
2, 93360, Note_on_c, 0, 74, 68
2, 93360, Note_on_c, 0, 65, 84
2, 93600, Note_off_c, 0, 74, 0
2, 93600, Note_off_c, 0, 65, 0
2, 93600, Note_on_c, 0, 72, 65
2, 93600, Note_on_c, 0, 64, 80
2, 93840, Note_off_c, 0, 72, 0
2, 93840, Note_off_c, 0, 64, 0
2, 93840, Note_on_c, 0, 71, 65
2, 93840, Note_on_c, 0, 62, 71
2, 94080, Note_off_c, 0, 71, 0
2, 94080, Note_off_c, 0, 62, 0
2, 94080, Note_on_c, 0, 76, 85
2, 94080, Note_on_c, 0, 56, 67
2, 94320, Note_off_c, 0, 76, 0
2, 94320, Note_off_c, 0, 56, 0
2, 94320, Note_on_c, 0, 74, 74
2, 94320, Note_on_c, 0, 59, 66
2, 94560, Note_off_c, 0, 74, 0
2, 94560, Note_off_c, 0, 59, 0
2, 94560, Note_on_c, 0, 76, 83
2, 94560, Note_on_c, 0, 60, 69
2, 94800, Note_off_c, 0, 76, 0
2, 94800, Note_off_c, 0, 60, 0
2, 94800, Note_on_c, 0, 77, 85
2, 94800, Note_on_c, 0, 62, 78
2, 95040, Note_off_c, 0, 77, 0
2, 95040, Note_off_c, 0, 62, 0
2, 95040, Note_on_c, 0, 76, 81
2, 95040, Note_on_c, 0, 60, 70
2, 95280, Note_off_c, 0, 76, 0
2, 95280, Note_off_c, 0, 60, 0
2, 95280, Note_on_c, 0, 77, 84
2, 95280, Note_on_c, 0, 62, 79
2, 95520, Note_off_c, 0, 77, 0
2, 95520, Note_off_c, 0, 62, 0
2, 95520, Note_on_c, 0, 76, 80
2, 95520, Note_on_c, 0, 60, 70
2, 95760, Note_off_c, 0, 76, 0
2, 95760, Note_off_c, 0, 60, 0
2, 95760, Note_on_c, 0, 74, 71
2, 95760, Note_on_c, 0, 59, 68
2, 96000, Note_off_c, 0, 74, 0
2, 96000, Note_off_c, 0, 59, 0
2, 96000, Note_on_c, 0, 72, 70
2, 96000, Note_on_c, 0, 57, 69
2, 96240, Note_off_c, 0, 72, 0
2, 96240, Note_off_c, 0, 57, 0
2, 96240, Note_on_c, 0, 68, 65
2, 96240, Note_on_c, 0, 59, 71
2, 96480, Note_off_c, 0, 68, 0
2, 96480, Note_off_c, 0, 59, 0
2, 96480, Note_on_c, 0, 69, 65
2, 96480, Note_on_c, 0, 60, 76
2, 96720, Note_off_c, 0, 69, 0
2, 96720, Note_off_c, 0, 60, 0
2, 96720, Note_on_c, 0, 71, 68
2, 96720, Note_on_c, 0, 62, 84
2, 96960, Note_off_c, 0, 71, 0
2, 96960, Note_off_c, 0, 62, 0
2, 96960, Note_on_c, 0, 69, 65
2, 96960, Note_on_c, 0, 60, 75
2, 97200, Note_off_c, 0, 69, 0
2, 97200, Note_off_c, 0, 60, 0
2, 97200, Note_on_c, 0, 68, 65
2, 97200, Note_on_c, 0, 62, 84
2, 97440, Note_off_c, 0, 68, 0
2, 97440, Note_off_c, 0, 62, 0
2, 97440, Note_on_c, 0, 69, 67
2, 97440, Note_on_c, 0, 60, 75
2, 97680, Note_off_c, 0, 69, 0
2, 97680, Note_off_c, 0, 60, 0
2, 97680, Note_on_c, 0, 71, 75
2, 97680, Note_on_c, 0, 59, 71
2, 97920, Note_off_c, 0, 71, 0
2, 97920, Note_off_c, 0, 59, 0
2, 97920, Note_on_c, 0, 72, 83
2, 97920, Note_on_c, 0, 57, 69
2, 98160, Note_off_c, 0, 72, 0
2, 98160, Note_off_c, 0, 57, 0
2, 98160, Note_on_c, 0, 81, 88
2, 98160, Note_on_c, 0, 59, 73
2, 98400, Note_off_c, 0, 81, 0
2, 98400, Note_off_c, 0, 59, 0
2, 98400, Note_on_c, 0, 79, 88
2, 98400, Note_on_c, 0, 60, 78
2, 98640, Note_off_c, 0, 79, 0
2, 98640, Note_off_c, 0, 60, 0
2, 98640, Note_on_c, 0, 77, 88
2, 98640, Note_on_c, 0, 62, 85
2, 98880, Note_off_c, 0, 77, 0
2, 98880, Note_off_c, 0, 62, 0
2, 98880, Note_on_c, 0, 76, 85
2, 98880, Note_on_c, 0, 60, 77
2, 99120, Note_off_c, 0, 76, 0
2, 99120, Note_off_c, 0, 60, 0
2, 99120, Note_on_c, 0, 77, 86
2, 99120, Note_on_c, 0, 62, 84
2, 99360, Note_off_c, 0, 77, 0
2, 99360, Note_off_c, 0, 62, 0
2, 99360, Note_on_c, 0, 76, 83
2, 99360, Note_on_c, 0, 60, 75
2, 99600, Note_off_c, 0, 76, 0
2, 99600, Note_off_c, 0, 60, 0
2, 99600, Note_on_c, 0, 74, 74
2, 99600, Note_on_c, 0, 59, 71
2, 99840, Note_off_c, 0, 74, 0
2, 99840, Note_off_c, 0, 59, 0
2, 99840, Note_on_c, 0, 73, 74
2, 99840, Note_on_c, 0, 55, 69
2, 100080, Note_off_c, 0, 73, 0
2, 100080, Note_off_c, 0, 55, 0
2, 100080, Note_on_c, 0, 76, 83
2, 100080, Note_on_c, 0, 61, 83
2, 100320, Note_off_c, 0, 76, 0
2, 100320, Note_off_c, 0, 61, 0
2, 100320, Note_on_c, 0, 78, 87
2, 100320, Note_on_c, 0, 62, 85
2, 100560, Note_off_c, 0, 78, 0
2, 100560, Note_off_c, 0, 62, 0
2, 100560, Note_on_c, 0, 79, 88
2, 100560, Note_on_c, 0, 64, 88
2, 100800, Note_off_c, 0, 79, 0
2, 100800, Note_off_c, 0, 64, 0
2, 100800, Note_on_c, 0, 78, 85
2, 100800, Note_on_c, 0, 62, 83
2, 101040, Note_off_c, 0, 78, 0
2, 101040, Note_off_c, 0, 62, 0
2, 101040, Note_on_c, 0, 79, 86
2, 101040, Note_on_c, 0, 64, 87
2, 101280, Note_off_c, 0, 79, 0
2, 101280, Note_off_c, 0, 64, 0
2, 101280, Note_on_c, 0, 78, 82
2, 101280, Note_on_c, 0, 62, 80
2, 101520, Note_off_c, 0, 78, 0
2, 101520, Note_off_c, 0, 62, 0
2, 101520, Note_on_c, 0, 76, 73
2, 101520, Note_on_c, 0, 61, 75
2, 101760, Note_off_c, 0, 76, 0
2, 101760, Note_off_c, 0, 61, 0
2, 101760, Note_on_c, 0, 75, 71
2, 101760, Note_on_c, 0, 54, 67
2, 102000, Note_off_c, 0, 75, 0
2, 102000, Note_off_c, 0, 54, 0
2, 102000, Note_on_c, 0, 78, 82
2, 102000, Note_on_c, 0, 63, 85
2, 102240, Note_off_c, 0, 78, 0
2, 102240, Note_off_c, 0, 63, 0
2, 102240, Note_on_c, 0, 79, 84
2, 102240, Note_on_c, 0, 64, 87
2, 102480, Note_off_c, 0, 79, 0
2, 102480, Note_off_c, 0, 64, 0
2, 102480, Note_on_c, 0, 81, 88
2, 102480, Note_on_c, 0, 66, 88
2, 102720, Note_off_c, 0, 81, 0
2, 102720, Note_off_c, 0, 66, 0
2, 102720, Note_on_c, 0, 79, 82
2, 102720, Note_on_c, 0, 64, 85
2, 102960, Note_off_c, 0, 79, 0
2, 102960, Note_off_c, 0, 64, 0
2, 102960, Note_on_c, 0, 81, 87
2, 102960, Note_on_c, 0, 66, 88
2, 103200, Note_off_c, 0, 81, 0
2, 103200, Note_off_c, 0, 66, 0
2, 103200, Note_on_c, 0, 79, 79
2, 103200, Note_on_c, 0, 64, 82
2, 103440, Note_off_c, 0, 79, 0
2, 103440, Note_off_c, 0, 64, 0
2, 103440, Note_on_c, 0, 78, 74
2, 103440, Note_on_c, 0, 63, 77
2, 103680, Note_off_c, 0, 78, 0
2, 103680, Note_off_c, 0, 63, 0
2, 103680, Note_on_c, 0, 79, 83
2, 103680, Note_on_c, 0, 64, 86
2, 103920, Note_off_c, 0, 79, 0
2, 103920, Note_off_c, 0, 64, 0
2, 103920, Note_on_c, 0, 67, 65
2, 103920, Note_on_c, 0, 52, 65
2, 104160, Note_off_c, 0, 67, 0
2, 104160, Note_off_c, 0, 52, 0
2, 104160, Note_on_c, 0, 69, 65
2, 104160, Note_on_c, 0, 54, 65
2, 104400, Note_off_c, 0, 69, 0
2, 104400, Note_off_c, 0, 54, 0
2, 104400, Note_on_c, 0, 71, 65
2, 104400, Note_on_c, 0, 55, 65
2, 104640, Note_off_c, 0, 71, 0
2, 104640, Note_off_c, 0, 55, 0
2, 104640, Note_on_c, 0, 69, 65
2, 104640, Note_on_c, 0, 54, 65
2, 104880, Note_off_c, 0, 69, 0
2, 104880, Note_off_c, 0, 54, 0
2, 104880, Note_on_c, 0, 71, 65
2, 104880, Note_on_c, 0, 55, 65
2, 105120, Note_off_c, 0, 71, 0
2, 105120, Note_off_c, 0, 55, 0
2, 105120, Note_on_c, 0, 69, 65
2, 105120, Note_on_c, 0, 54, 65
2, 105360, Note_off_c, 0, 69, 0
2, 105360, Note_off_c, 0, 54, 0
2, 105360, Note_on_c, 0, 67, 65
2, 105360, Note_on_c, 0, 52, 65
2, 105600, Note_off_c, 0, 67, 0
2, 105600, Note_off_c, 0, 52, 0
2, 105600, Note_on_c, 0, 77, 91
2, 105600, Note_on_c, 0, 50, 67
2, 105840, Note_off_c, 0, 77, 0
2, 105840, Note_off_c, 0, 50, 0
2, 105840, Note_on_c, 0, 68, 65
2, 105840, Note_on_c, 0, 52, 65
2, 106080, Note_off_c, 0, 68, 0
2, 106080, Note_off_c, 0, 52, 0
2, 106080, Note_on_c, 0, 69, 66
2, 106080, Note_on_c, 0, 53, 68
2, 106320, Note_off_c, 0, 69, 0
2, 106320, Note_off_c, 0, 53, 0
2, 106320, Note_on_c, 0, 71, 74
2, 106320, Note_on_c, 0, 55, 76
2, 106560, Note_off_c, 0, 71, 0
2, 106560, Note_off_c, 0, 55, 0
2, 106560, Note_on_c, 0, 69, 67
2, 106560, Note_on_c, 0, 53, 69
2, 106800, Note_off_c, 0, 69, 0
2, 106800, Note_off_c, 0, 53, 0
2, 106800, Note_on_c, 0, 71, 76
2, 106800, Note_on_c, 0, 55, 79
2, 107040, Note_off_c, 0, 71, 0
2, 107040, Note_off_c, 0, 55, 0
2, 107040, Note_on_c, 0, 69, 69
2, 107040, Note_on_c, 0, 53, 71
2, 107280, Note_off_c, 0, 69, 0
2, 107280, Note_off_c, 0, 53, 0
2, 107280, Note_on_c, 0, 68, 67
2, 107280, Note_on_c, 0, 52, 69
2, 107520, Note_off_c, 0, 68, 0
2, 107520, Note_off_c, 0, 52, 0
2, 107520, Note_on_c, 0, 76, 93
2, 107520, Note_on_c, 0, 48, 69
2, 107760, Note_off_c, 0, 76, 0
2, 107760, Note_off_c, 0, 48, 0
2, 107760, Note_on_c, 0, 69, 69
2, 107760, Note_on_c, 0, 54, 81
2, 108000, Note_off_c, 0, 69, 0
2, 108000, Note_off_c, 0, 54, 0
2, 108000, Note_on_c, 0, 71, 78
2, 108000, Note_on_c, 0, 56, 86
2, 108240, Note_off_c, 0, 71, 0
2, 108240, Note_off_c, 0, 56, 0
2, 108240, Note_on_c, 0, 72, 82
2, 108240, Note_on_c, 0, 57, 88
2, 108480, Note_off_c, 0, 72, 0
2, 108480, Note_off_c, 0, 57, 0
2, 108480, Note_on_c, 0, 71, 78
2, 108480, Note_on_c, 0, 56, 85
2, 108720, Note_off_c, 0, 71, 0
2, 108720, Note_off_c, 0, 56, 0
2, 108720, Note_on_c, 0, 72, 82
2, 108720, Note_on_c, 0, 57, 86
2, 108960, Note_off_c, 0, 72, 0
2, 108960, Note_off_c, 0, 57, 0
2, 108960, Note_on_c, 0, 71, 77
2, 108960, Note_on_c, 0, 56, 83
2, 109200, Note_off_c, 0, 71, 0
2, 109200, Note_off_c, 0, 56, 0
2, 109200, Note_on_c, 0, 69, 68
2, 109200, Note_on_c, 0, 54, 74
2, 109440, Note_off_c, 0, 69, 0
2, 109440, Note_off_c, 0, 54, 0
2, 109440, Note_on_c, 0, 74, 90
2, 109440, Note_on_c, 0, 47, 67
2, 109680, Note_off_c, 0, 74, 0
2, 109680, Note_off_c, 0, 47, 0
2, 109680, Note_on_c, 0, 71, 76
2, 109680, Note_on_c, 0, 56, 85
2, 109920, Note_off_c, 0, 71, 0
2, 109920, Note_off_c, 0, 56, 0
2, 109920, Note_on_c, 0, 72, 80
2, 109920, Note_on_c, 0, 57, 86
2, 110160, Note_off_c, 0, 72, 0
2, 110160, Note_off_c, 0, 57, 0
2, 110160, Note_on_c, 0, 74, 86
2, 110160, Note_on_c, 0, 59, 88
2, 110400, Note_off_c, 0, 74, 0
2, 110400, Note_off_c, 0, 59, 0
2, 110400, Note_on_c, 0, 72, 78
2, 110400, Note_on_c, 0, 57, 84
2, 110640, Note_off_c, 0, 72, 0
2, 110640, Note_off_c, 0, 57, 0
2, 110640, Note_on_c, 0, 74, 85
2, 110640, Note_on_c, 0, 59, 88
2, 110880, Note_off_c, 0, 74, 0
2, 110880, Note_off_c, 0, 59, 0
2, 110880, Note_on_c, 0, 72, 76
2, 110880, Note_on_c, 0, 57, 81
2, 111120, Note_off_c, 0, 72, 0
2, 111120, Note_off_c, 0, 57, 0
2, 111120, Note_on_c, 0, 71, 72
2, 111120, Note_on_c, 0, 56, 76
2, 111360, Note_off_c, 0, 71, 0
2, 111360, Note_off_c, 0, 56, 0
2, 111360, Note_on_c, 0, 72, 81
2, 111360, Note_on_c, 0, 57, 85
2, 111600, Note_off_c, 0, 72, 0
2, 111600, Note_off_c, 0, 57, 0
2, 111600, Note_on_c, 0, 69, 66
2, 111600, Note_on_c, 0, 45, 65
2, 111840, Note_off_c, 0, 69, 0
2, 111840, Note_off_c, 0, 45, 0
2, 111840, Note_on_c, 0, 68, 65
2, 111840, Note_on_c, 0, 47, 65
2, 112080, Note_off_c, 0, 68, 0
2, 112080, Note_off_c, 0, 47, 0
2, 112080, Note_on_c, 0, 69, 68
2, 112080, Note_on_c, 0, 48, 65
2, 112320, Note_off_c, 0, 69, 0
2, 112320, Note_off_c, 0, 48, 0
2, 112320, Note_on_c, 0, 64, 65
2, 112320, Note_on_c, 0, 47, 65
2, 112560, Note_off_c, 0, 64, 0
2, 112560, Note_off_c, 0, 47, 0
2, 112560, Note_on_c, 0, 69, 72
2, 112560, Note_on_c, 0, 48, 66
2, 112800, Note_off_c, 0, 69, 0
2, 112800, Note_off_c, 0, 48, 0
2, 112800, Note_on_c, 0, 68, 69
2, 112800, Note_on_c, 0, 47, 66
2, 113040, Note_off_c, 0, 68, 0
2, 113040, Note_off_c, 0, 47, 0
2, 113040, Note_on_c, 0, 69, 74
2, 113040, Note_on_c, 0, 45, 65
2, 113280, Note_off_c, 0, 69, 0
2, 113280, Note_off_c, 0, 45, 0
2, 113280, Note_on_c, 0, 72, 89
2, 113280, Note_on_c, 0, 43, 68
2, 113520, Note_off_c, 0, 43, 0
2, 113520, Note_on_c, 0, 45, 68
2, 113760, Note_off_c, 0, 45, 0
2, 113760, Note_on_c, 0, 47, 72
2, 114000, Note_off_c, 0, 47, 0
2, 114000, Note_on_c, 0, 48, 76
2, 114240, Note_off_c, 0, 48, 0
2, 114240, Note_on_c, 0, 47, 74
2, 114480, Note_off_c, 0, 47, 0
2, 114480, Note_on_c, 0, 48, 77
2, 114720, Note_off_c, 0, 48, 0
2, 114720, Note_on_c, 0, 47, 75
2, 114960, Note_off_c, 0, 47, 0
2, 114960, Note_on_c, 0, 45, 71
2, 115200, Note_off_c, 0, 45, 0
2, 115200, Note_on_c, 0, 42, 71
2, 115440, Note_off_c, 0, 72, 0
2, 115440, Note_off_c, 0, 42, 0
2, 115440, Note_on_c, 0, 69, 76
2, 115440, Note_on_c, 0, 45, 73
2, 115680, Note_off_c, 0, 69, 0
2, 115680, Note_off_c, 0, 45, 0
2, 115680, Note_on_c, 0, 68, 74
2, 115680, Note_on_c, 0, 47, 79
2, 115920, Note_off_c, 0, 68, 0
2, 115920, Note_off_c, 0, 47, 0
2, 115920, Note_on_c, 0, 69, 77
2, 115920, Note_on_c, 0, 48, 82
2, 116160, Note_off_c, 0, 69, 0
2, 116160, Note_off_c, 0, 48, 0
2, 116160, Note_on_c, 0, 63, 66
2, 116160, Note_on_c, 0, 47, 78
2, 116400, Note_off_c, 0, 63, 0
2, 116400, Note_off_c, 0, 47, 0
2, 116400, Note_on_c, 0, 69, 80
2, 116400, Note_on_c, 0, 48, 81
2, 116640, Note_off_c, 0, 69, 0
2, 116640, Note_off_c, 0, 48, 0
2, 116640, Note_on_c, 0, 68, 77
2, 116640, Note_on_c, 0, 47, 78
2, 116880, Note_off_c, 0, 68, 0
2, 116880, Note_off_c, 0, 47, 0
2, 116880, Note_on_c, 0, 69, 79
2, 116880, Note_on_c, 0, 45, 72
2, 117120, Note_off_c, 0, 69, 0
2, 117120, Note_off_c, 0, 45, 0
2, 117120, Note_on_c, 0, 72, 89
2, 117120, Note_on_c, 0, 40, 68
2, 117360, Note_off_c, 0, 72, 0
2, 117360, Note_off_c, 0, 40, 0
2, 117360, Note_on_c, 0, 69, 77
2, 117360, Note_on_c, 0, 45, 75
2, 117600, Note_off_c, 0, 69, 0
2, 117600, Note_off_c, 0, 45, 0
2, 117600, Note_on_c, 0, 68, 74
2, 117600, Note_on_c, 0, 47, 80
2, 117840, Note_off_c, 0, 68, 0
2, 117840, Note_off_c, 0, 47, 0
2, 117840, Note_on_c, 0, 69, 78
2, 117840, Note_on_c, 0, 48, 83
2, 118080, Note_off_c, 0, 69, 0
2, 118080, Note_off_c, 0, 48, 0
2, 118080, Note_on_c, 0, 64, 65
2, 118080, Note_on_c, 0, 47, 79
2, 118320, Note_off_c, 0, 64, 0
2, 118320, Note_off_c, 0, 47, 0
2, 118320, Note_on_c, 0, 69, 80
2, 118320, Note_on_c, 0, 48, 82
2, 118560, Note_off_c, 0, 69, 0
2, 118560, Note_off_c, 0, 48, 0
2, 118560, Note_on_c, 0, 68, 76
2, 118560, Note_on_c, 0, 47, 78
2, 118800, Note_off_c, 0, 68, 0
2, 118800, Note_off_c, 0, 47, 0
2, 118800, Note_on_c, 0, 69, 80
2, 118800, Note_on_c, 0, 45, 73
2, 119040, Note_off_c, 0, 69, 0
2, 119040, Note_off_c, 0, 45, 0
2, 119040, Note_on_c, 0, 72, 93
2, 119040, Note_on_c, 0, 39, 69
2, 119280, Note_off_c, 0, 72, 0
2, 119280, Note_off_c, 0, 39, 0
2, 119280, Note_on_c, 0, 66, 67
2, 119280, Note_on_c, 0, 45, 75
2, 119520, Note_off_c, 0, 66, 0
2, 119520, Note_off_c, 0, 45, 0
2, 119520, Note_on_c, 0, 67, 71
2, 119520, Note_on_c, 0, 47, 81
2, 119760, Note_off_c, 0, 67, 0
2, 119760, Note_off_c, 0, 47, 0
2, 119760, Note_on_c, 0, 69, 79
2, 119760, Note_on_c, 0, 48, 84
2, 120000, Note_off_c, 0, 69, 0
2, 120000, Note_off_c, 0, 48, 0
2, 120000, Note_on_c, 0, 67, 71
2, 120000, Note_on_c, 0, 47, 80
2, 120240, Note_off_c, 0, 67, 0
2, 120240, Note_off_c, 0, 47, 0
2, 120240, Note_on_c, 0, 66, 68
2, 120240, Note_on_c, 0, 48, 82
2, 120480, Note_off_c, 0, 66, 0
2, 120480, Note_off_c, 0, 48, 0
2, 120480, Note_on_c, 0, 64, 65
2, 120480, Note_on_c, 0, 47, 79
2, 120720, Note_off_c, 0, 64, 0
2, 120720, Note_off_c, 0, 47, 0
2, 120720, Note_on_c, 0, 63, 65
2, 120720, Note_on_c, 0, 45, 73
2, 120960, Note_off_c, 0, 63, 0
2, 120960, Note_off_c, 0, 45, 0
2, 120960, Note_on_c, 0, 71, 91
2, 120960, Note_on_c, 0, 40, 69
2, 121200, Note_off_c, 0, 71, 0
2, 121200, Note_off_c, 0, 40, 0
2, 121200, Note_on_c, 0, 64, 66
2, 121200, Note_on_c, 0, 43, 71
2, 121440, Note_off_c, 0, 64, 0
2, 121440, Note_off_c, 0, 43, 0
2, 121440, Note_on_c, 0, 66, 73
2, 121440, Note_on_c, 0, 45, 76
2, 121680, Note_off_c, 0, 66, 0
2, 121680, Note_off_c, 0, 45, 0
2, 121680, Note_on_c, 0, 67, 77
2, 121680, Note_on_c, 0, 47, 82
2, 121920, Note_off_c, 0, 67, 0
2, 121920, Note_off_c, 0, 47, 0
2, 121920, Note_on_c, 0, 66, 73
2, 121920, Note_on_c, 0, 45, 76
2, 122160, Note_off_c, 0, 66, 0
2, 122160, Note_off_c, 0, 45, 0
2, 122160, Note_on_c, 0, 64, 67
2, 122160, Note_on_c, 0, 47, 81
2, 122400, Note_off_c, 0, 64, 0
2, 122400, Note_off_c, 0, 47, 0
2, 122400, Note_on_c, 0, 63, 66
2, 122400, Note_on_c, 0, 45, 75
2, 122640, Note_off_c, 0, 63, 0
2, 122640, Note_off_c, 0, 45, 0
2, 122640, Note_on_c, 0, 64, 69
2, 122640, Note_on_c, 0, 43, 71
2, 122880, Note_off_c, 0, 64, 0
2, 122880, Note_off_c, 0, 43, 0
2, 122880, Note_on_c, 0, 69, 93
2, 122880, Note_on_c, 0, 36, 69
2, 123120, Note_off_c, 0, 69, 0
2, 123120, Note_on_c, 0, 79, 88
2, 123360, Note_off_c, 0, 79, 0
2, 123360, Note_off_c, 0, 36, 0
2, 123360, Note_on_c, 0, 81, 88
2, 123600, Note_off_c, 0, 81, 0
2, 123600, Note_on_c, 0, 83, 88
2, 123840, Note_off_c, 0, 83, 0
2, 123840, Note_on_c, 0, 81, 88
2, 124080, Note_off_c, 0, 81, 0
2, 124080, Note_on_c, 0, 83, 88
2, 124320, Note_off_c, 0, 83, 0
2, 124320, Note_on_c, 0, 81, 88
2, 124560, Note_off_c, 0, 81, 0
2, 124560, Note_on_c, 0, 79, 87
2, 124800, Note_off_c, 0, 79, 0
2, 124800, Note_on_c, 0, 69, 67
2, 125040, Note_off_c, 0, 69, 0
2, 125040, Note_on_c, 0, 78, 85
2, 125040, Note_on_c, 0, 57, 87
2, 125280, Note_off_c, 0, 78, 0
2, 125280, Note_off_c, 0, 57, 0
2, 125280, Note_on_c, 0, 79, 86
2, 125280, Note_on_c, 0, 59, 87
2, 125520, Note_off_c, 0, 79, 0
2, 125520, Note_off_c, 0, 59, 0
2, 125520, Note_on_c, 0, 81, 88
2, 125520, Note_on_c, 0, 60, 86
2, 125760, Note_off_c, 0, 81, 0
2, 125760, Note_off_c, 0, 60, 0
2, 125760, Note_on_c, 0, 79, 83
2, 125760, Note_on_c, 0, 59, 84
2, 126000, Note_off_c, 0, 79, 0
2, 126000, Note_off_c, 0, 59, 0
2, 126000, Note_on_c, 0, 81, 87
2, 126000, Note_on_c, 0, 60, 84
2, 126240, Note_off_c, 0, 81, 0
2, 126240, Note_off_c, 0, 60, 0
2, 126240, Note_on_c, 0, 79, 79
2, 126240, Note_on_c, 0, 59, 81
2, 126480, Note_off_c, 0, 79, 0
2, 126480, Note_off_c, 0, 59, 0
2, 126480, Note_on_c, 0, 78, 74
2, 126480, Note_on_c, 0, 57, 74
2, 126720, Note_off_c, 0, 78, 0
2, 126720, Note_off_c, 0, 57, 0
2, 126720, Note_on_c, 0, 70, 69
2, 126720, Note_on_c, 0, 49, 69
2, 126960, Note_off_c, 0, 70, 0
2, 126960, Note_on_c, 0, 76, 70
2, 127200, Note_off_c, 0, 76, 0
2, 127200, Note_off_c, 0, 49, 0
2, 127200, Note_on_c, 0, 78, 79
2, 127440, Note_off_c, 0, 78, 0
2, 127440, Note_on_c, 0, 79, 82
2, 127680, Note_off_c, 0, 79, 0
2, 127680, Note_on_c, 0, 78, 78
2, 127920, Note_off_c, 0, 78, 0
2, 127920, Note_on_c, 0, 79, 82
2, 128160, Note_off_c, 0, 79, 0
2, 128160, Note_on_c, 0, 78, 77
2, 128400, Note_off_c, 0, 78, 0
2, 128400, Note_on_c, 0, 76, 69
2, 128640, Note_off_c, 0, 76, 0
2, 128640, Note_on_c, 0, 75, 70
2, 128640, Note_on_c, 0, 47, 71
2, 128880, Note_off_c, 0, 47, 0
2, 128880, Note_on_c, 0, 69, 76
2, 128880, Note_on_c, 0, 54, 77
2, 129120, Note_off_c, 0, 69, 0
2, 129120, Note_off_c, 0, 54, 0
2, 129120, Note_on_c, 0, 71, 77
2, 129120, Note_on_c, 0, 55, 79
2, 129360, Note_off_c, 0, 71, 0
2, 129360, Note_off_c, 0, 55, 0
2, 129360, Note_on_c, 0, 72, 78
2, 129360, Note_on_c, 0, 57, 84
2, 129600, Note_off_c, 0, 72, 0
2, 129600, Note_off_c, 0, 57, 0
2, 129600, Note_on_c, 0, 71, 77
2, 129600, Note_on_c, 0, 55, 78
2, 129840, Note_off_c, 0, 71, 0
2, 129840, Note_off_c, 0, 55, 0
2, 129840, Note_on_c, 0, 72, 78
2, 129840, Note_on_c, 0, 57, 83
2, 130080, Note_off_c, 0, 72, 0
2, 130080, Note_off_c, 0, 57, 0
2, 130080, Note_on_c, 0, 71, 76
2, 130080, Note_on_c, 0, 55, 77
2, 130320, Note_off_c, 0, 71, 0
2, 130320, Note_off_c, 0, 55, 0
2, 130320, Note_on_c, 0, 69, 71
2, 130320, Note_on_c, 0, 54, 74
2, 130560, Note_off_c, 0, 75, 0
2, 130560, Note_off_c, 0, 69, 0
2, 130560, Note_off_c, 0, 54, 0
2, 130560, Note_on_c, 0, 67, 71
2, 130560, Note_on_c, 0, 47, 69
2, 130800, Note_off_c, 0, 47, 0
2, 130800, Note_on_c, 0, 71, 69
2, 130800, Note_on_c, 0, 55, 81
2, 131040, Note_off_c, 0, 71, 0
2, 131040, Note_off_c, 0, 55, 0
2, 131040, Note_on_c, 0, 72, 72
2, 131040, Note_on_c, 0, 57, 86
2, 131280, Note_off_c, 0, 72, 0
2, 131280, Note_off_c, 0, 57, 0
2, 131280, Note_on_c, 0, 74, 76
2, 131280, Note_on_c, 0, 59, 88
2, 131520, Note_off_c, 0, 74, 0
2, 131520, Note_off_c, 0, 59, 0
2, 131520, Note_on_c, 0, 72, 72
2, 131520, Note_on_c, 0, 57, 84
2, 131760, Note_off_c, 0, 72, 0
2, 131760, Note_off_c, 0, 57, 0
2, 131760, Note_on_c, 0, 74, 78
2, 131760, Note_on_c, 0, 59, 87
2, 132000, Note_off_c, 0, 74, 0
2, 132000, Note_off_c, 0, 59, 0
2, 132000, Note_on_c, 0, 72, 73
2, 132000, Note_on_c, 0, 57, 81
2, 132240, Note_off_c, 0, 72, 0
2, 132240, Note_off_c, 0, 57, 0
2, 132240, Note_on_c, 0, 71, 71
2, 132240, Note_on_c, 0, 55, 73
2, 132480, Note_off_c, 0, 67, 0
2, 132480, Note_off_c, 0, 71, 0
2, 132480, Note_off_c, 0, 55, 0
2, 132480, Note_on_c, 0, 69, 70
2, 132480, Note_on_c, 0, 47, 67
2, 132720, Note_off_c, 0, 47, 0
2, 132720, Note_on_c, 0, 66, 72
2, 132720, Note_on_c, 0, 57, 85
2, 132960, Note_off_c, 0, 66, 0
2, 132960, Note_off_c, 0, 57, 0
2, 132960, Note_on_c, 0, 67, 74
2, 132960, Note_on_c, 0, 59, 88
2, 133200, Note_off_c, 0, 67, 0
2, 133200, Note_off_c, 0, 59, 0
2, 133200, Note_on_c, 0, 69, 78
2, 133200, Note_on_c, 0, 60, 88
2, 133440, Note_off_c, 0, 69, 0
2, 133440, Note_off_c, 0, 60, 0
2, 133440, Note_on_c, 0, 67, 74
2, 133440, Note_on_c, 0, 59, 86
2, 133680, Note_off_c, 0, 67, 0
2, 133680, Note_off_c, 0, 59, 0
2, 133680, Note_on_c, 0, 69, 79
2, 133680, Note_on_c, 0, 60, 87
2, 133920, Note_off_c, 0, 69, 0
2, 133920, Note_off_c, 0, 60, 0
2, 133920, Note_on_c, 0, 67, 74
2, 133920, Note_on_c, 0, 59, 84
2, 134160, Note_off_c, 0, 67, 0
2, 134160, Note_off_c, 0, 59, 0
2, 134160, Note_on_c, 0, 66, 71
2, 134160, Note_on_c, 0, 57, 75
2, 134400, Note_off_c, 0, 69, 0
2, 134400, Note_off_c, 0, 66, 0
2, 134400, Note_off_c, 0, 57, 0
2, 134400, Note_on_c, 0, 64, 71
2, 134400, Note_on_c, 0, 47, 69
2, 134640, Note_off_c, 0, 47, 0
2, 134640, Note_on_c, 0, 67, 71
2, 134640, Note_on_c, 0, 59, 86
2, 134880, Note_off_c, 0, 67, 0
2, 134880, Note_off_c, 0, 59, 0
2, 134880, Note_on_c, 0, 69, 75
2, 134880, Note_on_c, 0, 60, 87
2, 135120, Note_off_c, 0, 69, 0
2, 135120, Note_off_c, 0, 60, 0
2, 135120, Note_on_c, 0, 71, 79
2, 135120, Note_on_c, 0, 62, 88
2, 135360, Note_off_c, 0, 71, 0
2, 135360, Note_off_c, 0, 62, 0
2, 135360, Note_on_c, 0, 69, 75
2, 135360, Note_on_c, 0, 60, 85
2, 135600, Note_off_c, 0, 69, 0
2, 135600, Note_off_c, 0, 60, 0
2, 135600, Note_on_c, 0, 71, 79
2, 135600, Note_on_c, 0, 62, 88
2, 135840, Note_off_c, 0, 71, 0
2, 135840, Note_off_c, 0, 62, 0
2, 135840, Note_on_c, 0, 69, 74
2, 135840, Note_on_c, 0, 60, 82
2, 136080, Note_off_c, 0, 69, 0
2, 136080, Note_off_c, 0, 60, 0
2, 136080, Note_on_c, 0, 67, 69
2, 136080, Note_on_c, 0, 59, 77
2, 136320, Note_off_c, 0, 64, 0
2, 136320, Note_off_c, 0, 67, 0
2, 136320, Note_off_c, 0, 59, 0
2, 136320, Note_on_c, 0, 63, 74
2, 136320, Note_on_c, 0, 47, 67
2, 136560, Note_off_c, 0, 47, 0
2, 136560, Note_on_c, 0, 66, 68
2, 136560, Note_on_c, 0, 57, 74
2, 136800, Note_off_c, 0, 66, 0
2, 136800, Note_off_c, 0, 57, 0
2, 136800, Note_on_c, 0, 67, 72
2, 136800, Note_on_c, 0, 59, 83
2, 137040, Note_off_c, 0, 67, 0
2, 137040, Note_off_c, 0, 59, 0
2, 137040, Note_on_c, 0, 69, 79
2, 137040, Note_on_c, 0, 60, 85
2, 137280, Note_off_c, 0, 69, 0
2, 137280, Note_off_c, 0, 60, 0
2, 137280, Note_on_c, 0, 67, 72
2, 137280, Note_on_c, 0, 59, 81
2, 137520, Note_off_c, 0, 67, 0
2, 137520, Note_off_c, 0, 59, 0
2, 137520, Note_on_c, 0, 69, 79
2, 137520, Note_on_c, 0, 60, 84
2, 137760, Note_off_c, 0, 69, 0
2, 137760, Note_off_c, 0, 60, 0
2, 137760, Note_on_c, 0, 67, 72
2, 137760, Note_on_c, 0, 59, 79
2, 138000, Note_off_c, 0, 67, 0
2, 138000, Note_off_c, 0, 59, 0
2, 138000, Note_on_c, 0, 66, 69
2, 138000, Note_on_c, 0, 57, 71
2, 138240, Note_off_c, 0, 63, 0
2, 138240, Note_off_c, 0, 66, 0
2, 138240, Note_off_c, 0, 57, 0
2, 138240, Note_on_c, 0, 61, 79
2, 138240, Note_on_c, 0, 47, 69
2, 138480, Note_off_c, 0, 47, 0
2, 138480, Note_on_c, 0, 64, 66
2, 138480, Note_on_c, 0, 55, 69
2, 138720, Note_off_c, 0, 64, 0
2, 138720, Note_off_c, 0, 55, 0
2, 138720, Note_on_c, 0, 66, 72
2, 138720, Note_on_c, 0, 57, 78
2, 138960, Note_off_c, 0, 66, 0
2, 138960, Note_off_c, 0, 57, 0
2, 138960, Note_on_c, 0, 67, 76
2, 138960, Note_on_c, 0, 59, 85
2, 139200, Note_off_c, 0, 67, 0
2, 139200, Note_off_c, 0, 59, 0
2, 139200, Note_on_c, 0, 66, 73
2, 139200, Note_on_c, 0, 57, 77
2, 139440, Note_off_c, 0, 66, 0
2, 139440, Note_off_c, 0, 57, 0
2, 139440, Note_on_c, 0, 67, 77
2, 139440, Note_on_c, 0, 59, 85
2, 139680, Note_off_c, 0, 67, 0
2, 139680, Note_off_c, 0, 59, 0
2, 139680, Note_on_c, 0, 66, 73
2, 139680, Note_on_c, 0, 57, 76
2, 139920, Note_off_c, 0, 66, 0
2, 139920, Note_off_c, 0, 57, 0
2, 139920, Note_on_c, 0, 64, 67
2, 139920, Note_on_c, 0, 55, 68
2, 140160, Note_off_c, 0, 61, 0
2, 140160, Note_off_c, 0, 64, 0
2, 140160, Note_off_c, 0, 55, 0
2, 140160, Note_on_c, 0, 63, 69
2, 140160, Note_on_c, 0, 47, 67
2, 140400, Note_off_c, 0, 47, 0
2, 140400, Note_on_c, 0, 57, 75
2, 140400, Note_on_c, 0, 54, 70
2, 140640, Note_off_c, 0, 57, 0
2, 140640, Note_off_c, 0, 54, 0
2, 140640, Note_on_c, 0, 59, 77
2, 140640, Note_on_c, 0, 55, 75
2, 140880, Note_off_c, 0, 59, 0
2, 140880, Note_off_c, 0, 55, 0
2, 140880, Note_on_c, 0, 60, 78
2, 140880, Note_on_c, 0, 57, 84
2, 141120, Note_off_c, 0, 60, 0
2, 141120, Note_off_c, 0, 57, 0
2, 141120, Note_on_c, 0, 59, 76
2, 141120, Note_on_c, 0, 55, 75
2, 141360, Note_off_c, 0, 59, 0
2, 141360, Note_off_c, 0, 55, 0
2, 141360, Note_on_c, 0, 60, 78
2, 141360, Note_on_c, 0, 57, 83
2, 141600, Note_off_c, 0, 60, 0
2, 141600, Note_off_c, 0, 57, 0
2, 141600, Note_on_c, 0, 59, 76
2, 141600, Note_on_c, 0, 55, 74
2, 141840, Note_off_c, 0, 59, 0
2, 141840, Note_off_c, 0, 55, 0
2, 141840, Note_on_c, 0, 57, 71
2, 141840, Note_on_c, 0, 54, 71
2, 142080, Note_off_c, 0, 63, 0
2, 142080, Note_off_c, 0, 57, 0
2, 142080, Note_off_c, 0, 54, 0
2, 142080, Note_on_c, 0, 59, 72
2, 142080, Note_on_c, 0, 55, 80
2, 142320, Note_off_c, 0, 59, 0
2, 142320, Note_off_c, 0, 55, 0
2, 142320, Note_on_c, 0, 61, 72
2, 142320, Note_on_c, 0, 59, 88
2, 142560, Note_off_c, 0, 61, 0
2, 142560, Note_off_c, 0, 59, 0
2, 142560, Note_on_c, 0, 63, 77
2, 142560, Note_on_c, 0, 57, 82
2, 142800, Note_off_c, 0, 63, 0
2, 142800, Note_off_c, 0, 57, 0
2, 142800, Note_on_c, 0, 64, 79
2, 142800, Note_on_c, 0, 55, 73
2, 143040, Note_off_c, 0, 64, 0
2, 143040, Note_off_c, 0, 55, 0
2, 143040, Note_on_c, 0, 66, 84
2, 143040, Note_on_c, 0, 54, 70
2, 143280, Note_off_c, 0, 66, 0
2, 143280, Note_off_c, 0, 54, 0
2, 143280, Note_on_c, 0, 67, 85
2, 143280, Note_on_c, 0, 52, 66
2, 143520, Note_off_c, 0, 67, 0
2, 143520, Note_off_c, 0, 52, 0
2, 143520, Note_on_c, 0, 69, 87
2, 143520, Note_on_c, 0, 51, 65
2, 143760, Note_off_c, 0, 69, 0
2, 143760, Note_off_c, 0, 51, 0
2, 143760, Note_on_c, 0, 71, 88
2, 143760, Note_on_c, 0, 54, 74
2, 144000, Note_off_c, 0, 71, 0
2, 144000, Note_off_c, 0, 54, 0
2, 144000, Note_on_c, 0, 72, 91
2, 144000, Note_on_c, 0, 47, 79
2, 144240, Note_on_c, 0, 66, 82
2, 144240, Note_on_c, 0, 51, 67
2, 144480, Note_off_c, 0, 66, 0
2, 144480, Note_off_c, 0, 51, 0
2, 144480, Note_on_c, 0, 67, 83
2, 144480, Note_on_c, 0, 52, 70
2, 144720, Note_off_c, 0, 67, 0
2, 144720, Note_off_c, 0, 52, 0
2, 144720, Note_on_c, 0, 69, 84
2, 144720, Note_on_c, 0, 54, 78
2, 144960, Note_off_c, 0, 69, 0
2, 144960, Note_off_c, 0, 54, 0
2, 144960, Note_on_c, 0, 67, 79
2, 144960, Note_on_c, 0, 52, 71
2, 145200, Note_off_c, 0, 67, 0
2, 145200, Note_off_c, 0, 52, 0
2, 145200, Note_on_c, 0, 69, 83
2, 145200, Note_on_c, 0, 54, 79
2, 145440, Note_off_c, 0, 69, 0
2, 145440, Note_off_c, 0, 54, 0
2, 145440, Note_on_c, 0, 67, 77
2, 145440, Note_on_c, 0, 52, 72
2, 145680, Note_off_c, 0, 67, 0
2, 145680, Note_off_c, 0, 52, 0
2, 145680, Note_on_c, 0, 66, 74
2, 145680, Note_on_c, 0, 51, 69
2, 145920, Note_off_c, 0, 72, 0
2, 145920, Note_off_c, 0, 66, 0
2, 145920, Note_off_c, 0, 47, 0
2, 145920, Note_off_c, 0, 51, 0
2, 145920, Note_on_c, 0, 73, 88
2, 145920, Note_on_c, 0, 47, 81
2, 146160, Note_on_c, 0, 67, 76
2, 146160, Note_on_c, 0, 52, 74
2, 146400, Note_off_c, 0, 67, 0
2, 146400, Note_off_c, 0, 52, 0
2, 146400, Note_on_c, 0, 69, 82
2, 146400, Note_on_c, 0, 54, 81
2, 146640, Note_off_c, 0, 69, 0
2, 146640, Note_off_c, 0, 54, 0
2, 146640, Note_on_c, 0, 71, 85
2, 146640, Note_on_c, 0, 55, 84
2, 146880, Note_off_c, 0, 71, 0
2, 146880, Note_off_c, 0, 55, 0
2, 146880, Note_on_c, 0, 69, 79
2, 146880, Note_on_c, 0, 54, 80
2, 147120, Note_off_c, 0, 69, 0
2, 147120, Note_off_c, 0, 54, 0
2, 147120, Note_on_c, 0, 71, 85
2, 147120, Note_on_c, 0, 55, 83
2, 147360, Note_off_c, 0, 71, 0
2, 147360, Note_off_c, 0, 55, 0
2, 147360, Note_on_c, 0, 69, 77
2, 147360, Note_on_c, 0, 54, 78
2, 147600, Note_off_c, 0, 69, 0
2, 147600, Note_off_c, 0, 54, 0
2, 147600, Note_on_c, 0, 67, 70
2, 147600, Note_on_c, 0, 52, 71
2, 147840, Note_off_c, 0, 73, 0
2, 147840, Note_off_c, 0, 67, 0
2, 147840, Note_off_c, 0, 47, 0
2, 147840, Note_off_c, 0, 52, 0
2, 147840, Note_on_c, 0, 75, 81
2, 147840, Note_on_c, 0, 47, 79
2, 148080, Note_on_c, 0, 69, 78
2, 148080, Note_on_c, 0, 54, 78
2, 148320, Note_off_c, 0, 69, 0
2, 148320, Note_off_c, 0, 54, 0
2, 148320, Note_on_c, 0, 71, 84
2, 148320, Note_on_c, 0, 55, 82
2, 148560, Note_off_c, 0, 71, 0
2, 148560, Note_off_c, 0, 55, 0
2, 148560, Note_on_c, 0, 72, 85
2, 148560, Note_on_c, 0, 57, 86
2, 148800, Note_off_c, 0, 72, 0
2, 148800, Note_off_c, 0, 57, 0
2, 148800, Note_on_c, 0, 71, 82
2, 148800, Note_on_c, 0, 55, 79
2, 149040, Note_off_c, 0, 71, 0
2, 149040, Note_off_c, 0, 55, 0
2, 149040, Note_on_c, 0, 72, 84
2, 149040, Note_on_c, 0, 57, 85
2, 149280, Note_off_c, 0, 72, 0
2, 149280, Note_off_c, 0, 57, 0
2, 149280, Note_on_c, 0, 71, 80
2, 149280, Note_on_c, 0, 55, 77
2, 149520, Note_off_c, 0, 71, 0
2, 149520, Note_off_c, 0, 55, 0
2, 149520, Note_on_c, 0, 69, 71
2, 149520, Note_on_c, 0, 54, 73
2, 149760, Note_off_c, 0, 75, 0
2, 149760, Note_off_c, 0, 69, 0
2, 149760, Note_off_c, 0, 47, 0
2, 149760, Note_off_c, 0, 54, 0
2, 149760, Note_on_c, 0, 76, 81
2, 149760, Note_on_c, 0, 67, 70
2, 149760, Note_on_c, 0, 52, 72
2, 149760, Note_on_c, 0, 48, 81
2, 150000, Note_off_c, 0, 76, 0
2, 150000, Note_on_c, 0, 74, 75
2, 150240, Note_off_c, 0, 67, 0
2, 150240, Note_off_c, 0, 74, 0
2, 150240, Note_off_c, 0, 52, 0
2, 150240, Note_off_c, 0, 48, 0
2, 150240, Note_on_c, 0, 72, 73
2, 150480, Note_off_c, 0, 72, 0
2, 150480, Note_on_c, 0, 71, 71
2, 150720, Note_off_c, 0, 71, 0
2, 150720, Note_on_c, 0, 69, 68
2, 150960, Note_off_c, 0, 69, 0
2, 150960, Note_on_c, 0, 67, 66
2, 151200, Note_off_c, 0, 67, 0
2, 151200, Note_on_c, 0, 66, 66
2, 151440, Note_off_c, 0, 66, 0
2, 151440, Note_on_c, 0, 64, 65
2, 151680, Note_off_c, 0, 64, 0
2, 151680, Note_on_c, 0, 72, 88
2, 151680, Note_on_c, 0, 45, 71
2, 151920, Note_off_c, 0, 72, 0
2, 151920, Note_off_c, 0, 45, 0
2, 151920, Note_on_c, 0, 71, 81
2, 151920, Note_on_c, 0, 47, 71
2, 152160, Note_off_c, 0, 71, 0
2, 152160, Note_off_c, 0, 47, 0
2, 152160, Note_on_c, 0, 69, 74
2, 152160, Note_on_c, 0, 48, 73
2, 152400, Note_off_c, 0, 69, 0
2, 152400, Note_off_c, 0, 48, 0
2, 152400, Note_on_c, 0, 67, 68
2, 152400, Note_on_c, 0, 50, 77
2, 152640, Note_off_c, 0, 67, 0
2, 152640, Note_off_c, 0, 50, 0
2, 152640, Note_on_c, 0, 66, 67
2, 152640, Note_on_c, 0, 52, 82
2, 152880, Note_off_c, 0, 66, 0
2, 152880, Note_off_c, 0, 52, 0
2, 152880, Note_on_c, 0, 64, 65
2, 152880, Note_on_c, 0, 54, 85
2, 153120, Note_off_c, 0, 64, 0
2, 153120, Note_off_c, 0, 54, 0
2, 153120, Note_on_c, 0, 63, 65
2, 153120, Note_on_c, 0, 55, 86
2, 153360, Note_off_c, 0, 63, 0
2, 153360, Note_off_c, 0, 55, 0
2, 153360, Note_on_c, 0, 61, 65
2, 153360, Note_on_c, 0, 57, 88
2, 153600, Note_off_c, 0, 61, 0
2, 153600, Note_on_c, 0, 63, 69
2, 153600, Note_on_c, 0, 47, 81
2, 153840, Note_off_c, 0, 63, 0
2, 153840, Note_on_c, 0, 59, 65
2, 154080, Note_on_c, 0, 66, 81
2, 154320, Note_off_c, 0, 57, 0
2, 154320, Note_on_c, 0, 57, 88
2, 154560, Note_off_c, 0, 66, 0
2, 154560, Note_off_c, 0, 57, 0
2, 154560, Note_on_c, 0, 55, 83
2, 154800, Note_on_c, 0, 64, 74
2, 155040, Note_off_c, 0, 59, 0
2, 155040, Note_off_c, 0, 55, 0
2, 155040, Note_on_c, 0, 57, 76
2, 155040, Note_on_c, 0, 54, 76
2, 155280, Note_off_c, 0, 64, 0
2, 155280, Note_on_c, 0, 63, 79
2, 155520, Note_off_c, 0, 57, 0
2, 155520, Note_off_c, 0, 63, 0
2, 155520, Note_off_c, 0, 47, 0
2, 155520, Note_off_c, 0, 54, 0
2, 155520, Note_on_c, 0, 64, 83
2, 155520, Note_on_c, 0, 56, 80
2, 155520, Note_on_c, 0, 59, 80
2, 155520, Note_on_c, 0, 52, 75
2, 155520, Note_on_c, 0, 40, 78
2, 157440, Note_off_c, 0, 64, 0
2, 157440, Note_off_c, 0, 56, 0
2, 157440, Note_off_c, 0, 59, 0
2, 157440, Note_off_c, 0, 52, 0
2, 157440, Note_off_c, 0, 40, 0
2, 157441, End_track
0, 0, End_of_file