0, 0, Header, 1, 2, 960
1, 0, Start_track
1, 0, Time_signature, 4, 2, 24, 8
1, 0, Key_signature, 6, "major"
1, 0, Tempo, 600000
1, 330240, Time_signature, 5, 2, 24, 8
1, 330241, End_track
2, 0, Start_track
2, 0, Program_c, 0, 0
2, 0, Control_c, 0, 121, 0
2, 0, Control_c, 0, 64, 0
2, 0, Control_c, 0, 91, 48
2, 0, Control_c, 0, 10, 51
2, 0, Control_c, 0, 7, 100
2, 0, Note_on_c, 0, 63, 66
2, 0, Control_c, 0, 121, 0
2, 0, Control_c, 0, 64, 0
2, 0, Control_c, 0, 91, 48
2, 0, Control_c, 0, 10, 51
2, 0, Control_c, 0, 7, 100
2, 0, Title_t, "Piano"
2, 960, Note_off_c, 0, 63, 0
2, 960, Note_on_c, 0, 70, 89
2, 2400, Note_off_c, 0, 70, 0
2, 2400, Note_on_c, 0, 71, 83
2, 2880, Note_off_c, 0, 71, 0
2, 2880, Note_on_c, 0, 70, 74
2, 3360, Note_off_c, 0, 70, 0
2, 3360, Note_on_c, 0, 68, 72
2, 3840, Note_off_c, 0, 68, 0
2, 3840, Note_on_c, 0, 66, 66
2, 4320, Note_off_c, 0, 66, 0
2, 4320, Note_on_c, 0, 68, 84
2, 4800, Note_off_c, 0, 68, 0
2, 4800, Note_on_c, 0, 70, 83
2, 5760, Note_off_c, 0, 70, 0
2, 5760, Note_on_c, 0, 63, 60
2, 6720, Note_off_c, 0, 63, 0
2, 6720, Note_on_c, 0, 68, 78
2, 8160, Note_off_c, 0, 68, 0
2, 8160, Note_on_c, 0, 66, 73
2, 8640, Note_off_c, 0, 66, 0
2, 8640, Note_on_c, 0, 65, 69
2, 9600, Note_off_c, 0, 65, 0
2, 9600, Note_on_c, 0, 70, 65
2, 9600, Note_on_c, 0, 63, 72
2, 10560, Note_off_c, 0, 70, 0
2, 10560, Note_on_c, 0, 75, 83
2, 11040, Note_off_c, 0, 63, 0
2, 11040, Note_on_c, 0, 65, 83
2, 11520, Note_off_c, 0, 65, 0
2, 11520, Note_on_c, 0, 66, 75
2, 12000, Note_off_c, 0, 75, 0
2, 12000, Note_on_c, 0, 78, 82
2, 12480, Note_off_c, 0, 66, 0
2, 12480, Note_off_c, 0, 78, 0
2, 12480, Note_on_c, 0, 77, 74
2, 12480, Note_on_c, 0, 68, 82
2, 12960, Note_off_c, 0, 77, 0
2, 12960, Note_on_c, 0, 75, 73
2, 13440, Note_off_c, 0, 68, 0
2, 13440, Note_off_c, 0, 75, 0
2, 13440, Note_on_c, 0, 73, 71
2, 13440, Note_on_c, 0, 70, 78
2, 13920, Note_off_c, 0, 73, 0
2, 13920, Note_on_c, 0, 75, 78
2, 14400, Note_off_c, 0, 75, 0
2, 14400, Note_on_c, 0, 77, 84
2, 14880, Note_off_c, 0, 70, 0
2, 14880, Note_on_c, 0, 68, 73
2, 15360, Note_off_c, 0, 77, 0
2, 15360, Note_off_c, 0, 68, 0
2, 15360, Note_on_c, 0, 70, 60
2, 15360, Note_on_c, 0, 66, 73
2, 15840, Note_off_c, 0, 66, 0
2, 15840, Note_on_c, 0, 65, 73
2, 16320, Note_off_c, 0, 70, 0
2, 16320, Note_off_c, 0, 65, 0
2, 16320, Note_on_c, 0, 75, 81
2, 16320, Note_on_c, 0, 66, 79
2, 16800, Note_off_c, 0, 66, 0
2, 16800, Note_on_c, 0, 65, 74
2, 17040, Note_off_c, 0, 65, 0
2, 17040, Note_on_c, 0, 63, 69
2, 17280, Note_off_c, 0, 63, 0
2, 17280, Note_on_c, 0, 65, 80
2, 17760, Note_off_c, 0, 75, 0
2, 17760, Note_off_c, 0, 65, 0
2, 17760, Note_on_c, 0, 73, 74
2, 17760, Note_on_c, 0, 70, 87
2, 18240, Note_off_c, 0, 73, 0
2, 18240, Note_on_c, 0, 72, 70
2, 18720, Note_off_c, 0, 70, 0
2, 18720, Note_on_c, 0, 69, 73
2, 19200, Note_off_c, 0, 72, 0
2, 19200, Note_off_c, 0, 69, 0
2, 19200, Note_on_c, 0, 70, 70
2, 19680, Note_on_c, 0, 72, 77
2, 20160, Note_off_c, 0, 72, 0
2, 20160, Note_on_c, 0, 73, 74
2, 20640, Note_off_c, 0, 70, 0
2, 20640, Note_on_c, 0, 68, 73
2, 21120, Note_off_c, 0, 68, 0
2, 21120, Note_on_c, 0, 67, 72
2, 21600, Note_off_c, 0, 67, 0
2, 21600, Note_on_c, 0, 63, 65
2, 22080, Note_off_c, 0, 63, 0
2, 22080, Note_on_c, 0, 68, 84
2, 22560, Note_off_c, 0, 73, 0
2, 22560, Note_on_c, 0, 71, 71
2, 23040, Note_off_c, 0, 71, 0
2, 23040, Note_on_c, 0, 70, 74
2, 23520, Note_off_c, 0, 68, 0
2, 23520, Note_on_c, 0, 66, 71
2, 24000, Note_off_c, 0, 70, 0
2, 24000, Note_off_c, 0, 66, 0
2, 24000, Note_on_c, 0, 75, 86
2, 24000, Note_on_c, 0, 65, 72
2, 24480, Note_off_c, 0, 65, 0
2, 24480, Note_on_c, 0, 63, 72
2, 24960, Note_off_c, 0, 63, 0
2, 24960, Note_on_c, 0, 65, 78
2, 25440, Note_off_c, 0, 75, 0
2, 25440, Note_on_c, 0, 74, 72
2, 25920, Note_off_c, 0, 65, 0
2, 25920, Note_off_c, 0, 74, 0
2, 25920, Note_on_c, 0, 75, 78
2, 25920, Note_on_c, 0, 66, 80
2, 26400, Note_off_c, 0, 75, 0
2, 26400, Note_off_c, 0, 66, 0
2, 26400, Note_on_c, 0, 77, 81
2, 26400, Note_on_c, 0, 68, 81
2, 26880, Note_off_c, 0, 77, 0
2, 26880, Note_off_c, 0, 68, 0
2, 26880, Note_on_c, 0, 78, 77
2, 26880, Note_on_c, 0, 70, 81
2, 26880, Note_on_c, 0, 51, 69
2, 27360, Note_off_c, 0, 70, 0
2, 27360, Note_on_c, 0, 72, 85
2, 27840, Note_off_c, 0, 78, 0
2, 27840, Note_off_c, 0, 72, 0
2, 27840, Note_on_c, 0, 77, 74
2, 27840, Note_on_c, 0, 74, 77
2, 27840, Note_off_c, 0, 51, 0
2, 27840, Note_on_c, 0, 58, 80
2, 28320, Note_off_c, 0, 77, 0
2, 28320, Note_off_c, 0, 74, 0
2, 28320, Note_on_c, 0, 78, 79
2, 28320, Note_on_c, 0, 75, 78
2, 28800, Note_off_c, 0, 78, 0
2, 28800, Note_off_c, 0, 75, 0
2, 28800, Note_on_c, 0, 80, 79
2, 28800, Note_on_c, 0, 77, 79
2, 29280, Note_off_c, 0, 80, 0
2, 29280, Note_off_c, 0, 77, 0
2, 29280, Note_on_c, 0, 77, 73
2, 29280, Note_on_c, 0, 74, 73
2, 29280, Note_off_c, 0, 58, 0
2, 29280, Note_on_c, 0, 59, 82
2, 29760, Note_off_c, 0, 77, 0
2, 29760, Note_off_c, 0, 74, 0
2, 29760, Note_on_c, 0, 78, 76
2, 29760, Note_on_c, 0, 75, 77
2, 29760, Note_off_c, 0, 59, 0
2, 29760, Note_on_c, 0, 58, 76
2, 30240, Note_off_c, 0, 78, 0
2, 30240, Note_off_c, 0, 75, 0
2, 30240, Note_on_c, 0, 80, 82
2, 30240, Note_on_c, 0, 77, 79
2, 30240, Note_off_c, 0, 58, 0
2, 30240, Note_on_c, 0, 56, 73
2, 30720, Note_off_c, 0, 80, 0
2, 30720, Note_off_c, 0, 77, 0
2, 30720, Note_on_c, 0, 82, 82
2, 30720, Note_on_c, 0, 78, 79
2, 30720, Note_off_c, 0, 56, 0
2, 30720, Note_on_c, 0, 54, 75
2, 31200, Note_off_c, 0, 82, 0
2, 31200, Note_off_c, 0, 78, 0
2, 31200, Note_on_c, 0, 80, 74
2, 31200, Note_on_c, 0, 77, 68
2, 31200, Note_off_c, 0, 54, 0
2, 31200, Note_on_c, 0, 56, 78
2, 31680, Note_off_c, 0, 80, 0
2, 31680, Note_off_c, 0, 77, 0
2, 31680, Note_on_c, 0, 78, 74
2, 31680, Note_on_c, 0, 75, 76
2, 31680, Note_off_c, 0, 56, 0
2, 31680, Note_on_c, 0, 58, 78
2, 32160, Note_off_c, 0, 78, 0
2, 32160, Note_off_c, 0, 75, 0
2, 32160, Note_on_c, 0, 77, 68
2, 32160, Note_on_c, 0, 74, 75
2, 32640, Note_off_c, 0, 77, 0
2, 32640, Note_off_c, 0, 74, 0
2, 32640, Note_on_c, 0, 78, 78
2, 32640, Note_on_c, 0, 75, 79
2, 32640, Note_off_c, 0, 58, 0
2, 32640, Note_on_c, 0, 51, 71
2, 33120, Note_off_c, 0, 75, 0
2, 33120, Note_on_c, 0, 73, 71
2, 33600, Note_off_c, 0, 78, 0
2, 33600, Note_off_c, 0, 73, 0
2, 33600, Note_on_c, 0, 77, 72
2, 33600, Note_on_c, 0, 71, 72
2, 33600, Note_off_c, 0, 51, 0
2, 33600, Note_on_c, 0, 56, 81
2, 34080, Note_off_c, 0, 77, 0
2, 34080, Note_on_c, 0, 75, 69
2, 34560, Note_off_c, 0, 71, 0
2, 34560, Note_off_c, 0, 75, 0
2, 34560, Note_on_c, 0, 74, 73
2, 34560, Note_on_c, 0, 70, 76
2, 35040, Note_off_c, 0, 74, 0
2, 35040, Note_on_c, 0, 75, 79
2, 35040, Note_off_c, 0, 56, 0
2, 35040, Note_on_c, 0, 54, 77
2, 35520, Note_off_c, 0, 70, 0
2, 35520, Note_on_c, 0, 68, 70
2, 35520, Note_off_c, 0, 54, 0
2, 35520, Note_on_c, 0, 53, 74
2, 36000, Note_off_c, 0, 75, 0
2, 36000, Note_on_c, 0, 74, 73
2, 36480, Note_off_c, 0, 68, 0
2, 36480, Note_off_c, 0, 74, 0
2, 36480, Note_on_c, 0, 75, 81
2, 36480, Note_on_c, 0, 66, 70
2, 36480, Note_off_c, 0, 53, 0
2, 36480, Note_on_c, 0, 51, 78
2, 36960, Note_off_c, 0, 75, 0
2, 36960, Note_on_c, 0, 73, 76
2, 37440, Note_off_c, 0, 66, 0
2, 37440, Note_off_c, 0, 73, 0
2, 37440, Note_on_c, 0, 71, 71
2, 37440, Note_on_c, 0, 68, 84
2, 37440, Note_off_c, 0, 51, 0
2, 37440, Note_on_c, 0, 63, 98
2, 37920, Note_off_c, 0, 68, 0
2, 37920, Note_on_c, 0, 66, 75
2, 38400, Note_off_c, 0, 66, 0
2, 38400, Note_on_c, 0, 65, 67
2, 38400, Note_off_c, 0, 63, 0
2, 38400, Note_on_c, 0, 62, 77
2, 38880, Note_off_c, 0, 71, 0
2, 38880, Note_on_c, 0, 70, 70
2, 39120, Note_off_c, 0, 70, 0
2, 39120, Note_on_c, 0, 68, 71
2, 39360, Note_off_c, 0, 68, 0
2, 39360, Note_on_c, 0, 70, 80
2, 39360, Note_off_c, 0, 62, 0
2, 39360, Note_on_c, 0, 61, 71
2, 39840, Note_off_c, 0, 65, 0
2, 39840, Note_off_c, 0, 70, 0
2, 39840, Note_on_c, 0, 71, 83
2, 39840, Note_on_c, 0, 63, 71
2, 40080, Note_off_c, 0, 71, 0
2, 40080, Note_off_c, 0, 63, 0
2, 40080, Note_on_c, 0, 73, 83
2, 40080, Note_on_c, 0, 65, 82
2, 40320, Note_off_c, 0, 73, 0
2, 40320, Note_off_c, 0, 65, 0
2, 40320, Note_on_c, 0, 75, 80
2, 40320, Note_on_c, 0, 66, 78
2, 40320, Note_off_c, 0, 61, 0
2, 40320, Note_on_c, 0, 60, 74
2, 40800, Note_off_c, 0, 75, 0
2, 40800, Note_off_c, 0, 66, 0
2, 40800, Note_on_c, 0, 77, 82
2, 40800, Note_on_c, 0, 68, 80
2, 41040, Note_off_c, 0, 77, 0
2, 41040, Note_off_c, 0, 68, 0
2, 41040, Note_on_c, 0, 78, 82
2, 41040, Note_on_c, 0, 70, 82
2, 41280, Note_off_c, 0, 78, 0
2, 41280, Note_off_c, 0, 70, 0
2, 41280, Note_on_c, 0, 77, 74
2, 41280, Note_on_c, 0, 68, 73
2, 41280, Note_off_c, 0, 60, 0
2, 41280, Note_on_c, 0, 59, 75
2, 41393, Note_off_c, 0, 68, 0
2, 41415, Note_on_c, 0, 69, 73
2, 41520, Note_off_c, 0, 69, 0
2, 41539, Note_on_c, 0, 68, 73
2, 41636, Note_off_c, 0, 68, 0
2, 41655, Note_on_c, 0, 69, 73
2, 41745, Note_off_c, 0, 69, 0
2, 41779, Note_on_c, 0, 68, 73
2, 41876, Note_off_c, 0, 68, 0
2, 41914, Note_on_c, 0, 69, 73
2, 41996, Note_off_c, 0, 69, 0
2, 42000, Note_off_c, 0, 77, 0
2, 42000, Note_on_c, 0, 75, 68
2, 42000, Note_on_c, 0, 66, 70
2, 42120, Note_off_c, 0, 66, 0
2, 42120, Note_on_c, 0, 68, 82
2, 42240, Note_off_c, 0, 75, 0
2, 42240, Note_off_c, 0, 68, 0
2, 42240, Note_on_c, 0, 74, 69
2, 42240, Note_on_c, 0, 70, 84
2, 42240, Note_off_c, 0, 59, 0
2, 42240, Note_on_c, 0, 58, 74
2, 42720, Note_off_c, 0, 70, 0
2, 42720, Note_on_c, 0, 68, 72
2, 42720, Note_off_c, 0, 58, 0
2, 42720, Note_on_c, 0, 46, 64
2, 43200, Note_off_c, 0, 74, 0
2, 43200, Note_off_c, 0, 68, 0
2, 43200, Note_on_c, 0, 75, 82
2, 43200, Note_on_c, 0, 66, 65
2, 43200, Note_off_c, 0, 46, 0
2, 43200, Note_on_c, 0, 51, 77
2, 43680, Note_off_c, 0, 75, 0
2, 43680, Note_off_c, 0, 66, 0
2, 43680, Note_on_c, 0, 73, 71
2, 43680, Note_on_c, 0, 65, 72
2, 44160, Note_off_c, 0, 73, 0
2, 44160, Note_off_c, 0, 65, 0
2, 44160, Note_on_c, 0, 71, 71
2, 44160, Note_on_c, 0, 63, 69
2, 44640, Note_off_c, 0, 71, 0
2, 44640, Note_on_c, 0, 70, 73
2, 44640, Note_off_c, 0, 51, 0
2, 44640, Note_on_c, 0, 54, 80
2, 45120, Note_off_c, 0, 63, 0
2, 45120, Note_off_c, 0, 70, 0
2, 45120, Note_on_c, 0, 68, 69
2, 45120, Note_on_c, 0, 62, 73
2, 45120, Note_off_c, 0, 54, 0
2, 45120, Note_on_c, 0, 53, 73
2, 45600, Note_off_c, 0, 68, 0
2, 45600, Note_off_c, 0, 62, 0
2, 45600, Note_on_c, 0, 66, 68
2, 45600, Note_on_c, 0, 63, 74
2, 45600, Note_off_c, 0, 53, 0
2, 45600, Note_on_c, 0, 51, 76
2, 46080, Note_off_c, 0, 66, 0
2, 46080, Note_off_c, 0, 63, 0
2, 46080, Note_on_c, 0, 65, 71
2, 46080, Note_off_c, 0, 51, 0
2, 46080, Note_on_c, 0, 50, 80
2, 46560, Note_off_c, 0, 65, 0
2, 46560, Note_on_c, 0, 66, 80
2, 46560, Note_on_c, 0, 63, 73
2, 46560, Note_off_c, 0, 50, 0
2, 46560, Note_on_c, 0, 51, 81
2, 47040, Note_off_c, 0, 66, 0
2, 47040, Note_off_c, 0, 63, 0
2, 47040, Note_on_c, 0, 68, 84
2, 47040, Note_on_c, 0, 62, 75
2, 47040, Note_off_c, 0, 51, 0
2, 47040, Note_on_c, 0, 53, 77
2, 47520, Note_off_c, 0, 62, 0
2, 47520, Note_on_c, 0, 60, 70
2, 48000, Note_off_c, 0, 60, 0
2, 48000, Note_on_c, 0, 62, 83
2, 48000, Note_off_c, 0, 53, 0
2, 48000, Note_on_c, 0, 46, 73
2, 48480, Note_off_c, 0, 68, 0
2, 48480, Note_on_c, 0, 66, 73
2, 48720, Note_off_c, 0, 66, 0
2, 48720, Note_on_c, 0, 65, 73
2, 48960, Note_off_c, 0, 62, 0
2, 48960, Note_off_c, 0, 65, 0
2, 48960, Note_on_c, 0, 66, 81
2, 48960, Note_on_c, 0, 63, 83
2, 48960, Note_off_c, 0, 46, 0
2, 48960, Note_on_c, 0, 51, 76
2, 49440, Note_off_c, 0, 66, 0
2, 49440, Note_off_c, 0, 63, 0
2, 49440, Note_on_c, 0, 68, 85
2, 49440, Note_on_c, 0, 65, 83
2, 49920, Note_off_c, 0, 68, 0
2, 49920, Note_off_c, 0, 65, 0
2, 49920, Note_on_c, 0, 70, 83
2, 49920, Note_on_c, 0, 66, 83
2, 50400, Note_off_c, 0, 51, 0
2, 50400, Note_on_c, 0, 49, 77
2, 50880, Note_off_c, 0, 70, 0
2, 50880, Note_off_c, 0, 66, 0
2, 50880, Note_on_c, 0, 71, 79
2, 50880, Note_on_c, 0, 68, 85
2, 50880, Note_off_c, 0, 49, 0
2, 50880, Note_on_c, 0, 47, 73
2, 51360, Note_off_c, 0, 71, 0
2, 51360, Note_off_c, 0, 68, 0
2, 51360, Note_on_c, 0, 73, 85
2, 51360, Note_on_c, 0, 66, 73
2, 51600, Note_off_c, 0, 73, 0
2, 51600, Note_on_c, 0, 75, 81
2, 51840, Note_off_c, 0, 66, 0
2, 51840, Note_off_c, 0, 75, 0
2, 51840, Note_on_c, 0, 68, 62
2, 51840, Note_on_c, 0, 65, 68
2, 52320, Note_off_c, 0, 65, 0
2, 52320, Note_on_c, 0, 61, 66
2, 52800, Note_off_c, 0, 68, 0
2, 52800, Note_off_c, 0, 61, 0
2, 52800, Note_on_c, 0, 66, 85
2, 52800, Note_off_c, 0, 47, 0
2, 52800, Note_on_c, 0, 46, 75
2, 53280, Note_on_c, 0, 70, 68
2, 53760, Note_off_c, 0, 70, 0
2, 53760, Note_on_c, 0, 71, 78
2, 53760, Note_off_c, 0, 46, 0
2, 53760, Note_on_c, 0, 44, 76
2, 54240, Note_off_c, 0, 71, 0
2, 54240, Note_on_c, 0, 73, 85
2, 54240, Note_off_c, 0, 44, 0
2, 54240, Note_on_c, 0, 46, 76
2, 54720, Note_off_c, 0, 66, 0
2, 54720, Note_off_c, 0, 73, 0
2, 54720, Note_on_c, 0, 75, 81
2, 54720, Note_on_c, 0, 65, 77
2, 54720, Note_off_c, 0, 46, 0
2, 54720, Note_on_c, 0, 47, 77
2, 55200, Note_off_c, 0, 75, 0
2, 55200, Note_on_c, 0, 77, 82
2, 55200, Note_off_c, 0, 47, 0
2, 55200, Note_on_c, 0, 49, 77
2, 55680, Note_off_c, 0, 77, 0
2, 55680, Note_on_c, 0, 78, 83
2, 55680, Note_off_c, 0, 49, 0
2, 55680, Note_on_c, 0, 51, 79
2, 56160, Note_off_c, 0, 78, 0
2, 56160, Note_on_c, 0, 80, 83
2, 56160, Note_off_c, 0, 51, 0
2, 56160, Note_on_c, 0, 53, 81
2, 56640, Note_off_c, 0, 65, 0
2, 56640, Note_off_c, 0, 80, 0
2, 56640, Note_on_c, 0, 82, 83
2, 56640, Note_on_c, 0, 63, 75
2, 56640, Note_off_c, 0, 53, 0
2, 56640, Note_on_c, 0, 54, 73
2, 57120, Note_off_c, 0, 82, 0
2, 57120, Note_on_c, 0, 83, 82
2, 57120, Note_off_c, 0, 54, 0
2, 57120, Note_on_c, 0, 56, 78
2, 57600, Note_off_c, 0, 63, 0
2, 57600, Note_on_c, 0, 61, 70
2, 57600, Note_off_c, 0, 56, 0
2, 57600, Note_on_c, 0, 58, 83
2, 58080, Note_off_c, 0, 83, 0
2, 58080, Note_off_c, 0, 61, 0
2, 58080, Note_on_c, 0, 73, 57
2, 58080, Note_on_c, 0, 65, 82
2, 58080, Note_off_c, 0, 58, 0
2, 58080, Note_on_c, 0, 56, 68
2, 58560, Note_off_c, 0, 73, 0
2, 58560, Note_off_c, 0, 65, 0
2, 58560, Note_on_c, 0, 78, 84
2, 58560, Note_on_c, 0, 66, 83
2, 58560, Note_off_c, 0, 56, 0
2, 58560, Note_on_c, 0, 58, 75
2, 59040, Note_off_c, 0, 66, 0
2, 59040, Note_on_c, 0, 68, 79
2, 59040, Note_off_c, 0, 58, 0
2, 59040, Note_on_c, 0, 59, 77
2, 59520, Note_off_c, 0, 68, 0
2, 59520, Note_on_c, 0, 70, 81
2, 59520, Note_off_c, 0, 59, 0
2, 59520, Note_on_c, 0, 61, 86
2, 60000, Note_off_c, 0, 70, 0
2, 60000, Note_on_c, 0, 71, 85
2, 60480, Note_off_c, 0, 78, 0
2, 60480, Note_off_c, 0, 71, 0
2, 60480, Note_on_c, 0, 77, 72
2, 60480, Note_on_c, 0, 73, 83
2, 60480, Note_off_c, 0, 61, 0
2, 60480, Note_on_c, 0, 49, 64
2, 60960, Note_off_c, 0, 73, 0
2, 60960, Note_on_c, 0, 71, 72
2, 61440, Note_off_c, 0, 71, 0
2, 61440, Note_on_c, 0, 70, 69
2, 61440, Note_off_c, 0, 49, 0
2, 61440, Note_on_c, 0, 42, 66
2, 61920, Note_off_c, 0, 70, 0
2, 61920, Note_on_c, 0, 68, 71
2, 62400, Note_off_c, 0, 77, 0
2, 62400, Note_off_c, 0, 68, 0
2, 62400, Note_on_c, 0, 75, 72
2, 62400, Note_on_c, 0, 66, 77
2, 62400, Note_off_c, 0, 42, 0
2, 62400, Note_on_c, 0, 54, 83
2, 62880, Note_off_c, 0, 75, 0
2, 62880, Note_off_c, 0, 66, 0
2, 62880, Note_on_c, 0, 73, 70
2, 62880, Note_on_c, 0, 65, 77
2, 63360, Note_off_c, 0, 73, 0
2, 63360, Note_off_c, 0, 65, 0
2, 63360, Note_on_c, 0, 72, 68
2, 63360, Note_on_c, 0, 63, 69
2, 63840, Note_off_c, 0, 72, 0
2, 63840, Note_off_c, 0, 63, 0
2, 63840, Note_on_c, 0, 74, 79
2, 63840, Note_on_c, 0, 65, 79
2, 63840, Note_off_c, 0, 54, 0
2, 63840, Note_on_c, 0, 53, 78
2, 64320, Note_off_c, 0, 74, 0
2, 64320, Note_off_c, 0, 65, 0
2, 64320, Note_on_c, 0, 75, 80
2, 64320, Note_on_c, 0, 66, 77
2, 64320, Note_off_c, 0, 53, 0
2, 64320, Note_on_c, 0, 51, 74
2, 64800, Note_off_c, 0, 75, 0
2, 64800, Note_off_c, 0, 66, 0
2, 64800, Note_on_c, 0, 77, 77
2, 64800, Note_on_c, 0, 70, 85
2, 64800, Note_off_c, 0, 51, 0
2, 64800, Note_on_c, 0, 49, 75
2, 65280, Note_off_c, 0, 77, 0
2, 65280, Note_off_c, 0, 70, 0
2, 65280, Note_on_c, 0, 78, 79
2, 65280, Note_on_c, 0, 75, 85
2, 65280, Note_off_c, 0, 49, 0
2, 65280, Note_on_c, 0, 48, 72
2, 65760, Note_off_c, 0, 75, 0
2, 65760, Note_on_c, 0, 73, 78
2, 65760, Note_off_c, 0, 48, 0
2, 65760, Note_on_c, 0, 46, 75
2, 66240, Note_off_c, 0, 78, 0
2, 66240, Note_off_c, 0, 73, 0
2, 66240, Note_on_c, 0, 77, 75
2, 66240, Note_on_c, 0, 72, 75
2, 66240, Note_off_c, 0, 46, 0
2, 66240, Note_on_c, 0, 45, 76
2, 66720, Note_off_c, 0, 77, 0
2, 66720, Note_on_c, 0, 75, 71
2, 66720, Note_off_c, 0, 45, 0
2, 66720, Note_on_c, 0, 41, 67
2, 67200, Note_off_c, 0, 75, 0
2, 67200, Note_on_c, 0, 73, 69
2, 67200, Note_off_c, 0, 41, 0
2, 67200, Note_on_c, 0, 46, 78
2, 67680, Note_off_c, 0, 73, 0
2, 67680, Note_on_c, 0, 75, 81
2, 67680, Note_off_c, 0, 46, 0
2, 67680, Note_on_c, 0, 48, 81
2, 68160, Note_off_c, 0, 72, 0
2, 68160, Note_off_c, 0, 75, 0
2, 68160, Note_on_c, 0, 77, 80
2, 68160, Note_on_c, 0, 70, 68
2, 68160, Note_off_c, 0, 48, 0
2, 68160, Note_on_c, 0, 49, 82
2, 68640, Note_off_c, 0, 77, 0
2, 68640, Note_on_c, 0, 78, 86
2, 68640, Note_off_c, 0, 49, 0
2, 68640, Note_on_c, 0, 51, 80
2, 69120, Note_off_c, 0, 78, 0
2, 69120, Note_on_c, 0, 73, 64
2, 69120, Note_off_c, 0, 51, 0
2, 69120, Note_on_c, 0, 53, 77
2, 69600, Note_off_c, 0, 53, 0
2, 69600, Note_on_c, 0, 51, 72
2, 70080, Note_off_c, 0, 70, 0
2, 70080, Note_off_c, 0, 73, 0
2, 70080, Note_on_c, 0, 72, 69
2, 70080, Note_on_c, 0, 69, 69
2, 70080, Note_off_c, 0, 51, 0
2, 70080, Note_on_c, 0, 53, 80
2, 70560, Note_off_c, 0, 53, 0
2, 70560, Note_on_c, 0, 41, 65
2, 71040, Note_off_c, 0, 72, 0
2, 71040, Note_off_c, 0, 69, 0
2, 71040, Note_on_c, 0, 70, 71
2, 71040, Note_on_c, 0, 58, 65
2, 71040, Note_off_c, 0, 41, 0
2, 71040, Note_on_c, 0, 46, 78
2, 71520, Note_off_c, 0, 46, 0
2, 71520, Note_on_c, 0, 45, 73
2, 72000, Note_off_c, 0, 70, 0
2, 72000, Note_off_c, 0, 58, 0
2, 72000, Note_on_c, 0, 65, 84
2, 72000, Note_off_c, 0, 45, 0
2, 72000, Note_on_c, 0, 46, 80
2, 72480, Note_off_c, 0, 46, 0
2, 72480, Note_on_c, 0, 48, 79
2, 72960, Note_on_c, 0, 70, 68
2, 72960, Note_off_c, 0, 48, 0
2, 72960, Note_on_c, 0, 49, 78
2, 73440, Note_off_c, 0, 65, 0
2, 73440, Note_on_c, 0, 66, 78
2, 73440, Note_off_c, 0, 49, 0
2, 73440, Note_on_c, 0, 48, 74
2, 73920, Note_off_c, 0, 70, 0
2, 73920, Note_off_c, 0, 66, 0
2, 73920, Note_on_c, 0, 77, 92
2, 73920, Note_on_c, 0, 65, 76
2, 73920, Note_off_c, 0, 48, 0
2, 73920, Note_on_c, 0, 49, 79
2, 74400, Note_off_c, 0, 65, 0
2, 74400, Note_on_c, 0, 63, 74
2, 74400, Note_off_c, 0, 49, 0
2, 74400, Note_on_c, 0, 51, 79
2, 74880, Note_off_c, 0, 63, 0
2, 74880, Note_on_c, 0, 61, 67
2, 74880, Note_off_c, 0, 51, 0
2, 74880, Note_on_c, 0, 53, 75
2, 75360, Note_off_c, 0, 77, 0
2, 75360, Note_off_c, 0, 61, 0
2, 75360, Note_on_c, 0, 78, 76
2, 75360, Note_on_c, 0, 63, 80
2, 75360, Note_off_c, 0, 53, 0
2, 75360, Note_on_c, 0, 51, 75
2, 75840, Note_off_c, 0, 78, 0
2, 75840, Note_off_c, 0, 63, 0
2, 75840, Note_on_c, 0, 77, 69
2, 75840, Note_on_c, 0, 65, 83
2, 75840, Note_off_c, 0, 51, 0
2, 75840, Note_on_c, 0, 49, 69
2, 76320, Note_off_c, 0, 77, 0
2, 76320, Note_on_c, 0, 75, 74
2, 76320, Note_off_c, 0, 49, 0
2, 76320, Note_on_c, 0, 51, 73
2, 76560, Note_off_c, 0, 51, 0
2, 76560, Note_on_c, 0, 53, 80
2, 76800, Note_off_c, 0, 65, 0
2, 76800, Note_off_c, 0, 75, 0
2, 76800, Note_on_c, 0, 73, 73
2, 76800, Note_on_c, 0, 58, 70
2, 76800, Note_off_c, 0, 53, 0
2, 76800, Note_on_c, 0, 54, 80
2, 77040, Note_off_c, 0, 54, 0
2, 77040, Note_on_c, 0, 53, 74
2, 77280, Note_off_c, 0, 73, 0
2, 77280, Note_on_c, 0, 75, 83
2, 77280, Note_off_c, 0, 53, 0
2, 77280, Note_on_c, 0, 54, 78
2, 77760, Note_off_c, 0, 58, 0
2, 77760, Note_off_c, 0, 75, 0
2, 77760, Note_on_c, 0, 77, 85
2, 77760, Note_off_c, 0, 54, 0
2, 77760, Note_on_c, 0, 45, 67
2, 78240, Note_on_c, 0, 63, 66
2, 78720, Note_off_c, 0, 77, 0
2, 78720, Note_on_c, 0, 70, 62
2, 78720, Note_off_c, 0, 45, 0
2, 78720, Note_on_c, 0, 46, 80
2, 79200, Note_off_c, 0, 63, 0
2, 79200, Note_on_c, 0, 61, 70
2, 79680, Note_off_c, 0, 70, 0
2, 79680, Note_off_c, 0, 61, 0
2, 79680, Note_on_c, 0, 60, 71
2, 79680, Note_off_c, 0, 46, 0
2, 79680, Note_on_c, 0, 48, 73
2, 80160, Note_on_c, 0, 75, 66
2, 80640, Note_off_c, 0, 60, 0
2, 80640, Note_on_c, 0, 58, 71
2, 80640, Note_off_c, 0, 48, 0
2, 80640, Note_on_c, 0, 49, 79
2, 81120, Note_off_c, 0, 75, 0
2, 81120, Note_on_c, 0, 73, 72
2, 81120, Note_off_c, 0, 49, 0
2, 81120, Note_on_c, 0, 46, 78
2, 81600, Note_off_c, 0, 58, 0
2, 81600, Note_off_c, 0, 73, 0
2, 81600, Note_on_c, 0, 72, 75
2, 81600, Note_off_c, 0, 46, 0
2, 81600, Note_on_c, 0, 53, 85
2, 82080, Note_on_c, 0, 68, 66
2, 82080, Note_off_c, 0, 53, 0
2, 82080, Note_on_c, 0, 51, 70
2, 82560, Note_off_c, 0, 72, 0
2, 82560, Note_on_c, 0, 70, 71
2, 82560, Note_off_c, 0, 51, 0
2, 82560, Note_on_c, 0, 50, 80
2, 83040, Note_off_c, 0, 68, 0
2, 83040, Note_on_c, 0, 66, 72
2, 83040, Note_off_c, 0, 50, 0
2, 83040, Note_on_c, 0, 51, 80
2, 83520, Note_off_c, 0, 70, 0
2, 83520, Note_off_c, 0, 66, 0
2, 83520, Note_on_c, 0, 65, 76
2, 84000, Note_on_c, 0, 80, 69
2, 84000, Note_off_c, 0, 51, 0
2, 84000, Note_on_c, 0, 50, 76
2, 84480, Note_off_c, 0, 65, 0
2, 84480, Note_on_c, 0, 63, 74
2, 84480, Note_off_c, 0, 50, 0
2, 84480, Note_on_c, 0, 51, 78
2, 84960, Note_off_c, 0, 80, 0
2, 84960, Note_on_c, 0, 78, 72
2, 84960, Note_off_c, 0, 51, 0
2, 84960, Note_on_c, 0, 60, 95
2, 85440, Note_off_c, 0, 63, 0
2, 85440, Note_off_c, 0, 78, 0
2, 85440, Note_on_c, 0, 77, 67
2, 85440, Note_off_c, 0, 60, 0
2, 85440, Note_on_c, 0, 57, 77
2, 85920, Note_on_c, 0, 61, 65
2, 85920, Note_off_c, 0, 57, 0
2, 85920, Note_on_c, 0, 58, 77
2, 86400, Note_off_c, 0, 61, 0
2, 86400, Note_on_c, 0, 70, 88
2, 86400, Note_off_c, 0, 58, 0
2, 86400, Note_on_c, 0, 54, 70
2, 86640, Note_off_c, 0, 77, 0
2, 86640, Note_on_c, 0, 75, 74
2, 86880, Note_off_c, 0, 70, 0
2, 86880, Note_off_c, 0, 75, 0
2, 86880, Note_on_c, 0, 77, 82
2, 86880, Note_on_c, 0, 69, 76
2, 86880, Note_off_c, 0, 54, 0
2, 86880, Note_on_c, 0, 53, 73
2, 87120, Note_off_c, 0, 77, 0
2, 87120, Note_on_c, 0, 78, 77
2, 87360, Note_off_c, 0, 69, 0
2, 87360, Note_off_c, 0, 78, 0
2, 87360, Note_on_c, 0, 75, 68
2, 87360, Note_on_c, 0, 70, 80
2, 87360, Note_off_c, 0, 53, 0
2, 87360, Note_on_c, 0, 54, 78
2, 87473, Note_off_c, 0, 75, 0
2, 87495, Note_on_c, 0, 77, 68
2, 87600, Note_off_c, 0, 77, 0
2, 87619, Note_on_c, 0, 75, 68
2, 87716, Note_off_c, 0, 75, 0
2, 87735, Note_on_c, 0, 77, 68
2, 87825, Note_off_c, 0, 77, 0
2, 87859, Note_on_c, 0, 75, 68
2, 87956, Note_off_c, 0, 75, 0
2, 87994, Note_on_c, 0, 77, 68
2, 88076, Note_off_c, 0, 77, 0
2, 88080, Note_on_c, 0, 77, 85
2, 88320, Note_off_c, 0, 70, 0
2, 88320, Note_off_c, 0, 77, 0
2, 88320, Note_on_c, 0, 77, 76
2, 88320, Note_on_c, 0, 69, 74
2, 88320, Note_off_c, 0, 54, 0
2, 88320, Note_on_c, 0, 53, 75
2, 89280, Note_off_c, 0, 77, 0
2, 89280, Note_off_c, 0, 69, 0
2, 89280, Note_on_c, 0, 82, 85
2, 89280, Note_on_c, 0, 70, 84
2, 89280, Note_off_c, 0, 53, 0
2, 90240, Note_off_c, 0, 70, 0
2, 90240, Note_on_c, 0, 75, 89
2, 90240, Note_on_c, 0, 54, 71
2, 90720, Note_off_c, 0, 82, 0
2, 90720, Note_on_c, 0, 83, 82
2, 91200, Note_off_c, 0, 83, 0
2, 91200, Note_on_c, 0, 82, 77
2, 91200, Note_off_c, 0, 54, 0
2, 91200, Note_on_c, 0, 59, 86
2, 91680, Note_off_c, 0, 75, 0
2, 91680, Note_off_c, 0, 82, 0
2, 91680, Note_on_c, 0, 80, 70
2, 91680, Note_on_c, 0, 77, 83
2, 92160, Note_off_c, 0, 80, 0
2, 92160, Note_off_c, 0, 77, 0
2, 92160, Note_on_c, 0, 79, 71
2, 92160, Note_on_c, 0, 75, 77
2, 92640, Note_off_c, 0, 79, 0
2, 92640, Note_on_c, 0, 80, 81
2, 92640, Note_off_c, 0, 59, 0
2, 92640, Note_on_c, 0, 61, 80
2, 93120, Note_off_c, 0, 80, 0
2, 93120, Note_on_c, 0, 82, 84
2, 93120, Note_off_c, 0, 61, 0
2, 93120, Note_on_c, 0, 59, 72
2, 93600, Note_off_c, 0, 75, 0
2, 93600, Note_on_c, 0, 73, 72
2, 93600, Note_off_c, 0, 59, 0
2, 93600, Note_on_c, 0, 58, 69
2, 94080, Note_off_c, 0, 82, 0
2, 94080, Note_off_c, 0, 73, 0
2, 94080, Note_on_c, 0, 75, 61
2, 94080, Note_on_c, 0, 72, 73
2, 94080, Note_off_c, 0, 58, 0
2, 94080, Note_on_c, 0, 56, 74
2, 94560, Note_off_c, 0, 56, 0
2, 94560, Note_on_c, 0, 55, 75
2, 95040, Note_off_c, 0, 75, 0
2, 95040, Note_on_c, 0, 80, 86
2, 95040, Note_off_c, 0, 55, 0
2, 95040, Note_on_c, 0, 56, 79
2, 95520, Note_off_c, 0, 72, 0
2, 95520, Note_on_c, 0, 73, 80
2, 95520, Note_off_c, 0, 56, 0
2, 95520, Note_on_c, 0, 58, 78
2, 96000, Note_off_c, 0, 73, 0
2, 96000, Note_on_c, 0, 75, 84
2, 96000, Note_off_c, 0, 58, 0
2, 96000, Note_on_c, 0, 60, 80
2, 96480, Note_off_c, 0, 80, 0
2, 96480, Note_on_c, 0, 78, 67
2, 96960, Note_off_c, 0, 75, 0
2, 96960, Note_off_c, 0, 78, 0
2, 96960, Note_on_c, 0, 77, 73
2, 96960, Note_on_c, 0, 68, 64
2, 96960, Note_off_c, 0, 60, 0
2, 96960, Note_on_c, 0, 61, 81
2, 97440, Note_off_c, 0, 61, 0
2, 97440, Note_on_c, 0, 59, 76
2, 97920, Note_off_c, 0, 68, 0
2, 97920, Note_on_c, 0, 73, 85
2, 97920, Note_off_c, 0, 59, 0
2, 97920, Note_on_c, 0, 58, 76
2, 98400, Note_off_c, 0, 58, 0
2, 98400, Note_on_c, 0, 56, 73
2, 98880, Note_off_c, 0, 77, 0
2, 98880, Note_on_c, 0, 75, 69
2, 98880, Note_off_c, 0, 56, 0
2, 98880, Note_on_c, 0, 55, 75
2, 99360, Note_off_c, 0, 55, 0
2, 99360, Note_on_c, 0, 51, 72
2, 99840, Note_off_c, 0, 73, 0
2, 99840, Note_on_c, 0, 72, 72
2, 99840, Note_off_c, 0, 51, 0
2, 99840, Note_on_c, 0, 56, 81
2, 100320, Note_off_c, 0, 56, 0
2, 100320, Note_on_c, 0, 58, 79
2, 100800, Note_off_c, 0, 75, 0
2, 100800, Note_off_c, 0, 72, 0
2, 100800, Note_on_c, 0, 80, 87
2, 100800, Note_off_c, 0, 58, 0
2, 100800, Note_on_c, 0, 56, 73
2, 101280, Note_off_c, 0, 56, 0
2, 101280, Note_on_c, 0, 54, 77
2, 101760, Note_on_c, 0, 68, 69
2, 101760, Note_off_c, 0, 54, 0
2, 101760, Note_on_c, 0, 53, 77
2, 102240, Note_off_c, 0, 80, 0
2, 102240, Note_on_c, 0, 82, 82
2, 102240, Note_off_c, 0, 53, 0
2, 102240, Note_on_c, 0, 54, 78
2, 102720, Note_off_c, 0, 68, 0
2, 102720, Note_off_c, 0, 82, 0
2, 102720, Note_on_c, 0, 80, 75
2, 102720, Note_on_c, 0, 73, 81
2, 102720, Note_off_c, 0, 54, 0
2, 102720, Note_on_c, 0, 53, 73
2, 103200, Note_off_c, 0, 80, 0
2, 103200, Note_on_c, 0, 78, 67
2, 103200, Note_off_c, 0, 53, 0
2, 103200, Note_on_c, 0, 51, 67
2, 103680, Note_off_c, 0, 78, 0
2, 103680, Note_on_c, 0, 77, 70
2, 103680, Note_off_c, 0, 51, 0
2, 103680, Note_on_c, 0, 49, 69
2, 104160, Note_off_c, 0, 73, 0
2, 104160, Note_off_c, 0, 77, 0
2, 104160, Note_on_c, 0, 78, 80
2, 104160, Note_on_c, 0, 75, 80
2, 104160, Note_off_c, 0, 49, 0
2, 104160, Note_on_c, 0, 59, 78
2, 104640, Note_off_c, 0, 78, 0
2, 104640, Note_off_c, 0, 75, 0
2, 104640, Note_on_c, 0, 80, 75
2, 104640, Note_on_c, 0, 73, 70
2, 104640, Note_off_c, 0, 59, 0
2, 104640, Note_on_c, 0, 58, 74
2, 105120, Note_off_c, 0, 73, 0
2, 105120, Note_on_c, 0, 71, 71
2, 105120, Note_off_c, 0, 58, 0
2, 105120, Note_on_c, 0, 56, 73
2, 105600, Note_off_c, 0, 80, 0
2, 105600, Note_off_c, 0, 71, 0
2, 105600, Note_on_c, 0, 73, 63
2, 105600, Note_on_c, 0, 70, 77
2, 105600, Note_off_c, 0, 56, 0
2, 105600, Note_on_c, 0, 54, 76
2, 106080, Note_off_c, 0, 70, 0
2, 106080, Note_on_c, 0, 71, 81
2, 106080, Note_off_c, 0, 54, 0
2, 106080, Note_on_c, 0, 56, 78
2, 106560, Note_off_c, 0, 73, 0
2, 106560, Note_off_c, 0, 71, 0
2, 106560, Note_on_c, 0, 78, 87
2, 106560, Note_on_c, 0, 73, 83
2, 106560, Note_off_c, 0, 56, 0
2, 106560, Note_on_c, 0, 54, 70
2, 107040, Note_off_c, 0, 54, 0
2, 107040, Note_on_c, 0, 52, 76
2, 107520, Note_off_c, 0, 73, 0
2, 107520, Note_on_c, 0, 66, 66
2, 107520, Note_off_c, 0, 52, 0
2, 107520, Note_on_c, 0, 51, 74
2, 108000, Note_off_c, 0, 78, 0
2, 108000, Note_on_c, 0, 76, 74
2, 108000, Note_off_c, 0, 51, 0
2, 108000, Note_on_c, 0, 49, 76
2, 108480, Note_off_c, 0, 66, 0
2, 108480, Note_off_c, 0, 76, 0
2, 108480, Note_on_c, 0, 75, 74
2, 108480, Note_on_c, 0, 71, 79
2, 108480, Note_off_c, 0, 49, 0
2, 108480, Note_on_c, 0, 47, 74
2, 108960, Note_off_c, 0, 75, 0
2, 108960, Note_on_c, 0, 80, 85
2, 108960, Note_off_c, 0, 47, 0
2, 108960, Note_on_c, 0, 44, 75
2, 109440, Note_off_c, 0, 80, 0
2, 109440, Note_on_c, 0, 73, 63
2, 109440, Note_off_c, 0, 44, 0
2, 109440, Note_on_c, 0, 46, 80
2, 109920, Note_off_c, 0, 71, 0
2, 109920, Note_off_c, 0, 73, 0
2, 109920, Note_on_c, 0, 78, 85
2, 109920, Note_on_c, 0, 70, 71
2, 109920, Note_off_c, 0, 46, 0
2, 109920, Note_on_c, 0, 42, 66
2, 110400, Note_off_c, 0, 70, 0
2, 110400, Note_on_c, 0, 68, 75
2, 110400, Note_off_c, 0, 42, 0
2, 110400, Note_on_c, 0, 49, 81
2, 110880, Note_off_c, 0, 78, 0
2, 110880, Note_on_c, 0, 77, 73
2, 110880, Note_off_c, 0, 49, 0
2, 110880, Note_on_c, 0, 37, 70
2, 111360, Note_off_c, 0, 68, 0
2, 111360, Note_off_c, 0, 77, 0
2, 111360, Note_on_c, 0, 78, 78
2, 111360, Note_on_c, 0, 66, 70
2, 111360, Note_off_c, 0, 37, 0
2, 111360, Note_on_c, 0, 42, 77
2, 111840, Note_off_c, 0, 66, 0
2, 111840, Note_on_c, 0, 65, 74
2, 111840, Note_off_c, 0, 42, 0
2, 111840, Note_on_c, 0, 44, 79
2, 112320, Note_off_c, 0, 78, 0
2, 112320, Note_off_c, 0, 65, 0
2, 112320, Note_on_c, 0, 73, 69
2, 112320, Note_on_c, 0, 66, 82
2, 112320, Note_off_c, 0, 44, 0
2, 112320, Note_on_c, 0, 46, 76
2, 112800, Note_off_c, 0, 66, 0
2, 112800, Note_on_c, 0, 68, 79
2, 112800, Note_off_c, 0, 46, 0
2, 112800, Note_on_c, 0, 44, 71
2, 113280, Note_off_c, 0, 68, 0
2, 113280, Note_on_c, 0, 70, 83
2, 113280, Note_off_c, 0, 44, 0
2, 113280, Note_on_c, 0, 42, 74
2, 113760, Note_off_c, 0, 73, 0
2, 113760, Note_off_c, 0, 70, 0
2, 113760, Note_on_c, 0, 71, 73
2, 113760, Note_on_c, 0, 68, 73
2, 113760, Note_off_c, 0, 42, 0
2, 113760, Note_on_c, 0, 54, 85
2, 114240, Note_off_c, 0, 71, 0
2, 114240, Note_off_c, 0, 68, 0
2, 114240, Note_on_c, 0, 73, 80
2, 114240, Note_on_c, 0, 70, 76
2, 114240, Note_off_c, 0, 54, 0
2, 114240, Note_on_c, 0, 53, 75
2, 114720, Note_off_c, 0, 73, 0
2, 114720, Note_off_c, 0, 70, 0
2, 114720, Note_on_c, 0, 75, 80
2, 114720, Note_on_c, 0, 72, 83
2, 114720, Note_off_c, 0, 53, 0
2, 114720, Note_on_c, 0, 51, 74
2, 115200, Note_off_c, 0, 75, 0
2, 115200, Note_off_c, 0, 72, 0
2, 115200, Note_on_c, 0, 77, 82
2, 115200, Note_on_c, 0, 73, 83
2, 115200, Note_off_c, 0, 51, 0
2, 115200, Note_on_c, 0, 49, 74
2, 115680, Note_off_c, 0, 77, 0
2, 115680, Note_off_c, 0, 73, 0
2, 115680, Note_on_c, 0, 75, 69
2, 115680, Note_on_c, 0, 71, 71
2, 116160, Note_off_c, 0, 75, 0
2, 116160, Note_on_c, 0, 73, 73
2, 116160, Note_off_c, 0, 49, 0
2, 116160, Note_on_c, 0, 54, 84
2, 116640, Note_off_c, 0, 71, 0
2, 116640, Note_on_c, 0, 70, 74
2, 117120, Note_off_c, 0, 73, 0
2, 117120, Note_off_c, 0, 70, 0
2, 117120, Note_on_c, 0, 80, 91
2, 117120, Note_on_c, 0, 71, 79
2, 117600, Note_off_c, 0, 71, 0
2, 117600, Note_on_c, 0, 70, 75
2, 118080, Note_off_c, 0, 80, 0
2, 118080, Note_off_c, 0, 70, 0
2, 118080, Note_on_c, 0, 73, 63
2, 118080, Note_on_c, 0, 68, 70
2, 118080, Note_off_c, 0, 54, 0
2, 118080, Note_on_c, 0, 53, 75
2, 118560, Note_off_c, 0, 68, 0
2, 118560, Note_on_c, 0, 71, 82
2, 119040, Note_off_c, 0, 71, 0
2, 119040, Note_on_c, 0, 70, 74
2, 119040, Note_off_c, 0, 53, 0
2, 119040, Note_on_c, 0, 54, 73
2, 119520, Note_off_c, 0, 73, 0
2, 119520, Note_on_c, 0, 75, 76
2, 119520, Note_off_c, 0, 54, 0
2, 119520, Note_on_c, 0, 53, 74
2, 120000, Note_off_c, 0, 75, 0
2, 120000, Note_on_c, 0, 77, 84
2, 120000, Note_off_c, 0, 53, 0
2, 120000, Note_on_c, 0, 51, 75
2, 120480, Note_off_c, 0, 51, 0
2, 120480, Note_on_c, 0, 50, 77
2, 120960, Note_off_c, 0, 77, 0
2, 120960, Note_on_c, 0, 78, 80
2, 120960, Note_off_c, 0, 50, 0
2, 120960, Note_on_c, 0, 51, 78
2, 121440, Note_off_c, 0, 70, 0
2, 121440, Note_on_c, 0, 72, 79
2, 121920, Note_off_c, 0, 72, 0
2, 121920, Note_on_c, 0, 73, 79
2, 121920, Note_off_c, 0, 51, 0
2, 121920, Note_on_c, 0, 46, 67
2, 122400, Note_off_c, 0, 73, 0
2, 122400, Note_on_c, 0, 75, 86
2, 122400, Note_off_c, 0, 46, 0
2, 122400, Note_on_c, 0, 48, 79
2, 122880, Note_off_c, 0, 75, 0
2, 122880, Note_on_c, 0, 68, 64
2, 122880, Note_off_c, 0, 48, 0
2, 122880, Note_on_c, 0, 49, 80
2, 123360, Note_off_c, 0, 78, 0
2, 123360, Note_on_c, 0, 77, 72
2, 123840, Note_off_c, 0, 68, 0
2, 123840, Note_off_c, 0, 77, 0
2, 123840, Note_on_c, 0, 75, 63
2, 123840, Note_on_c, 0, 70, 78
2, 123840, Note_off_c, 0, 49, 0
2, 123840, Note_on_c, 0, 42, 72
2, 124320, Note_off_c, 0, 75, 0
2, 124320, Note_on_c, 0, 73, 69
2, 124800, Note_off_c, 0, 73, 0
2, 124800, Note_on_c, 0, 72, 67
2, 124800, Note_off_c, 0, 42, 0
2, 124800, Note_on_c, 0, 44, 80
2, 125280, Note_off_c, 0, 70, 0
2, 125280, Note_on_c, 0, 68, 69
2, 125760, Note_off_c, 0, 72, 0
2, 125760, Note_off_c, 0, 68, 0
2, 125760, Note_on_c, 0, 74, 83
2, 125760, Note_on_c, 0, 66, 69
2, 125760, Note_off_c, 0, 44, 0
2, 125760, Note_on_c, 0, 46, 78
2, 126240, Note_off_c, 0, 66, 0
2, 126240, Note_on_c, 0, 65, 69
2, 126720, Note_off_c, 0, 74, 0
2, 126720, Note_off_c, 0, 65, 0
2, 126720, Note_on_c, 0, 75, 80
2, 126720, Note_on_c, 0, 63, 71
2, 126720, Note_off_c, 0, 46, 0
2, 126720, Note_on_c, 0, 47, 78
2, 127200, Note_off_c, 0, 63, 0
2, 127200, Note_on_c, 0, 66, 81
2, 127200, Note_off_c, 0, 47, 0
2, 127200, Note_on_c, 0, 46, 74
2, 127680, Note_off_c, 0, 66, 0
2, 127680, Note_on_c, 0, 71, 85
2, 127680, Note_off_c, 0, 46, 0
2, 127680, Note_on_c, 0, 44, 70
2, 128160, Note_off_c, 0, 44, 0
2, 128160, Note_on_c, 0, 42, 75
2, 128640, Note_off_c, 0, 75, 0
2, 128640, Note_on_c, 0, 73, 74
2, 128640, Note_off_c, 0, 42, 0
2, 128640, Note_on_c, 0, 40, 72
2, 129120, Note_off_c, 0, 71, 0
2, 129120, Note_on_c, 0, 70, 74
2, 129600, Note_off_c, 0, 70, 0
2, 129600, Note_on_c, 0, 68, 73
2, 129600, Note_off_c, 0, 40, 0
2, 129600, Note_on_c, 0, 39, 72
2, 130080, Note_off_c, 0, 68, 0
2, 130080, Note_on_c, 0, 67, 73
2, 130560, Note_off_c, 0, 73, 0
2, 130560, Note_off_c, 0, 67, 0
2, 130560, Note_on_c, 0, 71, 68
2, 130560, Note_on_c, 0, 68, 81
2, 130560, Note_off_c, 0, 39, 0
2, 130560, Note_on_c, 0, 44, 87
2, 131040, Note_off_c, 0, 71, 0
2, 131040, Note_on_c, 0, 73, 85
2, 131040, Note_off_c, 0, 44, 0
2, 131040, Note_on_c, 0, 46, 78
2, 131520, Note_off_c, 0, 73, 0
2, 131520, Note_on_c, 0, 75, 80
2, 131520, Note_off_c, 0, 46, 0
2, 131520, Note_on_c, 0, 47, 75
2, 132000, Note_off_c, 0, 75, 0
2, 132000, Note_on_c, 0, 76, 82
2, 132000, Note_off_c, 0, 47, 0
2, 132000, Note_on_c, 0, 49, 76
2, 132480, Note_off_c, 0, 76, 0
2, 132480, Note_on_c, 0, 70, 67
2, 132480, Note_off_c, 0, 49, 0
2, 132480, Note_on_c, 0, 51, 80
2, 132960, Note_off_c, 0, 70, 0
2, 132960, Note_on_c, 0, 71, 75
2, 133440, Note_off_c, 0, 68, 0
2, 133440, Note_off_c, 0, 71, 0
2, 133440, Note_on_c, 0, 73, 75
2, 133440, Note_on_c, 0, 67, 70
2, 133440, Note_off_c, 0, 51, 0
2, 133920, Note_off_c, 0, 73, 0
2, 133920, Note_on_c, 0, 75, 80
2, 133920, Note_on_c, 0, 51, 68
2, 134400, Note_off_c, 0, 67, 0
2, 134400, Note_off_c, 0, 75, 0
2, 134400, Note_on_c, 0, 71, 65
2, 134400, Note_on_c, 0, 68, 81
2, 134400, Note_off_c, 0, 51, 0
2, 134400, Note_on_c, 0, 56, 79
2, 134880, Note_off_c, 0, 71, 0
2, 134880, Note_on_c, 0, 70, 71
2, 134880, Note_off_c, 0, 56, 0
2, 134880, Note_on_c, 0, 58, 82
2, 135360, Note_off_c, 0, 68, 0
2, 135360, Note_off_c, 0, 70, 0
2, 135360, Note_on_c, 0, 68, 70
2, 135360, Note_on_c, 0, 63, 66
2, 135360, Note_off_c, 0, 58, 0
2, 135360, Note_on_c, 0, 59, 83
2, 135840, Note_off_c, 0, 68, 0
2, 135840, Note_on_c, 0, 66, 76
2, 135840, Note_off_c, 0, 59, 0
2, 135840, Note_on_c, 0, 56, 78
2, 136320, Note_off_c, 0, 66, 0
2, 136320, Note_on_c, 0, 65, 65
2, 136320, Note_off_c, 0, 56, 0
2, 136320, Note_on_c, 0, 58, 79
2, 136800, Note_off_c, 0, 63, 0
2, 136800, Note_on_c, 0, 62, 73
2, 136800, Note_off_c, 0, 58, 0
2, 136800, Note_on_c, 0, 56, 74
2, 137280, Note_off_c, 0, 65, 0
2, 137280, Note_off_c, 0, 62, 0
2, 137280, Note_on_c, 0, 66, 78
2, 137280, Note_on_c, 0, 63, 75
2, 137280, Note_off_c, 0, 56, 0
2, 137280, Note_on_c, 0, 54, 77
2, 137760, Note_off_c, 0, 66, 0
2, 137760, Note_off_c, 0, 63, 0
2, 137760, Note_on_c, 0, 68, 80
2, 137760, Note_on_c, 0, 65, 79
2, 137760, Note_off_c, 0, 54, 0
2, 137760, Note_on_c, 0, 53, 75
2, 138240, Note_off_c, 0, 68, 0
2, 138240, Note_off_c, 0, 65, 0
2, 138240, Note_on_c, 0, 70, 78
2, 138240, Note_on_c, 0, 66, 82
2, 138240, Note_off_c, 0, 53, 0
2, 138240, Note_on_c, 0, 51, 71
2, 138720, Note_off_c, 0, 66, 0
2, 138720, Note_on_c, 0, 65, 74
2, 139200, Note_off_c, 0, 70, 0
2, 139200, Note_off_c, 0, 65, 0
2, 139200, Note_on_c, 0, 72, 80
2, 139200, Note_on_c, 0, 63, 74
2, 139200, Note_off_c, 0, 51, 0
2, 139200, Note_on_c, 0, 56, 80
2, 139680, Note_off_c, 0, 72, 0
2, 139680, Note_on_c, 0, 74, 80
2, 140160, Note_off_c, 0, 63, 0
2, 140160, Note_off_c, 0, 74, 0
2, 140160, Note_on_c, 0, 75, 82
2, 140160, Note_on_c, 0, 70, 88
2, 140640, Note_off_c, 0, 56, 0
2, 140640, Note_on_c, 0, 55, 78
2, 140880, Note_off_c, 0, 55, 0
2, 140880, Note_on_c, 0, 53, 78
2, 141120, Note_off_c, 0, 70, 0
2, 141120, Note_on_c, 0, 63, 62
2, 141120, Note_off_c, 0, 53, 0
2, 141120, Note_on_c, 0, 55, 77
2, 141600, Note_off_c, 0, 75, 0
2, 141600, Note_on_c, 0, 73, 70
2, 142080, Note_off_c, 0, 73, 0
2, 142080, Note_on_c, 0, 72, 71
2, 142080, Note_off_c, 0, 55, 0
2, 142080, Note_on_c, 0, 56, 78
2, 142560, Note_off_c, 0, 63, 0
2, 142560, Note_off_c, 0, 72, 0
2, 142560, Note_on_c, 0, 74, 77
2, 142560, Note_on_c, 0, 65, 74
2, 142560, Note_off_c, 0, 56, 0
2, 142560, Note_on_c, 0, 54, 74
2, 143040, Note_off_c, 0, 74, 0
2, 143040, Note_off_c, 0, 65, 0
2, 143040, Note_on_c, 0, 75, 82
2, 143040, Note_on_c, 0, 66, 80
2, 143040, Note_off_c, 0, 54, 0
2, 143040, Note_on_c, 0, 53, 74
2, 143520, Note_off_c, 0, 53, 0
2, 143520, Note_on_c, 0, 51, 76
2, 144000, Note_off_c, 0, 66, 0
2, 144000, Note_on_c, 0, 68, 73
2, 144000, Note_off_c, 0, 51, 0
2, 144000, Note_on_c, 0, 53, 83
2, 144480, Note_off_c, 0, 53, 0
2, 144480, Note_on_c, 0, 54, 83
2, 144960, Note_off_c, 0, 75, 0
2, 144960, Note_on_c, 0, 74, 71
2, 144960, Note_off_c, 0, 54, 0
2, 144960, Note_on_c, 0, 56, 80
2, 145440, Note_off_c, 0, 56, 0
2, 145440, Note_on_c, 0, 58, 78
2, 145920, Note_off_c, 0, 68, 0
2, 145920, Note_off_c, 0, 74, 0
2, 145920, Note_on_c, 0, 75, 81
2, 145920, Note_on_c, 0, 66, 71
2, 145920, Note_off_c, 0, 58, 0
2, 145920, Note_on_c, 0, 51, 69
2, 146160, Note_off_c, 0, 51, 0
2, 146160, Note_on_c, 0, 63, 99
2, 146400, Note_off_c, 0, 66, 0
2, 146400, Note_on_c, 0, 68, 82
2, 146400, Note_off_c, 0, 63, 0
2, 146400, Note_on_c, 0, 61, 77
2, 146640, Note_off_c, 0, 61, 0
2, 146640, Note_on_c, 0, 59, 75
2, 146880, Note_off_c, 0, 75, 0
2, 146880, Note_off_c, 0, 68, 0
2, 146880, Note_on_c, 0, 74, 76
2, 146880, Note_on_c, 0, 70, 80
2, 146880, Note_off_c, 0, 59, 0
2, 146880, Note_on_c, 0, 58, 71
2, 147360, Note_off_c, 0, 74, 0
2, 147360, Note_off_c, 0, 70, 0
2, 147360, Note_on_c, 0, 75, 74
2, 147360, Note_on_c, 0, 72, 82
2, 147840, Note_off_c, 0, 75, 0
2, 147840, Note_off_c, 0, 72, 0
2, 147840, Note_on_c, 0, 77, 80
2, 147840, Note_on_c, 0, 74, 86
2, 148320, Note_off_c, 0, 77, 0
2, 148320, Note_off_c, 0, 74, 0
2, 148320, Note_on_c, 0, 80, 86
2, 148320, Note_on_c, 0, 58, 68
2, 148320, Note_off_c, 0, 58, 0
2, 148320, Note_on_c, 0, 54, 74
2, 148800, Note_off_c, 0, 80, 0
2, 148800, Note_off_c, 0, 58, 0
2, 148800, Note_on_c, 0, 78, 73
2, 148800, Note_on_c, 0, 60, 77
2, 148800, Note_off_c, 0, 54, 0
2, 148800, Note_on_c, 0, 56, 81
2, 149280, Note_off_c, 0, 78, 0
2, 149280, Note_off_c, 0, 60, 0
2, 149280, Note_on_c, 0, 77, 74
2, 149280, Note_on_c, 0, 62, 76
2, 149280, Note_off_c, 0, 56, 0
2, 149280, Note_on_c, 0, 58, 76
2, 149760, Note_off_c, 0, 77, 0
2, 149760, Note_off_c, 0, 62, 0
2, 149760, Note_on_c, 0, 75, 74
2, 149760, Note_off_c, 0, 58, 0
2, 149760, Note_on_c, 0, 63, 90
2, 149760, Note_on_c, 0, 59, 68
2, 150240, Note_off_c, 0, 75, 0
2, 150240, Note_on_c, 0, 73, 72
2, 150240, Note_off_c, 0, 59, 0
2, 150240, Note_on_c, 0, 58, 72
2, 150720, Note_off_c, 0, 73, 0
2, 150720, Note_on_c, 0, 71, 76
2, 150720, Note_off_c, 0, 58, 0
2, 150720, Note_on_c, 0, 56, 77
2, 151200, Note_off_c, 0, 71, 0
2, 151200, Note_on_c, 0, 70, 66
2, 151200, Note_off_c, 0, 63, 0
2, 151200, Note_on_c, 0, 65, 86
2, 151440, Note_off_c, 0, 70, 0
2, 151440, Note_on_c, 0, 71, 78
2, 151680, Note_off_c, 0, 71, 0
2, 151680, Note_on_c, 0, 70, 74
2, 151680, Note_off_c, 0, 56, 0
2, 151680, Note_off_c, 0, 65, 0
2, 151680, Note_on_c, 0, 66, 79
2, 151680, Note_on_c, 0, 63, 94
2, 152160, Note_off_c, 0, 70, 0
2, 152160, Note_on_c, 0, 72, 81
2, 152640, Note_off_c, 0, 72, 0
2, 152640, Note_on_c, 0, 74, 82
2, 152640, Note_off_c, 0, 66, 0
2, 152640, Note_off_c, 0, 63, 0
2, 152640, Note_on_c, 0, 65, 71
2, 152640, Note_on_c, 0, 58, 74
2, 153120, Note_off_c, 0, 74, 0
2, 153120, Note_on_c, 0, 75, 82
2, 153120, Note_off_c, 0, 65, 0
2, 153120, Note_on_c, 0, 63, 71
2, 153600, Note_off_c, 0, 75, 0
2, 153600, Note_on_c, 0, 77, 81
2, 153600, Note_off_c, 0, 63, 0
2, 153600, Note_on_c, 0, 62, 71
2, 154080, Note_off_c, 0, 77, 0
2, 154080, Note_on_c, 0, 70, 62
2, 154080, Note_off_c, 0, 58, 0
2, 154080, Note_off_c, 0, 62, 0
2, 154080, Note_on_c, 0, 63, 76
2, 154080, Note_on_c, 0, 60, 80
2, 154560, Note_off_c, 0, 70, 0
2, 154560, Note_on_c, 0, 82, 100
2, 154560, Note_off_c, 0, 63, 0
2, 154560, Note_off_c, 0, 60, 0
2, 154560, Note_on_c, 0, 65, 78
2, 154560, Note_on_c, 0, 62, 81
2, 155040, Note_off_c, 0, 82, 0
2, 155040, Note_on_c, 0, 80, 77
2, 155520, Note_off_c, 0, 80, 0
2, 155520, Note_on_c, 0, 78, 71
2, 155520, Note_off_c, 0, 62, 0
2, 155520, Note_on_c, 0, 62, 79
2, 156000, Note_off_c, 0, 78, 0
2, 156000, Note_on_c, 0, 80, 81
2, 156000, Note_off_c, 0, 65, 0
2, 156000, Note_off_c, 0, 62, 0
2, 156000, Note_on_c, 0, 63, 73
2, 156000, Note_on_c, 0, 59, 68
2, 156240, Note_off_c, 0, 63, 0
2, 156240, Note_on_c, 0, 62, 76
2, 156480, Note_off_c, 0, 80, 0
2, 156480, Note_on_c, 0, 82, 81
2, 156480, Note_off_c, 0, 59, 0
2, 156480, Note_off_c, 0, 62, 0
2, 156480, Note_on_c, 0, 63, 78
2, 156480, Note_on_c, 0, 54, 72
2, 156960, Note_off_c, 0, 82, 0
2, 156960, Note_on_c, 0, 83, 78
2, 156960, Note_off_c, 0, 54, 0
2, 156960, Note_on_c, 0, 56, 80
2, 157440, Note_off_c, 0, 83, 0
2, 157440, Note_on_c, 0, 77, 65
2, 157440, Note_off_c, 0, 56, 0
2, 157440, Note_on_c, 0, 58, 79
2, 157920, Note_off_c, 0, 63, 0
2, 157920, Note_on_c, 0, 61, 70
2, 158400, Note_off_c, 0, 77, 0
2, 158400, Note_on_c, 0, 79, 83
2, 158400, Note_off_c, 0, 58, 0
2, 158400, Note_off_c, 0, 61, 0
2, 158400, Note_on_c, 0, 59, 76
2, 158400, Note_on_c, 0, 51, 65
2, 158880, Note_off_c, 0, 59, 0
2, 158880, Note_on_c, 0, 58, 73
2, 159360, Note_off_c, 0, 79, 0
2, 159360, Note_on_c, 0, 80, 80
2, 159360, Note_off_c, 0, 51, 0
2, 159360, Note_off_c, 0, 58, 0
2, 159360, Note_on_c, 0, 59, 78
2, 159360, Note_on_c, 0, 56, 82
2, 159840, Note_off_c, 0, 80, 0
2, 159840, Note_on_c, 0, 78, 73
2, 159840, Note_off_c, 0, 59, 0
2, 159840, Note_off_c, 0, 56, 0
2, 159840, Note_on_c, 0, 63, 80
2, 159840, Note_on_c, 0, 58, 77
2, 160320, Note_off_c, 0, 78, 0
2, 160320, Note_on_c, 0, 77, 68
2, 160320, Note_off_c, 0, 63, 0
2, 160320, Note_off_c, 0, 58, 0
2, 160320, Note_on_c, 0, 68, 84
2, 160320, Note_on_c, 0, 59, 80
2, 160800, Note_off_c, 0, 77, 0
2, 160800, Note_on_c, 0, 75, 69
2, 161280, Note_off_c, 0, 75, 0
2, 161280, Note_on_c, 0, 74, 75
2, 161280, Note_off_c, 0, 59, 0
2, 161280, Note_on_c, 0, 58, 74
2, 161760, Note_off_c, 0, 68, 0
2, 161760, Note_on_c, 0, 66, 71
2, 162240, Note_off_c, 0, 74, 0
2, 162240, Note_on_c, 0, 75, 79
2, 162240, Note_off_c, 0, 66, 0
2, 162240, Note_on_c, 0, 65, 74
2, 162720, Note_off_c, 0, 65, 0
2, 162720, Note_on_c, 0, 63, 71
2, 163200, Note_off_c, 0, 58, 0
2, 163200, Note_off_c, 0, 63, 0
2, 163200, Note_on_c, 0, 65, 84
2, 163680, Note_off_c, 0, 75, 0
2, 163680, Note_on_c, 0, 73, 70
2, 164160, Note_off_c, 0, 73, 0
2, 164160, Note_on_c, 0, 71, 68
2, 164160, Note_off_c, 0, 65, 0
2, 164160, Note_on_c, 0, 67, 86
2, 164640, Note_off_c, 0, 71, 0
2, 164640, Note_on_c, 0, 70, 71
2, 165120, Note_off_c, 0, 70, 0
2, 165120, Note_on_c, 0, 71, 74
2, 165120, Note_on_c, 0, 68, 92
2, 165120, Note_off_c, 0, 67, 0
2, 165600, Note_off_c, 0, 71, 0
2, 165600, Note_off_c, 0, 68, 0
2, 165600, Note_on_c, 0, 70, 77
2, 165600, Note_on_c, 0, 66, 72
2, 166080, Note_off_c, 0, 70, 0
2, 166080, Note_off_c, 0, 66, 0
2, 166080, Note_on_c, 0, 68, 69
2, 166080, Note_on_c, 0, 65, 70
2, 166560, Note_off_c, 0, 65, 0
2, 166560, Note_on_c, 0, 63, 72
2, 167040, Note_off_c, 0, 63, 0
2, 167040, Note_on_c, 0, 62, 68
2, 167040, Note_on_c, 0, 46, 65
2, 167520, Note_off_c, 0, 68, 0
2, 167520, Note_on_c, 0, 66, 74
2, 167760, Note_off_c, 0, 66, 0
2, 167760, Note_on_c, 0, 65, 73
2, 168000, Note_off_c, 0, 62, 0
2, 168000, Note_off_c, 0, 65, 0
2, 168000, Note_on_c, 0, 66, 72
2, 168000, Note_on_c, 0, 63, 75
2, 168000, Note_off_c, 0, 46, 0
2, 168000, Note_on_c, 0, 39, 69
2, 168480, Note_off_c, 0, 66, 0
2, 168480, Note_off_c, 0, 63, 0
2, 168480, Note_on_c, 0, 68, 81
2, 168480, Note_on_c, 0, 65, 82
2, 168960, Note_off_c, 0, 68, 0
2, 168960, Note_off_c, 0, 65, 0
2, 168960, Note_on_c, 0, 70, 83
2, 168960, Note_on_c, 0, 66, 84
2, 169440, Note_off_c, 0, 66, 0
2, 169440, Note_on_c, 0, 65, 72
2, 169440, Note_off_c, 0, 39, 0
2, 169440, Note_on_c, 0, 38, 74
2, 169920, Note_off_c, 0, 70, 0
2, 169920, Note_off_c, 0, 65, 0
2, 169920, Note_on_c, 0, 63, 64
2, 169920, Note_on_c, 0, 66, 80
2, 169920, Note_off_c, 0, 38, 0
2, 169920, Note_on_c, 0, 39, 80
2, 170400, Note_off_c, 0, 66, 0
2, 170400, Note_on_c, 0, 68, 83
2, 170400, Note_off_c, 0, 39, 0
2, 170400, Note_on_c, 0, 41, 79
2, 170880, Note_off_c, 0, 68, 0
2, 170880, Note_on_c, 0, 70, 81
2, 170880, Note_off_c, 0, 41, 0
2, 170880, Note_on_c, 0, 42, 76
2, 171360, Note_off_c, 0, 63, 0
2, 171360, Note_off_c, 0, 70, 0
2, 171360, Note_on_c, 0, 62, 72
2, 171360, Note_on_c, 0, 68, 73
2, 171360, Note_off_c, 0, 42, 0
2, 171360, Note_on_c, 0, 41, 73
2, 171840, Note_off_c, 0, 62, 0
2, 171840, Note_off_c, 0, 68, 0
2, 171840, Note_on_c, 0, 63, 79
2, 171840, Note_on_c, 0, 66, 68
2, 171840, Note_off_c, 0, 41, 0
2, 171840, Note_on_c, 0, 39, 74
2, 172320, Note_off_c, 0, 63, 0
2, 172320, Note_off_c, 0, 66, 0
2, 172320, Note_on_c, 0, 65, 81
2, 172560, Note_on_c, 0, 63, 70
2, 172800, Note_off_c, 0, 65, 0
2, 172800, Note_off_c, 0, 63, 0
2, 172800, Note_on_c, 0, 66, 84
2, 172800, Note_on_c, 0, 62, 69
2, 172800, Note_off_c, 0, 39, 0
2, 172800, Note_on_c, 0, 46, 85
2, 173280, Note_off_c, 0, 66, 0
2, 173280, Note_off_c, 0, 62, 0
2, 173280, Note_on_c, 0, 65, 71
2, 173280, Note_on_c, 0, 68, 84
2, 173760, Note_off_c, 0, 65, 0
2, 173760, Note_on_c, 0, 63, 73
2, 173760, Note_off_c, 0, 46, 0
2, 173760, Note_on_c, 0, 39, 73
2, 174240, Note_off_c, 0, 68, 0
2, 174240, Note_on_c, 0, 66, 74
2, 174480, Note_off_c, 0, 66, 0
2, 174480, Note_on_c, 0, 65, 72
2, 174720, Note_off_c, 0, 63, 0
2, 174720, Note_off_c, 0, 65, 0
2, 174720, Note_on_c, 0, 70, 88
2, 174720, Note_on_c, 0, 67, 87
2, 175200, Note_off_c, 0, 67, 0
2, 175200, Note_on_c, 0, 68, 80
2, 175200, Note_off_c, 0, 39, 0
2, 175200, Note_on_c, 0, 41, 81
2, 175680, Note_off_c, 0, 70, 0
2, 175680, Note_off_c, 0, 68, 0
2, 175680, Note_on_c, 0, 63, 63
2, 175680, Note_on_c, 0, 70, 81
2, 175680, Note_off_c, 0, 41, 0
2, 175680, Note_on_c, 0, 42, 77
2, 176160, Note_off_c, 0, 70, 0
2, 176160, Note_on_c, 0, 61, 64
2, 176640, Note_off_c, 0, 61, 0
2, 176640, Note_on_c, 0, 59, 74
2, 176640, Note_off_c, 0, 42, 0
2, 176640, Note_on_c, 0, 44, 79
2, 177120, Note_off_c, 0, 63, 0
2, 177120, Note_off_c, 0, 59, 0
2, 177120, Note_on_c, 0, 65, 80
2, 177120, Note_on_c, 0, 61, 74
2, 177600, Note_off_c, 0, 65, 0
2, 177600, Note_off_c, 0, 61, 0
2, 177600, Note_on_c, 0, 67, 80
2, 177600, Note_on_c, 0, 63, 83
2, 177600, Note_off_c, 0, 44, 0
2, 177600, Note_on_c, 0, 46, 78
2, 178080, Note_off_c, 0, 63, 0
2, 178080, Note_on_c, 0, 64, 79
2, 178560, Note_off_c, 0, 67, 0
2, 178560, Note_off_c, 0, 64, 0
2, 178560, Note_on_c, 0, 68, 82
2, 178560, Note_on_c, 0, 63, 69
2, 178560, Note_off_c, 0, 46, 0
2, 178560, Note_on_c, 0, 47, 75
2, 179040, Note_off_c, 0, 47, 0
2, 179040, Note_on_c, 0, 49, 78
2, 179520, Note_off_c, 0, 68, 0
2, 179520, Note_off_c, 0, 63, 0
2, 179520, Note_on_c, 0, 80, 98
2, 179520, Note_on_c, 0, 56, 74
2, 179520, Note_off_c, 0, 49, 0
2, 179520, Note_on_c, 0, 47, 73
2, 180000, Note_off_c, 0, 47, 0
2, 180000, Note_on_c, 0, 46, 73
2, 180480, Note_off_c, 0, 80, 0
2, 180480, Note_on_c, 0, 75, 66
2, 180480, Note_off_c, 0, 46, 0
2, 180480, Note_on_c, 0, 44, 76
2, 180960, Note_off_c, 0, 56, 0
2, 180960, Note_on_c, 0, 55, 74
2, 180960, Note_off_c, 0, 44, 0
2, 180960, Note_on_c, 0, 46, 75
2, 181440, Note_off_c, 0, 55, 0
2, 181440, Note_on_c, 0, 56, 80
2, 181440, Note_off_c, 0, 46, 0
2, 181440, Note_on_c, 0, 47, 77
2, 181920, Note_off_c, 0, 75, 0
2, 181920, Note_off_c, 0, 56, 0
2, 181920, Note_on_c, 0, 73, 71
2, 181920, Note_on_c, 0, 58, 75
2, 181920, Note_off_c, 0, 47, 0
2, 181920, Note_on_c, 0, 52, 79
2, 182160, Note_off_c, 0, 52, 0
2, 182160, Note_on_c, 0, 49, 73
2, 182400, Note_off_c, 0, 73, 0
2, 182400, Note_off_c, 0, 58, 0
2, 182400, Note_on_c, 0, 75, 82
2, 182400, Note_on_c, 0, 59, 74
2, 182400, Note_off_c, 0, 49, 0
2, 182400, Note_on_c, 0, 56, 82
2, 182880, Note_off_c, 0, 59, 0
2, 182880, Note_on_c, 0, 58, 72
2, 183360, Note_off_c, 0, 58, 0
2, 183360, Note_on_c, 0, 56, 69
2, 183360, Note_off_c, 0, 56, 0
2, 183360, Note_on_c, 0, 47, 68
2, 183840, Note_off_c, 0, 75, 0
2, 183840, Note_on_c, 0, 77, 81
2, 183840, Note_off_c, 0, 47, 0
2, 183840, Note_on_c, 0, 49, 78
2, 184320, Note_off_c, 0, 56, 0
2, 184320, Note_off_c, 0, 77, 0
2, 184320, Note_on_c, 0, 78, 81
2, 184320, Note_off_c, 0, 49, 0
2, 184320, Note_on_c, 0, 63, 97
2, 184320, Note_on_c, 0, 51, 66
2, 184800, Note_off_c, 0, 51, 0
2, 184800, Note_on_c, 0, 50, 75
2, 185280, Note_off_c, 0, 63, 0
2, 185280, Note_off_c, 0, 50, 0
2, 185280, Note_on_c, 0, 58, 76
2, 185280, Note_on_c, 0, 51, 81
2, 185760, Note_off_c, 0, 78, 0
2, 185760, Note_on_c, 0, 77, 74
2, 185760, Note_off_c, 0, 51, 0
2, 185760, Note_on_c, 0, 53, 79
2, 186240, Note_off_c, 0, 77, 0
2, 186240, Note_on_c, 0, 75, 73
2, 186240, Note_off_c, 0, 53, 0
2, 186240, Note_on_c, 0, 54, 76
2, 186720, Note_off_c, 0, 58, 0
2, 186720, Note_off_c, 0, 54, 0
2, 186720, Note_on_c, 0, 59, 76
2, 186720, Note_on_c, 0, 56, 76
2, 187200, Note_off_c, 0, 75, 0
2, 187200, Note_on_c, 0, 82, 91
2, 187200, Note_off_c, 0, 59, 0
2, 187200, Note_off_c, 0, 56, 0
2, 187200, Note_on_c, 0, 61, 79
2, 187200, Note_on_c, 0, 53, 69
2, 187680, Note_off_c, 0, 53, 0
2, 187680, Note_on_c, 0, 55, 76
2, 188160, Note_off_c, 0, 82, 0
2, 188160, Note_on_c, 0, 75, 69
2, 188160, Note_off_c, 0, 55, 0
2, 188160, Note_on_c, 0, 56, 82
2, 188640, Note_off_c, 0, 61, 0
2, 188640, Note_off_c, 0, 56, 0
2, 188640, Note_on_c, 0, 73, 96
2, 188640, Note_on_c, 0, 58, 81
2, 189120, Note_off_c, 0, 73, 0
2, 189120, Note_off_c, 0, 58, 0
2, 189120, Note_on_c, 0, 71, 75
2, 189120, Note_on_c, 0, 56, 74
2, 189600, Note_off_c, 0, 75, 0
2, 189600, Note_on_c, 0, 75, 74
2, 189600, Note_off_c, 0, 71, 0
2, 189600, Note_off_c, 0, 56, 0
2, 189600, Note_on_c, 0, 70, 73
2, 189600, Note_on_c, 0, 54, 74
2, 190080, Note_off_c, 0, 75, 0
2, 190080, Note_on_c, 0, 74, 71
2, 190080, Note_off_c, 0, 70, 0
2, 190080, Note_off_c, 0, 54, 0
2, 190080, Note_on_c, 0, 68, 71
2, 190080, Note_on_c, 0, 53, 75
2, 190560, Note_off_c, 0, 74, 0
2, 190560, Note_on_c, 0, 75, 81
2, 190560, Note_off_c, 0, 68, 0
2, 190560, Note_off_c, 0, 53, 0
2, 190560, Note_on_c, 0, 66, 70
2, 190560, Note_on_c, 0, 51, 75
2, 191040, Note_off_c, 0, 75, 0
2, 191040, Note_on_c, 0, 77, 82
2, 191040, Note_off_c, 0, 66, 0
2, 191040, Note_off_c, 0, 51, 0
2, 191040, Note_on_c, 0, 68, 78
2, 191040, Note_on_c, 0, 50, 78
2, 191520, Note_off_c, 0, 77, 0
2, 191520, Note_on_c, 0, 74, 73
2, 191520, Note_off_c, 0, 68, 0
2, 191520, Note_off_c, 0, 50, 0
2, 191520, Note_on_c, 0, 65, 68
2, 191520, Note_on_c, 0, 59, 87
2, 192000, Note_off_c, 0, 74, 0
2, 192000, Note_on_c, 0, 75, 80
2, 192000, Note_on_c, 0, 66, 89
2, 192000, Note_off_c, 0, 65, 0
2, 192000, Note_off_c, 0, 59, 0
2, 192000, Note_on_c, 0, 58, 71
2, 192480, Note_off_c, 0, 75, 0
2, 192480, Note_off_c, 0, 66, 0
2, 192480, Note_on_c, 0, 77, 83
2, 192480, Note_on_c, 0, 68, 83
2, 192480, Note_off_c, 0, 58, 0
2, 192480, Note_on_c, 0, 56, 75
2, 192960, Note_off_c, 0, 77, 0
2, 192960, Note_off_c, 0, 68, 0
2, 192960, Note_on_c, 0, 78, 79
2, 192960, Note_on_c, 0, 70, 83
2, 192960, Note_off_c, 0, 56, 0
2, 192960, Note_on_c, 0, 54, 74
2, 193440, Note_off_c, 0, 78, 0
2, 193440, Note_off_c, 0, 70, 0
2, 193440, Note_on_c, 0, 80, 77
2, 193440, Note_on_c, 0, 68, 69
2, 193440, Note_off_c, 0, 54, 0
2, 193440, Note_on_c, 0, 53, 72
2, 193920, Note_off_c, 0, 80, 0
2, 193920, Note_on_c, 0, 82, 83
2, 193920, Note_off_c, 0, 53, 0
2, 193920, Note_on_c, 0, 51, 78
2, 194400, Note_off_c, 0, 68, 0
2, 194400, Note_off_c, 0, 82, 0
2, 194400, Note_on_c, 0, 70, 59
2, 194400, Note_on_c, 0, 66, 74
2, 194400, Note_off_c, 0, 51, 0
2, 194400, Note_on_c, 0, 49, 76
2, 194640, Note_off_c, 0, 66, 0
2, 194640, Note_on_c, 0, 65, 70
2, 194880, Note_off_c, 0, 70, 0
2, 194880, Note_off_c, 0, 65, 0
2, 194880, Note_on_c, 0, 75, 86
2, 194880, Note_on_c, 0, 66, 86
2, 194880, Note_off_c, 0, 49, 0
2, 194880, Note_on_c, 0, 47, 76
2, 194993, Note_off_c, 0, 47, 0
2, 195015, Note_on_c, 0, 49, 76
2, 195120, Note_off_c, 0, 49, 0
2, 195146, Note_on_c, 0, 47, 76
2, 195251, Note_off_c, 0, 47, 0
2, 195270, Note_on_c, 0, 49, 76
2, 195360, Note_off_c, 0, 75, 0
2, 195360, Note_off_c, 0, 66, 0
2, 195360, Note_on_c, 0, 77, 84
2, 195360, Note_on_c, 0, 68, 78
2, 195368, Note_off_c, 0, 49, 0
2, 195386, Note_on_c, 0, 47, 76
2, 195476, Note_off_c, 0, 47, 0
2, 195510, Note_on_c, 0, 49, 76
2, 195608, Note_off_c, 0, 49, 0
2, 195638, Note_on_c, 0, 47, 76
2, 195739, Note_off_c, 0, 47, 0
2, 195773, Note_on_c, 0, 49, 76
2, 195836, Note_off_c, 0, 49, 0
2, 195840, Note_off_c, 0, 77, 0
2, 195840, Note_off_c, 0, 68, 0
2, 195840, Note_on_c, 0, 74, 73
2, 195840, Note_on_c, 0, 70, 79
2, 195840, Note_on_c, 0, 46, 72
2, 196800, Note_off_c, 0, 74, 0
2, 196800, Note_off_c, 0, 70, 0
2, 196800, Note_on_c, 0, 58, 68
2, 196800, Note_off_c, 0, 46, 0
2, 196800, Note_on_c, 0, 51, 81
2, 197760, Note_off_c, 0, 58, 0
2, 197760, Note_on_c, 0, 70, 69
2, 197760, Note_on_c, 0, 63, 83
2, 198240, Note_off_c, 0, 51, 0
2, 198240, Note_on_c, 0, 52, 78
2, 198720, Note_off_c, 0, 70, 0
2, 198720, Note_on_c, 0, 75, 83
2, 198720, Note_off_c, 0, 52, 0
2, 198720, Note_on_c, 0, 51, 73
2, 199200, Note_off_c, 0, 63, 0
2, 199200, Note_on_c, 0, 64, 77
2, 199200, Note_off_c, 0, 51, 0
2, 199200, Note_on_c, 0, 49, 75
2, 199680, Note_off_c, 0, 64, 0
2, 199680, Note_on_c, 0, 63, 74
2, 199680, Note_off_c, 0, 49, 0
2, 199680, Note_on_c, 0, 47, 69
2, 200160, Note_off_c, 0, 75, 0
2, 200160, Note_off_c, 0, 63, 0
2, 200160, Note_on_c, 0, 76, 75
2, 200160, Note_on_c, 0, 61, 73
2, 200160, Note_off_c, 0, 47, 0
2, 200160, Note_on_c, 0, 49, 82
2, 200640, Note_off_c, 0, 76, 0
2, 200640, Note_off_c, 0, 61, 0
2, 200640, Note_on_c, 0, 75, 74
2, 200640, Note_on_c, 0, 59, 75
2, 200640, Note_off_c, 0, 49, 0
2, 200640, Note_on_c, 0, 51, 78
2, 201120, Note_off_c, 0, 75, 0
2, 201120, Note_off_c, 0, 59, 0
2, 201120, Note_on_c, 0, 73, 73
2, 201120, Note_on_c, 0, 61, 80
2, 201600, Note_off_c, 0, 73, 0
2, 201600, Note_off_c, 0, 61, 0
2, 201600, Note_on_c, 0, 71, 74
2, 201600, Note_on_c, 0, 63, 78
2, 201600, Note_off_c, 0, 51, 0
2, 201600, Note_on_c, 0, 44, 73
2, 202080, Note_off_c, 0, 71, 0
2, 202080, Note_on_c, 0, 73, 79
2, 202080, Note_off_c, 0, 44, 0
2, 202080, Note_on_c, 0, 46, 78
2, 202560, Note_off_c, 0, 63, 0
2, 202560, Note_off_c, 0, 73, 0
2, 202560, Note_on_c, 0, 75, 77
2, 202560, Note_on_c, 0, 56, 70
2, 202560, Note_off_c, 0, 46, 0
2, 202560, Note_on_c, 0, 47, 78
2, 203040, Note_off_c, 0, 56, 0
2, 203040, Note_on_c, 0, 54, 77
2, 203520, Note_off_c, 0, 75, 0
2, 203520, Note_off_c, 0, 54, 0
2, 203520, Note_on_c, 0, 68, 68
2, 203520, Note_off_c, 0, 47, 0
2, 203520, Note_on_c, 0, 53, 84
2, 203520, Note_on_c, 0, 49, 67
2, 204000, Note_off_c, 0, 68, 0
2, 204000, Note_on_c, 0, 70, 80
2, 204240, Note_off_c, 0, 70, 0
2, 204240, Note_on_c, 0, 71, 84
2, 204480, Note_off_c, 0, 71, 0
2, 204480, Note_on_c, 0, 70, 75
2, 204480, Note_off_c, 0, 53, 0
2, 204480, Note_off_c, 0, 49, 0
2, 204480, Note_on_c, 0, 61, 96
2, 204480, Note_on_c, 0, 42, 66
2, 204960, Note_off_c, 0, 70, 0
2, 204960, Note_on_c, 0, 71, 85
2, 205440, Note_off_c, 0, 71, 0
2, 205440, Note_on_c, 0, 73, 81
2, 205440, Note_off_c, 0, 61, 0
2, 205440, Note_on_c, 0, 54, 73
2, 205920, Note_off_c, 0, 42, 0
2, 205920, Note_on_c, 0, 41, 76
2, 206400, Note_off_c, 0, 73, 0
2, 206400, Note_on_c, 0, 66, 65
2, 206400, Note_off_c, 0, 41, 0
2, 206400, Note_on_c, 0, 42, 73
2, 206880, Note_off_c, 0, 54, 0
2, 206880, Note_off_c, 0, 42, 0
2, 206880, Note_on_c, 0, 53, 75
2, 206880, Note_on_c, 0, 44, 78
2, 207360, Note_off_c, 0, 53, 0
2, 207360, Note_off_c, 0, 44, 0
2, 207360, Note_on_c, 0, 54, 75
2, 207360, Note_on_c, 0, 46, 80
2, 207840, Note_off_c, 0, 66, 0
2, 207840, Note_on_c, 0, 65, 72
2, 207840, Note_off_c, 0, 54, 0
2, 207840, Note_off_c, 0, 46, 0
2, 207840, Note_on_c, 0, 56, 80
2, 207840, Note_on_c, 0, 44, 71
2, 208320, Note_off_c, 0, 65, 0
2, 208320, Note_on_c, 0, 66, 77
2, 208320, Note_off_c, 0, 56, 0
2, 208320, Note_off_c, 0, 44, 0
2, 208320, Note_on_c, 0, 58, 80
2, 208320, Note_on_c, 0, 42, 73
2, 208800, Note_off_c, 0, 66, 0
2, 208800, Note_on_c, 0, 68, 86
2, 208800, Note_off_c, 0, 58, 0
2, 208800, Note_off_c, 0, 42, 0
2, 208800, Note_on_c, 0, 56, 77
2, 208800, Note_on_c, 0, 52, 83
2, 209280, Note_off_c, 0, 68, 0
2, 209280, Note_on_c, 0, 70, 81
2, 209280, Note_off_c, 0, 56, 0
2, 209280, Note_off_c, 0, 52, 0
2, 209280, Note_on_c, 0, 54, 76
2, 209280, Note_on_c, 0, 51, 77
2, 209760, Note_off_c, 0, 70, 0
2, 209760, Note_on_c, 0, 68, 70
2, 210240, Note_off_c, 0, 68, 0
2, 210240, Note_on_c, 0, 66, 70
2, 210240, Note_off_c, 0, 54, 0
2, 210240, Note_on_c, 0, 59, 81
2, 210720, Note_off_c, 0, 59, 0
2, 210720, Note_on_c, 0, 58, 76
2, 211200, Note_off_c, 0, 66, 0
2, 211200, Note_on_c, 0, 76, 92
2, 211200, Note_off_c, 0, 58, 0
2, 211200, Note_on_c, 0, 56, 70
2, 211680, Note_off_c, 0, 51, 0
2, 211680, Note_on_c, 0, 49, 78
2, 212160, Note_off_c, 0, 56, 0
2, 212160, Note_off_c, 0, 49, 0
2, 212160, Note_on_c, 0, 73, 97
2, 212160, Note_on_c, 0, 47, 77
2, 212640, Note_off_c, 0, 47, 0
2, 212640, Note_on_c, 0, 46, 77
2, 213120, Note_off_c, 0, 73, 0
2, 213120, Note_off_c, 0, 46, 0
2, 213120, Note_on_c, 0, 66, 62
2, 213120, Note_on_c, 0, 47, 80
2, 213600, Note_off_c, 0, 76, 0
2, 213600, Note_on_c, 0, 74, 70
2, 214080, Note_off_c, 0, 74, 0
2, 214080, Note_on_c, 0, 75, 76
2, 214080, Note_off_c, 0, 47, 0
2, 214080, Note_on_c, 0, 59, 90
2, 214560, Note_off_c, 0, 59, 0
2, 214560, Note_on_c, 0, 58, 79
2, 215040, Note_on_c, 0, 71, 95
2, 215040, Note_off_c, 0, 66, 0
2, 215040, Note_off_c, 0, 58, 0
2, 215040, Note_on_c, 0, 56, 67
2, 215520, Note_off_c, 0, 75, 0
2, 215520, Note_off_c, 0, 71, 0
2, 215520, Note_on_c, 0, 78, 83
2, 215520, Note_on_c, 0, 70, 74
2, 215520, Note_off_c, 0, 56, 0
2, 215520, Note_on_c, 0, 58, 75
2, 216000, Note_off_c, 0, 78, 0
2, 216000, Note_off_c, 0, 70, 0
2, 216000, Note_on_c, 0, 77, 72
2, 216000, Note_on_c, 0, 68, 69
2, 216000, Note_off_c, 0, 58, 0
2, 216000, Note_on_c, 0, 59, 76
2, 216480, Note_off_c, 0, 77, 0
2, 216480, Note_off_c, 0, 68, 0
2, 216480, Note_on_c, 0, 75, 71
2, 216480, Note_on_c, 0, 66, 70
2, 216480, Note_off_c, 0, 59, 0
2, 216480, Note_on_c, 0, 56, 72
2, 216960, Note_off_c, 0, 75, 0
2, 216960, Note_off_c, 0, 66, 0
2, 216960, Note_on_c, 0, 74, 73
2, 216960, Note_on_c, 0, 65, 71
2, 216960, Note_off_c, 0, 56, 0
2, 216960, Note_on_c, 0, 58, 77
2, 217440, Note_off_c, 0, 74, 0
2, 217440, Note_off_c, 0, 65, 0
2, 217440, Note_on_c, 0, 77, 83
2, 217440, Note_on_c, 0, 63, 69
2, 217920, Note_off_c, 0, 77, 0
2, 217920, Note_off_c, 0, 63, 0
2, 217920, Note_on_c, 0, 82, 90
2, 217920, Note_on_c, 0, 62, 71
2, 218400, Note_off_c, 0, 62, 0
2, 218400, Note_on_c, 0, 65, 84
2, 218400, Note_off_c, 0, 58, 0
2, 218400, Note_on_c, 0, 56, 76
2, 218880, Note_off_c, 0, 65, 0
2, 218880, Note_on_c, 0, 58, 72
2, 218880, Note_off_c, 0, 56, 0
2, 218880, Note_on_c, 0, 54, 73
2, 219360, Note_off_c, 0, 82, 0
2, 219360, Note_off_c, 0, 58, 0
2, 219360, Note_on_c, 0, 83, 83
2, 219360, Note_on_c, 0, 68, 97
2, 219360, Note_off_c, 0, 54, 0
2, 219360, Note_on_c, 0, 56, 78
2, 219840, Note_off_c, 0, 83, 0
2, 219840, Note_off_c, 0, 68, 0
2, 219840, Note_on_c, 0, 82, 72
2, 219840, Note_on_c, 0, 66, 76
2, 219840, Note_off_c, 0, 56, 0
2, 219840, Note_on_c, 0, 58, 76
2, 220320, Note_off_c, 0, 82, 0
2, 220320, Note_off_c, 0, 66, 0
2, 220320, Note_on_c, 0, 80, 68
2, 220320, Note_on_c, 0, 65, 70
2, 220800, Note_off_c, 0, 80, 0
2, 220800, Note_off_c, 0, 65, 0
2, 220800, Note_on_c, 0, 78, 75
2, 220800, Note_on_c, 0, 63, 68
2, 220800, Note_off_c, 0, 58, 0
2, 220800, Note_on_c, 0, 51, 71
2, 221280, Note_off_c, 0, 78, 0
2, 221280, Note_on_c, 0, 80, 80
2, 221280, Note_off_c, 0, 51, 0
2, 221280, Note_on_c, 0, 53, 79
2, 221760, Note_off_c, 0, 63, 0
2, 221760, Note_off_c, 0, 80, 0
2, 221760, Note_on_c, 0, 82, 81
2, 221760, Note_on_c, 0, 75, 94
2, 221760, Note_off_c, 0, 53, 0
2, 221760, Note_on_c, 0, 55, 78
2, 222240, Note_off_c, 0, 75, 0
2, 222240, Note_on_c, 0, 73, 70
2, 222720, Note_off_c, 0, 82, 0
2, 222720, Note_off_c, 0, 73, 0
2, 222720, Note_on_c, 0, 75, 66
2, 222720, Note_on_c, 0, 71, 67
2, 222720, Note_off_c, 0, 55, 0
2, 222720, Note_on_c, 0, 56, 77
2, 223200, Note_off_c, 0, 71, 0
2, 223200, Note_on_c, 0, 70, 73
2, 223200, Note_off_c, 0, 56, 0
2, 223200, Note_on_c, 0, 54, 74
2, 223680, Note_off_c, 0, 75, 0
2, 223680, Note_off_c, 0, 70, 0
2, 223680, Note_on_c, 0, 80, 82
2, 223680, Note_on_c, 0, 68, 68
2, 223680, Note_off_c, 0, 54, 0
2, 223680, Note_on_c, 0, 53, 72
2, 224160, Note_off_c, 0, 68, 0
2, 224160, Note_on_c, 0, 71, 88
2, 224160, Note_off_c, 0, 53, 0
2, 224160, Note_on_c, 0, 51, 77
2, 224640, Note_off_c, 0, 71, 0
2, 224640, Note_on_c, 0, 70, 71
2, 224640, Note_off_c, 0, 51, 0
2, 224640, Note_on_c, 0, 50, 78
2, 225120, Note_off_c, 0, 80, 0
2, 225120, Note_off_c, 0, 70, 0
2, 225120, Note_on_c, 0, 78, 70
2, 225120, Note_on_c, 0, 75, 84
2, 225120, Note_off_c, 0, 50, 0
2, 225120, Note_on_c, 0, 51, 76
2, 225600, Note_off_c, 0, 78, 0
2, 225600, Note_on_c, 0, 77, 69
2, 225600, Note_off_c, 0, 51, 0
2, 225600, Note_on_c, 0, 46, 68
2, 226080, Note_off_c, 0, 75, 0
2, 226080, Note_on_c, 0, 73, 75
2, 226080, Note_off_c, 0, 46, 0
2, 226080, Note_on_c, 0, 58, 89
2, 226560, Note_off_c, 0, 77, 0
2, 226560, Note_on_c, 0, 75, 72
2, 226560, Note_off_c, 0, 58, 0
2, 226560, Note_on_c, 0, 59, 85
2, 227040, Note_off_c, 0, 73, 0
2, 227040, Note_on_c, 0, 71, 75
2, 227040, Note_off_c, 0, 59, 0
2, 227040, Note_on_c, 0, 51, 69
2, 227520, Note_off_c, 0, 75, 0
2, 227520, Note_on_c, 0, 73, 70
2, 227520, Note_off_c, 0, 51, 0
2, 227520, Note_on_c, 0, 53, 74
2, 228000, Note_off_c, 0, 71, 0
2, 228000, Note_on_c, 0, 70, 72
2, 228000, Note_off_c, 0, 53, 0
2, 228000, Note_on_c, 0, 55, 74
2, 228480, Note_off_c, 0, 73, 0
2, 228480, Note_on_c, 0, 71, 69
2, 228480, Note_off_c, 0, 55, 0
2, 228480, Note_on_c, 0, 56, 81
2, 228960, Note_off_c, 0, 70, 0
2, 228960, Note_on_c, 0, 68, 70
2, 228960, Note_off_c, 0, 56, 0
2, 228960, Note_on_c, 0, 53, 72
2, 229440, Note_off_c, 0, 71, 0
2, 229440, Note_on_c, 0, 70, 73
2, 229440, Note_off_c, 0, 53, 0
2, 229440, Note_on_c, 0, 50, 76
2, 229920, Note_off_c, 0, 68, 0
2, 229920, Note_on_c, 0, 66, 74
2, 229920, Note_off_c, 0, 50, 0
2, 229920, Note_on_c, 0, 51, 76
2, 230400, Note_off_c, 0, 70, 0
2, 230400, Note_on_c, 0, 68, 67
2, 230400, Note_off_c, 0, 51, 0
2, 230400, Note_on_c, 0, 48, 76
2, 230880, Note_off_c, 0, 66, 0
2, 230880, Note_on_c, 0, 65, 74
2, 230880, Note_off_c, 0, 48, 0
2, 230880, Note_on_c, 0, 50, 78
2, 231360, Note_off_c, 0, 68, 0
2, 231360, Note_on_c, 0, 66, 73
2, 231360, Note_off_c, 0, 50, 0
2, 231360, Note_on_c, 0, 51, 75
2, 231840, Note_off_c, 0, 65, 0
2, 231840, Note_on_c, 0, 63, 73
2, 231840, Note_off_c, 0, 51, 0
2, 231840, Note_on_c, 0, 39, 68
2, 232320, Note_off_c, 0, 66, 0
2, 232320, Note_off_c, 0, 63, 0
2, 232320, Note_on_c, 0, 65, 71
2, 232320, Note_on_c, 0, 62, 68
2, 232320, Note_off_c, 0, 39, 0
2, 232320, Note_on_c, 0, 46, 78
2, 232800, Note_off_c, 0, 62, 0
2, 232800, Note_on_c, 0, 65, 82
2, 233280, Note_off_c, 0, 65, 0
2, 233280, Note_off_c, 0, 65, 0
2, 233280, Note_on_c, 0, 70, 86
2, 233280, Note_off_c, 0, 46, 0
2, 233760, Note_on_c, 0, 72, 70
2, 234240, Note_off_c, 0, 72, 0
2, 234240, Note_on_c, 0, 74, 83
2, 234240, Note_on_c, 0, 58, 64
2, 234720, Note_off_c, 0, 70, 0
2, 234720, Note_off_c, 0, 74, 0
2, 234720, Note_on_c, 0, 75, 77
2, 234720, Note_on_c, 0, 71, 80
2, 235200, Note_off_c, 0, 75, 0
2, 235200, Note_off_c, 0, 71, 0
2, 235200, Note_on_c, 0, 77, 81
2, 235200, Note_on_c, 0, 70, 76
2, 235680, Note_off_c, 0, 70, 0
2, 235680, Note_on_c, 0, 68, 75
2, 236160, Note_off_c, 0, 68, 0
2, 236160, Note_on_c, 0, 66, 71
2, 236160, Note_off_c, 0, 58, 0
2, 236160, Note_on_c, 0, 63, 85
2, 236640, Note_off_c, 0, 77, 0
2, 236640, Note_off_c, 0, 66, 0
2, 236640, Note_on_c, 0, 75, 71
2, 236640, Note_on_c, 0, 68, 82
2, 237120, Note_off_c, 0, 75, 0
2, 237120, Note_off_c, 0, 68, 0
2, 237120, Note_on_c, 0, 73, 72
2, 237120, Note_on_c, 0, 70, 79
2, 237360, Note_off_c, 0, 73, 0
2, 237360, Note_on_c, 0, 71, 70
2, 237600, Note_off_c, 0, 71, 0
2, 237600, Note_on_c, 0, 73, 79
2, 237840, Note_off_c, 0, 73, 0
2, 237840, Note_on_c, 0, 79, 88
2, 238080, Note_off_c, 0, 70, 0
2, 238080, Note_off_c, 0, 79, 0
2, 238080, Note_on_c, 0, 80, 80
2, 238080, Note_on_c, 0, 63, 57
2, 238320, Note_off_c, 0, 80, 0
2, 238320, Note_on_c, 0, 82, 82
2, 238560, Note_off_c, 0, 82, 0
2, 238560, Note_on_c, 0, 83, 83
2, 239040, Note_off_c, 0, 63, 0
2, 239040, Note_on_c, 0, 68, 81
2, 239040, Note_off_c, 0, 63, 0
2, 239040, Note_on_c, 0, 64, 77
2, 239520, Note_off_c, 0, 83, 0
2, 239520, Note_on_c, 0, 82, 72
2, 239760, Note_off_c, 0, 82, 0
2, 239760, Note_on_c, 0, 80, 70
2, 240000, Note_off_c, 0, 80, 0
2, 240000, Note_on_c, 0, 82, 83
2, 240000, Note_off_c, 0, 64, 0
2, 240000, Note_on_c, 0, 63, 74
2, 240480, Note_off_c, 0, 68, 0
2, 240480, Note_off_c, 0, 82, 0
2, 240480, Note_on_c, 0, 75, 59
2, 240480, Note_on_c, 0, 67, 72
2, 240960, Note_off_c, 0, 75, 0
2, 240960, Note_off_c, 0, 67, 0
2, 240960, Note_on_c, 0, 77, 78
2, 240960, Note_on_c, 0, 65, 71
2, 240960, Note_off_c, 0, 63, 0
2, 240960, Note_on_c, 0, 61, 72
2, 241440, Note_off_c, 0, 77, 0
2, 241440, Note_off_c, 0, 65, 0
2, 241440, Note_on_c, 0, 79, 81
2, 241440, Note_on_c, 0, 64, 76
2, 241920, Note_off_c, 0, 79, 0
2, 241920, Note_off_c, 0, 64, 0
2, 241920, Note_on_c, 0, 80, 79
2, 241920, Note_on_c, 0, 63, 70
2, 241920, Note_off_c, 0, 61, 0
2, 241920, Note_on_c, 0, 59, 73
2, 242400, Note_off_c, 0, 63, 0
2, 242400, Note_on_c, 0, 71, 89
2, 242880, Note_off_c, 0, 80, 0
2, 242880, Note_off_c, 0, 71, 0
2, 242880, Note_on_c, 0, 70, 69
2, 242880, Note_off_c, 0, 59, 0
2, 242880, Note_on_c, 0, 61, 82
2, 243360, Note_off_c, 0, 70, 0
2, 243360, Note_on_c, 0, 68, 72
2, 243840, Note_off_c, 0, 68, 0
2, 243840, Note_on_c, 0, 82, 70
2, 243840, Note_on_c, 0, 67, 72
2, 243840, Note_off_c, 0, 61, 0
2, 243840, Note_on_c, 0, 63, 82
2, 244320, Note_off_c, 0, 67, 0
2, 244320, Note_on_c, 0, 63, 66
2, 244560, Note_off_c, 0, 63, 0
2, 244560, Note_on_c, 0, 65, 83
2, 244800, Note_off_c, 0, 82, 0
2, 244800, Note_off_c, 0, 65, 0
2, 244800, Note_on_c, 0, 75, 58
2, 244800, Note_on_c, 0, 67, 81
2, 245280, Note_off_c, 0, 67, 0
2, 245280, Note_on_c, 0, 68, 78
2, 245520, Note_off_c, 0, 68, 0
2, 245520, Note_on_c, 0, 70, 84
2, 245760, Note_off_c, 0, 70, 0
2, 245760, Note_on_c, 0, 71, 81
2, 245760, Note_off_c, 0, 63, 0
2, 245760, Note_on_c, 0, 56, 66
2, 246240, Note_off_c, 0, 75, 0
2, 246240, Note_on_c, 0, 71, 68
2, 246720, Note_off_c, 0, 71, 0
2, 246720, Note_on_c, 0, 73, 78
2, 247200, Note_off_c, 0, 71, 0
2, 247200, Note_off_c, 0, 73, 0
2, 247200, Note_on_c, 0, 75, 78
2, 247200, Note_on_c, 0, 70, 76
2, 247680, Note_off_c, 0, 75, 0
2, 247680, Note_off_c, 0, 70, 0
2, 247680, Note_on_c, 0, 76, 80
2, 247680, Note_on_c, 0, 68, 71
2, 247680, Note_off_c, 0, 56, 0
2, 247680, Note_on_c, 0, 61, 88
2, 248160, Note_off_c, 0, 76, 0
2, 248160, Note_off_c, 0, 68, 0
2, 248160, Note_on_c, 0, 75, 73
2, 248160, Note_on_c, 0, 67, 70
2, 248640, Note_off_c, 0, 75, 0
2, 248640, Note_off_c, 0, 67, 0
2, 248640, Note_on_c, 0, 73, 75
2, 248640, Note_on_c, 0, 68, 80
2, 249120, Note_off_c, 0, 68, 0
2, 249120, Note_on_c, 0, 70, 80
2, 249600, Note_off_c, 0, 73, 0
2, 249600, Note_off_c, 0, 70, 0
2, 249600, Note_on_c, 0, 80, 91
2, 249600, Note_on_c, 0, 63, 64
2, 250080, Note_off_c, 0, 63, 0
2, 250080, Note_on_c, 0, 65, 76
2, 250560, Note_off_c, 0, 80, 0
2, 250560, Note_off_c, 0, 65, 0
2, 250560, Note_on_c, 0, 75, 69
2, 250560, Note_on_c, 0, 67, 83
2, 250560, Note_off_c, 0, 61, 0
2, 250560, Note_on_c, 0, 59, 75
2, 251040, Note_off_c, 0, 67, 0
2, 251040, Note_on_c, 0, 68, 81
2, 251520, Note_off_c, 0, 68, 0
2, 251520, Note_on_c, 0, 70, 79
2, 251520, Note_off_c, 0, 59, 0
2, 251520, Note_on_c, 0, 58, 74
2, 251760, Note_off_c, 0, 70, 0
2, 251760, Note_on_c, 0, 71, 84
2, 252000, Note_off_c, 0, 75, 0
2, 252000, Note_off_c, 0, 71, 0
2, 252000, Note_on_c, 0, 77, 88
2, 252000, Note_on_c, 0, 73, 84
2, 252480, Note_off_c, 0, 77, 0
2, 252480, Note_on_c, 0, 79, 80
2, 252960, Note_off_c, 0, 73, 0
2, 252960, Note_on_c, 0, 71, 73
2, 253200, Note_off_c, 0, 71, 0
2, 253200, Note_on_c, 0, 70, 71
2, 253440, Note_off_c, 0, 79, 0
2, 253440, Note_off_c, 0, 70, 0
2, 253440, Note_on_c, 0, 80, 78
2, 253440, Note_on_c, 0, 71, 79
2, 253440, Note_off_c, 0, 58, 0
2, 253440, Note_on_c, 0, 56, 79
2, 253920, Note_off_c, 0, 80, 0
2, 253920, Note_on_c, 0, 82, 78
2, 254400, Note_off_c, 0, 71, 0
2, 254400, Note_off_c, 0, 82, 0
2, 254400, Note_on_c, 0, 80, 73
2, 254400, Note_off_c, 0, 56, 0
2, 254400, Note_on_c, 0, 61, 86
2, 254880, Note_off_c, 0, 80, 0
2, 254880, Note_on_c, 0, 78, 69
2, 255360, Note_off_c, 0, 78, 0
2, 255360, Note_on_c, 0, 77, 74
2, 255360, Note_on_c, 0, 68, 68
2, 255840, Note_off_c, 0, 77, 0
2, 255840, Note_on_c, 0, 78, 75
2, 255840, Note_off_c, 0, 61, 0
2, 255840, Note_on_c, 0, 63, 80
2, 256320, Note_off_c, 0, 78, 0
2, 256320, Note_on_c, 0, 80, 79
2, 256320, Note_off_c, 0, 63, 0
2, 256320, Note_on_c, 0, 61, 71
2, 256800, Note_off_c, 0, 61, 0
2, 256800, Note_on_c, 0, 59, 72
2, 257280, Note_off_c, 0, 68, 0
2, 257280, Note_on_c, 0, 73, 86
2, 257280, Note_off_c, 0, 59, 0
2, 257280, Note_on_c, 0, 58, 76
2, 257760, Note_off_c, 0, 80, 0
2, 257760, Note_on_c, 0, 78, 71
2, 257760, Note_off_c, 0, 58, 0
2, 257760, Note_on_c, 0, 59, 78
2, 258240, Note_off_c, 0, 78, 0
2, 258240, Note_on_c, 0, 77, 73
2, 258240, Note_off_c, 0, 59, 0
2, 258240, Note_on_c, 0, 61, 78
2, 258720, Note_off_c, 0, 77, 0
2, 258720, Note_on_c, 0, 78, 80
2, 258960, Note_off_c, 0, 78, 0
2, 258960, Note_on_c, 0, 80, 81
2, 259200, Note_off_c, 0, 80, 0
2, 259200, Note_on_c, 0, 82, 84
2, 259200, Note_off_c, 0, 61, 0
2, 259200, Note_on_c, 0, 54, 73
2, 259440, Note_off_c, 0, 82, 0
2, 259440, Note_on_c, 0, 80, 72
2, 259680, Note_off_c, 0, 80, 0
2, 259680, Note_on_c, 0, 82, 80
2, 260160, Note_off_c, 0, 73, 0
2, 260160, Note_on_c, 0, 75, 81
2, 260160, Note_off_c, 0, 54, 0
2, 260160, Note_on_c, 0, 59, 75
2, 260640, Note_off_c, 0, 82, 0
2, 260640, Note_on_c, 0, 80, 72
2, 260880, Note_off_c, 0, 80, 0
2, 260880, Note_on_c, 0, 78, 74
2, 261120, Note_off_c, 0, 75, 0
2, 261120, Note_off_c, 0, 78, 0
2, 261120, Note_on_c, 0, 77, 79
2, 261120, Note_on_c, 0, 73, 74
2, 261600, Note_off_c, 0, 77, 0
2, 261600, Note_on_c, 0, 78, 78
2, 261600, Note_off_c, 0, 59, 0
2, 261600, Note_on_c, 0, 58, 79
2, 262080, Note_off_c, 0, 73, 0
2, 262080, Note_on_c, 0, 71, 70
2, 262080, Note_off_c, 0, 58, 0
2, 262080, Note_on_c, 0, 56, 73
2, 262560, Note_off_c, 0, 78, 0
2, 262560, Note_on_c, 0, 77, 73
2, 263040, Note_off_c, 0, 71, 0
2, 263040, Note_off_c, 0, 77, 0
2, 263040, Note_on_c, 0, 78, 81
2, 263040, Note_on_c, 0, 70, 71
2, 263040, Note_off_c, 0, 56, 0
2, 263040, Note_on_c, 0, 54, 69
2, 263520, Note_off_c, 0, 78, 0
2, 263520, Note_on_c, 0, 73, 63
2, 263520, Note_off_c, 0, 54, 0
2, 263520, Note_on_c, 0, 52, 70
2, 264000, Note_off_c, 0, 70, 0
2, 264000, Note_off_c, 0, 73, 0
2, 264000, Note_on_c, 0, 78, 84
2, 264000, Note_on_c, 0, 71, 80
2, 264000, Note_off_c, 0, 52, 0
2, 264000, Note_on_c, 0, 51, 75
2, 264240, Note_off_c, 0, 51, 0
2, 264240, Note_on_c, 0, 49, 70
2, 264480, Note_off_c, 0, 49, 0
2, 264480, Note_on_c, 0, 51, 76
2, 264720, Note_off_c, 0, 51, 0
2, 264720, Note_on_c, 0, 52, 76
2, 264960, Note_off_c, 0, 71, 0
2, 264960, Note_on_c, 0, 73, 75
2, 264960, Note_off_c, 0, 52, 0
2, 264960, Note_on_c, 0, 46, 71
2, 265440, Note_off_c, 0, 78, 0
2, 265440, Note_on_c, 0, 80, 82
2, 265440, Note_off_c, 0, 46, 0
2, 265440, Note_on_c, 0, 42, 70
2, 265920, Note_off_c, 0, 80, 0
2, 265920, Note_on_c, 0, 78, 74
2, 265920, Note_off_c, 0, 42, 0
2, 265920, Note_on_c, 0, 44, 76
2, 266400, Note_off_c, 0, 78, 0
2, 266400, Note_on_c, 0, 76, 71
2, 266400, Note_off_c, 0, 44, 0
2, 266400, Note_on_c, 0, 46, 79
2, 266880, Note_off_c, 0, 73, 0
2, 266880, Note_off_c, 0, 76, 0
2, 266880, Note_on_c, 0, 75, 76
2, 266880, Note_on_c, 0, 66, 65
2, 266880, Note_off_c, 0, 46, 0
2, 266880, Note_on_c, 0, 47, 81
2, 267360, Note_off_c, 0, 75, 0
2, 267360, Note_on_c, 0, 76, 82
2, 267360, Note_off_c, 0, 47, 0
2, 267360, Note_on_c, 0, 49, 81
2, 267840, Note_off_c, 0, 76, 0
2, 267840, Note_on_c, 0, 78, 83
2, 267840, Note_off_c, 0, 49, 0
2, 267840, Note_on_c, 0, 51, 83
2, 268320, Note_off_c, 0, 51, 0
2, 268320, Note_on_c, 0, 52, 77
2, 268560, Note_off_c, 0, 52, 0
2, 268560, Note_on_c, 0, 54, 77
2, 268800, Note_off_c, 0, 66, 0
2, 268800, Note_off_c, 0, 78, 0
2, 268800, Note_on_c, 0, 71, 65
2, 268800, Note_off_c, 0, 54, 0
2, 268800, Note_on_c, 0, 56, 74
2, 269280, Note_off_c, 0, 56, 0
2, 269280, Note_on_c, 0, 58, 77
2, 269520, Note_off_c, 0, 58, 0
2, 269520, Note_on_c, 0, 59, 80
2, 269760, Note_on_c, 0, 76, 70
2, 269760, Note_off_c, 0, 59, 0
2, 269760, Note_on_c, 0, 49, 69
2, 270240, Note_off_c, 0, 49, 0
2, 270240, Note_on_c, 0, 51, 77
2, 270480, Note_off_c, 0, 51, 0
2, 270480, Note_on_c, 0, 52, 77
2, 270720, Note_off_c, 0, 52, 0
2, 270720, Note_on_c, 0, 42, 65
2, 271200, Note_off_c, 0, 76, 0
2, 271200, Note_on_c, 0, 75, 61
2, 271200, Note_off_c, 0, 42, 0
2, 271200, Note_on_c, 0, 54, 80
2, 271680, Note_off_c, 0, 71, 0
2, 271680, Note_off_c, 0, 75, 0
2, 271680, Note_on_c, 0, 73, 68
2, 271680, Note_on_c, 0, 70, 73
2, 272160, Note_off_c, 0, 54, 0
2, 272160, Note_on_c, 0, 55, 83
2, 272640, Note_off_c, 0, 73, 0
2, 272640, Note_off_c, 0, 70, 0
2, 272640, Note_on_c, 0, 71, 71
2, 272640, Note_on_c, 0, 68, 72
2, 272640, Note_off_c, 0, 55, 0
2, 272640, Note_on_c, 0, 56, 81
2, 273120, Note_off_c, 0, 56, 0
2, 273120, Note_on_c, 0, 55, 75
2, 273600, Note_off_c, 0, 71, 0
2, 273600, Note_on_c, 0, 76, 90
2, 273600, Note_off_c, 0, 55, 0
2, 273600, Note_on_c, 0, 56, 74
2, 274080, Note_off_c, 0, 56, 0
2, 274080, Note_on_c, 0, 58, 84
2, 274560, Note_off_c, 0, 68, 0
2, 274560, Note_on_c, 0, 66, 76
2, 274560, Note_off_c, 0, 58, 0
2, 274560, Note_on_c, 0, 59, 77
2, 275040, Note_off_c, 0, 76, 0
2, 275040, Note_on_c, 0, 74, 70
2, 275040, Note_off_c, 0, 59, 0
2, 275040, Note_on_c, 0, 58, 72
2, 275520, Note_off_c, 0, 66, 0
2, 275520, Note_off_c, 0, 74, 0
2, 275520, Note_on_c, 0, 75, 81
2, 275520, Note_on_c, 0, 71, 87
2, 275520, Note_off_c, 0, 58, 0
2, 275520, Note_on_c, 0, 56, 72
2, 276000, Note_off_c, 0, 56, 0
2, 276000, Note_on_c, 0, 54, 70
2, 276480, Note_off_c, 0, 54, 0
2, 276480, Note_on_c, 0, 53, 75
2, 276960, Note_off_c, 0, 71, 0
2, 276960, Note_on_c, 0, 75, 83
2, 276960, Note_off_c, 0, 53, 0
2, 276960, Note_on_c, 0, 54, 79
2, 277440, Note_off_c, 0, 75, 0
2, 277440, Note_off_c, 0, 75, 0
2, 277440, Note_on_c, 0, 80, 84
2, 277440, Note_on_c, 0, 73, 70
2, 277440, Note_off_c, 0, 54, 0
2, 277440, Note_on_c, 0, 53, 75
2, 277920, Note_off_c, 0, 73, 0
2, 277920, Note_on_c, 0, 71, 68
2, 277920, Note_off_c, 0, 53, 0
2, 277920, Note_on_c, 0, 51, 75
2, 278400, Note_off_c, 0, 71, 0
2, 278400, Note_on_c, 0, 70, 73
2, 278400, Note_off_c, 0, 51, 0
2, 278400, Note_on_c, 0, 50, 74
2, 278880, Note_off_c, 0, 80, 0
2, 278880, Note_off_c, 0, 70, 0
2, 278880, Note_on_c, 0, 80, 73
2, 278880, Note_on_c, 0, 71, 77
2, 278880, Note_off_c, 0, 50, 0
2, 278880, Note_on_c, 0, 62, 96
2, 279120, Note_off_c, 0, 62, 0
2, 279120, Note_on_c, 0, 63, 86
2, 279360, Note_off_c, 0, 80, 0
2, 279360, Note_off_c, 0, 71, 0
2, 279360, Note_on_c, 0, 79, 74
2, 279360, Note_on_c, 0, 73, 77
2, 279360, Note_off_c, 0, 63, 0
2, 279360, Note_on_c, 0, 64, 77
2, 279840, Note_off_c, 0, 79, 0
2, 279840, Note_on_c, 0, 78, 73
2, 279840, Note_off_c, 0, 64, 0
2, 279840, Note_on_c, 0, 58, 70
2, 280320, Note_off_c, 0, 73, 0
2, 280320, Note_on_c, 0, 68, 67
2, 280320, Note_off_c, 0, 58, 0
2, 280320, Note_on_c, 0, 59, 76
2, 280800, Note_off_c, 0, 78, 0
2, 280800, Note_on_c, 0, 78, 77
2, 280800, Note_off_c, 0, 59, 0
2, 280800, Note_on_c, 0, 60, 77
2, 281280, Note_off_c, 0, 68, 0
2, 281280, Note_off_c, 0, 78, 0
2, 281280, Note_on_c, 0, 77, 71
2, 281280, Note_on_c, 0, 73, 82
2, 281280, Note_off_c, 0, 60, 0
2, 281280, Note_on_c, 0, 61, 81
2, 281760, Note_off_c, 0, 77, 0
2, 281760, Note_on_c, 0, 76, 74
2, 281760, Note_off_c, 0, 61, 0
2, 281760, Note_on_c, 0, 58, 73
2, 282240, Note_off_c, 0, 76, 0
2, 282240, Note_on_c, 0, 75, 71
2, 282240, Note_off_c, 0, 58, 0
2, 282240, Note_on_c, 0, 55, 74
2, 282720, Note_off_c, 0, 73, 0
2, 282720, Note_on_c, 0, 71, 68
2, 282720, Note_off_c, 0, 55, 0
2, 282720, Note_on_c, 0, 56, 74
2, 283200, Note_off_c, 0, 75, 0
2, 283200, Note_off_c, 0, 71, 0
2, 283200, Note_on_c, 0, 73, 74
2, 283200, Note_on_c, 0, 70, 74
2, 283680, Note_off_c, 0, 56, 0
2, 283680, Note_on_c, 0, 55, 74
2, 284160, Note_off_c, 0, 73, 0
2, 284160, Note_on_c, 0, 71, 68
2, 284160, Note_off_c, 0, 55, 0
2, 284160, Note_on_c, 0, 56, 75
2, 284640, Note_off_c, 0, 70, 0
2, 284640, Note_on_c, 0, 63, 62
2, 284640, Note_off_c, 0, 56, 0
2, 284640, Note_on_c, 0, 54, 72
2, 285120, Note_off_c, 0, 63, 0
2, 285120, Note_on_c, 0, 68, 83
2, 285120, Note_off_c, 0, 54, 0
2, 285120, Note_on_c, 0, 52, 75
2, 285600, Note_off_c, 0, 71, 0
2, 285600, Note_on_c, 0, 71, 74
2, 285600, Note_off_c, 0, 52, 0
2, 285600, Note_on_c, 0, 51, 73
2, 286080, Note_off_c, 0, 71, 0
2, 286080, Note_on_c, 0, 70, 74
2, 286080, Note_off_c, 0, 51, 0
2, 286080, Note_on_c, 0, 49, 74
2, 286560, Note_off_c, 0, 68, 0
2, 286560, Note_on_c, 0, 68, 75
2, 286560, Note_off_c, 0, 49, 0
2, 286560, Note_on_c, 0, 50, 78
2, 287040, Note_off_c, 0, 68, 0
2, 287040, Note_on_c, 0, 66, 70
2, 287040, Note_off_c, 0, 50, 0
2, 287040, Note_on_c, 0, 51, 80
2, 287520, Note_off_c, 0, 70, 0
2, 287520, Note_on_c, 0, 78, 90
2, 287520, Note_off_c, 0, 51, 0
2, 287520, Note_on_c, 0, 46, 73
2, 288000, Note_off_c, 0, 78, 0
2, 288000, Note_on_c, 0, 68, 61
2, 288000, Note_off_c, 0, 46, 0
2, 288000, Note_on_c, 0, 47, 80
2, 288480, Note_off_c, 0, 66, 0
2, 288480, Note_on_c, 0, 66, 81
2, 288480, Note_off_c, 0, 47, 0
2, 288480, Note_on_c, 0, 48, 78
2, 288960, Note_off_c, 0, 66, 0
2, 288960, Note_on_c, 0, 64, 72
2, 288960, Note_off_c, 0, 48, 0
2, 288960, Note_on_c, 0, 49, 77
2, 289440, Note_off_c, 0, 64, 0
2, 289440, Note_on_c, 0, 63, 69
2, 289440, Note_off_c, 0, 49, 0
2, 289440, Note_on_c, 0, 44, 73
2, 289920, Note_off_c, 0, 63, 0
2, 289920, Note_on_c, 0, 62, 77
2, 289920, Note_off_c, 0, 44, 0
2, 289920, Note_on_c, 0, 46, 78
2, 290400, Note_off_c, 0, 68, 0
2, 290400, Note_on_c, 0, 66, 70
2, 290640, Note_off_c, 0, 66, 0
2, 290640, Note_on_c, 0, 65, 69
2, 290880, Note_off_c, 0, 62, 0
2, 290880, Note_off_c, 0, 65, 0
2, 290880, Note_on_c, 0, 66, 82
2, 290880, Note_on_c, 0, 63, 79
2, 291360, Note_off_c, 0, 66, 0
2, 291360, Note_on_c, 0, 68, 86
2, 291840, Note_off_c, 0, 68, 0
2, 291840, Note_on_c, 0, 70, 75
2, 292320, Note_off_c, 0, 63, 0
2, 292320, Note_on_c, 0, 62, 73
2, 292320, Note_off_c, 0, 46, 0
2, 292320, Note_on_c, 0, 53, 82
2, 292560, Note_off_c, 0, 62, 0
2, 292560, Note_on_c, 0, 60, 70
2, 292800, Note_off_c, 0, 70, 0
2, 292800, Note_off_c, 0, 60, 0
2, 292800, Note_on_c, 0, 62, 80
2, 292800, Note_off_c, 0, 53, 0
2, 292800, Note_on_c, 0, 58, 81
2, 293280, Note_off_c, 0, 62, 0
2, 293280, Note_on_c, 0, 65, 85
2, 293760, Note_off_c, 0, 65, 0
2, 293760, Note_on_c, 0, 77, 66
2, 293760, Note_on_c, 0, 70, 90
2, 294240, Note_off_c, 0, 58, 0
2, 294240, Note_on_c, 0, 59, 73
2, 294720, Note_off_c, 0, 59, 0
2, 294720, Note_on_c, 0, 58, 74
2, 295200, Note_off_c, 0, 70, 0
2, 295200, Note_on_c, 0, 71, 77
2, 295200, Note_off_c, 0, 58, 0
2, 295200, Note_on_c, 0, 56, 77
2, 295680, Note_off_c, 0, 77, 0
2, 295680, Note_off_c, 0, 71, 0
2, 295680, Note_on_c, 0, 82, 87
2, 295680, Note_on_c, 0, 70, 76
2, 295680, Note_off_c, 0, 56, 0
2, 295680, Note_on_c, 0, 54, 75
2, 296160, Note_off_c, 0, 54, 0
2, 296160, Note_on_c, 0, 56, 80
2, 296640, Note_off_c, 0, 56, 0
2, 296640, Note_on_c, 0, 58, 78
2, 297120, Note_off_c, 0, 70, 0
2, 297120, Note_on_c, 0, 68, 75
2, 297600, Note_off_c, 0, 68, 0
2, 297600, Note_on_c, 0, 66, 72
2, 297600, Note_off_c, 0, 58, 0
2, 297600, Note_on_c, 0, 51, 68
2, 298080, Note_off_c, 0, 51, 0
2, 298080, Note_on_c, 0, 53, 77
2, 298320, Note_off_c, 0, 53, 0
2, 298320, Note_on_c, 0, 54, 77
2, 298560, Note_off_c, 0, 82, 0
2, 298560, Note_on_c, 0, 83, 77
2, 298560, Note_off_c, 0, 54, 0
2, 298560, Note_on_c, 0, 56, 77
2, 299040, Note_off_c, 0, 66, 0
2, 299040, Note_on_c, 0, 68, 77
2, 299520, Note_off_c, 0, 83, 0
2, 299520, Note_off_c, 0, 68, 0
2, 299520, Note_on_c, 0, 82, 76
2, 299520, Note_on_c, 0, 70, 79
2, 300000, Note_off_c, 0, 56, 0
2, 300000, Note_on_c, 0, 54, 69
2, 300480, Note_off_c, 0, 82, 0
2, 300480, Note_on_c, 0, 80, 71
2, 300480, Note_off_c, 0, 54, 0
2, 300480, Note_on_c, 0, 53, 73
2, 300960, Note_off_c, 0, 53, 0
2, 300960, Note_on_c, 0, 62, 92
2, 301440, Note_off_c, 0, 70, 0
2, 301440, Note_off_c, 0, 80, 0
2, 301440, Note_on_c, 0, 78, 69
2, 301440, Note_off_c, 0, 62, 0
2, 301440, Note_on_c, 0, 63, 83
2, 301920, Note_on_c, 0, 65, 81
2, 302160, Note_off_c, 0, 65, 0
2, 302160, Note_on_c, 0, 66, 74
2, 302400, Note_off_c, 0, 78, 0
2, 302400, Note_on_c, 0, 80, 79
2, 302400, Note_off_c, 0, 63, 0
2, 302400, Note_off_c, 0, 66, 0
2, 302400, Note_on_c, 0, 68, 87
2, 302400, Note_on_c, 0, 65, 74
2, 302880, Note_off_c, 0, 65, 0
2, 302880, Note_on_c, 0, 63, 71
2, 303360, Note_off_c, 0, 80, 0
2, 303360, Note_on_c, 0, 82, 78
2, 303360, Note_off_c, 0, 63, 0
2, 303360, Note_on_c, 0, 62, 69
2, 303840, Note_off_c, 0, 68, 0
2, 303840, Note_off_c, 0, 62, 0
2, 303840, Note_on_c, 0, 66, 70
2, 303840, Note_on_c, 0, 63, 76
2, 304320, Note_off_c, 0, 66, 0
2, 304320, Note_on_c, 0, 65, 71
2, 304800, Note_off_c, 0, 63, 0
2, 304800, Note_on_c, 0, 61, 71
2, 305280, Note_off_c, 0, 82, 0
2, 305280, Note_on_c, 0, 75, 64
2, 305280, Note_off_c, 0, 65, 0
2, 305280, Note_on_c, 0, 67, 81
2, 305760, Note_off_c, 0, 61, 0
2, 305760, Note_off_c, 0, 67, 0
2, 305760, Note_on_c, 0, 58, 71
2, 305760, Note_on_c, 0, 63, 84
2, 306000, Note_off_c, 0, 63, 0
2, 306000, Note_on_c, 0, 64, 81
2, 306240, Note_off_c, 0, 58, 0
2, 306240, Note_off_c, 0, 64, 0
2, 306240, Note_on_c, 0, 63, 86
2, 306720, Note_on_c, 0, 61, 72
2, 307200, Note_off_c, 0, 75, 0
2, 307200, Note_on_c, 0, 80, 78
2, 307200, Note_off_c, 0, 61, 0
2, 307200, Note_on_c, 0, 59, 71
2, 307680, Note_off_c, 0, 63, 0
2, 307680, Note_off_c, 0, 59, 0
2, 307680, Note_on_c, 0, 64, 83
2, 307680, Note_on_c, 0, 61, 83
2, 308160, Note_off_c, 0, 64, 0
2, 308160, Note_off_c, 0, 61, 0
2, 308160, Note_on_c, 0, 63, 75
2, 308160, Note_on_c, 0, 59, 77
2, 308640, Note_off_c, 0, 63, 0
2, 308640, Note_off_c, 0, 59, 0
2, 308640, Note_on_c, 0, 61, 74
2, 308640, Note_on_c, 0, 58, 76
2, 309120, Note_off_c, 0, 61, 0
2, 309120, Note_off_c, 0, 58, 0
2, 309120, Note_on_c, 0, 59, 79
2, 309120, Note_on_c, 0, 56, 76
2, 309600, Note_off_c, 0, 59, 0
2, 309600, Note_off_c, 0, 56, 0
2, 309600, Note_on_c, 0, 61, 83
2, 309600, Note_on_c, 0, 54, 71
2, 310080, Note_off_c, 0, 80, 0
2, 310080, Note_on_c, 0, 78, 74
2, 310080, Note_off_c, 0, 61, 0
2, 310080, Note_off_c, 0, 54, 0
2, 310080, Note_on_c, 0, 63, 81
2, 310080, Note_on_c, 0, 52, 73
2, 310560, Note_off_c, 0, 52, 0
2, 310560, Note_on_c, 0, 51, 70
2, 311040, Note_off_c, 0, 78, 0
2, 311040, Note_on_c, 0, 77, 74
2, 311040, Note_off_c, 0, 63, 0
2, 311040, Note_off_c, 0, 51, 0
2, 311040, Note_on_c, 0, 56, 68
2, 311040, Note_on_c, 0, 49, 76
2, 311520, Note_off_c, 0, 49, 0
2, 311520, Note_on_c, 0, 61, 99
2, 311760, Note_off_c, 0, 61, 0
2, 311760, Note_on_c, 0, 59, 82
2, 312000, Note_off_c, 0, 56, 0
2, 312000, Note_off_c, 0, 59, 0
2, 312000, Note_on_c, 0, 61, 87
2, 312000, Note_on_c, 0, 58, 72
2, 312480, Note_off_c, 0, 58, 0
2, 312480, Note_on_c, 0, 56, 70
2, 312960, Note_off_c, 0, 77, 0
2, 312960, Note_on_c, 0, 75, 71
2, 312960, Note_off_c, 0, 56, 0
2, 312960, Note_on_c, 0, 55, 74
2, 313440, Note_off_c, 0, 61, 0
2, 313440, Note_off_c, 0, 55, 0
2, 313440, Note_on_c, 0, 59, 74
2, 313440, Note_on_c, 0, 56, 81
2, 313920, Note_off_c, 0, 59, 0
2, 313920, Note_on_c, 0, 58, 73
2, 314400, Note_off_c, 0, 56, 0
2, 314400, Note_on_c, 0, 54, 73
2, 314880, Note_off_c, 0, 58, 0
2, 314880, Note_off_c, 0, 54, 0
2, 314880, Note_on_c, 0, 56, 76
2, 314880, Note_on_c, 0, 53, 69
2, 315360, Note_off_c, 0, 75, 0
2, 315360, Note_on_c, 0, 71, 68
2, 315840, Note_off_c, 0, 71, 0
2, 315840, Note_on_c, 0, 68, 68
2, 316320, Note_off_c, 0, 56, 0
2, 316320, Note_on_c, 0, 58, 80
2, 316800, Note_off_c, 0, 58, 0
2, 316800, Note_on_c, 0, 59, 77
2, 317280, Note_off_c, 0, 68, 0
2, 317280, Note_on_c, 0, 70, 82
2, 317280, Note_off_c, 0, 53, 0
2, 317280, Note_off_c, 0, 59, 0
2, 317280, Note_on_c, 0, 58, 68
2, 317280, Note_on_c, 0, 54, 81
2, 317760, Note_off_c, 0, 70, 0
2, 317760, Note_on_c, 0, 71, 85
2, 317760, Note_off_c, 0, 58, 0
2, 317760, Note_off_c, 0, 54, 0
2, 317760, Note_on_c, 0, 56, 73
2, 317760, Note_on_c, 0, 53, 77
2, 318240, Note_off_c, 0, 56, 0
2, 318240, Note_off_c, 0, 53, 0
2, 318240, Note_on_c, 0, 54, 74
2, 318240, Note_on_c, 0, 51, 73
2, 318720, Note_off_c, 0, 54, 0
2, 318720, Note_off_c, 0, 51, 0
2, 318720, Note_on_c, 0, 53, 77
2, 318720, Note_on_c, 0, 50, 75
2, 319200, Note_off_c, 0, 71, 0
2, 319200, Note_on_c, 0, 68, 66
2, 319680, Note_off_c, 0, 68, 0
2, 319680, Note_on_c, 0, 65, 69
2, 320160, Note_off_c, 0, 53, 0
2, 320160, Note_on_c, 0, 54, 77
2, 320640, Note_off_c, 0, 54, 0
2, 320640, Note_on_c, 0, 56, 83
2, 321120, Note_off_c, 0, 65, 0
2, 321120, Note_on_c, 0, 66, 83
2, 321120, Note_off_c, 0, 50, 0
2, 321120, Note_off_c, 0, 56, 0
2, 321120, Note_on_c, 0, 54, 76
2, 321120, Note_on_c, 0, 51, 79
2, 321600, Note_off_c, 0, 66, 0
2, 321600, Note_on_c, 0, 68, 82
2, 321600, Note_off_c, 0, 54, 0
2, 321600, Note_off_c, 0, 51, 0
2, 321600, Note_on_c, 0, 53, 77
2, 321600, Note_on_c, 0, 50, 70
2, 322080, Note_off_c, 0, 53, 0
2, 322080, Note_off_c, 0, 50, 0
2, 322080, Note_on_c, 0, 51, 73
2, 322080, Note_on_c, 0, 48, 78
2, 322560, Note_off_c, 0, 51, 0
2, 322560, Note_off_c, 0, 48, 0
2, 322560, Note_on_c, 0, 50, 77
2, 322560, Note_on_c, 0, 46, 75
2, 323040, Note_off_c, 0, 68, 0
2, 323040, Note_on_c, 0, 65, 67
2, 323520, Note_off_c, 0, 65, 0
2, 323520, Note_on_c, 0, 62, 68
2, 324000, Note_off_c, 0, 50, 0
2, 324000, Note_on_c, 0, 51, 73
2, 324480, Note_off_c, 0, 51, 0
2, 324480, Note_on_c, 0, 53, 76
2, 324960, Note_off_c, 0, 62, 0
2, 324960, Note_on_c, 0, 62, 79
2, 324960, Note_off_c, 0, 46, 0
2, 324960, Note_on_c, 0, 44, 73
2, 325440, Note_off_c, 0, 62, 0
2, 325440, Note_on_c, 0, 63, 81
2, 325440, Note_off_c, 0, 53, 0
2, 325440, Note_off_c, 0, 44, 0
2, 325440, Note_on_c, 0, 54, 78
2, 325440, Note_on_c, 0, 42, 75
2, 325920, Note_off_c, 0, 63, 0
2, 325920, Note_on_c, 0, 65, 78
2, 325920, Note_off_c, 0, 54, 0
2, 325920, Note_off_c, 0, 42, 0
2, 325920, Note_on_c, 0, 56, 81
2, 325920, Note_on_c, 0, 41, 80
2, 326400, Note_off_c, 0, 65, 0
2, 326400, Note_on_c, 0, 66, 85
2, 326400, Note_off_c, 0, 56, 0
2, 326400, Note_off_c, 0, 41, 0
2, 326400, Note_on_c, 0, 58, 77
2, 326400, Note_on_c, 0, 39, 74
2, 326880, Note_off_c, 0, 66, 0
2, 326880, Note_on_c, 0, 67, 77
2, 326880, Note_off_c, 0, 58, 0
2, 326880, Note_off_c, 0, 39, 0
2, 326880, Note_on_c, 0, 58, 79
2, 326880, Note_on_c, 0, 49, 84
2, 327360, Note_off_c, 0, 67, 0
2, 327360, Note_on_c, 0, 68, 77
2, 327360, Note_off_c, 0, 58, 0
2, 327360, Note_off_c, 0, 49, 0
2, 327360, Note_on_c, 0, 59, 76
2, 327360, Note_on_c, 0, 47, 76
2, 327840, Note_off_c, 0, 68, 0
2, 327840, Note_on_c, 0, 70, 82
2, 327840, Note_off_c, 0, 59, 0
2, 327840, Note_off_c, 0, 47, 0
2, 327840, Note_on_c, 0, 61, 81
2, 327840, Note_on_c, 0, 46, 72
2, 328320, Note_off_c, 0, 70, 0
2, 328320, Note_on_c, 0, 71, 84
2, 328320, Note_off_c, 0, 61, 0
2, 328320, Note_off_c, 0, 46, 0
2, 328320, Note_on_c, 0, 63, 80
2, 328320, Note_on_c, 0, 44, 69
2, 328800, Note_off_c, 0, 71, 0
2, 328800, Note_on_c, 0, 72, 79
2, 328800, Note_off_c, 0, 63, 0
2, 328800, Note_off_c, 0, 44, 0
2, 328800, Note_on_c, 0, 63, 79
2, 328800, Note_on_c, 0, 54, 87
2, 329280, Note_off_c, 0, 72, 0
2, 329280, Note_on_c, 0, 74, 84
2, 329280, Note_off_c, 0, 63, 0
2, 329280, Note_off_c, 0, 54, 0
2, 329280, Note_on_c, 0, 65, 78
2, 329280, Note_on_c, 0, 53, 71
2, 329760, Note_off_c, 0, 74, 0
2, 329760, Note_on_c, 0, 75, 79
2, 329760, Note_off_c, 0, 65, 0
2, 329760, Note_off_c, 0, 53, 0
2, 329760, Note_on_c, 0, 66, 78
2, 329760, Note_on_c, 0, 51, 77
2, 330240, Note_off_c, 0, 75, 0
2, 330240, Note_on_c, 0, 75, 76
2, 330240, Note_on_c, 0, 65, 69
2, 330240, Note_off_c, 0, 66, 0
2, 330240, Note_off_c, 0, 51, 0
2, 330240, Note_on_c, 0, 58, 69
2, 330720, Note_off_c, 0, 65, 0
2, 330720, Note_on_c, 0, 71, 84
2, 331200, Note_off_c, 0, 75, 0
2, 331200, Note_off_c, 0, 71, 0
2, 331200, Note_on_c, 0, 74, 76
2, 331200, Note_on_c, 0, 70, 71
2, 331200, Note_off_c, 0, 58, 0
2, 331200, Note_on_c, 0, 46, 64
2, 331680, Note_off_c, 0, 70, 0
2, 331680, Note_on_c, 0, 68, 73
2, 332160, Note_off_c, 0, 74, 0
2, 332160, Note_off_c, 0, 68, 0
2, 332160, Note_on_c, 0, 75, 84
2, 332160, Note_on_c, 0, 67, 70
2, 332160, Note_off_c, 0, 46, 0
2, 332160, Note_on_c, 0, 39, 66
2, 335040, Note_off_c, 0, 75, 0
2, 335040, Note_off_c, 0, 67, 0
2, 335040, Note_off_c, 0, 39, 0
2, 335041, End_track
0, 0, End_of_file