0, 0, Header, 1, 2, 960
1, 0, Start_track
1, 0, Time_signature, 4, 2, 24, 8
1, 0, Key_signature, 4, "major"
1, 0, Tempo, 500000
1, 0, Copyright_t, "Copyright \251 "
1, 107520, Time_signature, 6, 2, 72, 8
1, 107521, End_track
2, 0, Start_track
2, 0, Program_c, 0, 0
2, 0, Control_c, 0, 121, 0
2, 0, Control_c, 0, 64, 0
2, 0, Control_c, 0, 91, 48
2, 0, Control_c, 0, 10, 51
2, 0, Control_c, 0, 7, 100
2, 0, Control_c, 0, 121, 0
2, 0, Control_c, 0, 64, 0
2, 0, Control_c, 0, 91, 48
2, 0, Control_c, 0, 10, 51
2, 0, Control_c, 0, 7, 100
2, 0, Title_t, "Piano"
2, 1440, Note_on_c, 0, 64, 68
2, 1920, Note_off_c, 0, 64, 0
2, 1920, Note_on_c, 0, 66, 82
2, 2880, Note_off_c, 0, 66, 0
2, 3120, Note_on_c, 0, 59, 69
2, 3360, Note_off_c, 0, 59, 0
2, 3360, Note_on_c, 0, 61, 81
2, 3600, Note_off_c, 0, 61, 0
2, 3600, Note_on_c, 0, 63, 76
2, 3840, Note_off_c, 0, 63, 0
2, 3840, Note_on_c, 0, 64, 82
2, 4080, Note_off_c, 0, 64, 0
2, 4080, Note_on_c, 0, 63, 79
2, 4320, Note_off_c, 0, 63, 0
2, 4320, Note_on_c, 0, 64, 75
2, 4560, Note_off_c, 0, 64, 0
2, 4560, Note_on_c, 0, 66, 80
2, 4800, Note_off_c, 0, 66, 0
2, 4800, Note_on_c, 0, 68, 80
2, 5040, Note_off_c, 0, 68, 0
2, 5040, Note_on_c, 0, 69, 80
2, 5280, Note_off_c, 0, 69, 0
2, 5280, Note_on_c, 0, 71, 70
2, 5520, Note_on_c, 0, 68, 70
2, 5760, Note_off_c, 0, 71, 0
2, 5760, Note_off_c, 0, 68, 0
2, 5760, Note_on_c, 0, 73, 81
2, 5760, Note_on_c, 0, 64, 67
2, 6000, Note_off_c, 0, 64, 0
2, 6000, Note_on_c, 0, 63, 71
2, 6240, Note_off_c, 0, 63, 0
2, 6240, Note_on_c, 0, 64, 80
2, 6480, Note_off_c, 0, 64, 0
2, 6480, Note_on_c, 0, 66, 79
2, 6720, Note_off_c, 0, 73, 0
2, 6720, Note_off_c, 0, 66, 0
2, 6720, Note_on_c, 0, 64, 76
2, 6960, Note_off_c, 0, 64, 0
2, 6960, Note_on_c, 0, 66, 71
2, 6960, Note_on_c, 0, 63, 75
2, 7200, Note_off_c, 0, 66, 0
2, 7200, Note_off_c, 0, 63, 0
2, 7200, Note_on_c, 0, 68, 80
2, 7200, Note_on_c, 0, 64, 74
2, 7440, Note_off_c, 0, 68, 0
2, 7440, Note_off_c, 0, 64, 0
2, 7440, Note_on_c, 0, 70, 80
2, 7440, Note_on_c, 0, 66, 81
2, 7680, Note_off_c, 0, 70, 0
2, 7680, Note_off_c, 0, 66, 0
2, 7680, Note_on_c, 0, 71, 82
2, 7680, Note_on_c, 0, 63, 70
2, 7920, Note_off_c, 0, 71, 0
2, 7920, Note_off_c, 0, 63, 0
2, 7920, Note_on_c, 0, 70, 69
2, 7920, Note_on_c, 0, 61, 74
2, 8160, Note_off_c, 0, 70, 0
2, 8160, Note_off_c, 0, 61, 0
2, 8160, Note_on_c, 0, 71, 77
2, 8160, Note_on_c, 0, 63, 78
2, 8400, Note_off_c, 0, 71, 0
2, 8400, Note_off_c, 0, 63, 0
2, 8400, Note_on_c, 0, 73, 81
2, 8400, Note_on_c, 0, 64, 76
2, 8640, Note_off_c, 0, 73, 0
2, 8640, Note_off_c, 0, 64, 0
2, 8640, Note_on_c, 0, 75, 84
2, 8640, Note_on_c, 0, 66, 79
2, 8880, Note_off_c, 0, 75, 0
2, 8880, Note_off_c, 0, 66, 0
2, 8880, Note_on_c, 0, 76, 81
2, 8880, Note_on_c, 0, 68, 79
2, 9120, Note_off_c, 0, 76, 0
2, 9120, Note_off_c, 0, 68, 0
2, 9120, Note_on_c, 0, 78, 85
2, 9120, Note_on_c, 0, 69, 80
2, 9360, Note_off_c, 0, 78, 0
2, 9360, Note_off_c, 0, 69, 0
2, 9360, Note_on_c, 0, 75, 71
2, 9360, Note_on_c, 0, 66, 70
2, 9600, Note_off_c, 0, 75, 0
2, 9600, Note_off_c, 0, 66, 0
2, 9600, Note_on_c, 0, 71, 67
2, 9600, Note_on_c, 0, 68, 82
2, 9840, Note_off_c, 0, 71, 0
2, 9840, Note_on_c, 0, 69, 71
2, 10080, Note_off_c, 0, 68, 0
2, 10080, Note_off_c, 0, 69, 0
2, 10080, Note_on_c, 0, 71, 81
2, 10080, Note_on_c, 0, 59, 65
2, 10320, Note_off_c, 0, 71, 0
2, 10320, Note_on_c, 0, 73, 80
2, 10560, Note_off_c, 0, 59, 0
2, 10560, Note_off_c, 0, 73, 0
2, 10560, Note_on_c, 0, 71, 76
2, 10560, Note_on_c, 0, 64, 85
2, 10800, Note_off_c, 0, 71, 0
2, 10800, Note_on_c, 0, 69, 70
2, 11040, Note_off_c, 0, 69, 0
2, 11040, Note_on_c, 0, 71, 80
2, 11040, Note_on_c, 0, 52, 66
2, 11280, Note_off_c, 0, 71, 0
2, 11280, Note_on_c, 0, 73, 82
2, 11520, Note_off_c, 0, 73, 0
2, 11520, Note_on_c, 0, 69, 68
2, 11520, Note_off_c, 0, 52, 0
2, 11520, Note_on_c, 0, 54, 75
2, 11760, Note_off_c, 0, 69, 0
2, 11760, Note_on_c, 0, 68, 77
2, 12000, Note_off_c, 0, 64, 0
2, 12000, Note_off_c, 0, 68, 0
2, 12000, Note_on_c, 0, 69, 77
2, 12000, Note_on_c, 0, 63, 69
2, 12240, Note_off_c, 0, 69, 0
2, 12240, Note_on_c, 0, 71, 79
2, 12480, Note_off_c, 0, 63, 0
2, 12480, Note_off_c, 0, 71, 0
2, 12480, Note_on_c, 0, 69, 76
2, 12480, Note_on_c, 0, 66, 84
2, 12480, Note_off_c, 0, 54, 0
2, 12720, Note_off_c, 0, 69, 0
2, 12720, Note_on_c, 0, 68, 75
2, 12720, Note_on_c, 0, 47, 71
2, 12960, Note_off_c, 0, 68, 0
2, 12960, Note_on_c, 0, 69, 79
2, 12960, Note_off_c, 0, 47, 0
2, 12960, Note_on_c, 0, 49, 76
2, 13200, Note_off_c, 0, 69, 0
2, 13200, Note_on_c, 0, 71, 86
2, 13200, Note_off_c, 0, 49, 0
2, 13200, Note_on_c, 0, 51, 78
2, 13440, Note_off_c, 0, 71, 0
2, 13440, Note_on_c, 0, 68, 71
2, 13440, Note_off_c, 0, 51, 0
2, 13440, Note_on_c, 0, 52, 81
2, 13680, Note_off_c, 0, 68, 0
2, 13680, Note_on_c, 0, 66, 73
2, 13680, Note_off_c, 0, 52, 0
2, 13680, Note_on_c, 0, 51, 73
2, 13920, Note_off_c, 0, 66, 0
2, 13920, Note_off_c, 0, 66, 0
2, 13920, Note_on_c, 0, 68, 82
2, 13920, Note_on_c, 0, 59, 75
2, 13920, Note_off_c, 0, 51, 0
2, 13920, Note_on_c, 0, 52, 82
2, 14160, Note_off_c, 0, 68, 0
2, 14160, Note_on_c, 0, 70, 78
2, 14160, Note_off_c, 0, 52, 0
2, 14160, Note_on_c, 0, 54, 82
2, 14400, Note_off_c, 0, 59, 0
2, 14400, Note_off_c, 0, 70, 0
2, 14400, Note_on_c, 0, 71, 82
2, 14400, Note_on_c, 0, 64, 86
2, 14400, Note_off_c, 0, 54, 0
2, 14400, Note_on_c, 0, 56, 78
2, 14640, Note_off_c, 0, 56, 0
2, 14640, Note_on_c, 0, 57, 77
2, 14880, Note_off_c, 0, 64, 0
2, 14880, Note_on_c, 0, 63, 74
2, 14880, Note_off_c, 0, 57, 0
2, 14880, Note_on_c, 0, 59, 75
2, 15120, Note_off_c, 0, 59, 0
2, 15120, Note_on_c, 0, 56, 68
2, 15360, Note_off_c, 0, 63, 0
2, 15360, Note_on_c, 0, 61, 72
2, 15360, Note_off_c, 0, 56, 0
2, 15360, Note_on_c, 0, 52, 68
2, 15600, Note_off_c, 0, 52, 0
2, 15600, Note_on_c, 0, 51, 75
2, 15840, Note_off_c, 0, 51, 0
2, 15840, Note_on_c, 0, 52, 77
2, 16080, Note_off_c, 0, 52, 0
2, 16080, Note_on_c, 0, 54, 77
2, 16320, Note_off_c, 0, 71, 0
2, 16320, Note_on_c, 0, 70, 77
2, 16320, Note_off_c, 0, 54, 0
2, 16320, Note_on_c, 0, 52, 71
2, 16560, Note_off_c, 0, 52, 0
2, 16560, Note_on_c, 0, 51, 78
2, 16800, Note_off_c, 0, 51, 0
2, 16800, Note_on_c, 0, 52, 77
2, 17040, Note_off_c, 0, 52, 0
2, 17040, Note_on_c, 0, 54, 76
2, 17280, Note_off_c, 0, 61, 0
2, 17280, Note_off_c, 0, 70, 0
2, 17280, Note_on_c, 0, 71, 76
2, 17280, Note_on_c, 0, 59, 72
2, 17280, Note_off_c, 0, 54, 0
2, 17280, Note_on_c, 0, 51, 72
2, 17520, Note_off_c, 0, 51, 0
2, 17520, Note_on_c, 0, 49, 71
2, 17760, Note_off_c, 0, 71, 0
2, 17760, Note_off_c, 0, 59, 0
2, 17760, Note_on_c, 0, 83, 92
2, 17760, Note_off_c, 0, 49, 0
2, 17760, Note_on_c, 0, 51, 77
2, 18000, Note_off_c, 0, 51, 0
2, 18000, Note_on_c, 0, 52, 79
2, 18240, Note_off_c, 0, 83, 0
2, 18240, Note_on_c, 0, 75, 59
2, 18240, Note_off_c, 0, 52, 0
2, 18240, Note_on_c, 0, 54, 77
2, 18480, Note_off_c, 0, 54, 0
2, 18480, Note_on_c, 0, 56, 82
2, 18720, Note_off_c, 0, 75, 0
2, 18720, Note_on_c, 0, 78, 84
2, 18720, Note_off_c, 0, 56, 0
2, 18720, Note_on_c, 0, 57, 81
2, 18960, Note_off_c, 0, 57, 0
2, 18960, Note_on_c, 0, 54, 77
2, 19200, Note_off_c, 0, 78, 0
2, 19200, Note_on_c, 0, 71, 67
2, 19200, Note_off_c, 0, 54, 0
2, 19200, Note_on_c, 0, 56, 81
2, 19440, Note_off_c, 0, 56, 0
2, 19440, Note_on_c, 0, 54, 73
2, 19680, Note_on_c, 0, 76, 71
2, 19680, Note_off_c, 0, 54, 0
2, 19680, Note_on_c, 0, 56, 77
2, 19920, Note_off_c, 0, 56, 0
2, 19920, Note_on_c, 0, 57, 79
2, 20160, Note_off_c, 0, 76, 0
2, 20160, Note_on_c, 0, 68, 54
2, 20160, Note_off_c, 0, 57, 0
2, 20160, Note_on_c, 0, 59, 78
2, 20400, Note_off_c, 0, 59, 0
2, 20400, Note_on_c, 0, 61, 78
2, 20640, Note_off_c, 0, 68, 0
2, 20640, Note_off_c, 0, 61, 0
2, 20640, Note_on_c, 0, 62, 75
2, 20880, Note_off_c, 0, 62, 0
2, 20880, Note_on_c, 0, 59, 73
2, 21120, Note_off_c, 0, 71, 0
2, 21120, Note_on_c, 0, 71, 78
2, 21120, Note_on_c, 0, 64, 64
2, 21120, Note_off_c, 0, 59, 0
2, 21120, Note_on_c, 0, 61, 79
2, 21360, Note_off_c, 0, 61, 0
2, 21360, Note_on_c, 0, 59, 78
2, 21600, Note_off_c, 0, 71, 0
2, 21600, Note_off_c, 0, 64, 0
2, 21600, Note_on_c, 0, 69, 70
2, 21600, Note_on_c, 0, 66, 80
2, 21600, Note_off_c, 0, 59, 0
2, 21600, Note_on_c, 0, 61, 77
2, 21840, Note_off_c, 0, 61, 0
2, 21840, Note_on_c, 0, 63, 77
2, 22080, Note_off_c, 0, 69, 0
2, 22080, Note_on_c, 0, 68, 71
2, 22080, Note_off_c, 0, 63, 0
2, 22080, Note_on_c, 0, 64, 84
2, 22320, Note_off_c, 0, 64, 0
2, 22320, Note_on_c, 0, 63, 79
2, 22560, Note_off_c, 0, 66, 0
2, 22560, Note_off_c, 0, 68, 0
2, 22560, Note_on_c, 0, 76, 93
2, 22560, Note_on_c, 0, 64, 71
2, 22560, Note_off_c, 0, 63, 0
2, 22560, Note_on_c, 0, 61, 70
2, 22800, Note_off_c, 0, 61, 0
2, 22800, Note_on_c, 0, 59, 74
2, 23040, Note_off_c, 0, 76, 0
2, 23040, Note_on_c, 0, 78, 83
2, 23040, Note_off_c, 0, 59, 0
2, 23040, Note_on_c, 0, 57, 72
2, 23280, Note_off_c, 0, 57, 0
2, 23280, Note_on_c, 0, 56, 75
2, 23520, Note_off_c, 0, 56, 0
2, 23520, Note_on_c, 0, 57, 80
2, 23760, Note_off_c, 0, 57, 0
2, 23760, Note_on_c, 0, 59, 77
2, 24000, Note_off_c, 0, 64, 0
2, 24000, Note_off_c, 0, 78, 0
2, 24000, Note_on_c, 0, 63, 70
2, 24000, Note_off_c, 0, 59, 0
2, 24000, Note_on_c, 0, 57, 78
2, 24240, Note_on_c, 0, 71, 71
2, 24240, Note_off_c, 0, 57, 0
2, 24240, Note_on_c, 0, 56, 76
2, 24480, Note_off_c, 0, 63, 0
2, 24480, Note_off_c, 0, 71, 0
2, 24480, Note_on_c, 0, 73, 85
2, 24480, Note_on_c, 0, 66, 81
2, 24480, Note_off_c, 0, 56, 0
2, 24480, Note_on_c, 0, 57, 79
2, 24720, Note_off_c, 0, 73, 0
2, 24720, Note_on_c, 0, 75, 80
2, 24720, Note_off_c, 0, 57, 0
2, 24720, Note_on_c, 0, 59, 76
2, 24960, Note_off_c, 0, 66, 0
2, 24960, Note_off_c, 0, 75, 0
2, 24960, Note_on_c, 0, 76, 82
2, 24960, Note_on_c, 0, 59, 70
2, 24960, Note_off_c, 0, 59, 0
2, 24960, Note_on_c, 0, 56, 76
2, 25200, Note_off_c, 0, 76, 0
2, 25200, Note_on_c, 0, 75, 78
2, 25440, Note_off_c, 0, 75, 0
2, 25440, Note_on_c, 0, 76, 81
2, 25440, Note_off_c, 0, 56, 0
2, 25440, Note_on_c, 0, 54, 76
2, 25680, Note_off_c, 0, 76, 0
2, 25680, Note_on_c, 0, 78, 80
2, 25920, Note_off_c, 0, 59, 0
2, 25920, Note_off_c, 0, 78, 0
2, 25920, Note_on_c, 0, 80, 85
2, 25920, Note_off_c, 0, 54, 0
2, 25920, Note_on_c, 0, 52, 70
2, 26160, Note_off_c, 0, 80, 0
2, 26160, Note_on_c, 0, 81, 85
2, 26400, Note_off_c, 0, 81, 0
2, 26400, Note_on_c, 0, 83, 83
2, 26400, Note_on_c, 0, 71, 65
2, 26400, Note_off_c, 0, 52, 0
2, 26400, Note_on_c, 0, 51, 72
2, 26640, Note_off_c, 0, 83, 0
2, 26640, Note_on_c, 0, 80, 68
2, 26880, Note_off_c, 0, 71, 0
2, 26880, Note_off_c, 0, 80, 0
2, 26880, Note_on_c, 0, 76, 69
2, 26880, Note_on_c, 0, 73, 80
2, 26880, Note_off_c, 0, 51, 0
2, 26880, Note_on_c, 0, 49, 69
2, 27120, Note_off_c, 0, 76, 0
2, 27120, Note_on_c, 0, 75, 73
2, 27360, Note_off_c, 0, 75, 0
2, 27360, Note_on_c, 0, 76, 80
2, 27360, Note_off_c, 0, 49, 0
2, 27360, Note_on_c, 0, 59, 86
2, 27600, Note_off_c, 0, 76, 0
2, 27600, Note_on_c, 0, 78, 83
2, 27840, Note_off_c, 0, 73, 0
2, 27840, Note_off_c, 0, 78, 0
2, 27840, Note_on_c, 0, 76, 73
2, 27840, Note_off_c, 0, 59, 0
2, 27840, Note_on_c, 0, 58, 72
2, 28080, Note_off_c, 0, 76, 0
2, 28080, Note_on_c, 0, 75, 71
2, 28080, Note_on_c, 0, 66, 66
2, 28320, Note_off_c, 0, 75, 0
2, 28320, Note_off_c, 0, 66, 0
2, 28320, Note_on_c, 0, 76, 77
2, 28320, Note_on_c, 0, 68, 76
2, 28320, Note_off_c, 0, 58, 0
2, 28320, Note_on_c, 0, 54, 72
2, 28560, Note_off_c, 0, 76, 0
2, 28560, Note_off_c, 0, 68, 0
2, 28560, Note_on_c, 0, 78, 83
2, 28560, Note_on_c, 0, 70, 86
2, 28800, Note_off_c, 0, 78, 0
2, 28800, Note_off_c, 0, 70, 0
2, 28800, Note_on_c, 0, 75, 66
2, 28800, Note_on_c, 0, 71, 83
2, 28800, Note_off_c, 0, 54, 0
2, 28800, Note_on_c, 0, 59, 84
2, 29040, Note_off_c, 0, 75, 0
2, 29040, Note_off_c, 0, 71, 0
2, 29040, Note_on_c, 0, 73, 71
2, 29040, Note_on_c, 0, 70, 72
2, 29280, Note_off_c, 0, 73, 0
2, 29280, Note_off_c, 0, 70, 0
2, 29280, Note_on_c, 0, 75, 82
2, 29280, Note_on_c, 0, 71, 82
2, 29280, Note_off_c, 0, 59, 0
2, 29520, Note_off_c, 0, 75, 0
2, 29520, Note_off_c, 0, 71, 0
2, 29520, Note_on_c, 0, 76, 79
2, 29520, Note_on_c, 0, 73, 80
2, 29760, Note_off_c, 0, 76, 0
2, 29760, Note_off_c, 0, 73, 0
2, 29760, Note_on_c, 0, 78, 83
2, 29760, Note_on_c, 0, 75, 82
2, 30000, Note_off_c, 0, 78, 0
2, 30000, Note_off_c, 0, 75, 0
2, 30000, Note_on_c, 0, 80, 79
2, 30000, Note_on_c, 0, 76, 80
2, 30240, Note_off_c, 0, 80, 0
2, 30240, Note_off_c, 0, 76, 0
2, 30240, Note_on_c, 0, 81, 80
2, 30240, Note_on_c, 0, 78, 78
2, 30480, Note_off_c, 0, 78, 0
2, 30480, Note_on_c, 0, 75, 75
2, 30720, Note_off_c, 0, 75, 0
2, 30720, Note_on_c, 0, 71, 64
2, 30960, Note_off_c, 0, 71, 0
2, 30960, Note_on_c, 0, 69, 71
2, 31200, Note_off_c, 0, 81, 0
2, 31200, Note_off_c, 0, 69, 0
2, 31200, Note_on_c, 0, 75, 61
2, 31200, Note_on_c, 0, 71, 80
2, 31440, Note_off_c, 0, 71, 0
2, 31440, Note_on_c, 0, 73, 82
2, 31680, Note_off_c, 0, 75, 0
2, 31680, Note_off_c, 0, 73, 0
2, 31680, Note_on_c, 0, 80, 83
2, 31680, Note_on_c, 0, 71, 72
2, 31920, Note_off_c, 0, 71, 0
2, 31920, Note_on_c, 0, 69, 71
2, 32160, Note_off_c, 0, 69, 0
2, 32160, Note_on_c, 0, 71, 80
2, 32400, Note_off_c, 0, 71, 0
2, 32400, Note_on_c, 0, 73, 78
2, 32640, Note_off_c, 0, 73, 0
2, 32640, Note_on_c, 0, 69, 68
2, 32880, Note_off_c, 0, 69, 0
2, 32880, Note_on_c, 0, 68, 68
2, 33120, Note_off_c, 0, 80, 0
2, 33120, Note_off_c, 0, 68, 0
2, 33120, Note_on_c, 0, 78, 71
2, 33120, Note_on_c, 0, 69, 78
2, 33360, Note_off_c, 0, 78, 0
2, 33360, Note_off_c, 0, 69, 0
2, 33360, Note_on_c, 0, 76, 73
2, 33360, Note_on_c, 0, 71, 79
2, 33600, Note_off_c, 0, 76, 0
2, 33600, Note_off_c, 0, 71, 0
2, 33600, Note_on_c, 0, 75, 71
2, 33600, Note_on_c, 0, 69, 74
2, 33840, Note_off_c, 0, 69, 0
2, 33840, Note_on_c, 0, 68, 70
2, 34080, Note_off_c, 0, 68, 0
2, 34080, Note_on_c, 0, 69, 77
2, 34080, Note_on_c, 0, 59, 65
2, 34320, Note_off_c, 0, 69, 0
2, 34320, Note_on_c, 0, 71, 79
2, 34560, Note_off_c, 0, 75, 0
2, 34560, Note_off_c, 0, 71, 0
2, 34560, Note_on_c, 0, 76, 78
2, 34560, Note_on_c, 0, 68, 74
2, 34560, Note_off_c, 0, 59, 0
2, 34560, Note_on_c, 0, 61, 75
2, 34800, Note_off_c, 0, 76, 0
2, 34800, Note_on_c, 0, 75, 75
2, 35040, Note_off_c, 0, 68, 0
2, 35040, Note_off_c, 0, 75, 0
2, 35040, Note_on_c, 0, 76, 81
2, 35040, Note_on_c, 0, 64, 66
2, 35280, Note_off_c, 0, 76, 0
2, 35280, Note_on_c, 0, 78, 82
2, 35520, Note_off_c, 0, 64, 0
2, 35520, Note_off_c, 0, 78, 0
2, 35520, Note_on_c, 0, 76, 75
2, 35520, Note_on_c, 0, 69, 80
2, 35520, Note_off_c, 0, 61, 0
2, 35760, Note_off_c, 0, 76, 0
2, 35760, Note_on_c, 0, 75, 72
2, 35760, Note_on_c, 0, 54, 70
2, 36000, Note_off_c, 0, 75, 0
2, 36000, Note_on_c, 0, 76, 80
2, 36000, Note_off_c, 0, 54, 0
2, 36000, Note_on_c, 0, 56, 80
2, 36240, Note_off_c, 0, 76, 0
2, 36240, Note_on_c, 0, 78, 82
2, 36240, Note_off_c, 0, 56, 0
2, 36240, Note_on_c, 0, 57, 78
2, 36480, Note_off_c, 0, 78, 0
2, 36480, Note_on_c, 0, 75, 72
2, 36480, Note_off_c, 0, 57, 0
2, 36480, Note_on_c, 0, 59, 77
2, 36720, Note_off_c, 0, 75, 0
2, 36720, Note_on_c, 0, 73, 69
2, 36720, Note_off_c, 0, 59, 0
2, 36720, Note_on_c, 0, 57, 72
2, 36960, Note_off_c, 0, 73, 0
2, 36960, Note_on_c, 0, 75, 82
2, 36960, Note_off_c, 0, 57, 0
2, 36960, Note_on_c, 0, 59, 81
2, 37200, Note_off_c, 0, 75, 0
2, 37200, Note_on_c, 0, 76, 79
2, 37200, Note_off_c, 0, 59, 0
2, 37200, Note_on_c, 0, 61, 77
2, 37440, Note_off_c, 0, 76, 0
2, 37440, Note_on_c, 0, 78, 83
2, 37440, Note_off_c, 0, 61, 0
2, 37440, Note_on_c, 0, 63, 84
2, 37680, Note_off_c, 0, 69, 0
2, 37680, Note_on_c, 0, 72, 85
2, 37680, Note_off_c, 0, 63, 0
2, 37680, Note_on_c, 0, 64, 80
2, 37920, Note_off_c, 0, 72, 0
2, 37920, Note_on_c, 0, 73, 78
2, 37920, Note_off_c, 0, 64, 0
2, 37920, Note_on_c, 0, 63, 74
2, 38160, Note_off_c, 0, 73, 0
2, 38160, Note_on_c, 0, 75, 85
2, 38160, Note_off_c, 0, 63, 0
2, 38160, Note_on_c, 0, 61, 67
2, 38400, Note_off_c, 0, 75, 0
2, 38400, Note_on_c, 0, 68, 66
2, 38400, Note_off_c, 0, 61, 0
2, 38400, Note_on_c, 0, 60, 69
2, 38640, Note_off_c, 0, 60, 0
2, 38640, Note_on_c, 0, 56, 69
2, 38880, Note_off_c, 0, 78, 0
2, 38880, Note_on_c, 0, 76, 71
2, 38880, Note_off_c, 0, 56, 0
2, 38880, Note_on_c, 0, 58, 78
2, 39120, Note_off_c, 0, 76, 0
2, 39120, Note_on_c, 0, 75, 74
2, 39120, Note_off_c, 0, 58, 0
2, 39120, Note_on_c, 0, 60, 85
2, 39360, Note_off_c, 0, 75, 0
2, 39360, Note_on_c, 0, 76, 81
2, 39360, Note_off_c, 0, 60, 0
2, 39360, Note_on_c, 0, 61, 81
2, 39600, Note_off_c, 0, 61, 0
2, 39600, Note_on_c, 0, 63, 79
2, 39840, Note_off_c, 0, 68, 0
2, 39840, Note_on_c, 0, 73, 79
2, 39840, Note_off_c, 0, 63, 0
2, 39840, Note_on_c, 0, 64, 80
2, 40080, Note_off_c, 0, 64, 0
2, 40080, Note_on_c, 0, 61, 65
2, 40320, Note_off_c, 0, 73, 0
2, 40320, Note_on_c, 0, 66, 63
2, 40320, Note_off_c, 0, 61, 0
2, 40320, Note_on_c, 0, 57, 70
2, 40560, Note_off_c, 0, 57, 0
2, 40560, Note_on_c, 0, 56, 75
2, 40800, Note_off_c, 0, 76, 0
2, 40800, Note_on_c, 0, 76, 75
2, 40800, Note_off_c, 0, 56, 0
2, 40800, Note_on_c, 0, 57, 79
2, 41040, Note_off_c, 0, 57, 0
2, 41040, Note_on_c, 0, 59, 83
2, 41280, Note_off_c, 0, 76, 0
2, 41280, Note_on_c, 0, 75, 72
2, 41280, Note_off_c, 0, 59, 0
2, 41280, Note_on_c, 0, 57, 70
2, 41520, Note_off_c, 0, 57, 0
2, 41520, Note_on_c, 0, 56, 75
2, 41760, Note_off_c, 0, 75, 0
2, 41760, Note_on_c, 0, 73, 72
2, 41760, Note_off_c, 0, 56, 0
2, 41760, Note_on_c, 0, 57, 82
2, 42000, Note_off_c, 0, 57, 0
2, 42000, Note_on_c, 0, 59, 74
2, 42240, Note_off_c, 0, 73, 0
2, 42240, Note_on_c, 0, 72, 76
2, 42240, Note_off_c, 0, 59, 0
2, 42240, Note_on_c, 0, 56, 73
2, 42480, Note_off_c, 0, 56, 0
2, 42480, Note_on_c, 0, 52, 76
2, 42720, Note_off_c, 0, 72, 0
2, 42720, Note_on_c, 0, 68, 65
2, 42720, Note_off_c, 0, 52, 0
2, 42720, Note_on_c, 0, 54, 78
2, 42960, Note_off_c, 0, 54, 0
2, 42960, Note_on_c, 0, 56, 77
2, 43200, Note_off_c, 0, 66, 0
2, 43200, Note_off_c, 0, 68, 0
2, 43200, Note_on_c, 0, 73, 85
2, 43200, Note_on_c, 0, 64, 71
2, 43200, Note_off_c, 0, 56, 0
2, 43200, Note_on_c, 0, 57, 81
2, 43440, Note_off_c, 0, 57, 0
2, 43440, Note_on_c, 0, 59, 80
2, 43680, Note_off_c, 0, 73, 0
2, 43680, Note_off_c, 0, 64, 0
2, 43680, Note_on_c, 0, 73, 79
2, 43680, Note_on_c, 0, 69, 91
2, 43680, Note_off_c, 0, 59, 0
2, 43680, Note_on_c, 0, 61, 84
2, 43920, Note_off_c, 0, 61, 0
2, 43920, Note_on_c, 0, 57, 74
2, 44160, Note_off_c, 0, 73, 0
2, 44160, Note_off_c, 0, 69, 0
2, 44160, Note_on_c, 0, 75, 84
2, 44160, Note_on_c, 0, 63, 68
2, 44160, Note_off_c, 0, 57, 0
2, 44160, Note_on_c, 0, 54, 75
2, 44400, Note_off_c, 0, 54, 0
2, 44400, Note_on_c, 0, 52, 74
2, 44640, Note_off_c, 0, 63, 0
2, 44640, Note_on_c, 0, 66, 81
2, 44640, Note_off_c, 0, 52, 0
2, 44640, Note_on_c, 0, 54, 76
2, 44880, Note_off_c, 0, 54, 0
2, 44880, Note_on_c, 0, 56, 83
2, 45120, Note_off_c, 0, 75, 0
2, 45120, Note_off_c, 0, 66, 0
2, 45120, Note_on_c, 0, 60, 66
2, 45120, Note_off_c, 0, 56, 0
2, 45120, Note_on_c, 0, 54, 74
2, 45360, Note_on_c, 0, 68, 69
2, 45360, Note_off_c, 0, 54, 0
2, 45360, Note_on_c, 0, 52, 75
2, 45600, Note_off_c, 0, 60, 0
2, 45600, Note_off_c, 0, 68, 0
2, 45600, Note_on_c, 0, 70, 78
2, 45600, Note_on_c, 0, 63, 90
2, 45600, Note_off_c, 0, 52, 0
2, 45600, Note_on_c, 0, 54, 78
2, 45840, Note_off_c, 0, 70, 0
2, 45840, Note_on_c, 0, 72, 87
2, 45840, Note_off_c, 0, 54, 0
2, 45840, Note_on_c, 0, 56, 78
2, 46080, Note_off_c, 0, 63, 0
2, 46080, Note_off_c, 0, 72, 0
2, 46080, Note_on_c, 0, 73, 80
2, 46080, Note_off_c, 0, 56, 0
2, 46080, Note_on_c, 0, 56, 76
2, 46080, Note_on_c, 0, 52, 72
2, 46320, Note_off_c, 0, 73, 0
2, 46320, Note_on_c, 0, 72, 72
2, 46560, Note_off_c, 0, 72, 0
2, 46560, Note_on_c, 0, 73, 79
2, 46560, Note_off_c, 0, 56, 0
2, 46560, Note_off_c, 0, 52, 0
2, 46560, Note_on_c, 0, 51, 74
2, 46800, Note_off_c, 0, 73, 0
2, 46800, Note_on_c, 0, 75, 83
2, 47040, Note_off_c, 0, 75, 0
2, 47040, Note_on_c, 0, 76, 77
2, 47040, Note_off_c, 0, 51, 0
2, 47040, Note_on_c, 0, 49, 73
2, 47280, Note_off_c, 0, 76, 0
2, 47280, Note_on_c, 0, 78, 76
2, 47520, Note_off_c, 0, 78, 0
2, 47520, Note_on_c, 0, 80, 81
2, 47520, Note_off_c, 0, 49, 0
2, 47520, Note_on_c, 0, 52, 81
2, 47760, Note_off_c, 0, 80, 0
2, 47760, Note_on_c, 0, 76, 68
2, 48000, Note_off_c, 0, 76, 0
2, 48000, Note_on_c, 0, 73, 68
2, 48000, Note_off_c, 0, 52, 0
2, 48000, Note_on_c, 0, 46, 67
2, 48240, Note_off_c, 0, 73, 0
2, 48240, Note_on_c, 0, 71, 71
2, 48480, Note_off_c, 0, 71, 0
2, 48480, Note_on_c, 0, 73, 81
2, 48480, Note_off_c, 0, 46, 0
2, 48480, Note_on_c, 0, 56, 86
2, 48720, Note_off_c, 0, 73, 0
2, 48720, Note_on_c, 0, 75, 81
2, 48960, Note_off_c, 0, 75, 0
2, 48960, Note_on_c, 0, 73, 74
2, 48960, Note_off_c, 0, 56, 0
2, 48960, Note_on_c, 0, 58, 70
2, 48960, Note_on_c, 0, 55, 72
2, 49200, Note_off_c, 0, 73, 0
2, 49200, Note_on_c, 0, 71, 69
2, 49440, Note_off_c, 0, 71, 0
2, 49440, Note_on_c, 0, 73, 81
2, 49440, Note_off_c, 0, 55, 0
2, 49440, Note_on_c, 0, 51, 74
2, 49680, Note_off_c, 0, 73, 0
2, 49680, Note_on_c, 0, 75, 81
2, 49920, Note_off_c, 0, 75, 0
2, 49920, Note_on_c, 0, 71, 73
2, 49920, Note_off_c, 0, 51, 0
2, 49920, Note_on_c, 0, 44, 68
2, 50160, Note_off_c, 0, 71, 0
2, 50160, Note_on_c, 0, 70, 70
2, 50400, Note_off_c, 0, 70, 0
2, 50400, Note_on_c, 0, 71, 79
2, 50400, Note_off_c, 0, 44, 0
2, 50400, Note_on_c, 0, 46, 79
2, 50640, Note_off_c, 0, 71, 0
2, 50640, Note_on_c, 0, 73, 77
2, 50880, Note_off_c, 0, 73, 0
2, 50880, Note_on_c, 0, 75, 85
2, 50880, Note_off_c, 0, 58, 0
2, 50880, Note_off_c, 0, 46, 0
2, 50880, Note_on_c, 0, 56, 76
2, 50880, Note_on_c, 0, 47, 79
2, 51120, Note_off_c, 0, 75, 0
2, 51120, Note_on_c, 0, 76, 81
2, 51360, Note_off_c, 0, 76, 0
2, 51360, Note_on_c, 0, 78, 86
2, 51360, Note_off_c, 0, 47, 0
2, 51360, Note_on_c, 0, 46, 75
2, 51600, Note_off_c, 0, 78, 0
2, 51600, Note_on_c, 0, 75, 68
2, 51840, Note_off_c, 0, 75, 0
2, 51840, Note_on_c, 0, 71, 71
2, 51840, Note_off_c, 0, 56, 0
2, 51840, Note_off_c, 0, 46, 0
2, 51840, Note_on_c, 0, 44, 69
2, 52080, Note_off_c, 0, 71, 0
2, 52080, Note_on_c, 0, 69, 70
2, 52320, Note_off_c, 0, 69, 0
2, 52320, Note_on_c, 0, 71, 74
2, 52320, Note_off_c, 0, 44, 0
2, 52320, Note_on_c, 0, 54, 86
2, 52560, Note_off_c, 0, 71, 0
2, 52560, Note_on_c, 0, 73, 82
2, 52800, Note_off_c, 0, 73, 0
2, 52800, Note_on_c, 0, 71, 71
2, 52800, Note_off_c, 0, 54, 0
2, 52800, Note_on_c, 0, 56, 70
2, 52800, Note_on_c, 0, 53, 79
2, 53040, Note_off_c, 0, 71, 0
2, 53040, Note_on_c, 0, 69, 66
2, 53280, Note_off_c, 0, 69, 0
2, 53280, Note_on_c, 0, 71, 79
2, 53280, Note_off_c, 0, 53, 0
2, 53280, Note_on_c, 0, 49, 73
2, 53520, Note_off_c, 0, 71, 0
2, 53520, Note_on_c, 0, 73, 78
2, 53760, Note_off_c, 0, 73, 0
2, 53760, Note_on_c, 0, 69, 70
2, 53760, Note_off_c, 0, 49, 0
2, 53760, Note_on_c, 0, 42, 71
2, 54000, Note_off_c, 0, 69, 0
2, 54000, Note_on_c, 0, 68, 71
2, 54240, Note_off_c, 0, 68, 0
2, 54240, Note_on_c, 0, 69, 83
2, 54240, Note_off_c, 0, 42, 0
2, 54240, Note_on_c, 0, 44, 73
2, 54480, Note_off_c, 0, 69, 0
2, 54480, Note_on_c, 0, 71, 80
2, 54720, Note_off_c, 0, 71, 0
2, 54720, Note_on_c, 0, 73, 80
2, 54720, Note_off_c, 0, 56, 0
2, 54720, Note_off_c, 0, 44, 0
2, 54720, Note_on_c, 0, 54, 72
2, 54720, Note_on_c, 0, 45, 80
2, 54960, Note_off_c, 0, 73, 0
2, 54960, Note_on_c, 0, 75, 81
2, 55200, Note_off_c, 0, 75, 0
2, 55200, Note_on_c, 0, 76, 79
2, 55200, Note_off_c, 0, 45, 0
2, 55200, Note_on_c, 0, 44, 73
2, 55440, Note_off_c, 0, 76, 0
2, 55440, Note_on_c, 0, 73, 72
2, 55680, Note_off_c, 0, 73, 0
2, 55680, Note_on_c, 0, 75, 85
2, 55680, Note_off_c, 0, 54, 0
2, 55680, Note_off_c, 0, 44, 0
2, 55680, Note_on_c, 0, 42, 75
2, 55920, Note_off_c, 0, 75, 0
2, 55920, Note_on_c, 0, 73, 73
2, 56160, Note_off_c, 0, 73, 0
2, 56160, Note_on_c, 0, 75, 78
2, 56160, Note_off_c, 0, 42, 0
2, 56160, Note_on_c, 0, 52, 77
2, 56400, Note_off_c, 0, 75, 0
2, 56400, Note_on_c, 0, 76, 74
2, 56640, Note_off_c, 0, 76, 0
2, 56640, Note_on_c, 0, 78, 82
2, 56640, Note_off_c, 0, 52, 0
2, 56640, Note_on_c, 0, 54, 65
2, 56640, Note_on_c, 0, 51, 73
2, 56880, Note_off_c, 0, 78, 0
2, 56880, Note_on_c, 0, 80, 81
2, 57120, Note_off_c, 0, 80, 0
2, 57120, Note_on_c, 0, 81, 81
2, 57120, Note_off_c, 0, 51, 0
2, 57120, Note_on_c, 0, 49, 70
2, 57360, Note_off_c, 0, 81, 0
2, 57360, Note_on_c, 0, 78, 74
2, 57600, Note_off_c, 0, 78, 0
2, 57600, Note_on_c, 0, 80, 83
2, 57600, Note_off_c, 0, 49, 0
2, 57600, Note_on_c, 0, 48, 77
2, 57840, Note_off_c, 0, 80, 0
2, 57840, Note_on_c, 0, 78, 72
2, 58080, Note_off_c, 0, 78, 0
2, 58080, Note_on_c, 0, 76, 70
2, 58080, Note_off_c, 0, 48, 0
2, 58080, Note_on_c, 0, 44, 70
2, 58320, Note_off_c, 0, 76, 0
2, 58320, Note_on_c, 0, 75, 77
2, 58560, Note_off_c, 0, 75, 0
2, 58560, Note_on_c, 0, 73, 75
2, 58560, Note_off_c, 0, 54, 0
2, 58560, Note_off_c, 0, 44, 0
2, 58560, Note_on_c, 0, 52, 76
2, 58560, Note_on_c, 0, 45, 80
2, 58800, Note_off_c, 0, 73, 0
2, 58800, Note_on_c, 0, 71, 71
2, 59040, Note_off_c, 0, 71, 0
2, 59040, Note_on_c, 0, 69, 72
2, 59040, Note_off_c, 0, 52, 0
2, 59040, Note_off_c, 0, 45, 0
2, 59040, Note_on_c, 0, 61, 94
2, 59040, Note_on_c, 0, 52, 81
2, 59280, Note_off_c, 0, 69, 0
2, 59280, Note_on_c, 0, 68, 69
2, 59520, Note_off_c, 0, 68, 0
2, 59520, Note_on_c, 0, 66, 71
2, 59520, Note_off_c, 0, 61, 0
2, 59520, Note_off_c, 0, 52, 0
2, 59520, Note_on_c, 0, 63, 84
2, 59520, Note_on_c, 0, 54, 81
2, 59760, Note_off_c, 0, 66, 0
2, 59760, Note_on_c, 0, 68, 76
2, 60000, Note_off_c, 0, 68, 0
2, 60000, Note_on_c, 0, 69, 82
2, 60000, Note_off_c, 0, 54, 0
2, 60000, Note_on_c, 0, 52, 72
2, 60240, Note_off_c, 0, 69, 0
2, 60240, Note_on_c, 0, 66, 71
2, 60240, Note_off_c, 0, 52, 0
2, 60240, Note_on_c, 0, 54, 80
2, 60480, Note_off_c, 0, 66, 0
2, 60480, Note_on_c, 0, 63, 69
2, 60480, Note_off_c, 0, 63, 0
2, 60480, Note_off_c, 0, 54, 0
2, 60480, Note_on_c, 0, 56, 79
2, 60720, Note_on_c, 0, 56, 69
2, 60960, Note_off_c, 0, 63, 0
2, 60960, Note_on_c, 0, 68, 87
2, 60960, Note_off_c, 0, 56, 0
2, 60960, Note_on_c, 0, 58, 78
2, 61200, Note_off_c, 0, 58, 0
2, 61200, Note_on_c, 0, 60, 84
2, 61440, Note_off_c, 0, 68, 0
2, 61440, Note_on_c, 0, 64, 70
2, 61440, Note_on_c, 0, 61, 75
2, 61440, Note_off_c, 0, 56, 0
2, 61440, Note_off_c, 0, 60, 0
2, 61440, Note_on_c, 0, 49, 68
2, 61680, Note_off_c, 0, 61, 0
2, 61680, Note_on_c, 0, 60, 71
2, 61920, Note_off_c, 0, 64, 0
2, 61920, Note_off_c, 0, 60, 0
2, 61920, Note_on_c, 0, 68, 82
2, 61920, Note_on_c, 0, 61, 82
2, 61920, Note_off_c, 0, 49, 0
2, 62160, Note_off_c, 0, 61, 0
2, 62160, Note_on_c, 0, 63, 79
2, 62400, Note_off_c, 0, 68, 0
2, 62400, Note_off_c, 0, 63, 0
2, 62400, Note_on_c, 0, 73, 86
2, 62400, Note_on_c, 0, 64, 78
2, 62640, Note_off_c, 0, 64, 0
2, 62640, Note_on_c, 0, 66, 82
2, 62880, Note_off_c, 0, 73, 0
2, 62880, Note_off_c, 0, 66, 0
2, 62880, Note_on_c, 0, 71, 72
2, 62880, Note_on_c, 0, 68, 84
2, 63120, Note_off_c, 0, 68, 0
2, 63120, Note_on_c, 0, 64, 69
2, 63360, Note_off_c, 0, 71, 0
2, 63360, Note_off_c, 0, 64, 0
2, 63360, Note_on_c, 0, 76, 91
2, 63360, Note_on_c, 0, 61, 65
2, 63600, Note_off_c, 0, 76, 0
2, 63600, Note_off_c, 0, 61, 0
2, 63600, Note_on_c, 0, 75, 75
2, 63600, Note_on_c, 0, 59, 68
2, 63840, Note_off_c, 0, 75, 0
2, 63840, Note_off_c, 0, 59, 0
2, 63840, Note_on_c, 0, 73, 75
2, 63840, Note_on_c, 0, 61, 87
2, 64080, Note_off_c, 0, 73, 0
2, 64080, Note_off_c, 0, 61, 0
2, 64080, Note_on_c, 0, 71, 68
2, 64080, Note_on_c, 0, 63, 82
2, 64320, Note_off_c, 0, 71, 0
2, 64320, Note_off_c, 0, 63, 0
2, 64320, Note_on_c, 0, 69, 72
2, 64320, Note_on_c, 0, 61, 73
2, 64560, Note_off_c, 0, 61, 0
2, 64560, Note_on_c, 0, 59, 70
2, 64800, Note_off_c, 0, 59, 0
2, 64800, Note_on_c, 0, 61, 77
2, 65040, Note_off_c, 0, 61, 0
2, 65040, Note_on_c, 0, 63, 84
2, 65280, Note_off_c, 0, 63, 0
2, 65280, Note_on_c, 0, 59, 69
2, 65520, Note_off_c, 0, 59, 0
2, 65520, Note_on_c, 0, 56, 72
2, 65760, Note_off_c, 0, 69, 0
2, 65760, Note_on_c, 0, 63, 67
2, 65760, Note_off_c, 0, 56, 0
2, 65760, Note_on_c, 0, 57, 82
2, 66000, Note_off_c, 0, 57, 0
2, 66000, Note_on_c, 0, 59, 82
2, 66240, Note_off_c, 0, 63, 0
2, 66240, Note_on_c, 0, 69, 86
2, 66240, Note_off_c, 0, 59, 0
2, 66240, Note_on_c, 0, 61, 84
2, 66480, Note_off_c, 0, 61, 0
2, 66480, Note_on_c, 0, 63, 81
2, 66720, Note_off_c, 0, 69, 0
2, 66720, Note_on_c, 0, 68, 74
2, 66720, Note_off_c, 0, 63, 0
2, 66720, Note_on_c, 0, 64, 79
2, 66960, Note_off_c, 0, 64, 0
2, 66960, Note_on_c, 0, 61, 70
2, 67200, Note_off_c, 0, 68, 0
2, 67200, Note_on_c, 0, 73, 92
2, 67200, Note_off_c, 0, 61, 0
2, 67200, Note_on_c, 0, 57, 73
2, 67440, Note_off_c, 0, 73, 0
2, 67440, Note_on_c, 0, 71, 73
2, 67440, Note_off_c, 0, 57, 0
2, 67440, Note_on_c, 0, 56, 73
2, 67680, Note_off_c, 0, 71, 0
2, 67680, Note_on_c, 0, 69, 73
2, 67680, Note_off_c, 0, 56, 0
2, 67680, Note_on_c, 0, 57, 80
2, 67920, Note_off_c, 0, 69, 0
2, 67920, Note_on_c, 0, 68, 71
2, 67920, Note_off_c, 0, 57, 0
2, 67920, Note_on_c, 0, 59, 76
2, 68160, Note_off_c, 0, 68, 0
2, 68160, Note_on_c, 0, 66, 71
2, 68160, Note_off_c, 0, 59, 0
2, 68160, Note_on_c, 0, 57, 73
2, 68400, Note_off_c, 0, 57, 0
2, 68400, Note_on_c, 0, 56, 72
2, 68640, Note_off_c, 0, 56, 0
2, 68640, Note_on_c, 0, 57, 78
2, 68880, Note_off_c, 0, 57, 0
2, 68880, Note_on_c, 0, 59, 77
2, 69120, Note_off_c, 0, 59, 0
2, 69120, Note_on_c, 0, 56, 69
2, 69360, Note_off_c, 0, 56, 0
2, 69360, Note_on_c, 0, 54, 73
2, 69600, Note_off_c, 0, 66, 0
2, 69600, Note_on_c, 0, 64, 66
2, 69600, Note_off_c, 0, 54, 0
2, 69600, Note_on_c, 0, 56, 77
2, 69840, Note_off_c, 0, 64, 0
2, 69840, Note_on_c, 0, 63, 72
2, 69840, Note_off_c, 0, 56, 0
2, 69840, Note_on_c, 0, 57, 76
2, 70080, Note_off_c, 0, 63, 0
2, 70080, Note_on_c, 0, 64, 80
2, 70080, Note_off_c, 0, 57, 0
2, 70080, Note_on_c, 0, 56, 74
2, 70320, Note_off_c, 0, 64, 0
2, 70320, Note_on_c, 0, 66, 77
2, 70560, Note_off_c, 0, 66, 0
2, 70560, Note_on_c, 0, 68, 84
2, 70560, Note_off_c, 0, 56, 0
2, 70560, Note_on_c, 0, 59, 80
2, 70560, Note_on_c, 0, 52, 71
2, 70800, Note_off_c, 0, 68, 0
2, 70800, Note_on_c, 0, 64, 68
2, 71040, Note_off_c, 0, 64, 0
2, 71040, Note_on_c, 0, 61, 64
2, 71040, Note_off_c, 0, 52, 0
2, 71040, Note_on_c, 0, 54, 77
2, 71280, Note_off_c, 0, 61, 0
2, 71280, Note_on_c, 0, 68, 84
2, 71520, Note_off_c, 0, 68, 0
2, 71520, Note_on_c, 0, 66, 75
2, 71520, Note_off_c, 0, 59, 0
2, 71520, Note_on_c, 0, 57, 74
2, 71760, Note_off_c, 0, 66, 0
2, 71760, Note_on_c, 0, 64, 73
2, 71760, Note_off_c, 0, 57, 0
2, 71760, Note_on_c, 0, 56, 79
2, 72000, Note_off_c, 0, 64, 0
2, 72000, Note_on_c, 0, 63, 72
2, 72000, Note_off_c, 0, 54, 0
2, 72000, Note_off_c, 0, 56, 0
2, 72000, Note_on_c, 0, 57, 78
2, 72240, Note_off_c, 0, 57, 0
2, 72240, Note_on_c, 0, 61, 81
2, 72240, Note_on_c, 0, 47, 67
2, 72480, Note_off_c, 0, 63, 0
2, 72480, Note_off_c, 0, 61, 0
2, 72480, Note_off_c, 0, 47, 0
2, 72480, Note_on_c, 0, 59, 79
2, 72480, Note_on_c, 0, 49, 79
2, 72720, Note_off_c, 0, 59, 0
2, 72720, Note_off_c, 0, 49, 0
2, 72720, Note_on_c, 0, 57, 69
2, 72720, Note_on_c, 0, 51, 81
2, 72960, Note_on_c, 0, 56, 70
2, 72960, Note_off_c, 0, 57, 0
2, 72960, Note_off_c, 0, 51, 0
2, 72960, Note_on_c, 0, 52, 77
2, 73200, Note_off_c, 0, 56, 0
2, 73200, Note_on_c, 0, 59, 77
2, 73200, Note_off_c, 0, 52, 0
2, 73200, Note_on_c, 0, 51, 78
2, 73440, Note_off_c, 0, 59, 0
2, 73440, Note_on_c, 0, 61, 79
2, 73440, Note_off_c, 0, 51, 0
2, 73440, Note_on_c, 0, 52, 80
2, 73680, Note_off_c, 0, 61, 0
2, 73680, Note_on_c, 0, 63, 78
2, 73680, Note_off_c, 0, 52, 0
2, 73680, Note_on_c, 0, 54, 80
2, 73920, Note_off_c, 0, 63, 0
2, 73920, Note_on_c, 0, 64, 65
2, 73920, Note_off_c, 0, 54, 0
2, 73920, Note_on_c, 0, 56, 79
2, 74160, Note_off_c, 0, 64, 0
2, 74160, Note_on_c, 0, 66, 78
2, 74160, Note_off_c, 0, 56, 0
2, 74160, Note_on_c, 0, 57, 76
2, 74400, Note_off_c, 0, 66, 0
2, 74400, Note_on_c, 0, 71, 70
2, 74400, Note_on_c, 0, 68, 78
2, 74400, Note_off_c, 0, 57, 0
2, 74400, Note_on_c, 0, 59, 81
2, 74640, Note_on_c, 0, 64, 74
2, 74640, Note_off_c, 0, 59, 0
2, 74640, Note_on_c, 0, 56, 75
2, 74644, Note_off_c, 0, 68, 0
2, 74880, Note_on_c, 0, 73, 73
2, 74880, Note_on_c, 0, 61, 72
2, 74880, Note_off_c, 0, 56, 0
2, 74880, Note_on_c, 0, 52, 67
2, 74884, Note_off_c, 0, 64, 0
2, 74888, Note_off_c, 0, 71, 0
2, 75120, Note_off_c, 0, 52, 0
2, 75120, Note_on_c, 0, 51, 74
2, 75334, Note_off_c, 0, 61, 0
2, 75360, Note_off_c, 0, 51, 0
2, 75360, Note_on_c, 0, 52, 79
2, 75600, Note_off_c, 0, 52, 0
2, 75600, Note_on_c, 0, 54, 78
2, 75791, Note_off_c, 0, 73, 0
2, 75840, Note_off_c, 0, 54, 0
2, 75840, Note_on_c, 0, 52, 74
2, 76080, Note_on_c, 0, 66, 66
2, 76080, Note_off_c, 0, 52, 0
2, 76080, Note_on_c, 0, 51, 74
2, 76320, Note_off_c, 0, 66, 0
2, 76320, Note_on_c, 0, 68, 77
2, 76320, Note_off_c, 0, 51, 0
2, 76320, Note_on_c, 0, 52, 78
2, 76560, Note_off_c, 0, 68, 0
2, 76560, Note_on_c, 0, 70, 82
2, 76560, Note_off_c, 0, 52, 0
2, 76560, Note_on_c, 0, 54, 76
2, 76800, Note_off_c, 0, 70, 0
2, 76800, Note_on_c, 0, 71, 82
2, 76800, Note_off_c, 0, 54, 0
2, 76800, Note_on_c, 0, 51, 70
2, 77040, Note_off_c, 0, 71, 0
2, 77040, Note_on_c, 0, 70, 78
2, 77280, Note_off_c, 0, 70, 0
2, 77280, Note_on_c, 0, 71, 83
2, 77280, Note_off_c, 0, 51, 0
2, 77280, Note_on_c, 0, 54, 82
2, 77520, Note_off_c, 0, 71, 0
2, 77520, Note_on_c, 0, 73, 85
2, 77760, Note_off_c, 0, 73, 0
2, 77760, Note_on_c, 0, 75, 83
2, 77760, Note_off_c, 0, 54, 0
2, 77760, Note_on_c, 0, 47, 72
2, 78000, Note_off_c, 0, 75, 0
2, 78000, Note_on_c, 0, 76, 82
2, 78240, Note_off_c, 0, 76, 0
2, 78240, Note_on_c, 0, 78, 83
2, 78240, Note_on_c, 0, 64, 68
2, 78240, Note_off_c, 0, 47, 0
2, 78240, Note_on_c, 0, 52, 82
2, 78480, Note_off_c, 0, 78, 0
2, 78480, Note_on_c, 0, 80, 81
2, 78720, Note_off_c, 0, 64, 0
2, 78720, Note_off_c, 0, 80, 0
2, 78720, Note_on_c, 0, 69, 57
2, 78720, Note_on_c, 0, 66, 77
2, 78960, Note_off_c, 0, 69, 0
2, 78960, Note_on_c, 0, 68, 70
2, 79200, Note_off_c, 0, 68, 0
2, 79200, Note_on_c, 0, 69, 78
2, 79200, Note_off_c, 0, 52, 0
2, 79200, Note_on_c, 0, 51, 75
2, 79440, Note_off_c, 0, 69, 0
2, 79440, Note_on_c, 0, 71, 79
2, 79440, Note_off_c, 0, 51, 0
2, 79440, Note_on_c, 0, 49, 74
2, 79680, Note_off_c, 0, 66, 0
2, 79680, Note_off_c, 0, 71, 0
2, 79680, Note_on_c, 0, 69, 74
2, 79680, Note_off_c, 0, 49, 0
2, 79680, Note_on_c, 0, 51, 79
2, 79920, Note_off_c, 0, 69, 0
2, 79920, Note_on_c, 0, 68, 66
2, 79920, Note_on_c, 0, 59, 73
2, 80160, Note_off_c, 0, 68, 0
2, 80160, Note_off_c, 0, 59, 0
2, 80160, Note_on_c, 0, 69, 82
2, 80160, Note_on_c, 0, 61, 80
2, 80160, Note_off_c, 0, 51, 0
2, 80160, Note_on_c, 0, 59, 85
2, 80400, Note_off_c, 0, 69, 0
2, 80400, Note_off_c, 0, 61, 0
2, 80400, Note_on_c, 0, 71, 81
2, 80400, Note_on_c, 0, 63, 88
2, 80640, Note_off_c, 0, 71, 0
2, 80640, Note_off_c, 0, 63, 0
2, 80640, Note_on_c, 0, 68, 67
2, 80640, Note_on_c, 0, 64, 83
2, 80640, Note_off_c, 0, 59, 0
2, 80640, Note_on_c, 0, 61, 82
2, 80880, Note_off_c, 0, 68, 0
2, 80880, Note_off_c, 0, 64, 0
2, 80880, Note_on_c, 0, 66, 72
2, 80880, Note_on_c, 0, 63, 73
2, 81120, Note_off_c, 0, 66, 0
2, 81120, Note_off_c, 0, 63, 0
2, 81120, Note_on_c, 0, 68, 82
2, 81120, Note_on_c, 0, 64, 81
2, 81360, Note_off_c, 0, 68, 0
2, 81360, Note_off_c, 0, 64, 0
2, 81360, Note_on_c, 0, 69, 82
2, 81360, Note_on_c, 0, 66, 84
2, 81600, Note_off_c, 0, 69, 0
2, 81600, Note_off_c, 0, 66, 0
2, 81600, Note_on_c, 0, 71, 80
2, 81600, Note_on_c, 0, 68, 83
2, 81600, Note_off_c, 0, 61, 0
2, 81840, Note_off_c, 0, 71, 0
2, 81840, Note_off_c, 0, 68, 0
2, 81840, Note_on_c, 0, 73, 80
2, 81840, Note_on_c, 0, 69, 81
2, 82080, Note_off_c, 0, 73, 0
2, 82080, Note_off_c, 0, 69, 0
2, 82080, Note_on_c, 0, 74, 79
2, 82080, Note_on_c, 0, 71, 81
2, 82080, Note_on_c, 0, 56, 67
2, 82320, Note_off_c, 0, 71, 0
2, 82320, Note_on_c, 0, 68, 67
2, 82560, Note_off_c, 0, 68, 0
2, 82560, Note_on_c, 0, 64, 63
2, 82560, Note_off_c, 0, 56, 0
2, 82560, Note_on_c, 0, 57, 75
2, 82800, Note_off_c, 0, 64, 0
2, 82800, Note_on_c, 0, 63, 71
2, 83040, Note_off_c, 0, 74, 0
2, 83040, Note_off_c, 0, 63, 0
2, 83040, Note_on_c, 0, 73, 75
2, 83040, Note_on_c, 0, 64, 81
2, 83040, Note_off_c, 0, 57, 0
2, 83040, Note_on_c, 0, 56, 79
2, 83280, Note_off_c, 0, 73, 0
2, 83280, Note_off_c, 0, 64, 0
2, 83280, Note_on_c, 0, 71, 73
2, 83280, Note_on_c, 0, 66, 82
2, 83520, Note_off_c, 0, 71, 0
2, 83520, Note_off_c, 0, 66, 0
2, 83520, Note_on_c, 0, 73, 84
2, 83520, Note_on_c, 0, 64, 70
2, 83520, Note_off_c, 0, 56, 0
2, 83520, Note_on_c, 0, 57, 75
2, 83760, Note_off_c, 0, 64, 0
2, 83760, Note_on_c, 0, 63, 69
2, 84000, Note_off_c, 0, 63, 0
2, 84000, Note_on_c, 0, 64, 83
2, 84000, Note_off_c, 0, 57, 0
2, 84000, Note_on_c, 0, 52, 73
2, 84240, Note_off_c, 0, 64, 0
2, 84240, Note_on_c, 0, 66, 82
2, 84480, Note_off_c, 0, 66, 0
2, 84480, Note_on_c, 0, 63, 69
2, 84480, Note_off_c, 0, 52, 0
2, 84480, Note_on_c, 0, 54, 82
2, 84720, Note_off_c, 0, 63, 0
2, 84720, Note_on_c, 0, 61, 77
2, 84960, Note_off_c, 0, 61, 0
2, 84960, Note_on_c, 0, 63, 79
2, 84960, Note_off_c, 0, 54, 0
2, 84960, Note_on_c, 0, 51, 70
2, 85200, Note_off_c, 0, 63, 0
2, 85200, Note_on_c, 0, 64, 81
2, 85440, Note_off_c, 0, 73, 0
2, 85440, Note_off_c, 0, 64, 0
2, 85440, Note_on_c, 0, 71, 68
2, 85440, Note_on_c, 0, 66, 76
2, 85440, Note_off_c, 0, 51, 0
2, 85440, Note_on_c, 0, 56, 78
2, 85680, Note_off_c, 0, 66, 0
2, 85680, Note_on_c, 0, 68, 81
2, 85920, Note_off_c, 0, 68, 0
2, 85920, Note_on_c, 0, 69, 82
2, 85920, Note_off_c, 0, 56, 0
2, 85920, Note_on_c, 0, 54, 72
2, 86160, Note_off_c, 0, 69, 0
2, 86160, Note_on_c, 0, 66, 67
2, 86400, Note_off_c, 0, 71, 0
2, 86400, Note_off_c, 0, 66, 0
2, 86400, Note_on_c, 0, 62, 68
2, 86400, Note_off_c, 0, 54, 0
2, 86400, Note_on_c, 0, 52, 78
2, 86640, Note_off_c, 0, 62, 0
2, 86640, Note_on_c, 0, 61, 76
2, 86880, Note_off_c, 0, 61, 0
2, 86880, Note_on_c, 0, 62, 75
2, 86880, Note_off_c, 0, 52, 0
2, 86880, Note_on_c, 0, 54, 76
2, 87120, Note_off_c, 0, 62, 0
2, 87120, Note_on_c, 0, 64, 77
2, 87360, Note_off_c, 0, 64, 0
2, 87360, Note_on_c, 0, 71, 66
2, 87360, Note_on_c, 0, 62, 70
2, 87360, Note_off_c, 0, 54, 0
2, 87360, Note_on_c, 0, 56, 77
2, 87600, Note_off_c, 0, 62, 0
2, 87600, Note_on_c, 0, 61, 70
2, 87840, Note_off_c, 0, 61, 0
2, 87840, Note_on_c, 0, 62, 81
2, 87840, Note_off_c, 0, 56, 0
2, 87840, Note_on_c, 0, 52, 70
2, 88080, Note_off_c, 0, 62, 0
2, 88080, Note_on_c, 0, 64, 79
2, 88320, Note_off_c, 0, 64, 0
2, 88320, Note_on_c, 0, 61, 68
2, 88320, Note_off_c, 0, 52, 0
2, 88320, Note_on_c, 0, 57, 81
2, 88560, Note_off_c, 0, 61, 0
2, 88560, Note_on_c, 0, 59, 71
2, 88800, Note_off_c, 0, 59, 0
2, 88800, Note_on_c, 0, 61, 81
2, 88800, Note_off_c, 0, 57, 0
2, 88800, Note_on_c, 0, 59, 78
2, 89040, Note_off_c, 0, 61, 0
2, 89040, Note_on_c, 0, 62, 78
2, 89280, Note_off_c, 0, 71, 0
2, 89280, Note_off_c, 0, 62, 0
2, 89280, Note_on_c, 0, 69, 70
2, 89280, Note_on_c, 0, 64, 88
2, 89280, Note_off_c, 0, 59, 0
2, 89280, Note_on_c, 0, 61, 84
2, 89520, Note_off_c, 0, 64, 0
2, 89520, Note_on_c, 0, 66, 86
2, 89760, Note_off_c, 0, 66, 0
2, 89760, Note_on_c, 0, 68, 83
2, 89760, Note_off_c, 0, 61, 0
2, 89760, Note_on_c, 0, 59, 69
2, 90000, Note_off_c, 0, 68, 0
2, 90000, Note_on_c, 0, 64, 70
2, 90240, Note_off_c, 0, 69, 0
2, 90240, Note_off_c, 0, 64, 0
2, 90240, Note_on_c, 0, 61, 68
2, 90240, Note_off_c, 0, 59, 0
2, 90240, Note_on_c, 0, 57, 73
2, 90480, Note_off_c, 0, 61, 0
2, 90480, Note_on_c, 0, 59, 74
2, 90720, Note_off_c, 0, 59, 0
2, 90720, Note_on_c, 0, 61, 82
2, 90720, Note_off_c, 0, 57, 0
2, 90720, Note_on_c, 0, 52, 71
2, 90960, Note_off_c, 0, 61, 0
2, 90960, Note_on_c, 0, 62, 82
2, 91200, Note_off_c, 0, 62, 0
2, 91200, Note_on_c, 0, 69, 69
2, 91200, Note_on_c, 0, 61, 75
2, 91200, Note_off_c, 0, 52, 0
2, 91200, Note_on_c, 0, 54, 81
2, 91440, Note_off_c, 0, 61, 0
2, 91440, Note_on_c, 0, 59, 72
2, 91680, Note_off_c, 0, 59, 0
2, 91680, Note_on_c, 0, 61, 83
2, 91680, Note_off_c, 0, 54, 0
2, 91680, Note_on_c, 0, 49, 73
2, 91920, Note_off_c, 0, 61, 0
2, 91920, Note_on_c, 0, 62, 77
2, 92160, Note_off_c, 0, 62, 0
2, 92160, Note_on_c, 0, 59, 69
2, 92160, Note_off_c, 0, 49, 0
2, 92160, Note_on_c, 0, 51, 71
2, 92400, Note_off_c, 0, 59, 0
2, 92400, Note_on_c, 0, 57, 74
2, 92640, Note_off_c, 0, 57, 0
2, 92640, Note_on_c, 0, 59, 79
2, 92640, Note_off_c, 0, 51, 0
2, 92640, Note_on_c, 0, 47, 76
2, 92880, Note_off_c, 0, 59, 0
2, 92880, Note_on_c, 0, 61, 85
2, 93120, Note_off_c, 0, 69, 0
2, 93120, Note_off_c, 0, 61, 0
2, 93120, Note_on_c, 0, 68, 66
2, 93120, Note_off_c, 0, 47, 0
2, 93120, Note_on_c, 0, 59, 66
2, 93120, Note_on_c, 0, 52, 76
2, 93360, Note_off_c, 0, 59, 0
2, 93360, Note_on_c, 0, 57, 69
2, 93600, Note_off_c, 0, 68, 0
2, 93600, Note_on_c, 0, 76, 86
2, 93600, Note_off_c, 0, 57, 0
2, 93600, Note_on_c, 0, 59, 81
2, 93840, Note_off_c, 0, 59, 0
2, 93840, Note_on_c, 0, 61, 79
2, 94080, Note_off_c, 0, 76, 0
2, 94080, Note_on_c, 0, 78, 87
2, 94080, Note_off_c, 0, 61, 0
2, 94080, Note_on_c, 0, 57, 72
2, 94320, Note_off_c, 0, 57, 0
2, 94320, Note_on_c, 0, 56, 74
2, 94560, Note_off_c, 0, 56, 0
2, 94560, Note_on_c, 0, 57, 74
2, 94800, Note_off_c, 0, 57, 0
2, 94800, Note_on_c, 0, 59, 77
2, 95040, Note_off_c, 0, 78, 0
2, 95040, Note_off_c, 0, 52, 0
2, 95040, Note_off_c, 0, 59, 0
2, 95040, Note_on_c, 0, 57, 79
2, 95040, Note_on_c, 0, 51, 75
2, 95280, Note_on_c, 0, 71, 74
2, 95280, Note_off_c, 0, 57, 0
2, 95280, Note_on_c, 0, 56, 72
2, 95520, Note_off_c, 0, 71, 0
2, 95520, Note_on_c, 0, 73, 79
2, 95520, Note_off_c, 0, 56, 0
2, 95520, Note_on_c, 0, 57, 77
2, 95760, Note_off_c, 0, 73, 0
2, 95760, Note_on_c, 0, 75, 83
2, 95760, Note_off_c, 0, 57, 0
2, 95760, Note_on_c, 0, 59, 75
2, 96000, Note_off_c, 0, 75, 0
2, 96000, Note_on_c, 0, 76, 79
2, 96000, Note_off_c, 0, 59, 0
2, 96000, Note_on_c, 0, 56, 73
2, 96240, Note_off_c, 0, 76, 0
2, 96240, Note_on_c, 0, 75, 70
2, 96480, Note_off_c, 0, 75, 0
2, 96480, Note_on_c, 0, 76, 81
2, 96480, Note_off_c, 0, 56, 0
2, 96480, Note_on_c, 0, 59, 74
2, 96720, Note_off_c, 0, 76, 0
2, 96720, Note_on_c, 0, 78, 87
2, 96960, Note_off_c, 0, 78, 0
2, 96960, Note_on_c, 0, 80, 80
2, 96960, Note_off_c, 0, 51, 0
2, 96960, Note_off_c, 0, 59, 0
2, 96960, Note_on_c, 0, 52, 71
2, 96960, Note_on_c, 0, 49, 71
2, 97200, Note_off_c, 0, 80, 0
2, 97200, Note_on_c, 0, 81, 81
2, 97440, Note_off_c, 0, 81, 0
2, 97440, Note_on_c, 0, 83, 84
2, 97440, Note_off_c, 0, 52, 0
2, 97440, Note_on_c, 0, 56, 78
2, 97680, Note_off_c, 0, 83, 0
2, 97680, Note_on_c, 0, 80, 70
2, 97920, Note_off_c, 0, 80, 0
2, 97920, Note_on_c, 0, 81, 78
2, 97920, Note_off_c, 0, 49, 0
2, 97920, Note_on_c, 0, 42, 72
2, 98160, Note_off_c, 0, 81, 0
2, 98160, Note_on_c, 0, 80, 74
2, 98400, Note_off_c, 0, 80, 0
2, 98400, Note_on_c, 0, 81, 77
2, 98400, Note_off_c, 0, 56, 0
2, 98400, Note_off_c, 0, 42, 0
2, 98400, Note_on_c, 0, 54, 71
2, 98640, Note_off_c, 0, 81, 0
2, 98640, Note_on_c, 0, 83, 83
2, 98640, Note_on_c, 0, 52, 75
2, 98880, Note_off_c, 0, 83, 0
2, 98880, Note_on_c, 0, 81, 75
2, 98880, Note_off_c, 0, 52, 0
2, 98880, Note_on_c, 0, 51, 75
2, 99120, Note_off_c, 0, 81, 0
2, 99120, Note_on_c, 0, 80, 75
2, 99360, Note_off_c, 0, 80, 0
2, 99360, Note_on_c, 0, 81, 79
2, 99360, Note_off_c, 0, 51, 0
2, 99360, Note_on_c, 0, 47, 73
2, 99600, Note_off_c, 0, 81, 0
2, 99600, Note_on_c, 0, 83, 79
2, 99840, Note_off_c, 0, 83, 0
2, 99840, Note_on_c, 0, 80, 68
2, 99840, Note_off_c, 0, 47, 0
2, 99840, Note_on_c, 0, 52, 82
2, 100080, Note_off_c, 0, 80, 0
2, 100080, Note_on_c, 0, 78, 73
2, 100320, Note_off_c, 0, 78, 0
2, 100320, Note_on_c, 0, 80, 80
2, 100320, Note_off_c, 0, 52, 0
2, 100320, Note_on_c, 0, 47, 72
2, 100560, Note_off_c, 0, 80, 0
2, 100560, Note_on_c, 0, 81, 79
2, 100800, Note_off_c, 0, 81, 0
2, 100800, Note_on_c, 0, 80, 72
2, 100800, Note_off_c, 0, 54, 0
2, 100800, Note_off_c, 0, 47, 0
2, 100800, Note_on_c, 0, 52, 77
2, 100800, Note_on_c, 0, 49, 80
2, 101040, Note_off_c, 0, 80, 0
2, 101040, Note_on_c, 0, 78, 72
2, 101280, Note_off_c, 0, 78, 0
2, 101280, Note_on_c, 0, 76, 73
2, 101280, Note_off_c, 0, 49, 0
2, 101280, Note_on_c, 0, 44, 68
2, 101520, Note_off_c, 0, 76, 0
2, 101520, Note_on_c, 0, 75, 71
2, 101760, Note_off_c, 0, 75, 0
2, 101760, Note_on_c, 0, 73, 71
2, 101760, Note_off_c, 0, 44, 0
2, 101760, Note_on_c, 0, 45, 76
2, 102000, Note_off_c, 0, 73, 0
2, 102000, Note_on_c, 0, 71, 73
2, 102240, Note_off_c, 0, 71, 0
2, 102240, Note_on_c, 0, 73, 77
2, 102240, Note_off_c, 0, 52, 0
2, 102240, Note_off_c, 0, 45, 0
2, 102240, Note_on_c, 0, 68, 97
2, 102240, Note_on_c, 0, 40, 69
2, 102480, Note_off_c, 0, 73, 0
2, 102480, Note_on_c, 0, 74, 80
2, 102720, Note_off_c, 0, 74, 0
2, 102720, Note_on_c, 0, 73, 70
2, 102720, Note_on_c, 0, 69, 70
2, 102720, Note_off_c, 0, 68, 0
2, 102720, Note_off_c, 0, 40, 0
2, 102720, Note_on_c, 0, 42, 74
2, 102960, Note_off_c, 0, 73, 0
2, 102960, Note_on_c, 0, 71, 66
2, 103200, Note_off_c, 0, 71, 0
2, 103200, Note_on_c, 0, 73, 79
2, 103200, Note_off_c, 0, 42, 0
2, 103200, Note_on_c, 0, 37, 69
2, 103440, Note_off_c, 0, 73, 0
2, 103440, Note_on_c, 0, 74, 82
2, 103680, Note_off_c, 0, 74, 0
2, 103680, Note_on_c, 0, 71, 68
2, 103680, Note_off_c, 0, 37, 0
2, 103680, Note_on_c, 0, 39, 69
2, 103920, Note_off_c, 0, 71, 0
2, 103920, Note_on_c, 0, 73, 80
2, 104160, Note_off_c, 0, 73, 0
2, 104160, Note_on_c, 0, 75, 82
2, 104160, Note_off_c, 0, 39, 0
2, 104160, Note_on_c, 0, 59, 85
2, 104400, Note_off_c, 0, 75, 0
2, 104400, Note_on_c, 0, 71, 73
2, 104640, Note_off_c, 0, 69, 0
2, 104640, Note_off_c, 0, 71, 0
2, 104640, Note_on_c, 0, 76, 87
2, 104640, Note_on_c, 0, 68, 72
2, 104640, Note_off_c, 0, 59, 0
2, 104640, Note_on_c, 0, 61, 83
2, 104880, Note_off_c, 0, 68, 0
2, 104880, Note_on_c, 0, 64, 71
2, 105120, Note_off_c, 0, 64, 0
2, 105120, Note_on_c, 0, 66, 80
2, 105360, Note_off_c, 0, 66, 0
2, 105360, Note_on_c, 0, 68, 78
2, 105600, Note_off_c, 0, 68, 0
2, 105600, Note_on_c, 0, 69, 80
2, 105600, Note_off_c, 0, 61, 0
2, 105840, Note_off_c, 0, 69, 0
2, 105840, Note_on_c, 0, 71, 83
2, 105840, Note_on_c, 0, 54, 67
2, 106080, Note_off_c, 0, 71, 0
2, 106080, Note_on_c, 0, 73, 77
2, 106080, Note_off_c, 0, 54, 0
2, 106080, Note_on_c, 0, 56, 76
2, 106320, Note_off_c, 0, 56, 0
2, 106320, Note_on_c, 0, 57, 80
2, 106560, Note_off_c, 0, 76, 0
2, 106560, Note_on_c, 0, 75, 74
2, 106560, Note_off_c, 0, 57, 0
2, 106560, Note_on_c, 0, 59, 80
2, 106800, Note_off_c, 0, 73, 0
2, 106800, Note_on_c, 0, 73, 74
2, 107040, Note_off_c, 0, 73, 0
2, 107040, Note_on_c, 0, 71, 70
2, 107040, Note_off_c, 0, 59, 0
2, 107040, Note_on_c, 0, 47, 65
2, 107280, Note_off_c, 0, 71, 0
2, 107280, Note_on_c, 0, 69, 68
2, 107520, Note_off_c, 0, 75, 0
2, 107520, Note_off_c, 0, 69, 0
2, 107520, Note_on_c, 0, 76, 82
2, 107520, Note_on_c, 0, 68, 72
2, 107520, Note_off_c, 0, 47, 0
2, 107520, Note_on_c, 0, 40, 69
2, 113280, Note_off_c, 0, 76, 0
2, 113280, Note_off_c, 0, 68, 0
2, 113280, Note_off_c, 0, 40, 0
2, 113281, End_track
0, 0, End_of_file